<svg width="200" height="200" viewBox="0 0 200 200" fill="none" xmlns="http://www.w3.org/2000/svg">
<g clip-path="url(#clip0_38_40357)">
<g clip-path="url(#clip1_38_40357)">
<path d="M188.8 93.9701C188.8 70.5429 179.548 48.5365 162.778 31.9809C148.299 17.6868 129.678 8.93065 109.589 6.81408C109.119 6.35018 108.591 5.94426 108.003 5.56734C100.896 1.04427 94.963 4.40758 90.8512 6.37917C90.5575 6.52414 90.2051 6.69811 89.8233 6.87207C82.0696 7.74189 74.639 9.59751 67.6196 12.3229C66.7972 11.1052 65.828 9.94544 64.7413 8.87266C60.4533 4.63953 54.7556 2.29102 48.676 2.29102C36.135 2.29102 25.9437 12.3519 25.9437 24.7324C25.9437 29.9223 27.7059 34.8223 30.9659 38.7945C18.6305 53.9004 11.2 73.0944 11.2 93.9701C11.2 117.397 20.4515 139.404 37.2217 155.959C45.4159 164.049 54.9318 170.34 65.27 174.689C64.6826 179.328 65.4462 182.46 66.2979 183.765C65.0057 184.837 64.4476 185.533 64.242 186.751C62.1862 189.534 67.2084 193.043 69.2643 194.608C73.4936 197.798 75.7257 197.247 79.0151 197.102C83.0682 196.928 86.9156 192.231 89.1184 189.186C93.5239 188.578 94.3462 189.244 94.4637 189.795C95.8441 189.592 97.7531 189.244 100.367 188.172C106.3 185.707 104.626 182.692 104.009 182.141C103.862 181.996 103.715 181.793 103.598 181.561C117.666 181.01 131.176 177.241 143.218 170.601C143.629 171.065 144.07 171.616 144.51 172.225C145.802 174.11 146.507 180.285 146.772 183.475C147.036 186.664 147.594 188.839 149.18 193.854C150.766 198.87 151.383 195.217 151.441 193.854C151.5 192.492 151.794 187.621 151.588 184.084C151.383 180.546 151.324 175.472 151.999 173.298C152.675 171.123 151.441 170.601 151.118 170.195C150.766 169.789 151.118 169.644 150.237 166.861C150.178 166.716 150.149 166.542 150.12 166.368C154.643 163.324 158.901 159.816 162.866 155.93C179.637 139.375 188.888 117.368 188.888 93.9411L188.8 93.9701Z" fill="white"/>
<path d="M188.8 93.9701C188.8 70.5429 179.548 48.5365 162.778 31.9809C148.299 17.6868 129.678 8.93065 109.589 6.81408C109.119 6.35018 108.591 5.94426 108.003 5.56734C100.896 1.04427 94.963 4.40758 90.8512 6.37917C90.5575 6.52414 90.2051 6.69811 89.8233 6.87207C82.0696 7.74189 74.639 9.59751 67.6196 12.3229C66.7972 11.1052 65.828 9.94544 64.7413 8.87266C60.4533 4.63953 54.7556 2.29102 48.676 2.29102C36.135 2.29102 25.9437 12.3519 25.9437 24.7324C25.9437 29.9223 27.7059 34.8223 30.9659 38.7945C18.6305 53.9004 11.2 73.0944 11.2 93.9701C11.2 117.397 20.4515 139.404 37.2217 155.959C45.4159 164.049 54.9318 170.34 65.27 174.689C64.6826 179.328 65.4462 182.46 66.2979 183.765C65.0057 184.837 64.4476 185.533 64.242 186.751C62.1862 189.534 67.2084 193.043 69.2643 194.608C73.4936 197.798 75.7257 197.247 79.0151 197.102C83.0682 196.928 86.9156 192.231 89.1184 189.186C93.5239 188.578 94.3462 189.244 94.4637 189.795C95.8441 189.592 97.7531 189.244 100.367 188.172C106.3 185.707 104.626 182.692 104.009 182.141C103.862 181.996 103.715 181.793 103.598 181.561C117.666 181.01 131.176 177.241 143.218 170.601C143.629 171.065 144.07 171.616 144.51 172.225C145.802 174.11 146.507 180.285 146.772 183.475C147.036 186.664 147.594 188.839 149.18 193.854C150.766 198.87 151.383 195.217 151.441 193.854C151.5 192.492 151.794 187.621 151.588 184.084C151.383 180.546 151.324 175.472 151.999 173.298C152.675 171.123 151.441 170.601 151.118 170.195C150.766 169.789 151.118 169.644 150.237 166.861C150.178 166.716 150.149 166.542 150.12 166.368C154.643 163.324 158.901 159.816 162.866 155.93C179.637 139.375 188.888 117.368 188.888 93.9411L188.8 93.9701Z" fill="#061922"/>
<path d="M79.0153 175.762C82.3047 175.617 86.9158 174.602 89.0011 173.733C89.2654 173.791 89.7353 174.081 90.4108 174.342C90.6752 172.167 89.2654 167.673 88.4724 165.614C87.9438 164.252 87.4445 163.324 86.8277 161.874C84.9774 161.526 82.6866 160.54 81.0418 159.874C81.0418 161.149 81.2768 164.513 81.5705 166.745C80.895 166.803 79.9258 166.89 78.751 166.89C78.8978 169.326 79.1622 173.733 79.0153 175.762Z" fill="#008348"/>
<path d="M141.132 168.572C140.516 167.963 141.896 166.049 142.513 162.541C143.13 159.004 143.188 153.118 140.604 149.813C139.341 148.189 138.724 147.174 138.519 146.449C130.383 152.277 121.073 156.162 111.175 157.815C111.058 158.018 110.94 158.192 110.823 158.337C109.384 160.164 106.564 162.802 104.508 163.904C102.452 164.977 100.044 165.788 98.7517 166.223C98.4873 168.398 98.1349 173.24 98.6929 174.893C98.8985 175.501 101.424 176.98 102.335 178.633C102.423 178.807 102.511 178.952 102.599 179.126C116.609 178.72 129.796 175.009 141.367 168.775C141.309 168.717 141.25 168.659 141.191 168.601L141.132 168.572Z" fill="#008348"/>
<path d="M161.016 33.7496C147.476 20.3834 130.236 12.0331 111.586 9.5686C113.084 12.497 113.319 15.8313 113.437 17.9769C116.109 16.8171 118.165 16.2082 119.281 14.4396C120.368 12.671 121.895 13.0189 122.864 14.2946C123.834 15.5704 123.834 17.194 121.279 18.7597C118.723 20.3254 116.873 21.0792 116.344 21.3402C115.786 21.6011 116.286 22.094 116.902 23.1088C117.519 24.1236 119.076 26.6461 119.369 31.923C119.369 31.981 119.369 32.039 119.369 32.068C129.473 35.1413 138.695 40.5922 146.39 48.1886C158.784 60.4241 165.598 76.6898 165.598 93.9992C165.598 103.944 163.336 113.541 159.078 122.21C159.636 122.5 160.429 124.472 160.664 127.052C160.81 128.415 160.722 129.894 160.311 130.851C159.9 131.807 156.669 136.591 155.025 138.041C154.408 138.592 152.969 138.505 152.352 137.635C151.735 136.765 151.676 137.229 151.177 137.693C150.707 138.157 149.033 140.535 148.651 141.143C148.24 141.752 146.86 142.361 147.77 144.797C148.651 147.232 149.679 149.059 149.356 150.422C149.004 151.784 148.886 152.19 150.737 153.756C152.587 155.322 152.528 157.206 151.706 158.424C151.177 159.178 150.384 161.236 150.061 163.324C171.971 147.87 186.304 122.529 186.304 93.9702C186.304 71.2099 177.316 49.8413 161.016 33.7496V33.7496Z" fill="#008348"/>
<path d="M61.9219 156.858C61.6869 154.568 61.3345 150.421 62.9498 147.464C59.631 145.203 56.5178 142.651 53.6102 139.781C41.2161 127.545 34.4023 111.28 34.4023 93.9701C34.4023 75.4429 42.3321 58.7134 54.9906 46.8838C55.1081 46.6229 55.2549 46.3909 55.4605 46.159C53.3165 46.7968 51.055 47.1447 48.7642 47.1447C42.714 47.1447 37.0456 44.8252 32.7575 40.6211C20.3928 55.727 13.7258 74.3411 13.7258 93.9701C13.7258 116.73 22.713 138.128 39.0133 154.191C46.8257 161.903 55.8717 167.963 65.7106 172.167C66.0924 170.34 66.6505 168.369 67.5022 166.223C68.2658 164.252 67.091 159.729 65.182 157.351C64.154 157.09 62.8617 156.945 61.9513 156.887L61.9219 156.858Z" fill="#008348"/>
<path d="M84.801 10.0906C79.3381 11.0474 74.0516 12.4971 68.9118 14.4397C70.5565 17.571 71.4376 21.0793 71.4376 24.7326C71.4376 29.5456 69.9104 34.1556 67.0615 37.9538C71.8195 35.2284 76.9298 33.0538 82.3339 31.5751C82.6863 31.2272 83.0388 30.9083 83.3912 30.6183C81.394 27.371 78.7214 22.1521 81.071 15.1065C81.7171 13.1349 83.1856 11.4533 84.801 10.0906Z" fill="#008348"/>
<path d="M119.281 35.779C121.19 36.7358 123.364 38.7944 122.512 42.6216C122.159 44.1873 120.838 45.666 120.72 46.2749C120.515 47.2897 118.341 49.0293 117.666 50.363C116.99 51.6968 116.873 52.8565 117.078 53.4364C118.165 54.4512 120.632 55.8139 122.013 56.2778C123.099 56.6547 123.011 56.9447 122.571 57.6405C123.334 57.6985 123.716 58.1624 124.421 59.0033C125.185 59.8731 127.152 59.3512 128.386 58.7423C129.619 58.1334 131.205 57.9305 132.439 59.4092C133.672 60.8879 135.523 63.6713 136.433 66.2518C137.314 68.8322 138.284 70.9198 138.548 71.3257C138.812 71.7316 137.579 79.1831 137.226 82.1695C136.874 85.1559 136.609 86.4316 136.551 86.9245C136.492 87.3884 138.46 85.2428 138.548 87.7943C138.607 89.8529 139.576 96.4345 140.692 101.306C140.986 102.552 141.279 103.683 141.573 104.582C142.395 104.727 143.071 106.35 143.57 108.844C144.04 111.337 145.068 112.903 145.156 114.121C145.215 115.339 145.567 115.542 145.978 115.745C146.39 115.948 146.243 116.556 145.009 117.977C145.274 118.18 145.685 118.586 145.978 118.847C146.331 118.499 147.271 117.426 147.271 117.426C147.271 117.426 151.059 118.905 151.882 119.195C152.704 119.456 153.673 117.455 156.14 118.528C156.816 118.818 157.55 119.746 158.079 120.645C161.926 112.526 164.07 103.48 164.07 93.9411C164.07 77.0375 157.403 61.1488 145.303 49.2033C137.902 41.8968 129.032 36.6199 119.369 33.6045C119.369 34.5323 119.281 35.4311 119.281 35.75V35.779Z" fill="white"/>
<path d="M139.135 142.361C138.166 141.897 137.549 142.564 137.08 138.853C136.933 137.78 136.052 136.33 135.376 135.664C134.701 134.997 134.612 133.721 134.965 132.619C135.523 130.937 135.64 129.372 135.582 128.009C135.523 126.646 135.787 124.965 137.696 124.153C137.021 123.399 136.668 122.471 136.463 121.717C133.643 120.79 133.085 120.732 132.527 119.369C131.558 117.107 130.971 113.831 130.706 112.033C130.559 111.135 130.471 110.323 130.442 109.598C129.531 107.916 127.534 104.176 125.978 101.364C125.42 100.32 124.891 99.392 124.539 98.7541C123.158 96.3766 124.539 93.2742 125.214 91.4476C125.89 89.621 126.448 87.9973 125.831 86.1707C125.214 84.3441 125.214 83.9382 125.067 83.1843C124.92 82.4305 124.304 81.5027 123.481 84.0541C122.659 86.6346 121.073 90.4328 120.192 94.347C119.693 96.5796 119.34 99.0151 119.458 101.364C119.546 103.161 119.898 104.901 120.691 106.467C122.483 110.12 124.597 113.512 124.333 115.542C124.069 117.571 123.599 117.658 123.569 117.977C123.217 121.92 121.513 129.43 120.632 131.604C119.751 133.779 116.227 141.636 115.493 144.942C114.905 147.493 113.319 152.944 111.968 156.162C122.248 154.249 131.646 149.9 139.576 143.753C139.811 143.173 139.782 142.651 139.165 142.361H139.135Z" fill="white"/>
<path d="M62.8616 53.4365C63.6252 54.4223 64.6238 55.2921 65.9161 55.9589C69.2643 57.6406 69.9691 58.8583 69.9691 61.7867C69.9691 64.7151 70.5272 70.6589 71.467 71.6737C72.0838 71.0648 72.7593 70.195 72.9061 69.9051C73.8753 71.6737 75.8138 74.921 78.8682 76.9506C79.0738 77.0956 78.9857 77.8204 79.485 77.9654C80.5129 78.2263 87.1799 79.2411 87.3855 80.6039C88.7659 79.2411 90.9686 75.8488 91.3798 74.7181C91.791 73.5583 94.1993 69.9051 95.9909 67.8755C95.9909 67.0637 95.9909 66.5997 96.0496 66.3968C95.5797 66.8027 94.8161 67.8175 93.7 68.2814C92.6134 68.7453 88.7659 70.369 86.0051 71.7317C85.0359 72.1956 83.3325 72.7465 82.6276 67.7885C81.9521 62.8305 82.6276 60.279 83.0975 59.1193C83.5674 57.9595 84.4779 56.9447 86.1813 57.4376C87.8848 57.9015 90.6456 58.9163 91.4092 58.9163C91.556 58.3654 92.026 57.3507 90.1756 57.1477C88.854 57.0027 85.4177 56.0459 83.4793 53.4075C82.6863 52.3637 82.1577 51.03 82.0989 49.3483C78.1927 49.9572 69.2055 51.1169 67.2084 51.5808C65.2112 52.0447 63.5371 52.4507 62.891 47.9856C62.6267 46.101 62.1274 43.4335 63.5077 44.3903C64.5944 43.5785 66.1217 42.6217 68.7943 43.0276C69.2936 43.1146 69.881 43.5205 70.0866 43.8684C70.2335 44.5353 69.9398 45.6081 69.6167 46.5939C69.0293 48.4205 67.8545 49.6962 71.6139 48.8554C75.5201 47.9566 80.5129 47.2317 81.8052 46.9708C81.9814 45.6371 83.0681 43.6075 84.3898 42.1288C85.7114 40.6211 85.8876 39.4323 85.9757 38.9395C86.0345 38.4755 85.5939 38.3596 84.9478 38.9395C84.1842 39.6063 81.9227 40.969 79.8081 40.4181C78.9857 40.2152 77.9578 38.6495 77.3997 37.7797C77.8403 36.8519 78.9857 35.2282 80.3955 33.6335C73.0823 35.9531 66.2392 39.5483 60.1596 44.3613C60.1302 45.1152 60.2183 46.8548 60.7176 48.7974C61.0407 50.1021 61.6868 51.8418 62.891 53.3785L62.8616 53.4365Z" fill="white"/>
<path d="M67.6196 146.014C70.4391 144.941 72.6418 144.97 74.8152 147.841C75.432 148.653 75.9019 151.03 81.1885 148.914C78.369 145.608 76.6949 141.665 75.1383 136.388C72.7006 128.038 67.2084 118.557 69.2349 114.237C68.0601 113.164 66.7091 108.96 65.2406 109.424C64.2714 109.743 62.9204 109.772 64.0071 106.582C64.5064 105.162 65.3287 103.422 66.856 101.334C68.7356 98.783 71.702 95.7386 76.4893 92.0853C76.9005 91.7374 76.9592 91.4765 76.6949 91.2155C76.225 90.7516 75.7257 90.2007 75.2558 89.9398C74.7858 89.6788 74.2866 89.7948 73.8754 90.2007C73.4642 90.6066 72.7887 91.0705 72.3775 91.3605C71.9663 91.6214 68.6769 88.4611 66.9441 86.1416C65.2406 83.851 63.449 83.0972 62.891 82.8362C63.5665 82.0824 65.1231 80.4877 64.5357 80.6617C63.5078 81.0096 61.7162 81.2126 59.8659 79.299C57.6044 76.9215 58.4855 75.7037 58.0156 75.3848C57.5457 75.0369 55.0492 75.5877 53.1989 72.7463C51.3486 69.9049 50.6144 68.6582 52.1123 66.6576C52.8759 65.6428 53.1402 65.1789 52.9346 63.8741C52.729 62.5984 52.9346 61.7866 54.6381 60.1339C56.3415 58.5103 57.3695 57.0316 58.1331 57.1475C58.7205 57.2635 56.9877 55.089 55.9597 53.4653C55.6954 53.0304 55.4604 52.6245 55.3429 52.3345C55.0786 51.6677 54.6381 50.5369 54.55 49.3481C42.4789 61.2937 35.8413 77.1534 35.8413 94.0279C35.8413 110.902 42.5083 126.82 54.6087 138.766C57.4576 141.578 60.512 144.072 63.7427 146.275C65.1525 144.767 66.8266 145.347 67.5608 146.072L67.6196 146.014Z" fill="white"/>
<path d="M31.1421 12.3809C36.7811 13.8016 40.981 18.2957 42.8313 20.7892C43.3012 21.427 43.8005 21.3401 44.0061 20.8472C44.4467 19.8324 45.2397 16.585 45.2397 14.0626C45.2397 8.37973 46.0326 6.11819 47.4718 3.47974C40.7461 3.85666 34.8427 7.24896 31.1421 12.3519V12.3809Z" fill="#A73832"/>
<path d="M27.7352 29.8063C38.3084 30.7631 41.5978 24.9353 42.2733 24.0365C42.9488 23.1667 42.1264 22.6158 41.8034 22.1519C39.9824 19.6294 35.9 15.1644 30.261 13.7437C28.2932 16.962 27.1184 20.7022 27.1184 24.7324C27.1184 26.472 27.324 28.1827 27.7352 29.8063Z" fill="#A73832"/>
<path d="M69.6754 29.4003C65.2111 27.5737 59.9246 29.2554 56.1358 32.5027C52.3471 35.75 50.4381 38.2435 49.1458 45.9849C48.9989 45.9849 48.8227 45.9849 48.6759 45.9849C43.0956 45.9849 38.0146 43.8683 34.1671 40.4181C40.6285 38.7944 46.062 35.866 52.1709 30.1832C58.2798 24.5003 61.3049 17.8607 62.1273 14.7294C62.9497 11.598 61.7749 13.4536 61.1581 14.8743C60.1889 17.0779 57.0463 22.9927 50.7905 28.7625C44.5347 34.5323 39.7474 37.3737 33.2273 39.5192C31.0539 37.3157 29.3798 34.6482 28.3225 31.6619C30.5253 31.8068 37.4272 31.024 40.8928 28.2116C45.4452 24.5293 45.9738 20.1512 46.5906 13.9175C47.2074 7.68381 48.1472 5.82819 49.6451 3.45068C61.07 3.97258 70.1747 13.2797 70.1747 24.7033C70.1747 26.298 69.9984 27.8636 69.646 29.3713L69.6754 29.4003Z" fill="#A73832"/>
<path d="M69.088 31.5459C68.06 30.1252 64.3888 29.4293 58.5442 33.0246C57.9861 33.3725 57.6043 33.6045 58.2798 34.2423C59.5134 35.4601 61.3637 37.7796 62.6853 40.882C65.5929 38.4175 67.8544 35.1991 69.088 31.5169V31.5459Z" fill="#A73832"/>
<path d="M60.9527 42.2157C59.7191 39.2293 58.6912 37.0548 57.5164 35.5761C56.8996 34.7642 56.7528 34.4163 55.6073 35.4311C52.3766 38.2435 51.1137 42.5346 50.4382 45.9269C54.3444 45.608 57.9276 44.2743 60.982 42.2157H60.9527Z" fill="#A73832"/>
<path d="M55.0492 65.991C54.1681 65.73 53.4632 66.7448 53.052 67.5567C52.6409 68.3685 52.171 69.2383 53.4632 71.0939C54.7555 72.9205 55.5779 74.0223 57.8687 73.8773C58.9554 73.8194 59.9246 73.0075 60.277 72.5146C60.6295 72.0507 60.6882 72.8626 60.1302 73.6744C59.5722 74.4862 59.161 76.3708 60.1889 77.6756C61.2169 78.9513 63.3609 80.0531 66.151 78.4294C68.9705 76.8057 70.1453 74.8341 70.6153 73.9643C71.0852 73.0945 71.0852 72.6886 70.6153 72.1377C70.1453 71.5868 68.5594 69.0064 68.2069 63.9324C68.0013 60.888 68.5594 58.9164 66.621 57.8437C64.7119 56.7709 60.3064 54.1904 59.7484 49.1744C59.5428 47.2898 59.6897 44.3614 57.7512 45.9271C55.8422 47.4928 55.8422 48.5656 55.6366 49.7253C55.431 50.8851 56.4002 52.4218 57.2226 53.5235C58.0449 54.5963 59.0141 56.9738 59.7484 57.5827C60.512 58.1916 60.9819 58.6555 61.5987 58.7425C62.2155 58.8005 64.6825 58.8005 65.2993 59.0034C65.9161 59.2064 66.2685 59.9602 64.7413 59.9602C63.214 59.9602 60.8938 60.3661 59.8659 60.5111C58.8379 60.6561 57.8687 60.7141 57.3988 62.7436C56.9289 64.7732 56.224 67.1507 56.1653 67.9046C56.1065 68.6584 55.6953 69.0643 55.6953 69.4703C55.6953 69.8762 56.5177 71.8478 58.368 69.8762C60.2183 67.9046 60.9819 65.933 61.3344 65.0052C61.6868 64.0484 62.098 64.1933 61.7455 65.672C61.3931 67.1507 61.305 70.891 62.0099 72.1667C62.7735 73.5584 64.3595 74.9791 66.3273 73.9933C66.7384 73.7904 67.4139 73.4424 67.972 73.5294C68.53 73.5874 67.8545 74.5442 67.3846 74.9501C66.9147 75.356 65.3287 77.0667 62.5385 74.6022C61.863 73.9933 60.8938 72.6306 60.6882 70.949C60.6295 70.3981 59.8659 70.1951 59.5134 70.688C59.161 71.1519 57.3107 72.8626 56.0184 71.6448C54.7261 70.4271 54.1681 69.7602 54.9317 67.1797C55.0786 66.7158 55.3429 66.1939 54.9905 66.107L55.0492 65.991Z" fill="#FAB383"/>
<path d="M56.4297 62.1928C56.136 63.0627 55.8717 64.2224 55.7542 64.6283C55.6073 65.0343 54.9906 65.9041 54.4619 64.7733C53.9039 63.6136 53.9332 62.7147 54.8143 61.8449C55.0787 61.584 55.4898 61.0331 55.7835 61.294C56.0479 61.555 56.5472 61.9609 56.4591 62.1639L56.4297 62.1928Z" fill="#FAB383"/>
<path d="M59.5135 59.0905C58.9555 59.3804 57.7513 59.3804 57.3108 60.3082C57.0465 60.9171 55.9304 60.2502 56.4884 59.4964C57.0465 58.7425 57.4576 58.8295 57.7807 58.6265C58.1331 58.4236 58.2506 57.8147 58.9555 58.1626C59.631 58.5106 59.7779 58.9745 59.5135 59.1194V59.0905Z" fill="#FAB383"/>
<path d="M104.743 25.5441C102.834 25.7471 101.043 26.9068 99.2511 28.1246C97.4595 29.3423 91.0275 34.7062 89.5003 35.779C91.0862 36.5909 91.4974 38.2145 90.9394 40.94C90.8219 41.5488 90.9394 41.7518 91.3506 41.3459C91.7618 40.94 93.6708 38.9104 93.6121 37.2867C93.5533 35.663 92.7897 34.7062 92.6428 34.5033C92.496 34.3003 93.2009 33.4885 93.9351 35.1701C94.6987 36.8518 94.4932 39.2293 92.2317 41.8678C89.9702 44.5062 88.1786 44.4482 87.2094 44.9121C86.2402 45.376 85.3004 46.1299 86.1815 47.5506C87.0626 48.9713 88.7954 48.4204 89.4709 47.9565C90.1464 47.4926 91.1156 46.9417 93.3184 47.1447C95.5211 47.3476 96.2554 45.9559 94.7575 44.5062C94.2876 44.0423 93.054 42.9405 94.5519 42.9405C95.433 42.9405 96.5491 44.9121 97.1658 45.434C97.7826 45.9849 99.163 46.1879 101.013 46.3039C102.864 46.4488 105.742 47.1157 105.742 48.8843C105.742 49.9571 105.154 50.276 104.361 49.4352C104.068 49.0873 103.627 49.6382 103.275 49.9861C102.1 51.1459 99.1336 54.2482 96.9896 54.7991C94.875 55.35 94.082 54.7411 91.2625 53.2334C88.4429 51.7547 85.829 50.247 85.0948 49.7831C84.3312 49.3192 82.7452 48.2175 83.5088 50.392C84.2724 52.5666 86.1227 54.7991 89.8233 56.0168C93.5239 57.2346 94.082 57.6405 94.9043 58.0464C95.7267 58.4523 95.2568 58.8583 94.1407 58.7133C93.1715 58.5973 92.1436 57.7565 92.9659 59.5831C93.7883 61.4097 95.0218 63.3813 98.8105 62.9174C102.57 62.4535 102.687 61.6417 105.066 57.7565C105.478 57.0896 105.889 57.5535 105.624 59.3222C107.475 58.4523 108.503 58.1624 109.589 57.9015C110.676 57.6405 113.554 56.6837 115.434 53.2334C116.403 51.4648 116.902 50.8559 116.726 49.0293C116.667 48.3334 117.695 46.9997 118.723 46.0429C119.751 45.0861 122.571 41.4908 121.132 38.9394C119.693 36.3589 117.284 37.6636 116.109 39.5482C114.935 41.4329 113.642 43.5494 113.554 46.7967C112.732 46.5358 111.88 46.7967 111.498 47.4636C111.293 47.8115 108.268 47.4056 107.24 47.6666C106.212 47.9275 105.859 47.3186 106.975 45.8979C108.062 44.4772 111.939 39.3163 111.704 35.4601C111.645 34.3003 111.792 34.0974 111.968 33.2275C112.203 32.0968 112.321 32.0968 110.911 31.3429C110 30.85 109.942 29.4293 109.766 28.3565C109.589 27.1968 109.384 27.1968 108.062 27.4867C107.093 27.6897 105.448 26.7329 104.685 25.5151L104.743 25.5441Z" fill="#FAB383"/>
<path d="M96.7253 46.7678C96.3435 47.6086 95.3155 48.4205 92.9072 48.1595C91.703 48.0146 90.5282 48.0146 90.3226 48.9424C90.1758 49.5802 89.6471 49.5513 88.8835 49.5223C88.0905 49.4933 87.2388 49.2903 87.2094 49.5513C87.18 49.8122 90.587 51.8128 91.703 52.3347C92.8484 52.8566 94.4932 54.0453 95.8148 53.9293C97.6064 53.7554 99.163 52.8856 101.777 50.1311C102.864 49.0004 103.745 48.3915 102.717 47.9276C102.012 47.6086 101.307 47.5217 100.397 47.5217C99.4861 47.5217 97.4889 47.3767 96.7253 46.7678V46.7678Z" fill="#FAB383"/>
<path d="M83.9199 46.7967C82.98 46.7677 82.8919 46.0718 83.5087 45.057C84.1255 44.0422 84.7129 43.0854 85.5352 42.4766C85.6821 42.9115 85.9464 43.4624 86.3576 43.6943C85.7996 44.2742 85.0947 44.999 85.2122 46.4198L83.9199 46.7677V46.7967Z" fill="#FAB383"/>
<path d="M104.802 42.5927C103.627 42.5927 101.865 42.2157 100.632 41.3749C99.3686 40.5051 98.9281 40.0992 99.163 38.8524C99.3099 38.0696 99.3686 37.6347 99.4273 37.3737C99.4567 37.1708 99.4861 37.0258 99.5155 36.8808C99.6329 36.272 99.5742 35.895 99.398 35.6921C99.3099 35.5761 99.163 35.5181 99.0162 35.5181C98.7518 35.5181 98.3994 35.6921 97.9588 36.011C97.2246 35.4601 96.5491 34.8803 96.0498 34.4163C95.668 34.0684 95.3743 33.8075 95.1981 33.6915C95.0512 33.6045 94.875 33.4595 94.875 33.2566C94.875 33.1116 94.9337 32.9666 95.11 32.7927C95.1981 32.7057 95.3449 32.6767 95.5211 32.6767H95.6092H95.6974C95.8148 32.6767 96.0498 32.6767 96.1966 32.5027C96.3435 32.3288 96.3729 32.0678 96.3141 31.6039C96.3141 31.6039 96.3729 31.5169 96.6666 31.5169C96.7547 31.5169 96.8428 31.5169 96.9309 31.5169C97.019 31.5169 97.1071 31.5169 97.1952 31.5169C97.3714 31.5169 97.4889 31.5169 97.577 31.459C97.7239 31.372 97.7826 31.227 97.812 31.14C97.8414 30.9951 97.8707 30.9371 98.1057 30.9371C98.2525 30.9371 98.4288 30.9371 98.6344 31.024C98.6637 31.024 98.7225 31.024 98.7518 31.024C98.9868 31.024 99.0749 30.8501 99.163 30.7341V30.6761C99.163 30.6761 99.3686 30.4732 99.5742 30.4732C99.6329 30.4732 99.6623 30.4732 99.721 30.4732C99.8973 30.5022 100.073 30.5311 100.22 30.5891C100.426 30.6471 100.602 30.6761 100.749 30.6761C101.16 30.6761 101.278 30.3862 101.336 30.1542C101.454 29.6903 101.542 29.5454 101.748 29.5454C101.924 29.5454 102.159 29.6323 102.482 29.8353C102.776 30.0093 103.01 30.0962 103.216 30.0962C103.539 30.0962 103.745 29.8933 103.833 29.5454C103.833 29.5454 103.833 29.5164 103.921 29.5164C104.127 29.5164 104.479 29.6613 104.861 29.8643L105.037 29.9803C105.683 30.3282 107.005 31.082 108.532 32.8507C108.884 33.2566 108.973 33.5465 108.943 33.6335C108.943 33.6335 108.884 33.6335 108.855 33.6335C108.62 33.6625 108.268 33.7205 108.209 34.3004C108.18 34.6193 108.062 34.7933 108.033 34.8223C108.033 34.8223 107.974 34.7643 107.915 34.6483C107.827 34.4743 107.71 34.2714 107.504 34.2714C107.475 34.2714 107.416 34.2714 107.387 34.2714C107.387 34.2714 107.357 34.1844 107.298 34.0974C107.269 34.0104 107.152 33.7495 106.917 33.7495C106.799 33.7495 106.682 33.8075 106.623 33.8655C106.623 33.8655 106.623 33.8655 106.594 33.8655C106.564 33.7785 106.447 33.5175 106.212 33.5175C106.153 33.5175 106.094 33.5175 106.065 33.5175C106.065 33.5175 106.036 33.5175 106.006 33.5175C106.006 33.5175 106.006 33.4885 105.947 33.4305C105.889 33.3146 105.801 33.2566 105.654 33.2566C105.566 33.2566 105.448 33.2856 105.331 33.3146C105.213 33.3436 105.125 33.3726 105.037 33.3726C104.978 33.3726 104.949 33.3726 104.949 33.3436C104.861 33.1696 104.714 33.1406 104.626 33.1406C104.508 33.1406 104.391 33.1986 104.273 33.2566C104.185 33.2856 104.097 33.3436 104.038 33.3436C104.038 33.3436 103.98 33.3436 103.921 33.2856C103.892 33.2276 103.774 33.0826 103.598 33.0826C103.422 33.0826 103.334 33.2276 103.245 33.3146V33.3726C103.245 33.3726 103.069 33.5175 103.01 33.5175C103.01 33.5175 102.952 33.5175 102.922 33.5175C102.834 33.4885 102.746 33.4595 102.687 33.4595C102.452 33.4595 102.335 33.6335 102.276 33.7205C102.217 33.8075 102.217 33.8075 102.188 33.8075C102.188 33.8075 102.129 33.8075 102.071 33.7785C101.983 33.7495 101.894 33.7205 101.836 33.7205C101.571 33.7205 101.454 33.9524 101.366 34.1264C101.278 34.3004 101.248 34.3294 101.19 34.3294C101.19 34.3294 101.16 34.3294 101.131 34.3294C101.013 34.3004 100.925 34.3004 100.866 34.3004C100.485 34.3004 100.426 34.6193 100.367 34.9672C100.367 35.0252 100.367 35.0832 100.338 35.1702C100.25 35.7211 99.9854 37.9826 100.015 38.5625C100.044 39.1134 100.778 39.1134 101.043 39.1134C101.542 39.1134 102.247 39.0264 103.099 38.9104C104.802 38.6785 107.886 37.7507 109.501 36.4169C109.912 36.069 110.235 36.04 110.353 36.04C110.441 36.04 110.5 36.04 110.5 36.069C110.5 36.156 110.324 36.5909 109.912 36.9098C109.883 36.9388 109.824 36.9678 109.766 37.0258C109.266 37.4607 108.091 38.4755 105.742 38.9394C103.48 39.3743 101.395 39.7512 100.69 39.7512C100.602 39.7512 100.543 39.7512 100.543 39.7512C100.514 39.7512 100.455 39.7512 100.426 39.7512C100.308 39.7512 100.22 39.8092 100.191 39.8962C100.132 40.0122 100.191 40.1572 100.397 40.3021C100.632 40.4761 100.925 40.5921 101.248 40.5921C101.336 40.5921 101.424 40.5921 101.513 40.5921C101.601 40.5921 101.836 40.824 102.012 40.998C102.511 41.4619 103.245 42.1288 104.215 42.1288C105.448 42.1288 107.21 40.824 107.71 40.4181C107.945 40.2441 108.473 39.9542 108.796 39.8672C108.738 39.9252 108.679 40.0122 108.532 40.1282L108.444 40.2152C107.328 41.3169 106.153 42.4767 105.008 42.5057C104.949 42.5057 104.92 42.5057 104.861 42.5057L104.802 42.5927Z" fill="#061922"/>
<path d="M119.282 41.0561C118.489 41.6069 118.048 41.8099 117.989 42.7377C117.93 43.6945 117.725 45.3182 117.372 45.4342C116.903 45.6081 116.961 44.5643 116.814 44.8833C116.609 45.3472 116.021 45.1442 115.845 44.7093C115.757 44.5063 114.054 44.5353 115.434 42.5637C116.668 40.7951 117.637 39.8673 118.518 39.4614C119.399 39.0555 120.926 39.8673 119.282 41.0271V41.0561Z" fill="#061922"/>
<path d="M152.88 121.601C152.557 120.819 153.115 119.456 154.848 120.413C156.552 121.369 157.873 122.181 156.64 125.893C155.406 129.633 154.525 131.778 154.026 133.344C153.556 134.91 151.706 136.881 152.322 134.214C152.939 131.575 153.262 128.386 152.998 126.762C152.528 123.776 153.497 123.95 153.174 122.587C153.086 122.181 153.027 121.862 152.91 121.572L152.88 121.601Z" fill="#FAB383"/>
<path d="M159.371 124.82C159.87 126.299 160.399 129.633 159.577 130.996C158.754 132.358 156.199 136.07 155.259 137.026C154.29 137.983 153.556 137.577 154.143 136.562C154.76 135.548 155.582 134.185 155.582 133.721C155.582 133.257 155.524 132.706 156.346 131.141C157.168 129.575 158.608 124.356 158.754 123.95C158.901 123.544 159.224 124.414 159.371 124.82V124.82Z" fill="#FAB383"/>
<path d="M141.661 137.345C141.25 136.127 141.044 134.359 140.369 133.344C140.927 131.865 142.718 127.835 145.802 126.646C146.155 126.501 146.36 126.183 146.213 125.893C146.067 125.632 146.625 125.429 146.889 126.356C147.153 127.313 147.653 130.01 147.653 130.01C147.799 130.619 147.506 131.083 147.388 131.923C147.241 132.735 146.918 134.562 147.124 135.519C147.329 136.475 147.682 137.142 149.591 136.736C150.56 136.533 150.472 136.272 150.766 135.461C151.03 134.649 151.794 132.358 152.058 131.054C152.322 129.778 152.087 126.617 151.823 125.806C151.559 124.994 151.911 122.239 151.706 121.717C151.5 121.167 151.353 120.355 149.65 119.833C147.946 119.282 147.447 119.166 146.272 120.297C145.097 121.457 144.686 121.92 144.158 122.471C143.6 123.022 142.248 122.529 143.394 121.457C144.569 120.384 145.655 119.282 146.008 118.934L145.655 118.064H145.039C143.188 119.891 140.721 120.993 139.077 121.312C138.46 121.428 137.285 121.515 138.107 122.587C138.313 122.848 138.372 123.602 138.871 123.341C139.341 123.08 140.104 121.862 140.78 122.384C141.455 122.935 140.633 124.211 139.811 124.82C138.988 125.429 138.107 126.038 137.491 126.385C136.874 126.733 136.521 127.052 136.609 128.154C136.668 129.227 136.756 131.199 136.14 132.706C135.523 134.185 135.875 134.591 136.404 135.606C136.962 136.62 137.843 137.519 138.107 139.143C138.372 140.767 138.519 141.172 139.605 141.027C140.692 140.883 141.103 140.419 141.514 139.752L141.661 137.374V137.345Z" fill="#FAB383"/>
<path d="M142.072 140.476C141.603 141.288 140.78 142.564 140.78 143.724C140.78 144.884 139.605 146.101 139.752 146.623C139.899 147.174 141.397 148.595 142.307 150.074C143.188 151.552 144.363 153.814 144.363 157.525C144.363 161.236 143.13 166.339 142.983 167.006C142.836 167.673 142.513 168.224 143.541 169.181C144.569 170.137 146.214 171.906 146.83 175.878C147.447 179.879 147.858 181.967 148.123 182.17C148.387 182.373 148.328 182.721 148.328 183.446C148.328 184.17 149.004 188.462 149.503 189.273C149.973 190.085 149.914 184.663 149.855 183.098C149.797 181.532 149.914 174.081 150.208 173.008C150.472 171.935 150.766 170.688 149.797 169.355C148.828 167.992 147.183 165.614 148.416 161.7C149.65 157.757 151.647 157.844 151.03 156.278C150.413 154.713 149.327 153.64 148.504 152.77C147.682 151.9 148.328 149.784 148.299 148.914C148.24 147.29 146.918 147.029 146.801 145.174C146.654 143.347 146.537 141.868 147.888 140.013C149.268 138.186 147.418 138.244 146.801 137.113C146.184 135.953 145.861 134.417 146.39 132.039C146.654 130.821 146.537 130.474 146.184 130.358C145.832 130.213 144.393 129.952 144.393 129.952L142.278 134.156C142.63 134.968 142.748 136.185 142.748 136.997L142.131 140.447L142.072 140.476Z" fill="#A73832"/>
<path d="M122.248 58.0175C120.544 60.25 117.93 65.8749 116.697 69.4122C115.463 72.9494 112.644 81.3287 114.641 86.8956C116.638 92.4624 120.544 88.9251 121.425 86.8376C122.306 84.75 123.687 81.1547 124.098 80.1979C124.509 79.2411 124.715 78.7192 125.478 80.9518C126.242 83.1843 127.329 88.5482 127.329 89.0121C127.329 89.476 126.565 90.8387 125.743 92.9553C124.92 95.0429 124.45 96.5506 125.273 97.8263C126.095 99.102 129.326 104.611 130.354 106.959C130.971 108.38 131.529 108.641 133.173 108.235C134.818 107.829 138.812 106.467 139.958 105.945C141.133 105.394 140.575 104.466 140.222 103.306C139.693 101.567 137.608 91.7955 137.608 90.4908C137.608 89.1861 137.961 87.5044 136.228 89.418C135.611 90.0849 134.789 89.418 134.994 88.4612C135.2 87.5044 137.256 74.3121 137.403 72.6885C136.228 70.166 132.791 62.2506 131.852 60.8299C130.882 59.4092 130.559 59.3512 129.091 60.0761C127.652 60.8299 124.421 61.9607 123.246 59.2642C123.041 58.8003 122.688 57.6986 123.511 57.5826L122.894 57.3796C122.894 57.3796 122.424 57.7856 122.218 58.0465L122.248 58.0175Z" fill="white"/>
<path d="M140.222 106.727C138.959 107.452 134.583 109.308 132.821 109.569C131 109.859 131.44 110.323 131.793 111.656C132.145 113.019 133.173 117.078 133.702 118.499C134.26 119.92 134.994 119.891 136.433 119.862C138.636 119.804 142.337 118.847 145.009 116.411C144.246 115.542 142.924 111.308 142.542 109.511C142.131 107.626 142.131 105.655 140.193 106.727H140.222Z" fill="white"/>
<path d="M100.896 67.6145C100.749 67.8754 100.279 68.6872 99.1922 68.6872C98.1055 68.6872 97.195 68.3393 96.5195 69.2961C95.844 70.2529 92.0553 74.776 91.2329 77.5594C92.0553 79.2411 93.1713 82.3144 93.9937 84.46C96.6664 82.2274 105.213 73.9931 106.828 72.3985C107.445 71.7896 107.504 71.2387 106.623 70.6298C105.742 70.021 102.423 67.9914 101.894 67.6434C101.336 67.2955 101.072 67.2955 100.925 67.5855L100.896 67.6145Z" fill="white"/>
<path d="M79.2794 79.5601C78.7508 81.6476 77.6934 85.3299 75.99 88.1713C76.6655 89.2441 77.2235 90.2009 78.0459 90.5488C79.9549 89.1861 83.5968 85.8808 84.6248 84.663C85.6527 83.4453 86.945 81.6187 86.945 81.2127C86.945 80.8068 86.4751 80.6618 85.8583 80.8068C85.2415 80.9518 82.6863 79.937 80.2193 79.4441C79.5438 79.2991 79.3382 79.2991 79.2501 79.5891L79.2794 79.5601Z" fill="white"/>
<path d="M77.7816 77.5304C77.0179 77.3855 74.404 74.602 73.5229 73.1233C72.6418 71.6446 72.495 71.7606 72.1425 72.8624C71.7901 73.9352 70.4978 76.3127 69.5873 77.4724C68.7062 78.6322 66.3567 81.6186 65.7399 82.2854C65.1231 82.9523 65.7399 83.2422 66.2979 83.7641C66.8559 84.315 69.6755 87.6783 70.2629 88.4322C70.8796 89.186 71.5551 90.5197 73.1998 89.041C74.8446 87.5624 76.8417 84.8369 77.7228 82.0535C78.6039 79.2701 78.692 77.8204 79.4263 77.9943V77.4144L79.2501 77.0665L78.8389 76.7186C78.9564 76.9505 78.9564 77.1535 78.7801 77.4434C78.6039 77.7044 78.0459 77.5884 77.7228 77.5014L77.7816 77.5304Z" fill="white"/>
<path d="M119.78 15.1934C117.93 17.339 114.23 19.2526 107.974 20.8183C101.718 22.384 95.7558 26.7041 93.23 28.8206C90.6748 30.9082 84.3015 36.0981 81.2177 37.3449C80.3953 37.6928 78.6331 38.8236 80.8653 39.1135C82.51 39.3165 83.6848 38.3597 87.2385 35.8082C90.8217 33.2277 93.5824 31.3721 96.3138 28.7627C98.869 26.3272 103.451 24.0076 108.385 22.6739C113.319 21.3112 119.81 19.1946 121.689 17.194C122.571 16.2372 122.659 15.7733 121.836 14.9615C121.014 14.1497 120.544 14.3526 119.78 15.2224V15.1934Z" fill="white"/>
<path d="M88.2666 36.504C87.7379 36.794 87.503 37.1129 86.8862 39.0845C86.2694 41.0561 86.3282 42.1868 86.8568 42.6797C87.2386 43.0277 87.7673 43.0567 88.061 43.0567C88.2666 43.0567 88.4722 43.1147 88.4428 42.5348C88.4134 41.9549 88.3547 39.4904 90.2344 38.3886C90.5868 38.1857 90.1756 36.765 88.9714 36.9679C88.5603 37.0259 88.9714 36.1271 88.2959 36.504H88.2666Z" fill="white"/>
<path d="M67.0614 44.2454C68.0306 44.2454 68.6474 44.2454 68.5593 45.3181C68.5005 46.3909 68.0012 47.8986 67.9425 48.9134C67.8838 49.9282 67.8838 50.3341 68.5005 50.3341C69.1173 50.3341 67.6194 50.943 66.7971 51.0879C65.9747 51.2329 64.7118 51.6968 64.0363 48.2465C63.8307 47.1738 63.8895 45.4631 63.772 45.0572C64.6531 44.6513 65.8866 44.2454 67.0614 44.2454V44.2454Z" fill="white"/>
<path d="M85.3 47.1448C85.5644 48.5075 85.9168 48.4785 85.6525 48.6815C85.3882 48.8844 85.0945 48.1596 83.9784 48.3335C82.9211 48.5075 74.257 49.8122 73.6402 49.8992C71.7311 50.1022 71.6137 49.7832 73.4052 49.4353C75.1968 49.0584 81.7169 47.8986 83.6553 47.4927L85.3 47.1448Z" fill="white"/>
<path d="M74.8738 150.77C75.7549 151.32 77.8989 151.929 81.5407 150.422C85.1826 148.943 89.2357 149.958 89.8524 152.509C90.4692 155.09 90.4986 158.395 89.3825 159.816C88.4133 161.033 87.5322 160.888 86.4455 160.57C84.4484 159.961 79.8667 157.873 78.545 157.235C77.2527 156.626 75.05 155.959 73.464 155.959C72.8472 154.684 72.906 152.422 73.3172 151.61C73.7283 150.799 73.7283 149.987 74.0808 150.19C74.4332 150.393 74.9031 150.741 74.9031 150.741L74.8738 150.77Z" fill="white"/>
<path d="M89.2946 162.744C90.1757 162.744 91.7911 163.121 92.3197 164.715C92.7309 165.991 95.4036 166.339 96.5784 166.281C97.7531 166.223 97.5476 166.832 97.4595 167.499C97.4007 168.166 97.1951 170.195 97.1951 171.036C97.1951 171.877 97.4007 174.689 97.5476 175.24C97.6944 175.791 97.1951 176.052 96.5784 176.313C95.9616 176.574 93.7001 177.27 92.261 176.255C91.4974 175.733 90.6163 174.979 91.4974 174.892C92.3785 174.834 90.4107 167.18 89.8526 165.817C89.2946 164.455 87.738 162.773 89.2946 162.773V162.744Z" fill="white"/>
<path d="M65.6811 146.768C66.0629 146.884 66.2391 147.232 66.5034 147.725C66.7678 148.189 66.8852 148.595 66.4447 149.088C65.6811 149.9 64.8 153.64 64.9468 156.278C64.4769 156.133 63.449 155.93 62.8909 156.075C62.6853 154.597 62.8322 149.9 63.5077 148.421C64.1832 146.942 64.8881 146.536 65.7104 146.797L65.6811 146.768Z" fill="white"/>
<path d="M65.8278 188.085C67.5313 189.998 70.762 192.898 73.1703 193.912C75.5787 194.927 77.1646 195.275 79.2793 195.072C81.0121 194.898 80.6597 195.623 79.2793 195.826C77.8989 196.029 74.7563 196.029 72.7004 194.956C70.6445 193.884 67.3844 191.854 65.2992 188.926C64.8293 188.259 65.2992 187.505 65.8572 188.114L65.8278 188.085Z" fill="white"/>
<path d="M101.571 183.359C100.191 183.997 97.6061 185.243 95.1096 185.852C95.3739 187.07 95.4621 187.621 95.4621 187.94C96.9599 187.94 99.8675 186.896 102.247 185.446C102.805 185.098 103.01 184.692 102.805 184.229C102.599 183.765 102.335 183.011 101.571 183.359Z" fill="white"/>
<path d="M85.3296 177.792C84.9772 177.444 86.945 177.038 87.3562 177.038C87.8261 177.357 88.7072 178.111 89.0302 178.43C89.2358 178.633 89.1477 178.778 88.9128 178.894C88.7072 179.039 87.503 179.329 86.945 179.358C86.3282 178.807 85.4765 177.937 85.3003 177.763L85.3296 177.792Z" fill="white"/>
<path d="M88.9714 149.61C88.4133 149.204 88.5015 149.001 88.7658 148.595C89.0301 148.189 89.3238 147.928 89.5881 147.783C89.8525 147.638 90.2637 147.58 90.7629 148.247C91.2329 148.914 93.8468 153.205 94.4048 154.336C94.9628 155.495 95.6384 154.742 95.374 154.075C95.1097 153.408 94.5517 152.248 94.3461 151.9C95.1097 149.61 95.8439 146.072 95.8439 143.782C95.8439 141.491 95.2859 139.172 94.8747 138.36C96.725 138.418 100.778 138.36 102.364 137.896C103.95 137.432 102.628 137.287 102.012 137.345C101.395 137.403 96.96 137.403 93.6999 136.997C88.0609 136.33 82.5394 133.199 80.8065 131.024C80.5422 130.677 78.8681 130.822 80.2485 131.894C81.6289 132.967 85.1239 136.214 90.2637 137.113C91.4385 137.316 93.2888 137.664 93.5531 141.868C93.8174 146.072 93.4062 148.769 93.4062 149.175C93.4062 149.581 93.1419 149.726 92.7895 149.233C92.437 148.769 91.2916 147.203 90.6455 146.855C90.0287 146.507 89.6175 146.594 89.0595 147C88.5015 147.406 87.6791 148.218 87.356 148.624L88.942 149.581L88.9714 149.61Z" fill="white"/>
<path d="M77.8989 162.86C77.3996 162.86 74.2864 163.092 73.6402 162.86C72.9941 162.628 72.5535 161.874 73.0235 161.584C73.5815 161.207 74.6388 161.7 75.6961 161.7C76.7534 161.7 77.8989 161.439 78.1632 161.584C78.4275 161.758 78.8093 161.7 78.8093 162.976L77.8695 162.86H77.8989Z" fill="white"/>
<path d="M70.439 181.445C69.5579 180.894 68.5006 178.401 68.3244 173.385C68.2657 171.703 68.9412 168.833 69.4992 167.499C70.0572 166.136 69.1468 166.687 68.9412 167.151C68.7356 167.615 68.0601 169.529 67.8545 170.949C67.6489 172.37 67.2965 174.487 67.8545 177.531C68.4125 180.575 68.6768 181.532 68.8237 182.083L70.4684 181.474L70.439 181.445Z" fill="white"/>
<path d="M101.836 19.6583C102.775 19.7743 103.803 19.6873 104.038 19.0495C104.273 18.4116 104.068 18.0057 103.774 17.8607C103.451 17.7157 103.333 17.7447 103.451 17.1359C103.598 16.527 104.038 16.585 104.009 15.6572C103.98 14.7004 103.245 14.6714 102.599 14.8743C101.953 15.0773 101.718 15.3672 101.101 16.1791C100.484 16.9909 100.749 15.6282 100.866 15.3962C100.954 15.1643 101.219 13.6276 100.367 13.3376C99.8971 13.5696 99.4272 13.8016 98.9573 14.0335C98.8104 14.3234 98.6929 14.6714 98.5754 15.0193C98.223 15.8891 97.8118 15.2513 97.5181 14.8163C96.6077 15.3092 95.8147 15.7731 95.1979 16.1791C95.1392 16.2081 95.0511 16.266 94.9923 16.324C95.0804 16.8459 95.7266 17.5418 96.079 17.7737C96.5196 18.0927 96.2552 18.6436 95.6972 18.6436C95.1392 18.6436 94.4637 18.2666 93.7882 19.0785C93.1126 19.8903 93.5532 20.6731 94.1993 20.6731C94.8455 20.6731 95.4035 20.9051 95.6385 21.6589C95.8734 22.4128 96.079 22.7027 96.9895 22.8187C97.8706 22.9347 98.3992 22.2388 98.6342 21.8329C98.8691 21.427 99.1922 20.8471 99.574 20.9921C100.132 21.195 100.073 21.7749 99.8971 22.3838C100.543 22.0069 101.189 21.6589 101.894 21.311C101.777 20.7311 101.424 20.2092 101.189 19.9483C100.866 19.6293 100.984 19.5134 101.894 19.6004L101.836 19.6583Z" fill="#008348"/>
<path d="M109.472 9.82947C109.149 9.91645 108.826 10.0034 108.473 10.0904C108.649 10.8733 108.943 11.8591 108.767 12.004C108.561 12.178 107.768 12.294 107.152 12.4679C106.535 12.6419 105.066 14.0046 105.801 14.9614C106.564 15.9472 106.799 16.5271 106.946 17.02C107.093 17.5419 108.326 18.1508 109.178 17.107C110.03 16.0922 110.676 14.9614 110.911 15.6863C111.087 16.2951 111.028 17.7158 110.911 18.4987C111.087 18.4697 111.263 18.4407 111.44 18.3827C111.792 14.5845 110.823 11.888 109.442 9.77148L109.472 9.82947Z" fill="#008348"/>
<path d="M90.6456 28.0088C90.1757 27.6318 90.0288 27.052 90.6162 26.878C91.2036 26.704 91.9966 26.5591 93.4358 25.9502C94.8749 25.3413 94.1113 24.2975 93.4651 24.0076C92.819 23.7466 92.7309 23.1378 92.819 22.4709C92.8777 21.833 92.7015 20.8762 91.4386 21.3401C90.1757 21.804 90.6162 23.0218 90.2344 23.4277C89.8526 23.8336 89.647 23.6887 89.7058 23.0798C89.7645 22.4709 89.2359 22.065 88.9128 21.92C88.6778 21.804 88.1492 21.6881 87.7086 21.6591C86.387 22.8188 85.1828 24.0656 84.2723 25.2543C84.4779 25.6603 84.9478 26.1242 85.2122 26.2111C85.5646 26.3271 86.0639 26.5591 86.0345 27.2259C86.0345 27.8058 84.7129 27.8348 83.8318 27.8638C84.4486 29.4875 85.0653 30.6182 85.9171 31.546C86.1226 31.4881 86.3576 31.4011 86.71 31.2561C87.7674 30.8212 88.1198 29.2265 88.296 28.7626C88.4722 28.2987 88.9128 28.3857 89.2359 28.9946C89.4414 29.4295 89.5296 29.8064 89.5589 30.2123C90.1757 29.6034 90.7631 29.0526 91.3211 28.5307C91.1449 28.3567 90.9393 28.1537 90.6456 27.9218V28.0088Z" fill="#008348"/>
<path d="M108.855 68.5133C109.061 68.4843 108.503 66.0778 108.972 65.9618C109.413 65.8748 109.619 67.2955 110.588 67.1216C111.557 66.9476 111.792 65.9908 111.645 64.947C111.498 63.9032 112.115 64.4831 112.614 63.7293C113.084 62.9754 112.056 61.9606 110.881 62.6855C109.707 63.3814 109.912 62.4535 110.529 62.0766C111.146 61.6997 110.705 60.337 109.384 60.8009C108.444 61.1198 107.974 60.5109 107.504 60.25C107.152 60.395 106.799 60.5399 106.476 60.6849C106.388 60.9459 106.476 61.2648 106.535 61.6127C106.623 62.0476 106.858 63.1784 106.124 62.6855C105.507 62.2796 104.655 62.0476 104.42 62.8305C104.185 63.6133 104.655 63.6713 104.596 64.1642C104.538 64.6281 103.304 64.7441 103.862 65.7299C104.449 66.7157 105.301 66.1648 105.889 65.7879C106.476 65.4109 107.034 65.8458 106.828 66.3677C106.652 66.7737 106.329 68.1074 106.329 68.9772C106.593 69.1512 106.887 69.3541 107.181 69.5571C107.533 69.2092 108.179 68.6583 108.855 68.5423V68.5133Z" fill="#008348"/>
<path d="M90.1464 66.1648C90.6457 66.0199 91.6443 67.0637 92.5548 66.4548C93.4359 65.8459 92.173 65.237 92.3492 64.7151C92.5254 64.1933 92.9366 63.2365 92.3198 62.7436C91.703 62.2796 91.0569 62.7146 90.4108 63.4104C89.7646 64.1063 89.9996 62.7725 90.352 62.1927C90.7926 61.4388 90.352 60.9459 89.5884 60.801C88.8248 60.656 88.5898 61.7288 88.0905 61.2359C87.2682 60.482 86.0053 60.801 86.299 61.8447C86.622 62.8885 86.9451 63.2365 86.299 63.3814C85.6528 63.5264 85.0361 61.8157 84.2724 63.1785C83.5088 64.5412 84.713 64.9471 84.6249 65.9619C84.5074 66.9767 84.948 68.0495 85.5647 68.1654C86.1815 68.2814 86.8276 67.5856 87.1801 67.1796C87.5325 66.7737 88.3549 66.4548 88.2374 67.2376C88.1786 67.7885 88.1199 68.8903 88.1199 69.5282C89.3828 68.9193 90.7338 68.2814 91.4681 68.0495C91.4975 68.0495 91.5268 68.0495 91.5562 68.0205C91.2038 67.8755 90.7338 67.6725 90.2639 67.3536C89.5884 66.8897 89.6765 66.2808 90.2052 66.1359L90.1464 66.1648Z" fill="#008348"/>
<path d="M74.9621 97.0434C76.5481 96.5795 76.6068 97.7973 76.4013 98.8121C76.1957 99.8269 76.1957 102.001 76.2544 103.074L78.8683 103.219C78.7215 102.552 78.8683 100.581 78.9271 99.421C78.9858 98.2612 80.1606 96.4926 80.5718 98.2612C80.983 100.03 82.7745 100.088 84.0081 99.334C85.2416 98.5801 86.1227 96.9565 87.4443 94.6659C88.7366 92.3754 87.0332 91.7375 86.0052 91.8825C84.9773 92.0275 83.9493 92.1435 86.2695 90.2588C88.4429 88.4902 84.801 87.6204 83.0976 87.2725C80.3368 90.1429 76.9299 93.3902 73.9048 95.9417C73.523 96.2606 73.1706 96.5795 72.8181 96.8985C73.1706 97.1014 73.9048 97.3624 74.9328 97.0434H74.9621Z" fill="#008348"/>
<path d="M72.2013 114.121C73.4936 113.715 74.3159 116.498 76.2543 114.875C78.1634 113.251 76.8124 111.888 76.7243 110.526C76.6655 109.163 78.2221 108.641 77.7522 106.93C77.018 104.35 74.5803 106.785 73.0824 108.206C71.5845 109.627 71.4964 108.467 73.0237 106.177C74.5215 103.857 72.0544 103.132 70.5566 103.741C69.2056 104.292 67.972 103.741 67.2084 103.045C66.621 103.973 66.2098 104.814 65.7693 105.684C64.477 108.322 65.3581 108.38 66.3273 108.38C67.2965 108.38 69.3524 112.381 69.6167 113.135C69.7049 113.396 70.4097 114.411 71.3496 115.716C71.2908 115.078 71.4083 114.324 72.2307 114.092L72.2013 114.121Z" fill="#008348"/>
<path d="M109.765 87.4176C108.532 87.1566 106.917 86.9537 106.74 89.4472C106.682 90.404 107.621 91.1288 108.532 91.4768C109.413 91.8247 109.295 92.4336 108.326 92.0856C107.357 91.7377 106.623 91.5347 105.918 93.5063C105.242 95.4779 106.476 95.7389 107.093 95.8838C107.71 96.0288 108.179 96.1448 108.062 96.9566C107.915 97.7685 107.504 100.146 109.09 100.349C110.676 100.552 112.056 98.6673 112.526 97.7105C112.996 96.7537 113.554 95.8259 113.701 96.8986C113.848 97.9714 113.642 98.5223 113.084 99.74C112.526 100.958 112.526 101.509 113.349 101.422C114.171 101.364 115.551 101.422 115.962 100.465C116.374 99.5081 116.99 97.6815 117.049 96.4057C117.079 95.5939 117.813 95.5069 118.341 95.5649C118.518 94.2022 118.694 92.8395 118.899 91.6797C116.197 92.0856 113.907 88.8383 113.114 86.0259C112.203 87.0117 110.852 87.6495 109.765 87.4176V87.4176Z" fill="#008348"/>
<path d="M96.9307 86.9246C96.4608 87.7364 95.0804 90.0559 95.6972 90.7808C96.3139 91.5346 96.9894 90.0269 97.5475 90.5778C98.1055 91.1287 99.339 91.7376 99.339 91.3317C99.339 90.9257 99.4859 90.1139 99.6915 89.0411C99.8971 87.9684 100.367 87.3595 100.866 88.2293C101.336 89.0991 102.041 89.853 103.745 89.447C105.448 89.0411 105.242 87.2725 104.919 85.9968C104.567 84.721 105.8 84.1121 106.417 83.7642C107.034 83.4163 108.62 82.1985 107.445 81.1258C106.27 80.053 105.242 81.5897 104.214 81.7926C103.186 81.9956 103.598 81.1258 105.712 79.5021C107.563 78.1104 106.006 76.6897 104.89 76.1968C101.924 79.1252 96.6957 83.9092 95.5503 84.982C95.1391 85.3589 94.7867 85.8228 94.4636 86.3737C97.2244 85.0979 97.4006 86.1707 96.9307 86.9536V86.9246Z" fill="#008348"/>
<path d="M113.936 114.179C114.817 114.991 116.961 116.151 118.459 114.788C119.957 113.425 118.106 111.947 117.901 110.845C117.695 109.772 118.987 109.076 118.312 107.336C117.108 104.263 115.375 107.945 114.318 108.96C113.29 109.975 113.466 108.264 114.376 107.336C114.846 106.873 116.99 105.568 115.757 104.147C114.523 102.726 112.732 103.538 111.851 104.147C110.969 104.756 110.265 105.51 108.914 105.104C107.533 104.698 106.358 104.553 105.565 106.525C104.743 108.496 106.329 107.945 107.621 109.366C108.914 110.787 108.091 110.845 107.063 110.526C106.035 110.178 105.565 108.902 104.038 109.105C102.54 109.308 102.54 111.686 103.01 112.294C103.48 112.903 104.449 113.251 103.774 114.382C103.098 115.542 104.126 116.876 105.36 117.426C106.593 117.977 108.444 115.803 109.149 114.933C109.824 114.063 110.529 114.266 110.382 114.933C110.265 115.513 109.942 117.049 109.912 118.325C110.969 118.006 111.997 117.687 112.996 117.426C112.996 116.702 112.849 115.571 112.526 114.469C112.115 112.99 113.084 113.396 113.965 114.208L113.936 114.179Z" fill="#008348"/>
<path d="M96.1084 121.428C94.4637 121.892 94.1994 121.167 93.0833 120.761C91.9966 120.355 91.9085 121.312 92.6721 122.442C93.4358 123.602 94.2581 124.675 93.3476 124.675C92.4372 124.675 91.7617 124.82 91.6442 125.487C91.4973 126.154 90.0582 125.342 89.7351 123.921C89.3827 122.5 89.0596 119.775 88.296 121.138C87.5324 122.5 86.8569 124.733 84.9478 123.718C83.0388 122.703 84.3311 121.341 83.3619 120.384C82.3927 119.427 81.5116 118.209 82.4808 116.528C83.45 114.846 84.2723 116.267 85.1534 116.267C86.0345 116.267 86.1814 115.455 85.359 114.846C84.5367 114.237 83.5087 111.309 87.2681 111.512C88.7366 111.599 90.2932 111.106 91.5267 110.236C92.7602 109.366 95.9909 109.83 94.6987 112.063C93.4064 114.295 93.8176 114.759 94.5518 113.947C95.3154 113.135 96.2553 111.657 97.7238 112.063C99.1629 112.468 98.5461 113.541 97.665 114.759C96.7839 115.977 97.3126 116.789 98.0175 117.252C98.693 117.716 99.9559 120.297 96.1672 121.399L96.1084 121.428Z" fill="#008348"/>
<path d="M103.098 105.423C101.865 105.481 100.338 105.162 100.338 105.162C100.191 106.438 98.9278 108.293 97.6649 110.178C97.5181 110.381 96.7838 110.381 96.4314 110.12C96.079 109.859 95.1391 109.366 95.8734 108.554C96.637 107.742 97.8705 106.061 97.6649 105.307C97.4594 104.553 96.9013 103.886 96.079 104.901C95.2566 105.916 93.9643 108.032 92.4958 108.09C91.0567 108.148 89.6176 106.872 90.2931 105.597C90.9686 104.321 91.1742 103.625 90.2343 102.465C89.2651 101.306 89.6176 99.827 91.6735 98.9571C92.2902 98.6962 93.3769 98.9571 94.1405 99.566C94.9042 100.175 95.3153 99.566 94.2874 98.9571C93.2595 98.3483 92.4371 97.5944 92.2902 96.2607C92.1728 94.985 92.9658 93.6222 94.7573 94.3761C96.5489 95.1299 97.6356 94.521 98.3992 93.9122C99.1628 93.3033 102.364 92.5495 101.894 95.3329C101.542 97.3625 100.602 97.4204 100.308 98.5222C100.044 99.595 100.866 98.9281 101.336 98.1163C101.806 97.3045 102.922 93.9702 105.184 96.4926C105.742 97.1015 105.536 98.1163 104.831 99.2761C104.156 100.436 104.684 101.103 105.096 101.712C105.507 102.32 106.476 105.307 103.04 105.51L103.098 105.423Z" fill="#008348"/>
<path d="M159.724 51.5519L161.809 50.0732L166.361 56.7418L169.034 54.8572L164.364 48.3335L166.391 46.9128L171.354 53.8134L174.027 51.9288L166.655 41.7229L154.496 50.2181L161.192 59.6412L163.865 57.7566L159.724 51.5519Z" fill="white"/>
<path d="M168.505 74.6891L172.47 72.8625L169.739 66.9767L179.049 63.1495L177.375 59.4673L164.217 65.1211L168.505 74.6891Z" fill="white"/>
<path d="M170.884 80.8939L171.295 84.5182L180.106 83.4744L180.459 87.2726L184.424 86.9826L183.308 74.3123L179.372 74.6022L179.695 79.8791L170.884 80.8939Z" fill="white"/>
<path d="M171.325 93.2453L171.383 97.5654L184.365 97.5364L184.306 93.2163L171.325 93.2453Z" fill="white"/>
<path d="M177.404 103.683C175.231 103.277 172.647 103.625 170.855 104.988C169.24 106.206 168.476 107.423 168.065 109.627C167.8 111.019 168.006 112.874 168.476 114.469L171.912 113.338C171.589 112.555 171.442 111.367 171.795 110.178C172.5 107.858 174.409 106.814 176.729 107.162C179.196 107.51 180.606 109.743 180.165 112.41C179.989 113.483 179.46 114.382 178.227 115.107L180.341 117.629C182.074 116.585 183.396 114.527 183.66 113.077C184.13 110.642 183.543 108.96 182.397 106.988C181.281 105.046 179.402 104.06 177.404 103.683V103.683Z" fill="white"/>
<path d="M175.026 121.572C173.205 121.109 170.737 123.08 169.563 124.211C168.887 124.849 166.479 127.255 165.363 126.878C164.364 126.559 164.687 125.052 165.01 124.066C165.51 122.645 166.244 121.456 167.389 120.674L165.245 119.746C164.188 120.616 163.043 122.007 162.573 123.399C162.015 125.023 161.78 126.907 162.015 128.096C162.308 129.633 162.866 130.648 164.629 130.474C166.009 130.358 169.416 128.154 171.413 126.298C172.412 125.371 173.263 125.255 173.733 125.516C174.467 125.922 174.409 127.139 174.144 127.893C173.792 128.908 173.293 130.474 172.47 131.054L175.407 132.996C176.611 131.807 177.228 130.01 177.581 128.357C178.432 124.327 176.23 121.862 175.026 121.572V121.572Z" fill="white"/>
<path d="M158.725 36.504C158.461 34.5324 157.374 32.2419 156.229 31.2561C154.496 29.7484 152.411 29.3715 150.208 29.6324C147.976 29.9224 145.89 31.3431 144.745 32.9667C143.482 34.7644 142.748 37.2289 143.247 39.4034C143.688 41.346 144.51 42.5348 146.39 43.8395C147.564 44.6513 149.356 45.2312 151.03 45.4632L151.383 41.8969C150.531 41.8969 149.385 41.52 148.416 40.7081C146.566 39.1425 146.478 36.62 147.653 35.0253C149.121 33.0247 151.676 32.5898 153.938 34.0975C154.848 34.7064 155.201 35.6632 155.377 37.0549L158.725 36.475V36.504Z" fill="white"/>
<path d="M25.9436 110.352C26.0317 109.395 25.9729 107.597 27.0302 107.394C28.0582 107.192 28.7337 108.177 28.9393 109.163C29.2624 110.642 29.6735 111.773 29.0861 113.019L31.8469 112.729C32.2875 111.454 32.17 109.772 31.8469 108.322C31.4945 106.641 30.9364 105.481 29.7029 104.379C28.4987 103.335 27.6176 103.045 25.8554 103.422C24.7981 103.654 22.8891 105.539 22.8303 109.308C22.8303 110.033 22.6541 111.396 21.9786 111.425C21.1563 111.483 20.5395 110.497 20.3633 109.714C20.1283 108.67 20.4514 106.351 20.8626 105.452H17.9549C17.5438 107.076 17.3675 109.337 17.72 111.019C18.513 114.701 20.7744 115.89 22.5954 115.716C24.5632 115.513 25.5911 113.483 25.8848 110.381L25.9436 110.352Z" fill="white"/>
<path d="M20.1577 94.811L30.4078 94.695L30.3785 91.5057L20.1284 91.6507L20.0696 87.3306L16.8096 87.3596L16.9271 99.4501L20.2165 99.3921L20.1577 94.811Z" fill="white"/>
<path d="M38.6903 63.0626L30.7604 58.5685L30.7898 58.5105L41.2748 58.3365L43.7713 54.5383L30.8485 47.1738L28.9101 50.1892L37.7211 55.6401L25.7088 55.988L24.0347 59.1774L36.7225 66.4549L38.6903 63.0626Z" fill="white"/>
<path d="M25.8554 82.3726C30.2315 82.3726 33.7853 78.8643 33.7853 74.5442C33.7853 70.2241 30.2315 66.7158 25.8554 66.7158C21.4793 66.7158 17.9255 70.2241 17.9255 74.5442C17.9255 78.8643 21.4793 82.3726 25.8554 82.3726ZM25.8554 70.4561C28.1463 70.4561 29.9966 72.2827 29.9966 74.5442C29.9966 76.8057 28.1463 78.6324 25.8554 78.6324C23.5646 78.6324 21.7143 76.8057 21.7143 74.5442C21.7143 72.2827 23.5646 70.4561 25.8554 70.4561Z" fill="white"/>
<path d="M38.8957 126.067C38.8957 121.747 35.3419 118.238 30.9658 118.238C26.5896 118.238 23.0359 121.747 23.0359 126.067C23.0359 130.387 26.5896 133.895 30.9658 133.895C35.3419 133.895 38.8957 130.387 38.8957 126.067ZM30.9658 130.155C28.6749 130.155 26.8246 128.328 26.8246 126.067C26.8246 123.805 28.6749 121.979 30.9658 121.979C33.2566 121.979 35.1069 123.805 35.1069 126.067C35.1069 128.328 33.2566 130.155 30.9658 130.155V130.155Z" fill="white"/>
<path d="M40.5111 134.997C39.3069 136.069 38.7195 138.592 39.8649 140.303C38.602 139.694 36.0762 139.491 34.9308 140.477C32.0819 142.912 35.5476 146.449 38.3671 149.262L42.332 153.118L52.8758 144.507L48.6172 139.607C47.1193 137.751 42.9782 132.793 40.5111 134.968V134.997ZM40.981 148.653C39.9237 147.406 36.8105 145 38.1321 143.753C39.395 142.564 42.5376 146.333 42.9194 146.797L40.9516 148.653H40.981ZM45.8564 144.304L45.5921 143.985C44.711 142.941 41.774 139.868 42.9782 138.737C44.0942 137.693 46.9137 141.23 47.7067 142.158L48.0592 142.564L45.8858 144.304H45.8564Z" fill="white"/>
<path d="M87.415 175.501C87.8556 175.298 88.4724 175.037 88.7661 175.24C89.0304 175.443 90.6751 176.603 91.703 177.473C92.731 178.343 93.0834 178.633 92.2611 179.097C91.4387 179.561 90.6751 180.053 90.822 179.647C90.9688 179.242 91.1744 178.633 90.6164 178.082C90.0583 177.531 88.7073 176.516 88.1493 176.052C87.7675 175.733 87.415 175.501 87.415 175.501V175.501Z" fill="#BB9753"/>
<path d="M83.5382 176.603C83.1857 176.922 83.127 177.415 83.5382 177.821C83.9494 178.227 86.2402 180.111 86.622 180.488C87.0038 180.865 87.5619 181.01 88.1786 180.865C88.7954 180.72 87.4444 181.619 86.9451 181.706C86.4458 181.793 85.8584 181.793 85.3004 181.3C84.7423 180.807 81.6585 177.908 81.0417 177.328C80.425 176.748 81.218 176.748 81.776 176.69C82.334 176.632 82.8039 176.661 83.5675 176.574L83.5382 176.603Z" fill="#BB9753"/>
<path d="M98.5461 15.0483C98.6636 14.7294 98.781 14.3524 98.9279 14.0625C98.4286 14.3234 97.9587 14.5844 97.4888 14.8163C97.7825 15.2513 98.1936 15.9181 98.5461 15.0483Z" fill="#BB9753"/>
<path d="M110.911 15.7152C110.705 15.0194 110.059 16.1211 109.178 17.1359C108.326 18.1507 107.093 17.5419 106.946 17.049C106.799 16.5271 106.564 15.9762 105.8 14.9904C105.037 14.0046 106.535 12.6419 107.151 12.4969C107.768 12.3229 108.561 12.207 108.767 12.033C108.943 11.888 108.62 10.9022 108.473 10.1194C106.006 10.8152 103.01 12.091 100.338 13.3667C101.16 13.6856 100.896 15.2223 100.808 15.4253C100.69 15.6572 100.426 17.02 101.043 16.2081C101.659 15.3963 101.894 15.0774 102.54 14.9034C103.187 14.7004 103.921 14.7294 103.95 15.6862C103.98 16.643 103.539 16.5561 103.392 17.1649C103.245 17.7738 103.392 17.7448 103.715 17.8898C104.009 18.0348 104.214 18.4407 103.98 19.0785C103.745 19.7164 102.717 19.8034 101.777 19.6874C100.837 19.6004 100.749 19.7164 101.072 20.0353C101.336 20.2963 101.659 20.8182 101.777 21.3981C104.009 20.3253 106.711 19.4265 110.881 18.5856C110.999 17.8028 111.028 16.3531 110.881 15.7732L110.911 15.7152Z" fill="#BB9753"/>
<path d="M89.2358 29.1104C88.9127 28.5016 88.4722 28.3856 88.296 28.8785C88.1197 29.3424 87.7673 30.9371 86.71 31.372C86.3575 31.5169 86.0932 31.6039 85.917 31.6619C86.2988 32.0678 86.71 32.4157 87.1799 32.7347C88.0316 31.8649 88.7952 31.053 89.5589 30.3282C89.5589 29.9513 89.4414 29.5453 89.2358 29.1104V29.1104Z" fill="#BB9753"/>
<path d="M99.4859 21.0213C99.1041 20.8763 98.8104 21.4562 98.5461 21.8621C98.3111 22.268 97.7825 22.9349 96.9014 22.8479C96.0203 22.7609 95.8147 22.442 95.5503 21.6881C95.3154 20.9343 94.7573 20.7023 94.1112 20.7023C93.4651 20.7023 93.0245 19.9195 93.7 19.1076C94.3755 18.2958 95.0804 18.6727 95.6091 18.6727C96.1377 18.6727 96.4314 18.0929 95.9909 17.8029C95.6385 17.571 95.0217 16.8751 94.9042 16.3242C92.9364 17.6 90.1463 19.5715 87.6792 21.7461C88.1197 21.7751 88.6484 21.9201 88.8834 22.036C89.2064 22.181 89.7351 22.5869 89.6764 23.1958C89.6176 23.8047 89.8232 23.9496 90.205 23.5437C90.5868 23.1378 90.1463 21.9201 91.4092 21.4562C92.6721 20.9923 92.8483 21.9201 92.7896 22.5869C92.7308 23.2248 92.7896 23.8337 93.4357 24.1236C94.0818 24.3846 94.8455 25.4573 93.4063 26.0662C91.9672 26.6751 91.1742 26.8201 90.5868 26.994C89.9994 27.168 90.1463 27.7479 90.6162 28.1248C90.9099 28.3567 91.1155 28.5887 91.2917 28.7337C93.1126 27.081 94.8161 25.7183 96.7545 24.4136C97.8118 23.7177 98.781 23.0798 99.7796 22.4999C99.9558 21.8911 100.015 21.3112 99.4565 21.1082L99.4859 21.0213Z" fill="#BB9753"/>
<path d="M86.0344 27.342C86.0638 26.6751 85.5645 26.4141 85.2121 26.3272C84.9477 26.2402 84.4778 25.7763 84.2722 25.3704C83.9198 25.8343 83.6261 26.2692 83.3911 26.7041C83.538 27.168 83.6848 27.5739 83.8317 27.9798C84.6834 27.9798 86.005 27.9218 86.0344 27.342V27.342Z" fill="#BB9753"/>
<path d="M115.052 58.9453C112.82 58.8003 110.118 59.2642 107.563 60.221C108.003 60.482 108.473 61.0908 109.413 60.7719C110.705 60.337 111.175 61.6997 110.558 62.0476C109.942 62.4246 109.736 63.3524 110.911 62.6565C112.086 61.9607 113.113 62.9754 112.644 63.7003C112.174 64.4541 111.557 63.8743 111.674 64.918C111.821 65.9618 111.586 66.9186 110.617 67.0926C109.648 67.2666 109.442 65.8459 109.002 65.9328C108.561 66.0488 109.09 68.4263 108.884 68.4843C108.209 68.6003 107.563 69.1802 107.24 69.5281C107.24 69.5281 107.298 69.5571 107.328 69.5861C111.116 72.2535 112.056 70.8038 112.614 69.5281C113.172 68.2524 114.376 64.4251 114.729 62.4246C114.934 61.2648 115.199 60.047 115.081 58.9743L115.052 58.9453Z" fill="#BB9753"/>
<path d="M106.828 66.3388C107.034 65.8169 106.476 65.382 105.889 65.7589C105.301 66.1359 104.449 66.6868 103.862 65.701C103.275 64.7152 104.508 64.6282 104.596 64.1353C104.655 63.6714 104.185 63.5844 104.42 62.8016C104.655 62.0187 105.507 62.2507 106.124 62.6566C106.858 63.1205 106.623 62.0187 106.535 61.5838C106.447 61.2649 106.417 60.917 106.476 60.656C105.742 60.9749 105.007 61.3519 104.303 61.7868C100.778 63.9323 100.661 65.73 101.483 66.3968C102.217 67.0057 103.745 67.2956 106.3 68.9483C106.3 68.0785 106.652 66.7158 106.799 66.3388H106.828Z" fill="#BB9753"/>
<path d="M95.6089 64.3092C94.1404 63.5844 92.7307 62.0187 91.7615 60.1631C91.7615 60.1631 91.8202 59.9022 91.409 59.9022C90.9979 59.9022 89.5 59.7572 86.9448 58.8874C84.419 58.0175 84.0666 58.5394 83.7141 59.6412C83.3617 60.714 83.0973 62.6856 83.0386 65.9329C82.9799 69.1802 84.419 71.2098 85.3001 70.8909C85.7406 70.7169 86.8567 70.166 88.0609 69.5862C88.0609 68.9483 88.1196 67.8175 88.1783 67.2956C88.2958 66.5128 87.4735 66.8317 87.121 67.2376C86.7686 67.6436 86.1225 68.3104 85.5057 68.2234C84.8889 68.1365 84.4777 67.0347 84.5658 66.0199C84.6833 65.0051 83.4792 64.5992 84.2134 63.2365C84.977 61.8737 85.5938 63.5844 86.2399 63.4394C86.8861 63.2945 86.563 62.9755 86.2399 61.9027C85.9169 60.859 87.2091 60.54 88.0315 61.2939C88.5602 61.7578 88.7951 60.714 89.5294 60.859C90.293 61.0039 90.7335 61.4968 90.293 62.2507C89.9405 62.8306 89.7056 64.1933 90.3517 63.4684C90.9979 62.7436 91.644 62.3087 92.2608 62.8016C92.8775 63.2655 92.4664 64.2513 92.2901 64.7732C92.1139 65.295 93.3768 65.9039 92.4957 66.5128C91.6146 67.1217 90.6161 66.0779 90.0874 66.2229C89.5587 66.3678 89.4706 66.9767 90.1461 67.4406C90.5867 67.7595 91.0566 67.9915 91.409 68.1365C92.8482 67.6436 94.5223 66.7447 95.0509 66.3968L95.932 66.4548C95.9908 65.295 95.932 64.5702 95.5208 64.3672L95.6089 64.3092Z" fill="#BB9753"/>
<path d="M90.5281 79.2122C89.97 77.9945 89.7938 78.9223 88.2666 81.2998C87.5029 82.5176 85.5352 84.7501 83.0975 87.2726C84.8009 87.6205 88.4134 88.4903 86.2694 90.259C83.9492 92.1436 84.9771 92.0276 86.0051 91.8826C87.033 91.7377 88.7659 92.3465 87.4442 94.6661C86.1519 96.9566 85.2415 98.6092 84.0079 99.3341C82.7744 100.088 80.9828 100.001 80.5716 98.2613C80.1605 96.4927 78.9857 98.2613 78.9269 99.4211C78.8682 100.581 78.7213 102.523 78.8682 103.219L76.2543 103.074C76.1955 102.002 76.1955 99.827 76.4011 98.8122C76.6067 97.7974 76.548 96.5797 74.962 97.0436C73.934 97.3625 73.2292 97.1016 72.8474 96.8696C69.7929 99.566 68.2363 101.422 67.179 103.074C67.9719 103.77 69.2055 104.292 70.5565 103.741C72.0544 103.132 74.5508 103.886 73.0236 106.177C71.5257 108.467 71.5844 109.627 73.0823 108.206C74.5802 106.786 77.0179 104.35 77.7521 106.931C78.222 108.612 76.6654 109.163 76.7242 110.526C76.7829 111.888 78.1633 113.222 76.2543 114.875C74.3452 116.499 73.5229 113.715 72.2012 114.121C71.4082 114.353 71.2614 115.078 71.2907 115.716C72.9942 118.093 75.4906 121.486 76.3717 122.935C77.7521 125.168 77.7521 127.893 78.2808 127.487C78.8388 127.081 80.1311 125.864 80.5423 125.516C80.9535 125.168 81.3646 124.762 81.159 124.037C80.9535 123.283 80.1605 119.311 80.3954 116.528C80.6598 113.338 82.187 109.859 83.2737 107.858C84.331 105.945 87.5323 99.798 88.2959 98.1743C89.0596 96.5507 90.4106 94.6371 90.763 93.1584C91.1154 91.6797 92.4077 88.2004 92.9658 86.5767C92.8189 85.214 91.9378 82.4886 90.4987 79.2702L90.5281 79.2122Z" fill="#BB9753"/>
<path d="M100.837 64.1064C100.426 65.1792 99.8679 66.5419 99.6035 67.2378C99.3392 67.9047 98.0763 67.6437 98.1644 67.1798C98.37 66.165 96.9015 66.8319 97.0777 66.0201C97.2246 65.3532 96.9309 64.2514 97.6945 64.2514C98.4581 64.2514 99.8972 64.1064 100.837 64.1064V64.1064Z" fill="#BB9753"/>
<path d="M98.5461 15.0485C98.6636 14.7296 98.781 14.3527 98.9279 14.0627C98.4286 14.3237 97.9587 14.5846 97.4888 14.8166C97.7825 15.2515 98.1936 15.9184 98.5461 15.0485Z" fill="#BB9753"/>
<path d="M120.456 109.308C118.665 106.409 118.342 105.249 118.048 102.263C117.872 100.378 118.048 97.9424 118.312 95.5939C117.784 95.5649 117.079 95.6519 117.02 96.4347C116.961 97.7105 116.344 99.5371 115.933 100.494C115.522 101.451 114.142 101.364 113.319 101.451C112.497 101.509 112.497 100.987 113.055 99.7691C113.613 98.5513 113.819 98.0004 113.672 96.9277C113.525 95.8549 112.996 96.7827 112.497 97.7395C112.027 98.6963 110.647 100.581 109.061 100.378C107.475 100.175 107.886 97.7975 108.033 96.9856C108.18 96.1738 107.68 96.0288 107.064 95.9129C106.447 95.7679 105.213 95.5069 105.889 93.5353C106.564 91.5638 107.328 91.7667 108.297 92.1146C109.266 92.4626 109.384 91.8537 108.503 91.5058C107.622 91.1578 106.652 90.433 106.711 89.4762C106.887 86.9537 108.503 87.1857 109.736 87.4466C110.823 87.6786 112.174 87.0407 113.084 86.0839C113.084 86.0259 113.055 85.9679 113.026 85.9099C111.205 79.0093 114.67 70.5431 115.64 68.1656C116.609 65.7881 120.309 59.1194 121.572 57.1189C120.897 56.7709 119.076 55.8721 118.077 55.3502C117.079 54.8573 116.521 54.5964 116.256 54.9733C115.992 55.3502 115.64 55.5532 115.17 56.22C114.2 57.5828 115.023 57.3798 115.316 57.3798C115.61 57.3798 116.756 58.8585 116.961 59.2064C117.167 59.5544 116.961 59.8153 116.491 60.8881C115.875 62.3088 115.463 65.5561 114.905 67.5277C113.231 73.4715 110.647 72.8916 109.472 72.1378C108.297 71.3839 107.974 72.5437 106.799 74.1673C106.505 74.5443 105.83 75.2981 104.89 76.1969C106.006 76.6898 107.533 78.1105 105.683 79.5022C103.568 81.1259 103.128 82.0247 104.185 81.7928C105.213 81.5898 106.241 80.0241 107.416 81.1259C108.591 82.1987 107.005 83.4164 106.388 83.7644C105.771 84.1123 104.538 84.7212 104.89 85.9969C105.243 87.2726 105.448 89.0413 103.715 89.4472C102.012 89.8531 101.307 89.0993 100.837 88.2294C100.367 87.3596 99.8679 87.9685 99.6623 89.0413C99.4567 90.1141 99.3099 90.9259 99.3099 91.3318C99.3099 91.7377 98.0763 91.1288 97.5183 90.578C96.9603 90.0271 96.2848 91.5348 95.668 90.7809C95.0512 90.0271 96.4316 87.7365 96.9015 86.9247C97.3421 86.1709 97.1659 85.0981 94.4345 86.3448C93.5534 87.7945 92.8485 89.9111 91.7618 93.2164C90.2639 97.7685 86.8276 103.944 85.4179 106.206C81.7173 112.063 81.0711 117.629 81.5998 121.08C82.1578 124.53 82.6277 124.269 83.3914 124.269C84.155 124.269 86.0053 126.56 87.2388 128.009C88.4724 129.43 88.9423 128.821 89.559 128.357C91.5562 126.849 95.5211 124.298 101.16 121.66C103.568 120.529 106.77 119.34 109.883 118.354C109.942 117.078 110.235 115.542 110.353 114.962C110.5 114.295 109.795 114.092 109.119 114.962C108.444 115.832 106.594 118.006 105.331 117.455C104.097 116.905 103.069 115.571 103.745 114.411C104.42 113.251 103.48 112.932 102.981 112.323C102.511 111.715 102.511 109.337 104.009 109.134C105.507 108.931 106.006 110.207 107.034 110.555C108.062 110.903 108.884 110.816 107.592 109.395C106.3 107.974 104.714 108.525 105.536 106.554C106.359 104.582 107.533 104.727 108.884 105.133C110.265 105.539 110.94 104.785 111.821 104.176C112.703 103.567 114.494 102.755 115.728 104.176C116.961 105.597 114.847 106.873 114.347 107.365C113.407 108.293 113.261 110.004 114.289 108.989C115.316 107.974 117.079 104.292 118.283 107.365C118.958 109.134 117.666 109.801 117.872 110.874C118.077 111.947 119.928 113.454 118.43 114.817C116.932 116.18 114.788 115.02 113.907 114.208C113.026 113.396 112.056 112.99 112.468 114.469C112.761 115.571 112.938 116.731 112.938 117.426C115.933 116.615 118.547 116.122 119.898 116.238C121.866 116.412 123.334 116.992 123.276 115.223C123.217 113.454 122.248 112.236 120.456 109.337V109.308ZM96.0792 121.428C94.4345 121.892 94.1701 121.167 93.0541 120.761C91.9674 120.355 91.8793 121.312 92.6429 122.442C93.4065 123.602 94.2289 124.675 93.3184 124.675C92.4079 124.675 91.7324 124.82 91.6149 125.487C91.4681 126.154 90.029 125.342 89.7059 123.921C89.3535 122.5 89.0304 119.775 88.2668 121.138C87.5031 122.5 86.8276 124.733 84.9186 123.718C83.0095 122.703 84.3018 121.341 83.3326 120.384C82.3634 119.427 81.4823 118.209 82.4515 116.528C83.4207 114.846 84.2431 116.267 85.1242 116.267C86.0053 116.267 86.1521 115.455 85.3298 114.846C84.5074 114.237 83.4795 111.309 87.2388 111.512C88.7073 111.599 90.2639 111.106 91.4975 110.236C92.731 109.366 95.9617 109.83 94.6694 112.063C93.3771 114.295 93.7883 114.759 94.5226 113.947C95.2862 113.135 96.226 111.657 97.6945 112.063C99.1336 112.468 98.5169 113.541 97.6358 114.759C96.7547 115.977 97.2833 116.789 97.9882 117.252C98.6637 117.716 99.9266 120.297 96.1379 121.399L96.0792 121.428ZM103.069 105.423C101.836 105.481 100.308 105.162 100.308 105.162C100.162 106.438 98.8987 108.293 97.6358 110.178C97.4889 110.381 96.7547 110.381 96.4022 110.12C96.0498 109.859 95.11 109.366 95.8442 108.554C96.6078 107.742 97.8414 106.061 97.6358 105.307C97.4302 104.553 96.8722 103.886 96.0498 104.901C95.2274 105.916 93.9352 108.032 92.4667 108.09C91.0275 108.148 89.5884 106.873 90.2639 105.597C90.9394 104.321 91.145 103.625 90.2052 102.466C89.236 101.306 89.5884 99.8271 91.6443 98.9572C92.2611 98.6963 93.3478 98.9572 94.1114 99.5661C94.875 100.175 95.2862 99.5661 94.2582 98.9572C93.2303 98.3484 92.4079 97.5945 92.2611 96.2608C92.1436 94.9851 92.9366 93.6223 94.7282 94.3762C96.5197 95.13 97.6064 94.5211 98.37 93.9123C99.1336 93.3034 102.335 92.5496 101.865 95.333C101.513 97.3626 100.573 97.4205 100.279 98.5223C100.015 99.5951 100.837 98.9282 101.307 98.1164C101.777 97.3046 102.893 93.9703 105.154 96.4927C105.713 97.1016 105.507 98.1164 104.802 99.2762C104.127 100.436 104.655 101.103 105.066 101.712C105.478 102.321 106.447 105.307 103.01 105.51L103.069 105.423Z" fill="#BB9753"/>
<path d="M79.7788 163.353C79.4851 163.353 78.8096 163.237 78.8096 162.976L78.0166 162.889C78.4865 162.976 78.927 163.527 78.4277 163.875C77.8697 164.252 76.1369 164.455 74.2866 164.339C72.4363 164.252 71.9957 163.237 71.937 162.541C71.937 162.077 71.9664 161.642 71.9664 160.975C71.9664 160.309 71.7901 159.671 72.2013 159.41C72.6125 159.149 72.5244 159.816 72.7887 159.816C73.9635 159.816 78.0166 160.193 78.9564 160.338C79.9256 160.482 79.8669 159.903 79.6319 159.265C79.5732 159.062 79.2795 159.149 79.1914 159.41C79.0739 159.671 78.1928 159.584 78.1928 159.584C78.1928 159.584 76.4012 159.41 75.2558 159.352C74.081 159.294 73.1999 159.149 72.4656 159.004C71.7314 158.859 70.8503 158.888 70.909 159.236C70.9678 159.584 71.1734 163.846 71.2321 164.484C71.2615 165.093 71.2908 165.353 71.6139 165.353C72.4069 165.353 77.7229 165.411 78.9564 165.411C80.1899 165.411 80.1312 165.267 80.1606 164.6C80.1899 163.904 80.0725 163.411 79.7494 163.411L79.7788 163.353Z" fill="#BB9753"/>
</g>
</g>
<defs>
<clipPath id="clip0_38_40357">
<rect width="200" height="200" fill="white"/>
</clipPath>
<clipPath id="clip1_38_40357">
<rect width="177.6" height="194.927" fill="white" transform="translate(11.2 2.32007)"/>
</clipPath>
</defs>
</svg>
