<svg width="200" height="200" viewBox="0 0 200 200" fill="none" xmlns="http://www.w3.org/2000/svg">
<g clip-path="url(#clip0_38_40389)">
<g clip-path="url(#clip1_38_40389)">
<path d="M100 197.2C58.6624 197.2 21.7666 170.947 8.18195 131.86C-9.39057 81.2666 17.487 25.7793 68.1295 8.21265C78.4396 4.61505 89.1711 2.80005 100 2.80005C141.338 2.80005 178.233 29.0528 191.818 68.1402L192.272 69.4691C208.937 119.738 182.059 174.415 131.903 191.82C121.56 195.417 110.861 197.232 100 197.232" fill="#A0A2A3"/>
<path d="M180.049 56.051C168.312 34.6598 148.956 19.1351 125.515 12.3288C121.463 11.162 117.345 10.2545 113.195 9.6387C68.3886 3.0593 25.0085 30.9002 12.2992 74.4603C5.49067 97.8609 8.18166 122.558 19.9183 143.917C31.6549 165.275 51.0106 180.833 74.4514 187.639C78.5041 188.806 82.6217 189.713 86.7717 190.329C95.947 191.69 105.025 191.561 113.844 190.199C113.941 190.264 114.071 190.329 114.168 190.361L114.265 190.134C148.308 184.657 177.617 160.025 187.7 125.507C194.509 102.107 191.818 77.4097 180.081 56.051M135.404 23.9967V23.8995C154.533 32.7476 169.09 48.24 177.066 66.7465C168.312 55.8889 156.478 49.0502 145.163 44.772C143.801 40.2993 141.208 36.3128 136.539 34.3681C135.631 32.2939 134.367 30.8354 131.87 29.8955C129.114 30.5113 124.64 33.6875 121.852 38.7436C118.837 38.2899 116.243 37.9982 114.233 37.8361L113.617 37.7713C112.871 37.7065 112.028 37.6416 111.055 37.5768C107.003 37.2851 101.361 36.8962 94.5204 34.8867C94.9095 34.6274 95.2661 34.4006 95.6552 34.1737C117.507 23.5753 135.145 23.9967 135.372 23.9967M79.4768 73.8769C76.0401 67.5892 71.8253 62.3387 66.6054 58.9031C69.037 57.5095 71.5335 56.213 73.8354 55.1435C77.1424 55.5972 86.7392 56.9909 90.7595 58.417C93.6126 60.1347 96.4981 61.9822 99.3512 63.9268C98.638 64.8343 97.8923 65.7742 97.1142 66.7141C97.1142 66.7141 88.6197 66.8114 79.4768 73.8769M75.3917 77.4745C67.9671 84.929 55.6793 101.037 40.9275 114.488C42.2244 94.6522 48.9356 77.8959 58.1434 64.9315C59.116 63.9592 60.2832 63.0193 61.5476 62.1118C67.2863 65.0288 71.8253 70.5386 75.3917 77.4745ZM102.82 59.681C99.9673 57.7363 97.0817 55.8889 94.2286 54.1711C92.0888 51.7727 87.7443 47.2352 85.4748 44.8692C86.6096 43.0866 88.0685 40.9799 89.8841 39.0029C98.7352 42.0495 106.095 42.6329 110.699 42.9246C111.607 42.9894 112.385 43.0542 113.098 43.1191L113.779 43.1839C115.011 43.2811 116.178 43.4108 117.345 43.5404C112.903 48.1751 108.235 53.1664 102.788 59.681M81.5194 18.1303C91.3431 15.9264 101.686 15.4402 112.093 16.9635C115.854 17.5145 119.647 18.3248 123.408 19.4268C123.538 19.4592 123.7 19.524 123.83 19.5564C118.545 20.3667 111.704 21.9224 104.052 24.7097C97.9895 26.7516 91.6673 29.15 85.8639 31.516C83.7565 30.2844 82.2326 28.6963 81.4869 26.7516C80.1901 23.5105 80.9682 19.9453 81.5194 18.1303M75.6835 19.686C75.262 22.2465 75.2296 25.52 76.4616 28.6963C77.2397 30.7057 78.4717 32.4559 80.0928 33.9468C76.3967 35.5025 73.0897 36.961 70.3663 38.1926C63.9144 37.9333 52.5993 37.6092 44.656 38.0954C44.2345 38.0954 43.7806 38.0954 43.3591 38.0954C52.6317 29.6362 63.6875 23.3809 75.6835 19.7185M37.7826 43.6376C39.6306 43.508 42.2568 43.4108 45.4341 43.508C53.0856 44.1886 55.8739 46.2953 60.348 49.2447C59.3106 51.0597 58.1758 53.0692 57.041 55.0786C42.7755 52.2913 29.969 61.6905 21.4097 70.571C25.2354 60.394 30.8444 51.3514 37.7826 43.7025M17.746 83.276C23.4198 75.5623 38.0744 58.3521 54.2204 60.0699C52.9559 62.3711 51.886 64.3481 51.2376 65.6122C46.9903 72.1591 43.0349 80.0026 40.0845 89.3045C37.0045 98.9953 35.4158 109.075 35.2213 119.479C31.7846 122.299 28.2182 124.956 24.587 127.258C24.587 127.258 31.0713 133.027 37.4908 135.295C37.4908 135.295 33.0815 142.264 30.2284 146.801C18.0703 128.651 13.0449 105.931 17.7136 83.276M144.45 171.142C143.834 161.354 142.213 153.445 142.213 153.445C143.088 153.802 145.293 155.39 145.293 155.39C144.871 137.078 137.187 130.628 137.382 120.646C137.544 112.284 138.711 106.482 140.916 101.264C154.273 116.983 164.259 134.031 167.469 149.88C161.147 158.437 153.301 165.599 144.45 171.142M180.503 123.53C178.363 130.855 175.315 137.629 171.554 143.819C167.112 127.711 156.835 111.117 143.639 95.9163C144.839 93.9068 146.2 91.8325 147.757 89.661C151.356 85.7393 153.041 89.3693 153.041 89.3693C155.927 81.5259 154.079 77.5717 152.685 75.8864C152.166 75.1085 151.518 74.8168 151.518 74.8168C150.286 69.307 145.293 66.4224 145.293 66.4224C145.293 66.4224 147.011 58.6763 146.168 50.6708C173.208 61.9497 181.183 82.3685 183.518 93.0965C184.361 103.047 183.421 113.321 180.47 123.498" fill="#0E2433"/>
<path d="M85.9289 31.5484C91.7324 29.1824 98.0222 26.784 104.117 24.7422C111.801 21.9548 118.61 20.3991 123.895 19.5888C123.765 19.5564 123.603 19.4916 123.473 19.4592C119.712 18.3572 115.919 17.547 112.158 16.996C101.783 15.4727 91.4406 15.9264 81.5844 18.1628C81.0009 20.0102 80.2552 23.543 81.552 26.784C82.3301 28.7287 83.8215 30.3168 85.9289 31.5484" fill="#266092"/>
<path d="M40.1171 89.2398C43.0675 79.9379 47.0554 72.0945 51.2702 65.5475C51.9186 64.2834 52.9885 62.3064 54.253 60.0052C38.107 58.2874 23.4524 75.4976 17.7786 83.2114C13.1099 105.867 18.1353 128.586 30.2934 146.737C33.1141 142.199 37.5558 135.263 37.5558 135.263C31.1039 132.994 24.652 127.225 24.652 127.225C28.2832 124.924 31.8496 122.299 35.2863 119.447C35.4484 109.043 37.0695 98.963 40.1495 89.2722" fill="#266092"/>
<path d="M43.3916 38.063C43.7807 38.063 44.2346 38.063 44.6885 38.063C52.6318 37.5768 63.9469 37.9333 70.3988 38.1926C73.1222 36.961 76.4616 35.5025 80.1253 33.9468C78.5366 32.4559 77.3046 30.7057 76.5265 28.6962C75.262 25.4876 75.3269 22.2465 75.7484 19.686C63.7524 23.316 52.6966 29.6037 43.424 38.0306" fill="#266092"/>
<path d="M144.547 171.077C153.398 165.535 161.244 158.372 167.566 149.815C164.357 133.967 154.371 116.918 141.045 101.199C138.841 106.417 137.706 112.219 137.511 120.581C137.317 130.563 145.001 137.013 145.422 155.325C145.422 155.325 143.218 153.737 142.342 153.381C142.342 153.381 143.963 161.289 144.579 171.077" fill="#266092"/>
<path d="M73.8682 55.1111C71.5663 56.2131 69.0698 57.4771 66.6382 58.9031C71.8905 62.3387 76.0729 67.5892 79.5096 73.8769C88.6525 66.8114 97.1469 66.7142 97.1469 66.7142C97.925 65.7418 98.6383 64.8343 99.384 63.9268C96.5309 61.9822 93.6454 60.1348 90.7923 58.417C86.772 56.9585 77.1752 55.5648 73.9006 55.1111" fill="#266092"/>
<path d="M117.378 43.5404C116.211 43.4108 115.011 43.2812 113.811 43.1839L113.131 43.1191C112.45 43.0543 111.639 42.9895 110.731 42.9246C106.095 42.6005 98.7678 42.0495 89.9167 39.0029C88.1011 40.98 86.6097 43.1191 85.5073 44.8693C87.7768 47.2353 92.1213 51.7728 94.2612 54.1712C97.1143 55.889 99.9998 57.7364 102.853 59.681C108.3 53.1664 112.968 48.2076 117.41 43.5404" fill="#266092"/>
<path d="M21.4424 70.5063C29.9693 61.6582 42.8082 52.2266 57.0737 55.014C58.2085 53.0045 59.3432 51.0274 60.3807 49.18C55.939 46.2631 53.1507 44.1563 45.4668 43.4433C42.3219 43.3461 39.6633 43.4433 37.8153 43.573C30.8771 51.2219 25.2357 60.2645 21.4424 70.4415" fill="#266092"/>
<path d="M180.567 123.466C183.518 113.289 184.458 103.014 183.615 93.0642C181.281 82.3362 173.305 61.9174 146.265 50.6384C147.108 58.6439 145.39 66.3901 145.39 66.3901C145.39 66.3901 150.383 69.2746 151.615 74.7845C151.615 74.7845 152.263 75.0762 152.782 75.854C154.176 77.5394 156.024 81.4935 153.139 89.3369C153.139 89.3369 151.453 85.7069 147.854 89.6286C146.298 91.8002 144.936 93.842 143.736 95.8839C156.932 111.052 167.21 127.679 171.651 143.787C175.445 137.597 178.492 130.79 180.6 123.498" fill="#266092"/>
<path d="M131.87 29.8954C134.366 30.8353 135.631 32.2938 136.539 34.3681C141.207 36.3128 143.801 40.2669 145.163 44.772C156.478 49.0502 168.312 55.8889 177.066 66.7465C169.09 48.2723 154.5 32.78 135.404 23.8994V23.9966C135.177 23.9966 117.54 23.5753 95.6875 34.1736C95.2984 34.4005 94.9094 34.6274 94.5527 34.8867C101.394 36.8961 107.035 37.2851 111.088 37.5768C112.028 37.6416 112.903 37.7064 113.649 37.7712L114.265 37.8361C116.243 37.9981 118.869 38.2898 121.884 38.7436C124.672 33.6875 129.147 30.5112 131.902 29.8954" fill="#266092"/>
<path d="M75.4241 77.4745C71.8253 70.571 67.3187 65.0288 61.5801 62.1118C60.3157 63.0517 59.1485 63.9916 58.1758 64.9316C48.9357 77.8959 42.2568 94.6199 40.96 114.488C55.7118 101.037 67.9996 84.929 75.4566 77.4745" fill="#266092"/>
<path d="M83.6592 37.0583L77.8557 45.4851C77.8557 45.4851 82.2326 48.5317 85.8314 52.6479C79.5092 51.3515 72.6034 50.1847 72.6034 50.1847L61.6125 56.1483L66.7675 47.5918C66.7675 47.5918 63.2984 44.6424 59.3105 42.0496C63.6875 42.1792 72.0198 42.8598 72.0198 42.8598L83.6592 37.0259V37.0583Z" fill="#79BC43"/>
<path d="M94.4882 74.2659C94.4882 74.2659 93.2562 77.669 93.0941 80.8129C93.0941 80.8129 85.3777 81.9472 81.6816 84.4753C81.6816 84.4753 89.3656 76.8263 94.4882 74.2659Z" fill="#79BC43"/>
<path d="M146.395 73.9418C147.238 73.7474 147.887 73.6825 148.373 73.7474C148.243 73.3584 147.951 72.775 147.497 72.1916C146.817 71.349 145.812 70.7332 145.812 70.7332C146.46 71.7055 146.46 73.0667 146.395 73.9418" fill="white"/>
<path d="M139.457 77.4421C140.462 76.7615 141.37 76.1781 142.181 75.7244C142.018 75.3679 141.791 74.8493 141.435 74.2335C140.786 73.0343 139.036 72.0295 139.036 72.0295C139.749 74.1362 139.587 76.2754 139.425 77.4421" fill="white"/>
<path d="M56.8143 129.429C50.2651 132.119 34.7676 128.457 34.7676 128.457C50.4272 127.549 65.7302 116.335 65.7302 116.335V116.432C61.0939 123.466 54.7717 127.549 54.7717 127.549C55.485 128.457 56.1658 129.04 56.8143 129.462" fill="#A0A2A3"/>
<path d="M134.885 36.0535C134.885 36.0535 131.027 33.0393 126.65 37.7065C131.319 29.1825 134.043 34.0765 134.885 36.0535Z" fill="#79BC43"/>
<path d="M150.091 77.4098C150.091 77.4098 149.702 77.1505 149.605 77.0857C147.173 75.7893 142.796 79.5814 139.911 81.1695C137.058 82.7252 132.908 86.0959 130.865 81.4612C128.822 76.8588 133.491 69.6312 135.112 65.0937C138.679 55.0464 138.808 49.1476 138.063 45.9389C141.37 49.6662 142.407 56.7966 142.407 56.7966C142.407 56.7966 143.639 43.3785 137.058 39.8457C137.22 40.3319 137.058 41.9848 136.895 43.3137C133.848 43.8322 127.104 43.0868 124.899 41.92C116.599 50.8006 107.586 63.1815 100.778 74.5253C97.8273 80.5213 94.9418 87.5868 94.2286 93.2911C94.2286 93.2911 93.2883 90.6983 93.0614 87.2627C89.3005 88.7212 76.4939 95.0089 73.7705 114.261C73.7705 114.261 81.9083 105.867 90.8891 102.593C90.8891 102.593 85.1829 117.502 96.0766 143.917C96.0766 143.917 100.486 127.711 109.661 123.628C115.238 151.274 131.578 151.728 136.344 170.558C136.344 170.558 141.337 160.803 135.339 144.241C135.339 144.241 137.414 144.824 139.165 146.899C139.165 146.899 138.906 142.069 134.367 131.601C131.416 125.994 130.476 118.442 130.476 118.442C127.817 120.84 127.136 128.943 127.136 128.943C119.031 106.968 142.05 85.156 146.233 81.9473C148.275 80.3592 149.54 80.3592 150.318 80.7157C151.096 79.0628 151.031 78.0256 150.091 77.345" fill="#A0A2A3"/>
</g>
</g>
<defs>
<clipPath id="clip0_38_40389">
<rect width="200" height="200" fill="white"/>
</clipPath>
<clipPath id="clip1_38_40389">
<rect width="194.4" height="194.4" fill="white" transform="translate(2.7998 2.80005)"/>
</clipPath>
</defs>
</svg>
