<svg width="200" height="200" viewBox="0 0 200 200" fill="none" xmlns="http://www.w3.org/2000/svg">
<g clip-path="url(#clip0_38_40391)">
<g clip-path="url(#clip1_38_40391)">
<path d="M198 86.0175L196.312 84.996C170.332 70.3145 132.61 63.0451 115.29 62.76H115.069C112.232 62.76 110.25 63.7103 109.223 65.6108C108.342 67.2025 108.44 68.8179 108.88 70.172C108.587 69.8394 108.146 69.4831 107.681 69.1505C106.287 68.1289 104.624 67.2975 104.624 67.2975C104.624 67.2975 104.844 68.6278 104.33 68.4615C104.085 68.3903 103.816 68.2715 103.474 68.1289C102.079 67.4875 100.024 66.2997 100.024 66.2997C100.024 66.2997 97.9451 67.4875 96.5507 68.1289C96.2327 68.2715 95.9391 68.3903 95.6945 68.4615C95.1807 68.6278 95.4009 67.2975 95.4009 67.2975C95.4009 67.2975 93.7374 68.1052 92.343 69.1505C91.8782 69.4831 91.4378 69.8394 91.1443 70.172C91.5846 68.7941 91.6825 67.2025 90.8018 65.6108C89.7743 63.734 87.7928 62.76 84.9551 62.76H84.7349C67.3904 63.0451 29.668 70.3145 3.68797 85.0197L2 86.0413C2 86.0413 4.54418 92.3604 10.8557 94.1422L9.9995 94.546C9.9995 94.546 13.5711 100.153 19.0998 101.317L18.0479 101.744C18.0479 101.744 21.9376 107.873 29.4968 109.156L28.3714 109.679C28.3714 109.679 33.7778 115.333 42.0464 115.855L40.8477 116.734C40.8477 116.734 46.3275 120.274 54.4249 121.177L53.1283 122.293C53.1283 122.293 67.4638 127.377 79.4753 123.149C82.8023 131.226 90.9241 136.714 100.024 136.714C109.125 136.714 117.271 131.25 120.574 123.149C132.585 127.401 146.921 122.293 146.921 122.293L145.624 121.177C153.697 120.298 159.201 116.734 159.201 116.734L158.003 115.855C166.271 115.357 171.677 109.679 171.677 109.679L170.577 109.156C178.136 107.873 182.025 101.744 182.025 101.744L180.974 101.317C186.502 100.153 190.074 94.546 190.074 94.546L189.218 94.1422C195.505 92.3367 198.073 86.0413 198.073 86.0413" fill="#B4975A"/>
<path d="M195.284 86.7538C169.867 72.3812 132.512 65.0643 115.265 64.7792C113.186 64.7317 111.767 65.2306 111.033 66.5609C109.834 68.7465 111.522 71.1934 112.256 72.2625C113.822 74.5193 115.901 78.059 115.901 82.3352C115.901 90.6024 109.027 96.7078 100.563 96.7078C100.391 96.7078 100.196 96.7078 100.024 96.7078C99.8531 96.7078 99.6574 96.7078 99.4861 96.7078C91.0218 96.7078 84.1476 90.6024 84.1476 82.3352C84.1476 78.0828 86.227 74.5431 87.7927 72.2625C88.5021 71.2172 90.2145 68.7703 89.0158 66.5609C88.2819 65.2543 86.8631 64.7554 84.7837 64.7792C67.4881 65.0643 30.1571 72.3812 4.73975 86.7538C4.73975 86.8251 8.80066 93.5482 16.898 92.978C15.6504 93.5719 14.4028 94.1658 13.1796 94.8072C13.1796 94.8785 16.898 100.77 25.8026 99.9149C24.3104 100.604 22.8426 101.293 21.3748 102.005C21.3748 102.077 25.6559 107.873 35.0498 107.731C32.897 108.8 31.576 109.465 31.576 109.465C31.576 109.512 37.7897 115.333 47.7952 113.717C46.7188 114.478 45.6179 115.285 44.3214 116.164C44.3214 116.164 51.6848 120.084 60.3448 118.872C59.2195 119.704 58.1187 120.535 56.9934 121.367C56.9934 121.248 70.2525 124.883 79.6953 120.844C87.8171 117.376 92.3428 108.847 93.3703 106.709C94.9604 107.042 96.3793 107.256 97.4312 107.374C97.4312 107.493 99.1436 107.636 100.024 107.588C100.881 107.612 102.617 107.469 102.617 107.374C103.694 107.256 105.088 107.042 106.678 106.709C107.706 108.847 112.232 117.376 120.353 120.844C129.796 124.883 143.08 121.248 143.055 121.367C141.93 120.535 140.829 119.704 139.704 118.872C148.364 120.084 155.727 116.188 155.727 116.164C154.431 115.285 153.354 114.478 152.253 113.717C162.283 115.309 168.473 109.489 168.473 109.465C168.473 109.465 167.176 108.776 164.999 107.731C174.393 107.873 178.649 102.077 178.674 102.005C177.206 101.293 175.714 100.604 174.246 99.9149C183.151 100.77 186.845 94.8785 186.869 94.8072C185.621 94.1896 184.398 93.5719 183.151 92.978C191.248 93.5482 195.284 86.8251 195.309 86.7538" fill="#002B5C"/>
<path d="M92.6855 102.386C92.6855 102.386 69.9591 94.9974 79.8423 71.5024C79.8423 71.5024 55.8193 72.4764 22.9162 85.3761C22.9162 85.3761 20.6166 86.3026 19.2712 86.7777C17.9257 87.2528 15.7484 88.0843 12.6416 86.6352C12.6416 86.6352 42.7559 71.3598 81.4324 67.7964C86.5208 67.3212 87.2057 68.0814 85.8603 69.9582C84.7594 71.5024 70.9377 88.5594 92.6855 102.386Z" fill="white"/>
<path d="M72.5033 78.1541C53.0305 80.601 33.998 87.1815 33.998 87.1815C37.2272 92.788 46.034 90.4361 46.034 90.4361C62.5223 85.8986 69.8857 84.3782 72.2342 83.9268C72.1363 82.1451 72.2342 80.2209 72.4788 78.1541" fill="#B4975A"/>
<path d="M72.65 87.3716C69.3964 87.9892 55.7703 90.6975 42.022 95.6863C42.022 95.6863 46.352 100.485 54.9631 98.1095C62.2042 96.1139 71.4758 93.2394 74.2401 92.3842C73.5552 90.8638 73.017 89.2008 72.65 87.3716Z" fill="#B4975A"/>
<path d="M75.6837 95.0449C72.7481 95.9714 58.0701 100.58 51.8564 102.908C51.8564 102.908 55.4036 107.541 65.6782 103.621C72.8215 100.889 76.7846 99.2973 78.5214 98.5609C77.494 97.5156 76.5155 96.3515 75.6837 95.0449Z" fill="#B4975A"/>
<path d="M80.7718 100.556C78.2031 101.649 68.6869 105.688 63.1582 108.253C63.1582 108.253 70.1058 111.556 78.8147 106.329L84.2456 102.885C83.0713 102.219 81.8971 101.435 80.7718 100.556Z" fill="#B4975A"/>
<path d="M86.8875 104.239C85.1506 105.308 77.9094 109.702 74.3867 112.244C74.3867 112.244 80.3802 114.644 86.5205 109.037C88.5265 107.208 89.6029 106.163 90.2145 105.569C89.1626 105.189 88.0372 104.761 86.8875 104.239Z" fill="#B4975A"/>
<path d="M107.314 102.386C107.314 102.386 130.016 94.9974 120.158 71.5024C120.158 71.5024 144.181 72.4764 177.084 85.3761C177.084 85.3761 179.383 86.3026 180.753 86.7777C182.099 87.2528 184.276 88.0843 187.358 86.6352C187.358 86.6352 157.244 71.3598 118.568 67.7964C113.455 67.3212 112.794 68.0814 114.14 69.9582C115.241 71.5024 129.062 88.5594 107.314 102.386" fill="white"/>
<path d="M127.497 78.1541C146.969 80.601 166.002 87.1815 166.002 87.1815C162.773 92.788 153.966 90.4361 153.966 90.4361C137.478 85.8986 130.114 84.3782 127.766 83.9268C127.864 82.1451 127.766 80.2209 127.521 78.1541" fill="#B4975A"/>
<path d="M127.35 87.3716C130.604 87.9892 144.23 90.6975 157.978 95.6863C157.978 95.6863 153.648 100.485 145.037 98.1095C137.796 96.1139 128.524 93.2394 125.76 92.3842C126.445 90.8638 126.983 89.2008 127.325 87.3716" fill="#B4975A"/>
<path d="M124.341 95.0449C127.277 95.9714 141.955 100.58 148.168 102.908C148.168 102.908 144.621 107.541 134.347 103.621C127.203 100.889 123.265 99.2973 121.503 98.5609C122.531 97.5156 123.485 96.3515 124.341 95.0449Z" fill="#B4975A"/>
<path d="M119.228 100.556C121.797 101.649 131.313 105.688 136.842 108.253C136.842 108.253 129.919 111.556 121.185 106.329L115.754 102.885C116.929 102.219 118.103 101.435 119.228 100.556" fill="#B4975A"/>
<path d="M113.112 104.239C114.849 105.308 122.09 109.702 125.613 112.244C125.613 112.244 119.619 114.644 113.479 109.037C111.473 107.208 110.397 106.163 109.785 105.569C110.837 105.189 111.962 104.761 113.112 104.239Z" fill="#B4975A"/>
<path d="M118.616 115.214C118.616 125.192 110.299 133.269 100.024 133.269C89.7497 133.269 81.4321 125.192 81.4321 115.214C81.4321 105.236 89.7497 97.1592 100.024 97.1592C110.299 97.1592 118.616 105.26 118.616 115.214Z" fill="white"/>
<path d="M114.751 118.944C114.751 126.855 108.146 133.269 99.9999 133.269C91.8536 133.269 85.2485 126.855 85.2485 118.944C85.2485 111.033 91.8536 104.619 99.9999 104.619C108.146 104.619 114.751 111.033 114.751 118.944Z" fill="#B4975A"/>
<path d="M99.9998 95.7339C88.9424 95.7339 79.9644 104.476 79.9644 115.214C79.9644 125.952 88.9669 134.694 99.9998 134.694C111.033 134.694 120.035 125.952 120.035 115.214C120.035 104.476 111.033 95.7339 99.9998 95.7339M116.855 112.055C115.607 116.877 112.207 120.821 107.804 122.982C108.146 120.607 109.222 118.255 110.348 115.808C111.962 112.268 113.724 108.372 112.941 104.262C114.898 106.448 116.268 109.109 116.855 112.055M91.2175 100.889C93.4681 99.5824 96.0367 98.7509 98.7766 98.5609V124.764C97.4067 124.669 96.0857 124.408 94.8136 124.028C94.6668 120.797 93.2969 117.756 91.9514 114.81C89.7252 109.916 87.8171 105.664 91.2175 100.889M94.6668 126.522C95.9878 126.878 97.3578 127.092 98.7766 127.187V131.82C96.526 131.654 94.3977 131.083 92.4896 130.157C93.4192 129.302 94.3977 128.09 94.6668 126.522ZM101.272 127.187C102.691 127.116 104.061 126.878 105.406 126.522C105.675 128.066 106.678 129.302 107.583 130.157C105.651 131.083 103.523 131.654 101.272 131.82V127.187ZM105.235 124.028C103.963 124.432 102.617 124.693 101.272 124.788V98.6084C104.012 98.7985 106.58 99.6299 108.831 100.937C112.231 105.712 110.323 109.964 108.097 114.858C106.776 117.804 105.406 120.821 105.259 124.051M87.1076 104.286C86.3493 108.396 88.0862 112.268 89.7007 115.832C90.8261 118.302 91.9024 120.678 92.2449 123.077C87.8171 120.939 84.4411 116.996 83.1935 112.078C83.7806 109.132 85.1506 106.472 87.1076 104.31M83.1446 118.16C85.2973 121.557 88.502 124.218 92.2939 125.762C92.2939 125.881 92.2939 125.976 92.2449 126.095C92.0492 127.33 90.9973 128.351 90.2389 128.922C86.5694 126.451 83.9519 122.602 83.1446 118.16ZM109.81 128.922C109.076 128.351 107.999 127.354 107.804 126.095C107.804 125.976 107.779 125.881 107.755 125.762C111.546 124.218 114.727 121.557 116.879 118.16C116.072 122.602 113.455 126.427 109.785 128.898" fill="#002B5C"/>
<path d="M105.969 70.4571C105.969 70.4571 105.822 71.0748 105.431 71.0748C105.04 71.0748 102.642 69.9583 101.492 69.3406C101.003 69.0793 100.318 68.6992 100.074 68.5566C100.074 68.5566 99.0461 69.0793 98.5569 69.3406C97.4071 69.9583 94.9852 71.0748 94.6183 71.0748C94.2513 71.0748 94.0801 70.4571 94.0801 70.4571C94.0801 70.4571 87.7686 74.1631 87.7686 84.3784C87.7686 92.0042 91.8539 95.4488 91.8539 95.4488L92.4166 97.6107H107.682L108.244 95.4488C108.244 95.4488 112.33 91.9804 112.33 84.3784C112.33 74.1394 106.018 70.4571 106.018 70.4571" fill="#002B5C"/>
<path d="M108.978 81.8126C108.978 78.653 107.657 76.0873 106.238 74.5431C106.238 74.5431 106.189 75.4459 104.623 74.4481C103.278 73.5453 101.712 73.0227 99.9999 73.0227C98.2875 73.0227 96.7218 73.5453 95.3763 74.4481C93.8841 75.4459 93.8107 74.5431 93.8107 74.5431C92.3918 76.0873 91.0708 78.653 91.0708 81.8126C91.0708 84.4258 91.7313 85.7324 91.9515 86.0887C93.297 89.4384 96.4038 91.7902 100.024 91.7902C103.645 91.7902 106.678 89.4859 108.048 86.2075C108.122 86.0887 109.002 84.8296 109.002 81.8126" fill="white"/>
<path d="M103.376 88.9633C103.376 88.9633 103.376 88.9158 103.351 88.9158C103.351 88.9158 102.471 87.3004 103.914 86.1838C103.914 86.1838 107.216 86.849 107.29 82.5966C107.29 82.5966 107.216 82.1452 107.681 81.2425C107.681 81.2425 106.825 80.4823 104.99 81.8364C103.156 83.1905 102.153 86.9915 101.15 86.0888C100.171 85.2098 100.513 80.2447 100.024 80.0547C99.5105 80.2447 99.8774 85.2098 98.8745 86.0888C97.8715 86.9915 96.8685 83.1668 95.0337 81.8364C93.1745 80.4823 92.3428 81.2425 92.3428 81.2425C92.8076 82.1452 92.7342 82.5966 92.7342 82.5966C92.8076 86.849 96.1101 86.1838 96.1101 86.1838C97.5779 87.3004 96.6972 88.9158 96.6972 88.9158V88.9633C92.7097 84.8535 90.4346 85.3999 91.5599 90.0086C92.6608 94.5461 96.9419 113.979 97.6268 118.492C97.529 122.555 97.0397 124.004 96.9174 124.313L96.477 125.144L96.9663 126.071C97.7247 127.14 98.2384 128.328 98.4097 128.779L100.049 132.794L101.663 128.803C101.859 128.328 102.373 127.14 103.131 126.095L103.62 125.216L103.18 124.337C103.058 124.028 102.593 122.626 102.471 118.73C103.033 114.691 107.388 94.6411 108.537 90.0324C109.663 85.4236 107.388 84.8535 103.425 88.9633" fill="#002B5C"/>
<path d="M97.3337 109.228C95.9148 101.982 94.7895 96.6367 93.9088 92.7644C93.2239 89.7949 95.0586 90.9827 96.0371 92.8357L97.3337 109.228Z" fill="#E31937"/>
<path d="M102.691 109.228C104.11 101.982 105.235 96.6367 106.116 92.7644C106.801 89.7949 104.966 90.9827 103.987 92.8357L102.691 109.228Z" fill="#E31937"/>
<path d="M95.083 84.7109C94.8139 84.6397 94.6426 84.3546 94.716 84.0933C94.7405 83.9745 94.8139 83.9032 94.8873 83.8319C94.716 83.6419 94.4959 83.4281 94.2268 83.238C94.2268 83.238 93.762 85.3286 95.6946 85.1148C95.6946 85.1148 95.6212 84.9247 95.4744 84.6634C95.3521 84.7347 95.2053 84.7584 95.0585 84.7109" fill="#E31937"/>
<path d="M105.773 83.238C105.504 83.4281 105.284 83.6181 105.113 83.8319C105.186 83.9032 105.26 83.9745 105.284 84.0933C105.358 84.3546 105.186 84.6397 104.917 84.7109C104.77 84.7584 104.624 84.7109 104.526 84.6634C104.379 84.9247 104.306 85.1148 104.306 85.1148C106.238 85.3286 105.773 83.238 105.773 83.238" fill="#E31937"/>
<path d="M100.905 111.912C101.517 100.723 102.422 92.8117 102.422 91.8139C102.422 91.4576 102.373 91.0062 102.226 90.5073L101.566 92.6454L101.37 88.8919C101.027 88.4643 100.587 88.0604 99.9999 87.6328H99.9755C99.3884 88.0367 98.9969 88.4643 98.6545 88.8919L98.4588 92.6454L97.7982 90.5073C97.6515 91.0062 97.6025 91.4576 97.6025 91.8139C97.6025 92.8117 98.5077 100.723 99.1193 111.912C99.7308 123.101 98.312 125.168 98.312 125.168C99.1437 126.332 100.024 128.399 100.024 128.399C100.024 128.399 100.93 126.332 101.737 125.168C101.737 125.168 100.318 123.101 100.93 111.912" fill="#E31937"/>
<path d="M195.284 86.7538C169.867 72.3812 132.512 65.0643 115.265 64.7792C113.186 64.7317 111.767 65.2306 111.033 66.5609C109.834 68.7465 111.522 71.1934 112.256 72.2625C113.822 74.5193 115.901 78.059 115.901 82.3352C115.901 90.6024 109.027 96.7078 100.563 96.7078C100.391 96.7078 100.196 96.7078 100.024 96.7078C99.8531 96.7078 99.6574 96.7078 99.4861 96.7078C91.0218 96.7078 84.1476 90.6024 84.1476 82.3352C84.1476 78.0828 86.227 74.5431 87.7927 72.2625C88.5021 71.2172 90.2145 68.7703 89.0158 66.5609C88.2819 65.2543 86.8631 64.7554 84.7837 64.7792C67.4881 65.0643 30.1571 72.3812 4.73975 86.7538C4.73975 86.8251 8.80066 93.5482 16.898 92.978C15.6504 93.5719 14.4028 94.1658 13.1796 94.8072C13.1796 94.8785 16.898 100.77 25.8026 99.9149C24.3104 100.604 22.8426 101.293 21.3748 102.005C21.3748 102.077 25.6559 107.873 35.0498 107.731C32.897 108.8 31.576 109.465 31.576 109.465C31.576 109.512 37.7897 115.333 47.7952 113.717C46.7188 114.478 45.6179 115.285 44.3214 116.164C44.3214 116.164 51.6848 120.084 60.3448 118.872C59.2195 119.704 58.1187 120.535 56.9934 121.367C56.9934 121.248 70.2525 124.883 79.6953 120.844C87.8171 117.376 92.3428 108.847 93.3703 106.709C94.9604 107.042 96.3793 107.256 97.4312 107.374C97.4312 107.493 99.1436 107.636 100.024 107.588C100.881 107.612 102.617 107.469 102.617 107.374C103.694 107.256 105.088 107.042 106.678 106.709C107.706 108.847 112.232 117.376 120.353 120.844C129.796 124.883 143.08 121.248 143.055 121.367C141.93 120.535 140.829 119.704 139.704 118.872C148.364 120.084 155.727 116.188 155.727 116.164C154.431 115.285 153.354 114.478 152.253 113.717C162.283 115.309 168.473 109.489 168.473 109.465C168.473 109.465 167.176 108.776 164.999 107.731C174.393 107.873 178.649 102.077 178.674 102.005C177.206 101.293 175.714 100.604 174.246 99.9149C183.151 100.77 186.845 94.8785 186.869 94.8072C185.621 94.1896 184.398 93.5719 183.151 92.978C191.248 93.5482 195.284 86.8251 195.309 86.7538" fill="#002B5C"/>
<path d="M92.6855 102.386C92.6855 102.386 69.9591 94.9974 79.8423 71.5024C79.8423 71.5024 55.8193 72.4764 22.9162 85.3761C22.9162 85.3761 20.6166 86.3026 19.2712 86.7777C17.9257 87.2528 15.7484 88.0843 12.6416 86.6352C12.6416 86.6352 42.7559 71.3598 81.4324 67.7964C86.5208 67.3212 87.2057 68.0814 85.8603 69.9582C84.7594 71.5024 70.9377 88.5594 92.6855 102.386Z" fill="white"/>
<path d="M72.5033 78.1541C53.0305 80.601 33.998 87.1815 33.998 87.1815C37.2272 92.788 46.034 90.4361 46.034 90.4361C62.5223 85.8986 69.8857 84.3782 72.2342 83.9268C72.1363 82.1451 72.2342 80.2209 72.4788 78.1541" fill="#B4975A"/>
<path d="M72.65 87.3716C69.3964 87.9892 55.7703 90.6975 42.022 95.6863C42.022 95.6863 46.352 100.485 54.9631 98.1095C62.2042 96.1139 71.4758 93.2394 74.2401 92.3842C73.5552 90.8638 73.017 89.2008 72.65 87.3716Z" fill="#B4975A"/>
<path d="M75.6837 95.0449C72.7481 95.9714 58.0701 100.58 51.8564 102.908C51.8564 102.908 55.4036 107.541 65.6782 103.621C72.8215 100.889 76.7846 99.2973 78.5214 98.5609C77.494 97.5156 76.5155 96.3515 75.6837 95.0449Z" fill="#B4975A"/>
<path d="M80.7718 100.556C78.2031 101.649 68.6869 105.688 63.1582 108.253C63.1582 108.253 70.1058 111.556 78.8147 106.329L84.2456 102.885C83.0713 102.219 81.8971 101.435 80.7718 100.556Z" fill="#B4975A"/>
<path d="M86.8875 104.239C85.1506 105.308 77.9094 109.702 74.3867 112.244C74.3867 112.244 80.3802 114.644 86.5205 109.037C88.5265 107.208 89.6029 106.163 90.2145 105.569C89.1626 105.189 88.0372 104.761 86.8875 104.239Z" fill="#B4975A"/>
<path d="M107.314 102.386C107.314 102.386 130.016 94.9974 120.158 71.5024C120.158 71.5024 144.181 72.4764 177.084 85.3761C177.084 85.3761 179.383 86.3026 180.753 86.7777C182.099 87.2528 184.276 88.0843 187.358 86.6352C187.358 86.6352 157.244 71.3598 118.568 67.7964C113.455 67.3212 112.794 68.0814 114.14 69.9582C115.241 71.5024 129.062 88.5594 107.314 102.386" fill="white"/>
<path d="M127.497 78.1541C146.969 80.601 166.002 87.1815 166.002 87.1815C162.773 92.788 153.966 90.4361 153.966 90.4361C137.478 85.8986 130.114 84.3782 127.766 83.9268C127.864 82.1451 127.766 80.2209 127.521 78.1541" fill="#B4975A"/>
<path d="M127.35 87.3716C130.604 87.9892 144.23 90.6975 157.978 95.6863C157.978 95.6863 153.648 100.485 145.037 98.1095C137.796 96.1139 128.524 93.2394 125.76 92.3842C126.445 90.8638 126.983 89.2008 127.325 87.3716" fill="#B4975A"/>
<path d="M124.341 95.0449C127.277 95.9714 141.955 100.58 148.168 102.908C148.168 102.908 144.621 107.541 134.347 103.621C127.203 100.889 123.265 99.2973 121.503 98.5609C122.531 97.5156 123.485 96.3515 124.341 95.0449Z" fill="#B4975A"/>
<path d="M119.228 100.556C121.797 101.649 131.313 105.688 136.842 108.253C136.842 108.253 129.919 111.556 121.185 106.329L115.754 102.885C116.929 102.219 118.103 101.435 119.228 100.556" fill="#B4975A"/>
<path d="M113.112 104.239C114.849 105.308 122.09 109.702 125.613 112.244C125.613 112.244 119.619 114.644 113.479 109.037C111.473 107.208 110.397 106.163 109.785 105.569C110.837 105.189 111.962 104.761 113.112 104.239Z" fill="#B4975A"/>
<path d="M118.616 115.214C118.616 125.192 110.299 133.269 100.024 133.269C89.7497 133.269 81.4321 125.192 81.4321 115.214C81.4321 105.236 89.7497 97.1592 100.024 97.1592C110.299 97.1592 118.616 105.26 118.616 115.214Z" fill="white"/>
<path d="M114.751 118.944C114.751 126.855 108.146 133.269 99.9999 133.269C91.8536 133.269 85.2485 126.855 85.2485 118.944C85.2485 111.033 91.8536 104.619 99.9999 104.619C108.146 104.619 114.751 111.033 114.751 118.944Z" fill="#B4975A"/>
<path d="M99.9998 95.7339C88.9424 95.7339 79.9644 104.476 79.9644 115.214C79.9644 125.952 88.9669 134.694 99.9998 134.694C111.033 134.694 120.035 125.952 120.035 115.214C120.035 104.476 111.033 95.7339 99.9998 95.7339M116.855 112.055C115.607 116.877 112.207 120.821 107.804 122.982C108.146 120.607 109.222 118.255 110.348 115.808C111.962 112.268 113.724 108.372 112.941 104.262C114.898 106.448 116.268 109.109 116.855 112.055M91.2175 100.889C93.4681 99.5824 96.0367 98.7509 98.7766 98.5609V124.764C97.4067 124.669 96.0857 124.408 94.8136 124.028C94.6668 120.797 93.2969 117.756 91.9514 114.81C89.7252 109.916 87.8171 105.664 91.2175 100.889M94.6668 126.522C95.9878 126.878 97.3578 127.092 98.7766 127.187V131.82C96.526 131.654 94.3977 131.083 92.4896 130.157C93.4192 129.302 94.3977 128.09 94.6668 126.522ZM101.272 127.187C102.691 127.116 104.061 126.878 105.406 126.522C105.675 128.066 106.678 129.302 107.583 130.157C105.651 131.083 103.523 131.654 101.272 131.82V127.187ZM105.235 124.028C103.963 124.432 102.617 124.693 101.272 124.788V98.6084C104.012 98.7985 106.58 99.6299 108.831 100.937C112.231 105.712 110.323 109.964 108.097 114.858C106.776 117.804 105.406 120.821 105.259 124.051M87.1076 104.286C86.3493 108.396 88.0862 112.268 89.7007 115.832C90.8261 118.302 91.9024 120.678 92.2449 123.077C87.8171 120.939 84.4411 116.996 83.1935 112.078C83.7806 109.132 85.1506 106.472 87.1076 104.31M83.1446 118.16C85.2973 121.557 88.502 124.218 92.2939 125.762C92.2939 125.881 92.2939 125.976 92.2449 126.095C92.0492 127.33 90.9973 128.351 90.2389 128.922C86.5694 126.451 83.9519 122.602 83.1446 118.16ZM109.81 128.922C109.076 128.351 107.999 127.354 107.804 126.095C107.804 125.976 107.779 125.881 107.755 125.762C111.546 124.218 114.727 121.557 116.879 118.16C116.072 122.602 113.455 126.427 109.785 128.898" fill="#002B5C"/>
<path d="M105.969 70.4571C105.969 70.4571 105.822 71.0748 105.431 71.0748C105.04 71.0748 102.642 69.9583 101.492 69.3406C101.003 69.0793 100.318 68.6992 100.074 68.5566C100.074 68.5566 99.0461 69.0793 98.5569 69.3406C97.4071 69.9583 94.9852 71.0748 94.6183 71.0748C94.2513 71.0748 94.0801 70.4571 94.0801 70.4571C94.0801 70.4571 87.7686 74.1631 87.7686 84.3784C87.7686 92.0042 91.8539 95.4488 91.8539 95.4488L92.4166 97.6107H107.682L108.244 95.4488C108.244 95.4488 112.33 91.9804 112.33 84.3784C112.33 74.1394 106.018 70.4571 106.018 70.4571" fill="#002B5C"/>
<path d="M108.978 81.8126C108.978 78.653 107.657 76.0873 106.238 74.5431C106.238 74.5431 106.189 75.4459 104.623 74.4481C103.278 73.5453 101.712 73.0227 99.9999 73.0227C98.2875 73.0227 96.7218 73.5453 95.3763 74.4481C93.8841 75.4459 93.8107 74.5431 93.8107 74.5431C92.3918 76.0873 91.0708 78.653 91.0708 81.8126C91.0708 84.4258 91.7313 85.7324 91.9515 86.0887C93.297 89.4384 96.4038 91.7902 100.024 91.7902C103.645 91.7902 106.678 89.4859 108.048 86.2075C108.122 86.0887 109.002 84.8296 109.002 81.8126" fill="white"/>
<path d="M103.376 88.9633C103.376 88.9633 103.376 88.9158 103.351 88.9158C103.351 88.9158 102.471 87.3004 103.914 86.1838C103.914 86.1838 107.216 86.849 107.29 82.5966C107.29 82.5966 107.216 82.1452 107.681 81.2425C107.681 81.2425 106.825 80.4823 104.99 81.8364C103.156 83.1905 102.153 86.9915 101.15 86.0888C100.171 85.2098 100.513 80.2447 100.024 80.0547C99.5105 80.2447 99.8774 85.2098 98.8745 86.0888C97.8715 86.9915 96.8685 83.1668 95.0337 81.8364C93.1745 80.4823 92.3428 81.2425 92.3428 81.2425C92.8076 82.1452 92.7342 82.5966 92.7342 82.5966C92.8076 86.849 96.1101 86.1838 96.1101 86.1838C97.5779 87.3004 96.6972 88.9158 96.6972 88.9158V88.9633C92.7097 84.8535 90.4346 85.3999 91.5599 90.0086C92.6608 94.5461 96.9419 113.979 97.6268 118.492C97.529 122.555 97.0397 124.004 96.9174 124.313L96.477 125.144L96.9663 126.071C97.7247 127.14 98.2384 128.328 98.4097 128.779L100.049 132.794L101.663 128.803C101.859 128.328 102.373 127.14 103.131 126.095L103.62 125.216L103.18 124.337C103.058 124.028 102.593 122.626 102.471 118.73C103.033 114.691 107.388 94.6411 108.537 90.0324C109.663 85.4236 107.388 84.8535 103.425 88.9633" fill="#002B5C"/>
<path d="M97.3337 109.228C95.9148 101.982 94.7895 96.6367 93.9088 92.7644C93.2239 89.7949 95.0586 90.9827 96.0371 92.8357L97.3337 109.228Z" fill="#E31937"/>
<path d="M102.691 109.228C104.11 101.982 105.235 96.6367 106.116 92.7644C106.801 89.7949 104.966 90.9827 103.987 92.8357L102.691 109.228Z" fill="#E31937"/>
<path d="M95.083 84.7109C94.8139 84.6397 94.6426 84.3546 94.716 84.0933C94.7405 83.9745 94.8139 83.9032 94.8873 83.8319C94.716 83.6419 94.4959 83.4281 94.2268 83.238C94.2268 83.238 93.762 85.3286 95.6946 85.1148C95.6946 85.1148 95.6212 84.9247 95.4744 84.6634C95.3521 84.7347 95.2053 84.7584 95.0585 84.7109" fill="#E31937"/>
<path d="M105.773 83.238C105.504 83.4281 105.284 83.6181 105.113 83.8319C105.186 83.9032 105.26 83.9745 105.284 84.0933C105.358 84.3546 105.186 84.6397 104.917 84.7109C104.77 84.7584 104.624 84.7109 104.526 84.6634C104.379 84.9247 104.306 85.1148 104.306 85.1148C106.238 85.3286 105.773 83.238 105.773 83.238" fill="#E31937"/>
<path d="M100.905 111.912C101.517 100.723 102.422 92.8117 102.422 91.8139C102.422 91.4576 102.373 91.0062 102.226 90.5073L101.566 92.6454L101.37 88.8919C101.027 88.4643 100.587 88.0604 99.9999 87.6328H99.9755C99.3884 88.0367 98.9969 88.4643 98.6545 88.8919L98.4588 92.6454L97.7982 90.5073C97.6515 91.0062 97.6025 91.4576 97.6025 91.8139C97.6025 92.8117 98.5077 100.723 99.1193 111.912C99.7308 123.101 98.312 125.168 98.312 125.168C99.1437 126.332 100.024 128.399 100.024 128.399C100.024 128.399 100.93 126.332 101.737 125.168C101.737 125.168 100.318 123.101 100.93 111.912" fill="#E31937"/>
</g>
</g>
<defs>
<clipPath id="clip0_38_40391">
<rect width="200" height="200" fill="white"/>
</clipPath>
<clipPath id="clip1_38_40391">
<rect width="196" height="73.9298" fill="white" transform="translate(2 62.76)"/>
</clipPath>
</defs>
</svg>
