<svg width="200" height="200" viewBox="0 0 200 200" fill="none" xmlns="http://www.w3.org/2000/svg">
<g clip-path="url(#clip0_38_40355)">
<g clip-path="url(#clip1_38_40355)">
<path d="M198 99.9803C198 154.121 154.121 198 100.02 198C45.9182 198 2 154.121 2 99.9803C2 45.8395 45.8788 2 100.02 2C154.16 2 198 45.8788 198 99.9803Z" fill="white"/>
<path d="M100.059 9.11646C70.0594 9.11646 43.4412 23.5461 26.7704 45.8787C29.2081 46.5865 33.8083 47.884 39.4701 49.5353C48.4346 52.1696 78.1589 60.8982 83.7028 62.6675C99.9411 67.8575 104.187 69.902 108.748 74.8168C113.309 79.6922 120.229 85.354 127.031 90.1114C133.794 94.8296 137.097 100.02 137.097 108.237C137.097 116.454 130.806 123.335 126.874 125.734C126.874 125.734 128.289 121.802 126.402 120.072C124.515 118.342 118.538 115.039 103.244 116.14C87.9884 117.241 67.4645 124.633 53.6245 132.064C53.6245 132.064 60.23 121.644 70.1774 116.926C70.1774 116.926 61.9599 116.926 16.2332 136.86C30.2697 169.258 62.5497 191.906 100.098 191.906C150.583 191.906 191.473 150.976 191.473 100.531C191.473 50.0858 150.504 9.11646 100.059 9.11646ZM100.059 171.736C80.1248 171.736 62.0779 163.557 49.1423 150.347C86.0618 131.317 109.024 136.231 109.024 139.927C109.024 143.623 103.362 152.509 103.362 152.509C133.44 148.263 155.379 130.137 155.379 105.721C155.379 81.3042 132.536 69.4695 126.677 65.8523C120.426 61.9598 123.375 56.6912 102.89 48.9849C90.4261 44.2667 72.9296 39.6665 66.0883 37.8972C76.193 32.3927 87.7525 29.2866 100.059 29.2866C139.377 29.2866 171.264 61.1734 171.264 100.491C171.264 139.809 139.377 171.696 100.059 171.696" fill="#DA1A32"/>
<path d="M99.2727 76.7434C99.2727 76.7434 94.0827 77.2152 88.6961 74.5416C83.3489 71.868 75.1314 65.8523 68.0542 72.4971C68.0542 72.4971 74.0305 71.7107 73.5587 73.2834C73.0869 74.8561 72.4578 83.9779 80.6359 87.4772C88.8141 90.9372 98.2897 88.4208 99.2333 76.7827" fill="#DA1A32"/>
</g>
</g>
<defs>
<clipPath id="clip0_38_40355">
<rect width="200" height="200" fill="white"/>
</clipPath>
<clipPath id="clip1_38_40355">
<rect width="196" height="196" fill="white" transform="translate(2 2)"/>
</clipPath>
</defs>
</svg>
