<svg width="200" height="200" viewBox="0 0 200 200" fill="none" xmlns="http://www.w3.org/2000/svg">
<g clip-path="url(#clip0_38_40395)">
<g clip-path="url(#clip1_38_40395)">
<path d="M39.1409 133.078C38.5072 133.019 37.9339 132.93 37.3305 132.781C31.1751 130.137 34.3735 123.867 36.2141 119.796C38.5977 114.537 41.0116 109.308 43.516 104.108C30.2096 108.208 17.2652 112.517 4.74331 117.003C1.60528 118.311 -0.325808 116.231 3.32516 114.121C16.0583 106.128 30.119 98.8484 45.2962 92.4601C41.5849 84.8535 38.6279 76.6823 36.4253 67.9763L34.7054 61.0829C56.6716 49.9404 75.2885 43.76 100.302 43.76C125.286 43.76 143.903 49.9404 165.929 61.1126C165.507 62.7765 165.084 64.4107 164.632 66.0747C175.585 65.6884 186.266 65.9261 196.525 66.6987C198.969 66.8769 198.969 69.6403 196.615 69.878C185.21 71.4825 173.593 73.3247 161.825 75.4047C161.101 77.6331 160.317 79.8022 159.502 81.9416C172.054 79.3268 184.365 77.544 196.283 76.6229C199.331 76.3555 199.391 79.2377 196.887 79.7725C182.947 83.9918 168.765 88.6271 154.403 93.7377C142.183 118.637 124.23 135.307 100.332 149.42C89.7113 143.151 80.0257 136.168 71.1246 127.67C51.4817 136.703 32.6838 146.152 14.8815 155.839C12.1961 157.502 9.75207 156.046 13.0108 153.224C21.0369 146.241 29.7871 139.496 39.171 133.078H39.1409Z" fill="white"/>
<path d="M156.877 84.1402C170.395 81.1986 183.61 79.2078 196.404 78.2273C182.253 82.506 167.83 87.2304 153.196 92.46C154.493 89.7858 155.73 87.0224 156.877 84.17V84.1402ZM14.0365 154.412C25.3515 144.577 38.0846 135.217 52.0247 126.601C54.6498 125.293 57.2749 123.986 59.8999 122.708C60.9862 122.173 63.1285 121.163 65.7837 119.885C67.5639 121.876 69.4347 123.807 71.3658 125.679C51.3307 134.891 32.1405 144.488 14.0063 154.382L14.0365 154.412Z" fill="#007DC3"/>
<path d="M162.459 67.7386C174.136 67.2632 185.481 67.4414 196.374 68.2734C184.636 69.9076 172.688 71.8093 160.558 73.9784C161.222 71.9281 161.856 69.8482 162.459 67.7386V67.7386ZM4.16992 115.458C17.2953 107.257 31.8087 99.7695 47.4988 93.292C48.0117 94.3319 48.5548 95.3422 49.098 96.3822C48.2531 98.0758 47.4083 99.7695 46.5936 101.493C32.0199 105.92 17.8686 110.585 4.16992 115.488V115.458Z" fill="#EF3B24"/>
<path d="M88.3836 109.397L90.2845 108.535L95.1726 104.643L96.2588 101.671C96.9528 103.098 97.3451 103.632 98.0391 105.059L99.6383 104.345C99.6986 105.861 99.7288 107.347 99.7288 108.773C96.1985 109.575 92.3665 109.991 88.444 110.05L88.3534 109.367L88.3836 109.397ZM102.475 103.157C104.496 102.266 106.548 101.404 108.57 100.512L109.535 99.5319C109.927 99.5913 110.41 99.6211 110.923 99.5319C111.708 99.4131 112.673 99.1456 113.729 98.7891C113.035 101.255 112.643 103.365 112.432 105.207C109.535 106.217 106.307 107.168 102.595 108.089C102.595 106.515 102.565 104.851 102.475 103.127V103.157ZM100.302 49.3759C122.419 49.3759 139.739 54.4569 159.321 64.084C149.756 99.6211 132.225 123.481 100.332 142.884C88.3534 135.574 78.1549 127.433 69.646 118.162C73.4177 116.379 77.7023 114.389 81.4438 112.635C82.9524 112.784 84.4309 112.843 85.7585 112.873C85.668 114.923 85.0344 116.439 83.9783 117.508C84.5818 118.192 85.2154 118.875 85.8189 119.559C87.4784 118.103 88.5345 115.963 88.625 112.903C92.5174 112.843 96.2588 112.457 99.7288 111.714C99.5477 117.33 98.7331 121.431 97.1339 123.065C97.0735 123.124 97.0433 123.154 97.0132 123.213C96.6209 123.629 96.2588 123.986 95.9269 124.253C97.4959 123.956 99.0348 123.6 100.543 123.184C102.505 119.202 102.535 112.249 102.565 111.031C106.186 110.14 109.414 109.218 112.311 108.268C112.432 111.536 113.759 114.656 116.294 115.815C117.44 115.013 118.557 114.181 119.613 113.319C118.979 113.408 114.966 113.675 115.027 107.317C123.505 104.167 129.057 100.364 133.915 94.6886C135.213 91.8362 136.238 88.8351 136.963 85.7152C131.139 94.7481 125.768 100.037 115.298 104.167C115.6 102.355 116.143 100.156 116.988 97.5411C120.035 96.2932 123.234 94.7778 125.135 94.0052L129.721 89.2808C130.868 84.913 132.014 80.5154 133.161 76.1476L129.57 77.247L133.794 72.8791C134.669 69.4621 135.544 66.0153 136.419 62.5983C134.307 62.8954 132.195 63.2223 130.083 63.5194C130.445 61.7961 130.687 60.1024 130.807 58.4087C129.781 58.1413 128.755 57.9036 127.76 57.6956C127.549 59.5973 127.156 61.7069 126.583 64.0543L126.281 64.1137C124.29 64.4405 122.268 65.0942 120.518 66.5502L121.091 64.8565C117.712 65.4508 114.333 66.0748 110.923 66.7285L107.544 70.2049L107.664 69.9375L108.751 67.1444C105.401 67.8278 102.052 68.5113 98.733 69.2244C98.0391 64.7971 97.3451 60.7561 96.7416 57.5173C95.8062 57.6362 94.8407 57.755 93.9053 57.9036C94.5088 61.2018 95.233 65.3022 95.9269 69.8484L93.5734 70.3832L90.5561 73.5031C88.444 71.3043 84.1594 72.7008 81.4739 73.3545C78.5471 74.0973 75.6203 74.8402 72.7237 75.6127C71.8486 75.8504 70.9736 76.1179 70.1288 76.3853C67.9563 73.2951 65.9045 70.0861 64.1846 66.6393L63.8829 66.0153C63.0079 66.3719 62.1329 66.7285 61.2578 67.1147L61.6199 67.8873C63.2794 71.2449 65.2709 74.3945 67.4132 77.455C64.2752 78.8218 61.3785 80.7531 58.844 83.4867C58.844 83.4867 54.7404 87.706 54.2878 88.2112C53.2317 89.3997 52.2964 90.6774 51.5118 91.9847C47.2272 83.457 43.8177 74.2162 41.2529 64.0543C60.8354 54.4569 78.185 49.3462 100.302 49.3462V49.3759Z" fill="white"/>
<path d="M88.3836 109.397L90.2845 108.535L95.1726 104.643L96.2588 101.671C96.9528 103.098 97.345 103.632 98.039 105.059L99.6382 104.345C99.6986 105.861 99.7287 107.347 99.7287 108.773C96.1984 109.575 92.3664 109.991 88.4439 110.05L88.3534 109.367L88.3836 109.397ZM102.474 103.157C104.496 102.266 106.548 101.404 108.569 100.512L109.535 99.5319C109.927 99.5914 110.41 99.6211 110.923 99.5319C111.708 99.4131 112.673 99.1457 113.729 98.7891C113.035 101.255 112.643 103.365 112.432 105.207C109.535 106.217 106.307 107.168 102.595 108.089C102.595 106.515 102.565 104.851 102.474 103.127V103.157ZM63.913 66.0154C73.659 62.0932 83.6162 59.3893 93.9053 57.9036C94.5087 61.2018 95.2329 65.3023 95.9269 69.8484L93.5734 70.3832L90.556 73.5031C88.4439 71.3043 84.1593 72.7009 81.4739 73.3546C78.5471 74.0974 75.6203 74.8402 72.7236 75.6128C71.8486 75.8505 70.9736 76.1179 70.1287 76.3853C67.9562 73.2951 65.9045 70.0861 64.1846 66.6394L63.8828 66.0154H63.913ZM61.469 81.0206C59.8698 77.0687 58.4818 73.0277 57.2749 68.8678C58.6025 68.2439 59.9302 67.6496 61.2578 67.085L61.6199 67.8576C63.2794 71.2152 65.2708 74.3648 67.4131 77.4253C65.301 78.3464 63.3096 79.5052 61.469 80.9909V81.0206ZM83.9481 117.508C82.6808 116.082 81.4739 114.656 80.2669 113.17L81.3834 112.636C82.892 112.784 84.3705 112.843 85.6981 112.873C85.6076 114.923 84.974 116.439 83.9179 117.508H83.9481ZM95.8967 124.253C94.2975 124.551 92.6682 124.759 91.0388 124.907C89.2284 123.184 87.4784 121.401 85.7887 119.559C87.4482 118.103 88.5043 115.963 88.5948 112.903C92.4871 112.843 96.2286 112.457 99.6985 111.714C99.5175 117.33 98.7028 121.431 97.1036 123.065C97.0433 123.124 97.0131 123.154 96.983 123.213C96.5907 123.629 96.2286 123.986 95.8967 124.253V124.253ZM116.234 115.815C111.496 119.083 106.216 121.609 100.513 123.184C102.474 119.202 102.505 112.249 102.535 111.031C106.156 110.14 109.384 109.218 112.281 108.268C112.402 111.536 113.729 114.656 116.264 115.815H116.234ZM133.855 94.6887C130.596 101.939 125.678 108.297 119.583 113.319C118.949 113.408 114.936 113.675 114.996 107.317C123.475 104.167 129.027 100.364 133.885 94.6887H133.855ZM112.19 56.6557C116.867 56.6557 121.453 56.8934 126.01 57.3688C129.48 58.0819 132.889 58.9436 136.299 59.9539C137.596 64.4109 138.29 69.1353 138.29 74.0082C138.29 78.0492 137.807 81.9417 136.932 85.7153C131.109 94.7481 125.738 100.037 115.268 104.167C115.57 102.355 116.113 100.156 116.958 97.5412C120.005 96.2932 123.204 94.7778 125.104 94.0053L129.691 89.2809C130.837 84.913 131.984 80.5154 133.131 76.1476L129.54 77.247L133.764 72.8791C134.639 69.4621 135.514 66.0154 136.389 62.5983C134.277 62.8955 132.165 63.2223 130.053 63.5195C130.415 61.7961 130.656 60.1024 130.777 58.4088C129.751 58.1414 128.725 57.9036 127.73 57.6957C127.518 59.5973 127.126 61.7069 126.553 64.0543L126.251 64.1137C124.26 64.4406 122.238 65.0943 120.488 66.5502L121.061 64.8566C117.682 65.4508 114.302 66.0748 110.893 66.7285L107.513 70.2049L107.634 69.9375L108.72 67.1445C105.371 67.8279 102.022 68.5113 98.7028 69.2244C98.0088 64.7971 97.3149 60.7561 96.7114 57.5174C101.781 56.9231 106.94 56.626 112.16 56.626L112.19 56.6557Z" fill="#EF3B24"/>
<path d="M57.0034 85.4181C54.2577 79.5051 51.9343 73.3545 50.0938 66.9958C66.4778 59.3893 83.4352 55.2888 101.449 54.7837C109.867 54.8431 118.044 55.7345 126.04 57.3687C121.484 56.8933 116.897 56.6556 112.221 56.6556C106.97 56.6556 101.841 56.9528 96.7718 57.547C95.8365 57.6659 94.8709 57.7847 93.9355 57.9333C83.6465 59.3892 73.6893 62.0932 63.9433 66.045C63.0683 66.4016 62.1932 66.7581 61.3182 67.1444C59.9906 67.709 58.663 68.3032 57.3353 68.9272C58.5423 73.0574 59.9302 77.1281 61.5294 81.0799C60.6242 81.8228 59.7492 82.625 58.9345 83.5164L57.0638 85.4478L57.0034 85.4181ZM101.268 136.971C91.8838 130.701 83.4956 123.332 76.254 115.042L80.2972 113.17C81.474 114.656 82.7111 116.082 83.9784 117.508C84.5818 118.192 85.2155 118.875 85.8189 119.559C91.1898 125.353 97.1037 130.671 103.591 135.426C102.837 135.931 102.052 136.465 101.268 136.971V136.971Z" fill="#FDBB30"/>
<path d="M88.3837 109.397L88.4742 110.08C92.4269 110.021 96.2287 109.605 99.759 108.802C99.759 107.376 99.759 105.89 99.6685 104.375L98.0693 105.088C97.3753 103.662 96.983 103.127 96.2891 101.701L95.2028 104.672L90.3147 108.565L88.4138 109.426L88.3837 109.397ZM102.475 103.157C102.535 104.88 102.595 106.544 102.595 108.119C106.276 107.198 109.535 106.247 112.432 105.237C112.613 103.395 113.035 101.285 113.729 98.8187C112.673 99.1753 111.708 99.4427 110.923 99.5615C110.41 99.621 109.958 99.5912 109.535 99.5615L108.57 100.542C106.548 101.404 104.496 102.295 102.475 103.187V103.157ZM100.302 49.3758C78.1851 49.3758 60.8354 54.4865 41.2831 64.0839C43.8479 74.2161 47.2273 83.4866 51.5421 92.0144C52.3567 90.707 53.2619 89.4293 54.318 88.2408C54.8008 87.7356 58.8742 83.5164 58.8742 83.5164C61.3786 80.7827 64.3054 78.8811 67.4434 77.4846C65.3011 74.4241 63.3096 71.2745 61.6501 67.9169L61.288 67.1443C62.1631 66.7581 63.0381 66.4015 63.9131 66.0449L64.2148 66.6689C65.9045 70.1157 67.9563 73.3247 70.159 76.4149C71.0038 76.1177 71.8789 75.88 72.7539 75.6423C75.6807 74.8698 78.5773 74.127 81.5041 73.3841C84.1896 72.7304 88.4742 71.3339 90.5863 73.5327L93.6036 70.4128L95.9571 69.878C95.2632 65.3318 94.539 61.2314 93.9355 57.9332C94.8709 57.7847 95.8365 57.6658 96.7718 57.5469C97.3753 60.7857 98.0693 64.797 98.7633 69.254C102.113 68.5409 105.432 67.8277 108.781 67.1741L107.695 69.9671L107.574 70.2345L110.953 66.7581C114.333 66.1044 117.712 65.5101 121.122 64.8861L120.548 66.5798C122.298 65.1238 124.32 64.4701 126.311 64.1433L126.613 64.0839C127.187 61.7365 127.579 59.6269 127.79 57.7252C128.816 57.9629 129.842 58.2006 130.837 58.4383C130.717 60.132 130.445 61.8257 130.113 63.549C132.225 63.2222 134.338 62.9251 136.45 62.6279C135.575 66.0449 134.7 69.4917 133.825 72.9087L129.6 77.2766L133.191 76.1772C132.044 80.545 130.898 84.9426 129.751 89.3104L125.165 94.0349C123.234 94.8074 120.066 96.3228 117.018 97.5707C116.173 100.186 115.63 102.355 115.328 104.197C125.799 100.067 131.169 94.7777 136.993 85.7449C136.269 88.835 135.213 91.8361 133.945 94.7183C129.087 100.393 123.566 104.197 115.057 107.346C114.996 113.705 119.01 113.438 119.643 113.348C118.587 114.21 117.471 115.072 116.324 115.844C113.79 114.686 112.462 111.566 112.341 108.297C109.445 109.278 106.216 110.169 102.595 111.061C102.565 112.279 102.535 119.232 100.574 123.213C99.065 123.629 97.5262 123.986 95.9571 124.283C96.2589 124.016 96.621 123.659 97.0434 123.243C97.0434 123.184 97.1037 123.154 97.1641 123.094C98.7934 121.46 99.5779 117.33 99.759 111.744C96.2891 112.487 92.5476 112.873 88.6552 112.933C88.5647 115.993 87.5086 118.132 85.8491 119.588C85.2155 118.905 84.612 118.221 84.0085 117.538C85.0646 116.468 85.6982 114.953 85.7887 112.903C84.4309 112.873 82.9826 112.784 81.474 112.665C77.7325 114.418 73.4479 116.409 69.6762 118.192C78.1851 127.462 88.3836 135.604 100.362 142.913C132.256 123.51 149.786 99.6507 159.351 64.1136C139.769 54.5162 122.449 49.4055 100.332 49.4055L100.302 49.3758ZM36.5459 61.9445C57.7276 51.218 76.2842 45.3645 100.302 45.3645C124.32 45.3645 142.877 51.218 164.028 61.9445C154.192 100.958 135.424 126.779 100.302 147.519C87.056 139.704 75.4695 130.552 65.8442 119.915C63.1588 121.193 61.0466 122.203 59.9604 122.738C56.6413 124.372 53.3223 126.006 50.0334 127.641C46.3221 129.513 42.1883 132.335 37.8736 131.236C33.1967 129.245 36.2744 123.629 37.7227 120.42C41.3737 112.338 45.1755 104.316 49.1282 96.3525C44.3608 87.5574 40.6193 77.96 37.9942 67.59L36.5761 61.9445H36.5459Z" fill="#002D62"/>
<path fill-rule="evenodd" clip-rule="evenodd" d="M126.493 65.8072C124.471 66.134 122.631 66.7877 121.122 68.2734C119.885 69.5808 119.221 71.1556 118.678 72.8195C117.049 77.8113 115.419 82.8329 113.82 87.8247C113.186 89.7858 112.13 93.4108 115.359 93.1434C116.445 92.9651 117.501 92.5194 118.527 92.0737C121.786 90.7069 125.044 89.3698 128.303 88.0327C129.148 84.8831 129.963 81.7335 130.777 78.5839C129.057 79.1187 127.338 79.6536 125.618 80.1884C125.225 81.6146 124.803 83.0409 124.411 84.4374C123.204 84.8831 122.027 85.2991 120.82 85.7448C122.329 80.6638 123.838 75.5829 125.346 70.5316C126.402 70.2939 127.458 70.0859 128.514 69.8779C128.273 70.7693 128.032 71.6607 127.76 72.5521C129.299 72.1955 130.838 71.839 132.377 71.4824C132.98 69.1945 133.553 66.9066 134.127 64.6187C131.562 64.9752 129.027 65.3912 126.463 65.7775L126.493 65.8072ZM111.859 68.2734C108.208 72.9681 104.617 77.6925 101.057 82.4466C102.716 78.0788 104.406 73.7406 106.096 69.4025C102.324 70.175 98.5523 70.9773 94.7806 71.8093C93.8151 74.0378 92.8194 76.296 91.884 78.5542C92.6987 78.3462 93.5134 78.1085 94.328 77.9005C91.3711 84.9425 88.4744 92.044 85.6381 99.1455C84.4614 102.028 83.3148 104.91 82.1682 107.792C85.9399 106.039 89.7115 104.286 93.5134 102.563C95.2332 97.8975 96.9531 93.2325 98.7032 88.5973C100.302 91.7766 101.902 94.9559 103.501 98.1352C105.945 97.0655 108.389 95.9959 110.833 94.9559C109.354 91.5983 107.816 88.2704 106.307 84.9128C109.022 80.8718 111.738 76.8308 114.514 72.7898C115.298 72.6115 116.053 72.4332 116.837 72.255C117.411 70.5019 118.014 68.7785 118.587 67.0254C116.324 67.4117 114.092 67.8277 111.829 68.2734H111.859ZM66.81 107.168C64.1849 108.327 61.5598 109.486 58.9348 110.674C62.7366 101.998 66.6893 93.3514 70.7929 84.794C73.086 84.0809 75.4094 83.3677 77.7327 82.6843C73.9611 90.7961 70.3101 98.9672 66.81 107.168V107.168ZM73.086 77.2468C68.1074 78.5839 63.672 80.6638 60.1115 84.5563C58.0597 86.8739 56.6114 89.4887 55.2536 92.1926C51.2708 100.156 47.4689 108.208 43.8179 116.29C42.8524 118.4 39.9256 123.54 43.0636 124.877C46.5034 125.769 50.8182 122.916 53.8657 121.371C57.1847 119.707 60.4736 118.073 63.8228 116.468C69.4954 113.705 74.5645 110.347 78.0043 104.969C79.3621 102.681 80.388 100.245 81.4139 97.8084C83.5863 92.5788 85.789 87.3493 88.0218 82.1198C88.8667 80.1587 90.3452 77.6925 89.8624 75.5531C88.927 72.7007 84.0088 74.424 81.8665 74.9589C78.9698 75.7017 76.043 76.4445 73.1464 77.2171L73.086 77.2468Z" fill="white"/>
<path d="M140.493 61.4989C141.941 62.0041 143.42 62.5092 144.868 63.044C143.42 62.5092 141.971 62.0041 140.493 61.4989V61.4989ZM140.221 61.1721C141.76 61.6772 143.208 62.1824 144.657 62.7172C148.277 64.0543 151.506 65.3914 154.161 66.6393C145.954 94.3321 129.178 117.568 105.492 134.088L103.561 135.396C96.6208 130.285 92.5474 126.274 92.5474 126.274L95.8061 125.739C105.703 124.105 115.268 119.707 123.143 112.457C136.6 100.096 142.062 82.4468 139.286 65.8371C139.225 65.4508 139.135 65.0943 139.075 64.708V64.5297L139.014 64.3514V64.1731L138.924 63.9949V63.8166L138.833 63.6383L138.773 63.4303V63.252L138.682 63.0738V62.9252L138.592 62.7172V62.5092L138.501 62.3606V62.2121L138.441 62.0635C138.29 61.4692 138.169 60.9641 138.019 60.459C138.743 60.6967 139.467 60.9047 140.161 61.1424L140.221 61.1721Z" fill="#007DC3"/>
</g>
</g>
<defs>
<clipPath id="clip0_38_40395">
<rect width="200" height="200" fill="white"/>
</clipPath>
<clipPath id="clip1_38_40395">
<rect width="197.333" height="112.762" fill="white" transform="translate(1.3335 43.76)"/>
</clipPath>
</defs>
</svg>
