<?xml version="1.0" encoding="utf-8"?>
<!-- Generator: Adobe Illustrator 26.5.0, SVG Export Plug-In . SVG Version: 6.00 Build 0)  -->
<svg version="1.1" id="Layer_1" xmlns="http://www.w3.org/2000/svg" xmlns:xlink="http://www.w3.org/1999/xlink" x="0px" y="0px"
	 viewBox="0 0 648 648" style="enable-background:new 0 0 648 648;" xml:space="preserve">
<style type="text/css">
	.st0{fill:#FFFFFF;}
</style>
<g>
	<path d="M337.17,515.81c8.18,0,33.3-0.07,54.22-17.91c18.54-16.81,20.46-36.62,20.99-58.89l-0.12-62.77
		c0-19.65,0-43.67-20.51-60.66c-4.24-3.56-9.36-6.65-15.46-9.11c9.51-6.37,15.98-15.15,19.6-26.19c3.23-9.84,3.08-22.07,2.99-26.84
		l-0.17-55.88c-0.51-15.46-2.21-33.08-14.71-47.35c-11.03-12.17-27.64-18.48-48.7-18.48c-0.14,0-0.28,0-0.42,0l-75.79,0.19
		c-2.22,0-4.36,0.9-6.12,2.56c-1.69,1.64-2.48,3.75-2.48,5.99l0.65,366.88c0,2.95,1.54,5.82,4.14,7.32
		c1.37,0.87,3.03,1.36,4.79,1.36L337.17,515.81z M366.4,353.48c2.34,7.05,2.7,14.88,2.7,22.16l0.14,52.02
		c0,23.72-1.47,34.84-10.52,41.86c-5.42,3.89-12.04,6.15-28.94,6.72c0,0-29.04,0.08-31.28,0.08c-2.63,0-3.64-1.59-3.64-4.07
		c0-21.4-0.31-139.31-0.31-140.3c0-1.09,0.31-2.58,2.53-2.58c10.22,0,20.42-0.09,30.6,1c8.86,0.95,18.31,2.54,25.95,7.41
		C359.71,341.42,363.78,346.62,366.4,353.48z M296.34,170.88h20.87c27.21,0,38.93,3.99,38.93,31.83c0,0,0,45.63,0,47.08
		c-0.34,11.31-0.55,30.48-22.94,37.18c-6.26,1.76-9.25,2.32-22.85,2.78l-13.48,0.03c-0.09,0-0.18,0.01-0.26,0.01
		c-2.09,0-2.67-1.11-2.67-2.81c0-1.07-0.14-112.99-0.14-112.99C293.79,172.15,294.44,171.09,296.34,170.88z M324.43,35.82
		c-158.8,0-288,129.2-288,288s129.2,288,288,288s288-129.2,288-288S483.23,35.82,324.43,35.82z M585.16,253.52
		c4.93,18.28,8.01,37.32,8.97,56.91c-7.94,15.75-23.57,28.73-34.95,35.11c-1-7.45-2.29-15.88-4.01-23.62
		c-1.77-7.95-3.69-15.75-5.78-23.4c9.19-5.72,16.98-12.75,23.26-21.11C578.54,269.56,582.5,261.36,585.16,253.52z M324.43,53.79
		c103.38,0,193.37,58.41,238.73,143.95c11.2,21.12,10.26,46.97-3.29,66.67c-0.51,0.74-1.04,1.47-1.58,2.2
		c-3.95,5.26-8.71,9.88-14.24,13.87c-14.59-46.2-35.32-86.51-61.91-120.15c-27.54-34.85-61.34-62.65-100.44-82.64
		c-22.24-11.37-43.52-18.86-62.12-23.83C321.19,53.82,322.8,53.79,324.43,53.79z M148.96,528.9
		C92.68,480.68,56.4,409.75,54.48,330.44c11.67,12.3,29.74,28.68,55,44.43c28.19,17.58,69.14,36.42,123.55,45.33l-0.03-18.23
		c-49.69-8.56-87.2-25.75-113.18-41.83c-37.24-23.05-58.11-47.91-64.66-56.49c3.23-43.57,16.84-84.3,38.37-119.71
		c11.46-4.31,64.41-20.61,131.31,15.97c2.56,1.4,5.17,2.86,7.81,4.36l-0.04-20.57c-52.51-28.44-97.21-27.4-123.61-22.5
		c26.48-34.99,61.27-63.36,101.41-82.14c29.95-14.01,63.83-17.52,96.02-9.95c19.42,4.57,42.73,12.11,67.09,24.56
		c36.79,18.81,68.59,44.98,94.53,77.78c25.89,32.75,45.97,72.3,59.95,117.87c-8.69,3.64-18.59,6.25-29.7,7.78
		c-25.58,3.52-54.56-2.8-84.44-14.25c-1.95,6.96-2.92,9.91-6.91,16.55c26.36,10.13,52.41,16.63,76.78,16.63
		c5.77,0,11.45-0.36,17.02-1.13c11.85-1.63,22.59-4.37,32.22-8.17c1.66,6.26,3.23,12.6,4.66,19.07c2.12,9.54,3.66,19.06,4.68,28.53
		c-26.32,13.57-63.97,27.3-112.04,37.65l0.03,18.24c43.71-9.19,82.82-21.72,113.31-36.43c0.44,15.79-0.69,31.45-3.34,46.96
		c-12.87,7.72-27.99,19.27-45.51,34.74c-42.8,37.81-84.31,71.05-159.13,95.01c-37.62,12.05-75.54,13.4-103.7,11.82
		C201.37,560.63,172.21,548.82,148.96,528.9z M521.23,482.45c-3.03,6.69-6.18,12.89-9.31,18.56
		c-15.71,28.46-39.88,51.14-69.06,65.45c-35.78,17.54-75.97,27.4-118.43,27.4c-28.89,0-56.72-4.58-82.84-13.01
		c2.96,0.08,5.99,0.12,9.1,0.12c26.61,0,58.39-3.08,90.42-13.34c78.03-24.99,122.83-60.93,165.54-98.66
		c10.86-9.59,20.04-16.96,27.81-22.64C531.02,458.49,526.62,470.54,521.23,482.45z M538.1,488.74
		c6.85-15.31,13.58-34.22,18.08-56.08c10.82-5.4,15.71-5,17.33-4.55C564.34,449.91,552.39,470.27,538.1,488.74z M580.74,408.81
		c-0.59-0.28-2.16-0.64-6.41-0.48c-6.67,0.27-14.7,3.11-14.7,3.11c1.78-14.62,2.44-30.29,1.48-46.87
		c5.87-3.4,11.31-6.89,16.23-10.46c6.71-4.87,12.17-9.62,16.61-14.06C592.54,363.93,588,386.98,580.74,408.81z"/>
	<g>
		<path class="st0" d="M296.87,289.78l13.48-0.03c13.6-0.45,16.59-1.02,22.85-2.78c22.39-6.7,22.61-25.87,22.94-37.18
			c0-1.45,0-47.08,0-47.08c0-27.84-11.72-31.83-38.93-31.83h-20.87c-1.9,0.21-2.55,1.27-2.55,3.11c0,0,0.14,111.92,0.14,112.99
			c0,1.7,0.58,2.81,2.67,2.81C296.69,289.79,296.78,289.78,296.87,289.78z"/>
		<path class="st0" d="M366.4,353.48c-2.62-6.86-6.69-12.06-12.76-15.69c-7.64-4.88-17.09-6.46-25.95-7.41
			c-10.18-1.09-20.38-1-30.6-1c-2.21,0-2.53,1.49-2.53,2.58c0,0.99,0.31,118.89,0.31,140.3c0,2.48,1.01,4.07,3.64,4.07
			c2.24,0,31.28-0.08,31.28-0.08c16.9-0.57,23.52-2.83,28.94-6.72c9.05-7.02,10.52-18.14,10.52-41.86l-0.14-52.02
			C369.1,368.36,368.74,360.54,366.4,353.48z"/>
		<path class="st0" d="M543.61,373.81c-30.49,14.71-69.6,27.24-113.31,36.43l-0.03-18.24c48.07-10.35,85.72-24.08,112.04-37.65
			c-1.02-9.48-2.56-18.99-4.68-28.53c-1.44-6.47-3.01-12.81-4.66-19.07c-9.63,3.81-20.37,6.54-32.22,8.17
			c-5.56,0.77-11.25,1.13-17.02,1.13c-24.37,0-50.42-6.5-76.78-16.63c3.99-6.64,4.96-9.59,6.91-16.55
			c29.88,11.45,58.86,17.77,84.44,14.25c11.11-1.53,21.01-4.14,29.7-7.78c-13.99-45.57-34.06-85.12-59.95-117.87
			c-25.93-32.81-57.74-58.98-94.53-77.78c-24.36-12.45-47.67-19.99-67.09-24.56c-32.19-7.57-66.07-4.06-96.02,9.95
			c-40.14,18.78-74.93,47.15-101.41,82.14c26.4-4.9,71.1-5.94,123.61,22.5l0.04,20.57c-2.64-1.49-5.25-2.96-7.81-4.36
			c-66.9-36.58-119.85-20.29-131.31-15.97c-21.53,35.41-35.14,76.14-38.37,119.71c6.56,8.58,27.42,33.44,64.66,56.49
			c25.98,16.08,63.49,33.27,113.18,41.83l0.03,18.23c-54.4-8.91-95.36-27.75-123.55-45.33c-25.27-15.76-43.33-32.13-55-44.43
			c1.92,79.3,38.2,150.24,94.48,198.46c23.25,19.92,52.41,31.73,82.98,33.44c28.16,1.58,66.07,0.23,103.7-11.82
			c74.82-23.96,116.33-57.21,159.13-95.01c17.51-15.47,32.63-27.02,45.51-34.74C542.92,405.26,544.05,389.59,543.61,373.81z
			 M391.39,497.89c-20.92,17.84-46.03,17.91-54.22,17.91l-77.09,0.2c-1.76,0-3.42-0.49-4.79-1.36c-2.6-1.5-4.14-4.37-4.14-7.32
			l-0.65-366.88c0-2.24,0.79-4.35,2.48-5.99c1.76-1.66,3.9-2.56,6.12-2.56l75.79-0.19c0.14,0,0.28,0,0.42,0
			c21.06,0,37.67,6.31,48.7,18.48c12.5,14.28,14.2,31.89,14.71,47.35l0.17,55.88c0.1,4.77,0.24,17-2.99,26.84
			c-3.61,11.04-10.09,19.82-19.6,26.19c6.09,2.46,11.22,5.54,15.46,9.11c20.51,16.99,20.51,41.02,20.51,60.66l0.12,62.77
			C411.86,461.27,409.93,481.09,391.39,497.89z"/>
		<path class="st0" d="M506.66,468.97c-42.71,37.73-87.51,73.66-165.54,98.66c-32.03,10.26-63.81,13.34-90.42,13.34
			c-3.11,0-6.14-0.05-9.1-0.12c26.12,8.44,53.95,13.01,82.84,13.01c42.46,0,82.65-9.86,118.43-27.4
			c29.19-14.31,53.35-36.99,69.06-65.45c3.13-5.67,6.28-11.87,9.31-18.56c5.39-11.91,9.79-23.96,13.24-36.12
			C526.7,452.02,517.52,459.38,506.66,468.97z"/>
		<path class="st0" d="M585.16,253.52c-2.66,7.84-6.62,16.04-12.51,23.88c-6.28,8.36-14.07,15.39-23.26,21.11
			c2.09,7.65,4.01,15.45,5.78,23.4c1.72,7.75,3.01,16.18,4.01,23.62c11.38-6.38,27.01-19.36,34.95-35.11
			C593.17,290.84,590.09,271.81,585.16,253.52z"/>
		<path class="st0" d="M556.17,432.65c-4.49,21.87-11.23,40.77-18.08,56.08c14.29-18.47,26.24-38.82,35.41-60.63
			C571.88,427.65,566.99,427.26,556.17,432.65z"/>
		<path class="st0" d="M482.14,160.32c26.59,33.64,47.32,73.95,61.91,120.15c5.53-3.99,10.29-8.61,14.24-13.87
			c0.55-0.73,1.08-1.46,1.58-2.2c13.54-19.7,14.48-45.55,3.29-66.67C517.79,112.2,427.81,53.79,324.43,53.79
			c-1.62,0-3.24,0.03-4.86,0.06c18.61,4.97,39.89,12.46,62.12,23.83C420.8,97.67,454.59,125.47,482.14,160.32z"/>
		<path class="st0" d="M580.74,408.81c7.25-21.83,11.8-44.88,13.22-68.76c-4.45,4.44-9.9,9.19-16.61,14.06
			c-4.92,3.57-10.36,7.06-16.23,10.46c0.96,16.58,0.31,32.25-1.48,46.87c0,0,8.02-2.84,14.7-3.11
			C578.58,408.16,580.15,408.52,580.74,408.81z"/>
	</g>
</g>
</svg>
