<svg width="200" height="200" viewBox="0 0 200 200" fill="none" xmlns="http://www.w3.org/2000/svg">
<g clip-path="url(#clip0_38_40379)">
<g clip-path="url(#clip1_38_40379)">
<path d="M99.9999 195.6C152.798 195.6 195.6 152.798 195.6 99.9999C195.6 47.2015 152.798 4.3999 99.9999 4.3999C47.2015 4.3999 4.3999 47.2015 4.3999 99.9999C4.3999 152.798 47.2015 195.6 99.9999 195.6Z" fill="white"/>
<path d="M100 12.302C51.6518 12.302 12.3022 51.6515 12.3022 99.9999C12.3022 148.348 51.6518 187.698 100 187.698C148.348 187.698 187.698 148.348 187.698 99.9999C187.698 51.6515 148.348 12.302 100 12.302ZM163.411 51.2645C173.442 64.295 179.151 79.7768 179.925 96.1617H146.865C147.639 79.809 153.348 64.295 163.411 51.2645V51.2645ZM36.6215 51.2645C46.6847 64.295 52.3936 79.7768 53.1677 96.1617H20.0754C20.8495 79.7768 26.5584 64.295 36.5893 51.2645H36.6215ZM36.6215 148.735C26.5906 135.705 20.8817 120.223 20.1076 103.838H53.1355C52.3614 120.191 46.6525 135.705 36.5893 148.735H36.6215ZM103.871 179.925V156.992H96.1942V179.925C75.3905 178.925 56.0705 169.99 41.7499 154.734C53.458 140.091 60.07 122.545 60.8763 103.87V96.1939C60.07 77.519 53.458 59.9407 41.7499 45.3298C56.0705 30.0738 75.3905 21.1395 96.1942 20.1397V42.8463H103.871V20.0751C124.674 21.075 143.994 29.977 158.315 45.2653C146.607 59.9085 139.995 77.4545 139.188 96.1294V103.806C139.995 122.481 146.607 140.059 158.315 154.67C143.962 169.926 124.674 178.86 103.871 179.86V179.925ZM163.411 148.735C153.348 135.705 147.639 120.223 146.865 103.838H179.925C179.151 120.223 173.442 135.705 163.411 148.735Z" fill="#061922"/>
<path d="M80.4541 63.2629V136.447H119.546V126.383H90.9043V63.2629H80.4541Z" fill="#DA1A32"/>
<path d="M132.834 87.7759V57.6186C132.834 53.1031 131.028 51.2646 126.545 51.2646H73.3582C68.9395 51.2646 67.1655 53.1031 67.1655 57.6186V142.349C67.1655 146.865 68.9717 148.703 73.3582 148.703H126.577C131.028 148.703 132.866 146.865 132.866 142.349V112.16H122.319V139.446H77.648V60.5215H122.319V87.7759H132.866H132.834Z" fill="#00438C"/>
<path d="M119.546 123.545V63.2629H94.1618L93.9038 123.545H104.064L104.225 104.741H109.386L109.321 123.545H119.513H119.546ZM109.353 94.7426H104.257V73.3261H109.353V94.7426Z" fill="#DA1A32"/>
</g>
</g>
<defs>
<clipPath id="clip0_38_40379">
<rect width="200" height="200" fill="white"/>
</clipPath>
<clipPath id="clip1_38_40379">
<rect width="191.2" height="191.2" fill="white" transform="translate(4.3999 4.3999)"/>
</clipPath>
</defs>
</svg>
