<svg width="200" height="200" viewBox="0 0 200 200" fill="none" xmlns="http://www.w3.org/2000/svg">
<g clip-path="url(#clip0_38_40373)">
<g clip-path="url(#clip1_38_40373)">
<path d="M196 100C196 153.009 153.009 196 100 196C46.9909 196 4 153.009 4 100C4 46.9909 46.9909 4 100 4C153.009 4 196 46.9909 196 100Z" fill="#00438C"/>
<path d="M162.803 37.1973C146.022 20.4162 123.74 11.1838 100 11.1838C76.2596 11.1838 53.9784 20.4443 37.1973 37.1973C20.4443 53.9783 11.2119 76.2876 11.2119 100C11.2119 123.712 20.4443 146.022 37.2254 162.803C54.0064 179.584 76.2876 188.816 100.028 188.816C123.768 188.816 146.05 179.584 162.831 162.803C179.612 146.022 188.844 123.74 188.844 100C188.844 76.2595 179.612 53.9783 162.831 37.1973M40.6489 40.5928C56.5039 24.7378 77.6065 15.9824 100.056 15.9824C122.506 15.9824 143.58 24.7097 159.463 40.5928C175.318 56.4478 184.074 77.5504 184.074 100C184.074 112.067 181.548 123.74 176.749 134.432C166.563 131.008 156.545 127.136 146.723 122.758C145.432 122.169 144.141 121.608 142.851 121.018L139.034 119.222L137.126 118.324L135.218 117.37L131.429 115.49C130.167 114.845 128.932 114.171 127.669 113.526L125.789 112.544C125.172 112.207 124.554 111.87 123.937 111.533L120.233 109.485L116.585 107.352C106.847 101.628 97.4463 95.2856 88.6068 88.2701C84.2011 84.7623 79.9076 81.0862 75.8106 77.1856C73.762 75.2493 71.7977 73.2289 69.8614 71.1803C69.3844 70.6752 68.9073 70.142 68.4303 69.6369C67.9532 69.1318 67.5042 68.5986 67.0272 68.0655C66.5782 67.5323 66.1292 66.9991 65.6802 66.4659C65.6802 66.4659 65.6521 66.4098 65.6241 66.4098C65.4557 60.2362 65.3715 56.56 65.3715 56.56L61.1622 55.5779V61.2183H57.5984V55.2973L53.0804 56.3636V58.5244L51.0038 59.6749C51.0599 61.4428 51.116 63.7439 51.1441 66.494C49.4323 69.4686 30.8272 101.628 16.9085 111.505C16.4034 107.745 16.1228 103.901 16.1228 100.028C16.1228 77.6065 24.85 56.5039 40.7331 40.6208M150.932 141.195L142.289 141.476L135.274 123.207L136.649 123.909L140.493 125.845C141.784 126.462 143.075 127.08 144.394 127.697C144.759 127.866 145.124 128.034 145.488 128.202L150.932 141.195ZM148.856 129.746C152.336 131.317 155.843 132.861 159.407 134.32L162.298 140.802L153.626 141.083L148.856 129.746V129.746ZM139.652 141.56L130.812 141.868L121.608 115.771C122.197 116.108 122.758 116.444 123.348 116.781L125.228 117.819C126.49 118.521 127.725 119.222 128.988 119.896L131.906 121.439L139.623 141.56H139.652ZM128.202 141.953L120.289 142.205L108.783 107.885C110.551 109.036 112.319 110.158 114.087 111.253L117.763 113.498L118.268 113.778L128.202 141.925V141.953ZM117.679 142.317L109.401 142.598L95.7626 98.8214C98.9056 101.179 102.133 103.452 105.388 105.64L117.679 142.289V142.317ZM106.819 142.682L98.8494 142.963L82.6296 88.2701C83.7802 89.2803 84.9307 90.2625 86.1093 91.2166C88.1578 92.9284 90.2344 94.584 92.3391 96.2116L106.819 142.682V142.682ZM96.2677 143.047L87.4563 143.356L68.0935 74.1549C69.7772 76.0351 71.5452 77.8591 73.3131 79.627C75.1932 81.5071 77.1014 83.3312 79.0658 85.0991L96.2397 143.019L96.2677 143.047ZM84.9026 143.44L77.2698 143.692L66.6062 103.059C66.2695 92.5916 65.9889 82.9102 65.7644 75.109L84.9026 143.44ZM74.7162 143.777L68.1216 144.001C67.7287 134.32 67.3359 124.189 66.9991 114.34L74.7162 143.777ZM167.854 149.585C167.293 150.371 166.703 151.129 166.114 151.887L68.4583 149.978V149.024L167.854 149.585V149.585ZM164.992 140.746L162.747 135.723C166.451 137.21 170.183 138.641 173.915 140.016C173.831 140.157 173.747 140.297 173.691 140.437L164.992 140.718V140.746ZM61.05 79.3183V84.4817H57.1494V89.2803H61.05V94.4437H57.1494V99.2423H61.05V108.924H57.1494V113.722H61.078V123.684H57.1494V128.483H61.078V144.198L57.458 144.31V71.2645H61.05V74.5197H57.1494V79.3183H61.05ZM23.3627 134.488L34.3069 97.5866C38.7407 91.6936 43.6235 84.2853 48.7308 75.0248L29.1155 145.124C26.9266 141.7 25.0184 138.164 23.3627 134.488M21.8474 130.868C19.9111 125.957 18.4519 120.878 17.4697 115.63C20.5846 113.161 24.9342 109.148 30.1537 102.89L21.8474 130.868V130.868ZM51.088 76.0351C51.088 83.4434 50.9757 92.3952 50.8074 101.936L39.5264 144.955L31.7252 145.208L51.088 76.007V76.0351ZM50.5548 112.74C50.2742 123.404 49.8813 134.404 49.3481 144.647L42.1081 144.899L50.5548 112.74ZM35.5978 153.935L48.7869 154.412C48.5343 158.481 48.2257 162.354 47.917 165.946C45.3914 163.925 42.95 161.764 40.6209 159.463C38.853 157.695 37.1692 155.843 35.5697 153.963M100 184.074C89.5329 184.074 79.3464 182.165 69.8614 178.517C69.4686 172.765 69.1038 165.918 68.739 158.397L61.078 155.787V174.533C59.8714 173.887 58.6647 173.214 57.458 172.512V154.721L61.078 154.861V154.973H65.0067L72.0783 155.254L160.474 158.369C160.137 158.734 159.772 159.098 159.407 159.463C143.552 175.318 122.45 184.074 100 184.074" fill="#FDB927"/>
</g>
</g>
<defs>
<clipPath id="clip0_38_40373">
<rect width="200" height="200" fill="white"/>
</clipPath>
<clipPath id="clip1_38_40373">
<rect width="192" height="192" fill="white" transform="translate(4 4)"/>
</clipPath>
</defs>
</svg>
