<svg width="200" height="200" viewBox="0 0 200 200" fill="none" xmlns="http://www.w3.org/2000/svg">
<g clip-path="url(#clip0_38_40409)">
<g clip-path="url(#clip1_38_40409)">
<path d="M131.5 187.159C131.645 187.334 131.732 187.567 131.848 187.567C132.342 187.567 133.3 187.392 133.3 187.392L134.258 186.984L136.987 185.905L143.81 182.641C143.839 182.641 145 182 145 182L145.639 181.709L146.365 181.213L147.584 180.455L149.006 179.668L150.865 178.444L154.087 176.171L155.655 174.918L157.919 173.286L159.981 171.741L160.968 171.012L162.303 169.73L163.726 168.331L165.99 165.883L168.632 163.318L171.71 159.762L173.394 157.518L173.974 156.702L175.774 154.458L179.287 149.386L180.303 147.725L182.655 143.062L183.99 140.526L186.255 135.892L187.503 133.065L188.839 128.752C188.839 128.752 190.406 123.039 191.277 120.066C191.394 119.717 191.423 119.425 191.19 119.105C190.697 118.434 190.348 117.531 189.884 116.773C189.652 116.365 189.303 115.957 189.071 115.636C188.839 115.316 188.258 114.529 188.026 114.266C187.765 113.975 187.474 113.713 187.184 113.509C186.458 112.809 185.79 112.139 185.181 111.672C184.89 111.498 184.629 111.294 184.339 111.09C182.423 109.603 180.506 108.437 178.3 107.476C177.4 107.097 176.442 106.747 175.513 106.426C174.845 106.193 173.8 105.96 173.103 105.814C172.697 105.727 172.377 105.727 172.058 105.931C171.768 106.135 171.739 106.601 171.71 107.068C171.565 108.262 171.535 109.545 171.448 110.74C171.332 111.964 171.245 113.217 171.158 114.441C171.071 115.549 171.013 116.685 170.868 117.793C170.694 119.279 170.49 120.737 170.2 122.194C169.677 124.904 169.097 127.615 168.545 130.325C168.371 131.083 168.284 131.841 167.994 132.54C167.5 133.706 167.152 134.872 166.919 136.096C166.426 138.69 165.497 141.109 164.597 143.528C163.871 145.51 163.174 147.55 162.042 149.357C161.955 149.474 161.926 149.62 161.868 149.736C161.345 150.989 160.823 152.272 160.271 153.496C159.923 154.312 159.4 155.041 159.052 155.857C158.616 156.877 158.035 157.809 157.455 158.742C156.497 160.228 155.51 161.657 154.697 163.172C154.145 164.251 153.477 165.271 152.781 166.262C152.577 166.524 152.432 166.786 152.258 167.019C151.677 167.865 151.184 168.71 150.545 169.497C149.355 171.012 148.135 172.528 146.858 173.985C146.074 174.918 145.203 175.763 144.39 176.637C143.635 177.424 142.881 178.24 142.126 179.027C141.981 179.202 141.748 179.319 141.574 179.494C141.139 179.872 140.645 180.251 140.21 180.659C139.223 181.65 138.206 182.583 137.074 183.37C136.581 183.69 136.087 184.04 135.623 184.419C134.403 185.468 133.039 186.255 131.5 187.042" fill="#BD1B21"/>
<path d="M192.381 114.004C192.381 114.004 192.439 113.917 192.439 113.8C192.468 113.567 192.497 113.13 192.497 113.13L193.165 107.184L193.571 101.617V95.2346L192.933 88.9683C192.933 88.9683 192.178 83.3142 191.597 80.4288C191.394 79.4087 190.755 78.8841 189.913 78.476C189.623 78.3303 189.333 78.1846 189.042 78.0972C188.433 77.8931 187.736 77.6017 187.155 77.456C185.733 77.1062 184.397 76.6399 182.975 76.4067C181.291 76.1153 179.578 75.9404 177.894 75.7947C176.5 75.6781 175.107 75.6198 173.684 75.5907C172.581 75.5907 171.884 75.5615 170.781 75.5615C170.2 75.5615 169.562 75.5615 169.271 75.9404C169.01 76.3193 169.213 76.9896 169.3 77.66C169.504 79.0298 169.736 79.7293 169.968 81.07C170.636 85.092 171.362 89.1141 171.507 93.1944C171.594 95.0306 171.681 96.8667 171.768 98.7029C171.768 99.2275 171.768 99.5481 171.768 100.073C171.768 100.393 171.855 100.743 172 100.976C172.145 101.238 172.407 101.268 172.697 101.355C173.045 101.472 173.394 101.501 173.742 101.588C174.091 101.676 174.758 101.821 175.194 101.938C176.82 102.463 178.533 103.046 180.129 103.687C181.233 104.153 182.278 104.794 183.352 105.348C183.468 105.406 183.584 105.494 183.7 105.581C184.339 106.047 184.949 106.514 185.587 106.98C187.068 108.058 188.578 109.108 189.71 110.594C189.913 110.886 190.175 111.148 190.465 111.381C190.9 111.789 191.626 113.188 192.178 113.829C192.265 113.946 192.352 113.975 192.41 113.975" fill="#BD1B21"/>
<path d="M150.603 47.145C151.155 47.1158 151.678 47.0867 152.113 47.0575C152.432 47.0284 152.723 46.9992 152.868 46.6787C153.013 46.3581 152.752 45.9792 152.665 45.8334C152.549 45.542 151.474 43.6475 151.474 43.6475L150.429 42.0154L146.045 35.6617L145.145 34.5834L144.303 33.4176L142.852 31.8146L139.31 27.9091L137.771 26.3936L132.255 21.264L127.755 17.7666L126.129 16.8922L120.816 13.6571L117.1 11.646L116.374 11.3546L113.355 10.2471L108.884 8.55665L108.536 8.46922L107.084 8.11947L106.707 8.03204L105.458 7.71144L102.787 7.21597H101.51L99.1293 6.7205L96.2841 6.51648L95.297 6.3999H93.497L90.5067 6.45819L87.5454 6.80794L85.2518 6.86623L83.2486 7.09939L81.1583 7.50742L79.5905 8.00289L77.0357 8.49836H76.4551L74.0744 9.34357L72.6518 9.72246L71.7809 10.2471L69.6905 10.83L68.6744 11.4129L67.426 11.9084L64.3486 13.1907L60.4293 14.7354L59.1518 15.3475L56.4228 16.8339L54.0422 18.4077L51.8067 19.5736L50.9938 20.0399L48.5551 21.3223L48.1486 21.5846L45.3905 23.7705L43.097 25.3152L42.6325 25.6066L40.0196 27.6759L39.0905 28.4629C39.0905 28.4629 37.697 29.6578 37.668 29.8327L38.6551 29.5412C38.6551 29.5412 40.4551 28.8709 40.4841 28.9C40.5131 28.9 40.8325 28.9292 40.8325 28.9292L43.4164 27.88H43.7938L46.6099 26.7724C46.6099 26.7724 48.0905 26.277 48.0905 26.3061C48.0905 26.3353 49.6002 25.7524 49.6002 25.7524L51.6905 24.9946L56.7712 23.0418H57.2357L59.8196 22.1092L61.8809 21.264L62.1712 21.468C62.1712 21.468 66.1196 21.5554 66.1486 21.5554L68.6744 21.7595H68.7615L73.8712 22.2258L73.9293 22.1675L80.9841 22.5464V22.7212L83.5389 24.878H83.7422L86.297 27.3553L86.5293 27.2388L90.0422 27.3262L90.2164 27.2096L99.0712 27.7342L99.1293 27.9382L103.078 30.2116H103.252L110.191 33.5924L110.249 33.9713L114.197 32.4266L119.974 34.3794L120.962 35.9823L123.081 36.1281L125.113 38.4597H125.316L126.971 40.3541V40.4707H127.232L131.791 41.5199L133.474 44.1139L137.684 45.6586C137.684 45.6586 142.213 46.8244 144.507 47.1158C146.568 47.3781 149.007 47.2616 150.603 47.1741" fill="#BD1B21"/>
<path d="M189.942 74.0169C189.797 73.3465 189.332 71.9767 189.332 71.9767L189.071 71.2481L188.839 70.3446L188.084 68.1004L187.387 66.1477L185.21 61.3096L184.223 58.9196L183.003 56.18L181.523 53.7318L181.174 53.0323L180.187 51.0504L179.258 49.5349L178.881 49.0103L172.552 40.4124C172.552 40.4124 171.942 39.6838 171.623 39.334C171.478 39.13 171.42 39.0134 171.216 39.0134C171.216 39.0134 171.216 39.0134 171.187 39.0134C171.187 39.0134 169.242 42.1903 168.429 43.0938C167.616 43.9973 165.991 45.4837 165.991 45.4837C165.991 45.4837 164.626 46.6203 164.394 46.7952C164.161 46.9701 163.116 47.6696 163.116 47.6696L161.665 48.4856C161.665 48.4856 160.561 48.9811 160.416 49.0685C160.242 49.156 160.039 49.2143 159.923 49.36C159.807 49.5057 159.778 49.6223 159.836 49.8555C159.865 50.0595 159.923 50.2344 160.01 50.4092C160.591 51.6333 161.113 52.8866 161.752 54.0815C162.739 55.8594 163.32 57.7538 164.132 59.6191C164.394 60.2312 164.655 60.8432 164.887 61.4844C165.41 63.1166 165.932 64.7778 166.455 66.41C166.658 67.1386 166.92 67.8672 167.123 68.5959C167.326 69.3245 167.5 70.0531 167.703 70.8109C167.82 71.3064 168.139 71.5104 168.632 71.5104C169.097 71.5104 169.591 71.5104 170.055 71.4521C171.739 71.3938 173.423 71.3355 175.136 71.3064C175.629 71.3064 178.997 71.5978 178.997 71.5978C178.997 71.5978 180.216 71.7144 180.797 71.831C182.074 72.0642 183.352 72.3556 184.629 72.6179C185.703 72.8511 186.807 73.2008 187.823 73.6671C188.316 73.9003 188.839 74.0169 189.391 74.1918C189.536 74.25 189.826 74.2792 189.855 74.2501C189.884 74.2501 189.971 74.046 189.942 73.9586" fill="#BD1B21"/>
<path d="M167.82 36.1282C167.762 35.895 167.326 35.1955 167.326 35.1955L167.007 34.6126L166.078 33.5634L165.468 32.6599L164.307 31.5232C164.307 31.5232 164.046 31.2901 163.929 31.2026C161.897 29.5414 157.891 26.2771 157.862 26.2771L156.758 25.4027L154.668 23.5666L144.187 17.2421L135.913 13.3074L131.529 11.5879C131.529 11.5879 129.933 11.0341 129.904 11.0341L124.504 9.16882L120.7 8.20703L117.013 7.42011L116.433 7.36182L116.113 7.68241L116.258 7.82814C116.258 7.82814 116.636 8.03216 116.81 8.09045C117.942 8.55677 119.104 8.96481 120.265 9.43113C121.02 9.72258 121.717 10.1306 122.5 10.3638C123.023 10.5095 123.516 10.7135 124.01 11.005C125.781 12.0251 127.523 13.0451 129.265 14.0944C130.31 14.7356 131.268 15.4642 132.168 16.3094C132.865 16.9215 133.562 17.5335 134.375 17.9998C134.752 18.2039 135.042 18.5245 135.362 18.7868C135.536 18.9325 135.71 19.1074 135.913 19.2531C136.929 20.0983 138.062 20.8269 138.962 21.8179C139.92 22.8671 140.936 23.8872 141.981 24.8781C142.939 25.8399 143.926 26.7726 144.768 27.8509C145.465 28.7544 146.162 29.6288 146.946 30.4157C148.455 31.9313 149.617 33.7091 151.01 35.3121C151.184 35.5161 151.3 35.7493 151.446 35.9825C152.346 37.3814 153.129 38.8678 154.204 40.1502C154.958 41.0537 155.626 42.0155 156.12 43.0939C156.439 43.7351 156.875 44.318 157.281 44.9009C157.513 45.2507 157.891 45.4255 158.123 45.3964C158.326 45.3964 158.704 45.1924 158.704 45.1924L159.429 44.9009C159.429 44.9009 160.387 44.4637 160.736 44.318C161.055 44.1723 161.723 43.7934 161.955 43.5894C162.187 43.3854 163.175 42.6859 163.726 42.1904C164.278 41.6949 165.381 40.3542 165.381 40.3542L166.194 39.2759L167.587 36.9443C167.587 36.9443 167.878 36.4196 167.82 36.1573" fill="#BD1B21"/>
<path d="M163.465 71.1316C162.913 69.3828 162.478 67.7216 161.839 66.002C161.317 64.603 160.939 63.1458 160.271 61.7759C159.894 60.9599 159.691 60.0855 159.371 59.2112C159.197 58.774 158.994 58.3951 158.849 57.9579C158.065 55.7429 157.049 53.965 155.975 51.8957C155.917 51.7791 155.858 51.6917 155.771 51.4877C155.684 51.2836 155.597 51.1088 155.336 50.963C155.075 50.8173 154.842 50.9048 154.378 50.963C153.478 51.0796 152.346 51.1671 151.881 51.1671C151.446 51.1671 149.704 51.3128 148.281 51.4294L147.962 51.3419H146.249L141.72 50.759C140.065 50.5259 136.291 49.5641 136.291 49.5641L133.533 48.6023L130.136 47.4365L129.875 47.5822L124.562 47.1742L124.387 47.2616L121.397 44.9883H121.049L119.191 43.2687L119.133 42.919L117.042 42.5984L116.839 42.6858L115.126 42.1029L114.923 41.928L111.004 42.2195L107.462 40.7622L95.181 41.4034L94.9778 41.2868L92.6552 41.4617L92.423 41.6366L86.3843 42.1029L86.2101 41.9572L77.5875 46.941L77.4714 47.3199L77.0939 47.6696L76.8907 47.5239L72.5649 47.1159L72.3326 47.2325L64.6681 47.2907L64.523 47.2033L62.3165 47.1159L61.6488 46.737L53.6068 52.9741V53.1198L50.7617 55.364L47.6262 53.8484L47.452 53.9359L46.2907 53.5861C46.2907 53.5861 40.4843 55.0725 40.5423 55.1017C40.6004 55.1308 35.1423 54.2273 35.1423 54.2273L34.7649 53.9359L33.7488 54.9851L31.6004 56.0343L31.5423 56.2092L27.2165 59.5318L21.0907 63.9618L14.181 69.1205L11.0746 71.3939L10.9004 72.7346L9.59394 75.7657L9.04233 78.3887L8.17136 83.6932L7.64878 85.9665L7.47458 88.7062L6.71975 94.4186L6.40039 106.922L6.74878 107.68L6.98104 111.119C6.98104 111.119 7.0391 111.731 7.18426 111.731L22.4552 95.8468L27.4778 93.8066L31.6875 93.5734L34.2423 90.6297L34.4746 90.076L34.7939 90.2217L41.6746 89.4348L41.9649 89.2308H44.5488L44.9262 89.3765L45.7681 88.269L48.8455 86.3745L52.1552 84.1012L61.4165 84.2178L61.4746 84.4218L65.1036 84.7715L67.9488 84.1886L73.1455 78.8551H73.2617L77.3843 74.9205L83.5972 74.1335L83.8294 73.9587L84.1197 74.221L87.3423 75.7365L87.5746 75.5325L90.4197 75.1828L90.5649 75.037L93.2359 74.5707L93.4681 74.425L96.3714 76.9023L96.5455 76.6983L102.497 76.5817L103.02 76.2028L107.81 76.436L108.071 76.5234L108.797 76.3486L108.913 76.1446L110.829 75.2702H111.062L113.268 74.3084L113.442 74.1044L115.794 73.2009L115.968 72.9386L122.5 70.4321L122.558 70.3446L123.72 69.9658L123.981 69.7034L124.3 70.0532L126.187 70.9858H126.768L128.887 72.1808L129.033 71.9768L129.7 71.6562H129.758L130.833 71.1899L130.891 71.1316L132.429 70.7818L136.349 71.8019L137.191 71.5979L137.917 72.0934L140.791 72.5305L143.607 73.6089L145.233 73.4923L145.755 73.8421L146.162 73.6089C146.162 73.6089 151.707 72.9094 154.465 72.6763C156.265 72.5305 158.065 72.3557 159.865 72.1517C160.881 72.0642 161.897 71.9476 162.913 71.8602C163.465 71.8019 163.755 71.5687 163.552 70.9567" fill="#BD1B21"/>
<path d="M167.5 99.6064C167.5 99.2275 167.442 98.9943 167.413 98.6154C167.355 97.537 167.297 96.4587 167.239 95.4094C167.239 95.0597 167.181 94.6808 167.152 94.3311C167.065 92.9904 167.036 91.6788 166.92 90.3382C166.745 88.6477 166.513 86.9865 166.252 85.296C166.049 84.0136 165.816 82.7021 165.584 81.4197C165.323 80.079 165.12 78.8258 164.829 77.4851C164.539 76.1153 164.249 75.9404 162.855 76.1153C162.739 76.1153 162.623 76.1444 162.507 76.1736C161.984 76.2901 161.258 76.3484 160.736 76.4067C158.007 76.7565 155.452 76.9022 152.752 77.2228L144.971 79.9333L133.707 79.6419L132.487 79.2338V79.4378L129.178 81.886L128.713 81.9443L126.1 84.3925L125.955 84.7423L119.22 85.6458L113.065 90.4256H112.426L109.145 92.3492L107.839 92.4949L106.562 93.6024L106.213 93.3401L99.9423 92.9029L98.839 94.127V94.3311L93.439 100.277L93.381 100.626L93.1777 100.685L86.2681 108.583H84.381L84.2358 108.816L78.5455 109.807H78.11C78.11 109.807 77.9939 110.04 77.9648 110.07C77.9358 110.07 68.6165 115.287 68.6165 115.287L64.4358 114.791L63.5358 115.112L59.3552 114.849L55.2036 119.338L52.7358 119.833L51.3423 119.775L49.8616 120.387L48.9907 120.299L49.0487 120.474L43.881 124.467L43.3874 124.555L35.3455 130.85L35.4036 131.2L30.439 143.295L30.6423 143.791L22.4261 144.548L19.7261 146.88L19.4648 147.754L23.1229 152.855L25.8229 156.993L28.1455 159.995L31.9487 164.134C31.9487 164.134 31.9487 164.425 32.0648 164.455C32.1229 164.484 32.5584 164.513 32.5874 164.542C32.5874 164.542 34.8519 165.3 34.881 165.329L37.6681 166.203C37.6681 166.203 37.6971 166.349 37.7261 166.349L38.0165 166.32L42.6616 168.127H43.01L43.2713 168.418H43.6777L44.781 169.147L46.7261 168.069H46.8132L47.6842 167.515L54.739 169.293L59.9068 166.64L71.3745 165.504L76.0777 157.897C76.8326 157.168 78.1681 155.798 78.1681 155.798H78.3423C78.3423 155.798 79.9681 154.283 79.9971 154.254C79.9971 154.225 79.9971 154.05 79.9971 154.05L82.9584 151.339L84.3229 149.911C84.3229 149.911 84.6423 149.736 84.6713 149.707C84.7003 149.707 86.2681 148.046 86.2681 148.046L87.5455 146.705L87.8939 146.647L87.5745 145.481L88.91 140.614L91.4939 139.856L91.581 139.769L92.3358 139.594V139.156L95.7907 133.561L96.11 133.415L97.5326 130.646L99.8552 129.305L100.175 128.926L100.639 128.985C100.639 128.985 102.004 128.169 102.033 128.198H102.207L104.733 127.09L104.936 126.799L113.355 122.923L113.849 122.864L113.965 122.398L114.284 122.165L115.155 119.221L117.826 118.055L120.904 117.676L123.691 115.724L127.697 115.899L128.075 116.219L128.278 115.957L133.852 113.45V112.722L135.158 110.157L137.887 109.428L138.033 109.253L141.778 108.467L143.229 106.747H143.404C143.404 106.747 144.275 105.873 144.304 105.843C144.333 105.843 146.887 106.193 146.887 106.193L147.033 106.281L148.426 106.485L149.297 106.601C149.297 106.601 153.071 104.823 154.668 104.211C155.336 103.949 155.975 103.774 156.613 103.57C157.484 103.25 158.355 102.958 159.226 102.637C159.691 102.492 160.097 102.375 160.533 102.229L162.304 101.909L164.365 101.559L165.613 101.472C165.613 101.472 166.223 101.384 166.455 101.355C166.687 101.297 167.036 101.297 167.297 101.064C167.558 100.801 167.558 100.568 167.587 100.335C167.587 100.102 167.616 99.9852 167.616 99.6355" fill="#BD1B21"/>
<path d="M167.414 107.009C167.414 106.718 167.472 106.222 167.239 105.96C167.007 105.698 166.688 105.669 166.485 105.669C166.281 105.669 165.323 105.785 165.323 105.785L163.698 106.048C163.494 106.048 163.32 106.106 163.146 106.135C162.159 106.368 161.201 106.572 160.214 106.835C159.139 107.155 158.036 107.447 157.049 107.884C155.975 108.35 154.756 108.758 153.681 109.254C153.304 109.428 149.675 111.206 148.02 112.052L145.901 114.296L145.814 114.791L145.523 114.675L144.217 114.762L144.13 114.879L139.833 116.307V116.773L139.427 117.21V117.502L137.394 121.057H137.104L137.046 121.436L136.175 122.864L127.117 128.723H126.914L125.52 129.859L124.562 133.706L123.691 134.552L120.149 147.667L120.614 149.153L115.388 151.66H114.546L113.53 156.236L113.385 156.381L112.078 160.549L112.165 160.782L111.643 164.338L111.439 164.6L111.614 164.921L106.591 172.936L106.214 173.053L104.994 175.005V175.384C104.994 175.384 100.669 181.476 100.669 181.446L96.1395 184.128L96.4008 184.507L96.1685 186.343L96.575 187.013L95.9363 187.217L92.6556 189.17L92.3072 189.082L87.4879 191.939L86.9072 192.842L88.7943 193.134L91.9008 193.396L94.0201 193.513H96.4879L97.6201 193.6L99.4782 193.658L101.336 193.6L108.072 192.784L112.078 192.084L115.098 191.268L118.378 190.307L122.559 188.645L122.849 188.47L124.01 187.8C124.01 187.8 127.378 186.022 128.917 184.856C131.501 182.874 134.143 180.922 136.523 178.678C137.336 177.891 138.12 177.104 138.933 176.317C139.688 175.559 140.443 174.801 141.227 174.043C141.343 173.898 141.517 173.781 141.575 173.606C141.836 172.994 142.33 172.557 142.765 172.091C143.085 171.77 143.404 171.45 143.665 171.042C144.159 170.225 144.943 169.643 145.61 168.972C146.133 168.448 146.656 167.836 147.091 167.223C147.875 166.087 148.63 164.921 149.385 163.755C150.401 162.211 151.504 160.724 152.375 159.092C153.304 157.372 154.204 155.624 155.191 153.933C156.004 152.476 156.846 151.019 157.485 149.503C158.559 146.968 159.633 144.432 160.62 141.867C161.665 139.127 162.478 136.33 163.233 133.532C163.785 131.433 164.104 129.276 164.888 127.236C165.004 126.974 165.033 126.682 165.062 126.42C165.352 124.701 165.643 122.981 165.904 121.261C166.165 119.629 166.398 117.997 166.63 116.365C166.775 115.257 166.978 114.15 167.065 113.013C167.181 111.469 167.269 109.924 167.327 108.35C167.327 108.175 167.327 107.855 167.327 107.855C167.327 107.855 167.327 107.359 167.327 107.068" fill="#BD1B21"/>
</g>
</g>
<defs>
<clipPath id="clip0_38_40409">
<rect width="200" height="200" fill="white"/>
</clipPath>
<clipPath id="clip1_38_40409">
<rect width="187.2" height="187.2" fill="white" transform="translate(6.40039 6.3999)"/>
</clipPath>
</defs>
</svg>
