<svg width="200" height="200" viewBox="0 0 200 200" fill="none" xmlns="http://www.w3.org/2000/svg">
<g clip-path="url(#clip0_38_40405)">
<g clip-path="url(#clip1_38_40405)">
<path d="M186.195 2.80005L161.578 27.2948L141.011 6.95464L120.327 27.3236L99.7594 6.92578L79.2211 27.2659L58.6829 6.92578L38.1446 27.2948L14.1396 3.29052V111.685C14.1396 158.828 52.3321 197.2 99.9051 197.2C147.478 197.2 186.195 158.828 186.195 111.685V2.80005Z" fill="white"/>
<path d="M21.8311 126.543C23.8703 136.757 27.8906 146.335 33.8044 155.077C37.3877 148.874 44.5542 141.142 58.596 137.853C57.5181 134.275 56.5567 130.467 55.741 126.514H21.8311V126.543Z" fill="#63727A"/>
<path d="M39.3975 162.434C54.6045 180.063 76.4828 190.247 99.5265 190.391C97.3416 189.295 95.2149 188.083 93.1756 186.785C83.3872 180.524 69.9572 168.349 61.2758 145.758C47.6128 148.701 41.8446 156.376 39.3975 162.434" fill="#63727A"/>
<path d="M69.7236 144.546C75.8705 159.895 85.1929 171.667 97.3993 179.572C105.469 184.823 113.218 187.189 118.316 188.256C131.076 185.313 143.02 179.197 152.896 170.599C145.118 169.762 137.107 165.319 128.687 160.645C115.52 153.317 99.1181 144.229 77.0067 144.229C74.6179 144.229 72.1707 144.344 69.7236 144.546V144.546Z" fill="#63727A"/>
<path d="M102.993 86.6418H74.5312V120.196H86.359V93.2776H95.2443V120.196H106.518V91.3446C106.518 88.7768 104.945 86.6418 102.993 86.6418Z" fill="#5A2D81"/>
<path d="M111.5 86.6418V115.435C111.5 118.003 113.073 120.196 114.996 120.196H143.429V99.8269H132.067V113.56H123.182V93.1334H143.4V86.6707H111.471L111.5 86.6418Z" fill="#5A2D81"/>
<path d="M43.0676 86.6418L36.6294 100.202H32.9296V86.6418H21.1602V120.196H32.9296V106.693H36.6294L43.0676 120.196H54.8079L46.5344 103.462L54.8079 86.6418H43.0676Z" fill="#5A2D81"/>
<path d="M70.1314 86.6418H57.9541V120.196H70.1314V86.6418Z" fill="#5A2D81"/>
<path d="M179.203 95.73V86.6418H147.974V101.962C147.974 104.53 149.547 106.607 151.47 106.607H167.376V113.935H147.974V120.225H179.233V104.818C179.233 102.424 177.892 100.202 176.115 100.202H159.714V93.1622H167.929V95.73H179.233H179.203Z" fill="#5A2D81"/>
<path d="M145.992 52.5974H136L156.567 32.2284L140.981 16.8218L120.326 37.1619L99.759 16.8218L63.6641 52.5974H53.6718L74.21 32.1995L58.6825 16.8218L38.1443 37.1619L21.1602 20.457V53.838V80.4966H179.203V54.6458V19.6781L145.992 52.5974Z" fill="#5A2D81"/>
<path d="M55.6826 74.0338C55.6826 74.8994 56.4109 75.6207 57.2849 75.6207H66.1702V73.2548H58.9163V65.5804H66.1702V63.2146H55.6826V74.0338Z" fill="white"/>
<path d="M41.2031 63.2435V75.6207H44.4368V72.3893H48.4571V75.6207H51.6907V64.8014C51.6907 63.8782 50.9333 63.2146 49.9137 63.2146H41.2031V63.2435ZM48.4571 70.0235H44.4368V65.5804H48.4571V70.0235V70.0235Z" fill="white"/>
<path d="M171.746 63.2434H164.404C163.53 63.2434 162.831 63.9358 162.831 64.8014V74.0338C162.831 74.8993 163.559 75.6206 164.404 75.6206H171.746C172.619 75.6206 173.319 74.8993 173.319 74.0338V64.8014C173.319 63.9358 172.619 63.2434 171.746 63.2434ZM170.085 73.2548H166.094V65.6092H170.085V73.2548Z" fill="white"/>
<path d="M26.6953 69.0137C26.6953 69.8792 27.4236 70.6005 28.2976 70.6005H33.9492V73.2548H26.6953V75.6206H37.1829V69.8215C37.1829 69.0137 36.5712 68.3501 35.7554 68.2635H29.929V65.6092H37.1829V63.2434H26.6953V69.0425V69.0137Z" fill="white"/>
<path d="M93.2633 63.2435H84.3779V75.6207H87.6116V72.3893H91.6319V75.6207H94.8655V64.8014C94.8655 63.9359 94.1372 63.2146 93.2633 63.2146M91.6319 69.9947H87.6116V65.5516H91.6319V69.9947Z" fill="white"/>
<path d="M148.76 65.5804H152.372V75.6206H155.606V65.5804H159.218V63.2434H148.76V65.5804Z" fill="white"/>
<path d="M115.228 63.2435H99.1475V75.6207H102.381V65.5804H106.343V75.6207H109.635V65.5804H113.597V75.6207H116.831V64.8014C116.831 63.9359 116.102 63.2146 115.228 63.2146V63.2435Z" fill="white"/>
<path d="M143.895 63.2435H135.01V75.6207H138.243V65.5804H142.264V75.6207H145.497V64.8014C145.497 63.9359 144.769 63.2146 143.895 63.2146V63.2435Z" fill="white"/>
<path d="M121.229 74.0338C121.229 74.8994 121.929 75.6207 122.832 75.6207H131.717V73.2548H124.492V70.6005H131.717V68.2347H124.492V65.5804H131.717V63.2146H121.259V74.0338H121.229Z" fill="white"/>
<path d="M78.6096 71.1199H80.3284V64.8014C80.3284 63.8782 79.571 63.2146 78.5514 63.2146H69.8408V75.5918H73.0745V71.091H75.4051L77.3278 75.5918H80.4741L78.5514 71.091L78.6096 71.1199ZM77.0948 68.754H73.0745V65.5804H77.0948V68.754Z" fill="white"/>
<path d="M75.2595 136.035C92.098 135.689 108.762 139.873 129.999 151.875C145.701 160.732 152.606 163.415 157.325 162.29C161.666 161.222 165.686 158.684 172.794 143.825C175.504 138.141 177.456 131.419 178.388 126.543H64.1602C64.9467 129.977 65.7333 133.381 66.7821 136.526C69.5496 136.208 72.4046 136.064 75.2887 136.064L75.2595 136.035Z" fill="#63727A"/>
</g>
</g>
<defs>
<clipPath id="clip0_38_40405">
<rect width="200" height="200" fill="white"/>
</clipPath>
<clipPath id="clip1_38_40405">
<rect width="172.055" height="194.4" fill="white" transform="translate(14.1396 2.80005)"/>
</clipPath>
</defs>
</svg>
