<svg width="200" height="200" viewBox="0 0 200 200" fill="none" xmlns="http://www.w3.org/2000/svg">
<g clip-path="url(#clip0_38_40377)">
<g clip-path="url(#clip1_38_40377)">
<path d="M182.317 35.4283C168.999 19.4447 149.817 10.5617 128.331 10.5334H42.2994L2.3999 190.852L75.824 190.908L86.3538 147.286C96.2006 147.286 122.155 147.286 122.127 147.286C146.715 147.455 166.893 139.195 180.496 123.324C205.17 96.6188 200.844 57.6357 182.317 35.4283V35.4283Z" fill="#BEC0C2"/>
<path d="M82.5971 142.505L72.0673 186.127H8.34766L46.1412 15.2861L128.302 15.3427C148.764 15.371 166.295 23.6316 178.646 38.4553C196.86 60.3232 198.653 96.6471 176.853 120.241C163.477 135.828 143.898 142.674 122.155 142.505H82.5971V142.505Z" fill="#002D62"/>
<path d="M37.689 53.2507H73.6896C77.8161 53.279 82.2272 56.7303 80.3205 61.9639C79.1537 65.1889 78.243 68.9514 77.8161 72.4593C77.5031 75.2034 80.5766 76.9291 82.3411 76.9291L155.737 76.9857C157.131 76.9857 157.843 76.5896 157.843 75.939C157.843 75.2883 157.786 72.8554 157.53 71.1863C157.274 69.5738 157.017 69.2909 155.68 69.2909C146.544 69.2909 142.816 65.2172 133.226 59.0783C123.635 52.9395 109.576 49.4033 97.4812 49.375H38.5712L37.689 53.2507V53.2507Z" fill="#FDBB30"/>
<path d="M82.1421 100.495C80.8615 97.7788 79.6947 94.582 78.9832 91.6116C78.0725 87.8208 74.8566 84.7372 69.3356 84.7372H30.7168L31.6844 80.4089L156.847 80.4938C158.099 80.4938 157.843 81.003 157.758 82.3892C157.672 83.7754 157.359 86.3215 157.16 87.8208C156.961 89.3202 155.709 88.9524 154.513 88.9807C151.696 89.0373 146.459 89.7162 143.414 91.9794C138.235 95.8551 127.164 102.645 120.932 104.625C114.272 106.747 89.3423 114.328 82.0283 100.353" fill="#FDBB30"/>
<path d="M23.8013 116.054L89.1715 116.11C92.0459 116.11 94.5503 116.789 96.457 118.374C101.978 122.9 109.15 126.181 116.748 128.36C120.163 129.35 126.026 128.077 131.262 125.135C144.353 117.779 152.777 103.804 155.538 94.78C156.249 92.4319 154.883 92.63 153.033 92.7431C147.512 93.1392 141.735 98.0899 134.108 102.927C126.481 107.737 110.971 112.32 96.2578 112.291L24.6266 112.235L23.8013 116.025V116.054Z" fill="#FDBB30"/>
<path d="M119.679 29.0349C120.59 28.8652 123.92 28.6671 125.741 29.4027C138.149 34.2685 149.903 47.112 154.826 60.7759C155.765 63.4068 155.993 65.0759 154.826 65.2173C149.134 65.8397 146.488 63.0673 139.771 58.541C133.084 54.0429 126.908 50.9594 118.427 48.2719C110.06 45.6126 94.8347 45.2449 92.8711 45.1883C90.9074 45.1317 91.1635 44.3113 92.0173 43.4626C99.3028 36.2205 109.121 30.9586 119.679 29.0632V29.0349Z" fill="#FDBB30"/>
<path d="M179.244 75.8824C179.272 76.3916 178.732 76.9857 178.049 76.9857C177.992 76.9857 163.734 76.9857 163.734 76.9857C161.884 76.9857 161.855 76.137 161.799 75.0903C161.713 74.0436 161.429 71.9502 161.372 70.7054C161.315 69.5173 160.859 68.1311 162.482 67.4521C166.466 65.783 170.222 61.9074 171.958 58.5692C172.528 57.4376 173.41 55.5988 174.377 57.183C177.764 62.558 178.817 69.2061 179.244 75.8824Z" fill="#FDBB30"/>
<path d="M174.122 101.456C173.865 101.937 172.955 102.305 172.67 101.513C170.593 95.9681 165.612 92.149 162.197 90.2536C161.173 89.6878 161.059 89.0088 161.201 87.9904C161.343 86.972 161.77 83.747 161.827 82.3608C161.884 81.2858 162.311 80.4937 163.136 80.4937H178.049C178.59 80.4937 179.244 80.9746 179.244 81.3706C179.244 88.443 177.081 95.4306 174.122 101.428V101.456Z" fill="#FDBB30"/>
<path d="M135.332 129.265C134.279 129.407 131.973 129.067 135.616 126.974C146.459 120.722 156.107 106.011 158.696 97.5807C159.664 94.3557 159.778 94.1859 161.03 94.5537C162.681 95.0063 165.299 97.2695 167.291 100.014C169.283 102.758 170.165 108.104 168.998 109.632C161.201 120.014 148.821 127.313 135.332 129.293V129.265Z" fill="#FDBB30"/>
<path d="M162.908 62.7278C160.376 64.0857 159.892 63.8311 159.351 61.9357C154.655 45.4994 140.739 33.3631 135.076 29.7421C133.994 29.0631 134.279 28.6105 135.076 28.7236C148.679 30.5342 161.998 37.8895 168.714 47.9889C172.528 53.7882 165.384 61.4264 162.937 62.7278H162.908Z" fill="#FDBB30"/>
</g>
</g>
<defs>
<clipPath id="clip0_38_40377">
<rect width="200" height="200" fill="white"/>
</clipPath>
<clipPath id="clip1_38_40377">
<rect width="195.2" height="180.375" fill="white" transform="translate(2.3999 10.5334)"/>
</clipPath>
</defs>
</svg>
