<svg width="200" height="200" viewBox="0 0 200 200" fill="none" xmlns="http://www.w3.org/2000/svg">
<g clip-path="url(#clip0_38_40367)">
<g clip-path="url(#clip1_38_40367)">
<path d="M9.15849 133.345C7.59369 131.009 2.3999 122.164 2.3999 107.911C2.3999 102.537 3.13236 96.4284 5.06339 89.6524C5.06339 89.6524 5.06339 89.5523 5.06339 89.5189H5.09668L5.92902 86.2144L6.12878 86.4147C6.26195 86.0141 6.39513 85.6136 6.5283 85.213C7.19417 83.1769 7.89334 81.0407 8.0598 80.54C8.15968 80.1061 8.79226 77.6694 9.25837 75.9671C9.39155 75.4664 9.52472 75.0325 9.65789 74.6653V74.4316C9.85766 73.1632 10.0574 71.9616 10.2905 70.7933C10.3904 70.1591 10.4902 69.5583 10.5568 69.0242V68.7906L10.69 68.5903C10.7566 68.4568 10.7899 68.3233 10.8232 68.2565C13.2536 58.3096 17.8148 52.4349 20.3451 49.7646V49.6978C20.8445 49.2305 22.2429 47.9288 23.8742 46.894C24.6067 45.926 27.0371 42.7884 29.2345 40.285C30.0002 39.4505 30.6994 38.6828 31.3986 38.0486C31.7648 37.2141 32.6304 35.4117 34.2951 33.3422C36.4925 30.6051 40.0549 27.334 45.5483 25.3312C49.7433 22.4606 54.2046 19.9572 58.7992 17.7542C59.6981 16.853 63.0274 13.5151 68.2212 10.1772C74.4138 6.33862 83.0036 2.3999 93.1581 2.3999C93.5576 2.3999 93.9238 2.3999 94.3234 2.3999L98.0189 2.50004L93.4244 8.67514C95.8549 8.47487 98.3186 8.40811 100.816 8.40811C113.967 8.40811 126.518 10.9783 137.938 15.618H138.004L138.038 15.6513C138.471 15.8516 139.27 16.2522 140.102 16.7528C140.801 17.1868 141.5 17.6541 142.133 18.3217C142.932 18.4218 144.597 18.6888 146.461 19.5233H146.528L146.561 19.5567C158.913 26.0656 169.7 35.1113 178.09 45.9928L178.156 46.0929L178.223 46.1931C178.356 46.4267 178.689 47.0943 178.956 48.4962C178.956 48.4962 179.288 48.6965 179.522 48.8634C179.988 49.1638 180.487 49.4976 180.986 49.9983L181.086 50.0984L181.186 50.2319C191.54 65.2858 197.567 83.4106 197.567 102.904C197.567 121.396 192.14 138.653 182.751 153.206V153.273L182.684 153.306C182.551 153.506 182.451 153.573 182.318 153.707C182.318 153.707 182.052 153.94 181.852 154.107C181.552 154.341 181.186 154.574 180.72 154.875C180.687 155.042 180.62 155.309 180.554 155.576C180.387 156.177 180.221 156.844 179.755 157.612L179.721 157.712C162.176 181.812 133.377 197.533 100.816 197.533C58.2332 197.533 22.0764 170.663 9.1252 133.279L9.15849 133.345Z" fill="white"/>
<path d="M179.621 51.4335C179.055 50.8661 177.757 50.0984 177.757 50.0984C177.291 49.8981 177.191 49.4642 177.191 49.4642C176.924 47.8286 176.591 47.2612 176.591 47.2612C168.368 36.6133 157.814 27.7345 145.695 21.3591C143.531 20.3911 141.567 20.291 141.567 20.291C141.134 20.291 140.934 19.9572 140.934 19.9572C140.235 18.9558 138.071 17.8543 137.272 17.4538C126.085 12.8809 113.767 10.3774 100.882 10.3774C96.9533 10.3774 93.1246 10.6111 89.3291 11.0784L94.2899 4.36923C74.4136 3.76841 60.1307 19.3564 60.1307 19.3564C55.3697 21.5928 50.8085 24.1963 46.4803 27.1337C36.126 30.8387 33.1296 39.2168 33.1296 39.2168C30.4994 41.4198 25.3056 48.3627 25.3056 48.3627C23.8074 49.2305 22.2759 50.6324 21.8098 51.0997C19.4127 53.6032 15.0512 59.2108 12.7207 68.8907C12.6541 69.0576 12.5875 69.1911 12.5209 69.358C12.421 69.8921 12.3212 70.4929 12.2546 71.0937C12.0215 72.2286 11.8218 73.4302 11.6553 74.6653L11.7552 74.5318C11.7219 74.7988 11.6886 74.9323 11.6886 74.9323C11.4555 75.0992 9.95732 81.074 9.95732 81.074C9.72427 81.8417 6.9942 89.9862 6.9942 89.9862C6.9942 89.9862 6.9942 89.9862 6.9942 90.0196C-0.130619 114.987 9.32475 130.141 10.9561 132.444C23.5411 169.194 59.0653 195.664 100.882 195.664C132.81 195.664 161.043 180.243 178.223 156.644C178.722 155.876 178.955 154.307 178.955 154.307C178.955 153.807 179.355 153.573 179.355 153.573C180.687 152.872 181.119 152.371 181.186 152.305C190.375 138.052 195.702 121.129 195.702 103.037C195.702 83.9446 189.776 66.187 179.654 51.4335H179.621Z" fill="#061922"/>
<path d="M61.0631 33.4757C61.2962 33.2087 61.5292 32.975 61.729 32.7748C62.0619 32.441 62.1618 32.3742 62.2284 32.3742C62.2617 32.3408 62.295 32.3075 62.295 32.3075C62.3948 27.5676 63.4602 23.7291 63.4602 23.7291C72.0833 11.6459 86.2996 8.44151 86.2996 8.44151C88.0642 7.94083 86.9322 8.70855 86.9322 8.70855C77.9762 18.7556 78.9084 27.067 78.9084 27.067L87.4649 58.343C87.4649 58.343 80.5398 55.9064 75.2129 44.9247C72.7491 66.8547 93.3578 84.6122 93.3578 84.6122C94.2568 85.38 92.8584 84.5455 92.8584 84.5455C87.6979 81.9753 81.7384 76.5012 80.1403 74.9657C80.5731 76.6681 90.6278 127.237 90.6278 127.371C90.6611 127.604 90.8275 128.105 90.9274 128.405L94.3899 119.76L97.2532 145.295C84.1688 157.478 70.2521 152.672 69.3865 152.338C69.7194 152.872 69.9858 153.273 69.9858 153.273C69.9858 153.273 81.3056 175.536 127.351 173.167C127.351 173.167 128.449 173.167 128.283 173.3C128.283 173.333 128.249 173.4 128.05 173.467C127.184 173.801 125.819 174.001 125.819 174.001C70.2188 188.888 41.4199 141.39 40.1548 139.287C39.7885 138.786 37.0917 134.981 35.5935 131.142C35.5602 131.042 35.4937 130.642 35.7267 130.942C35.7267 130.942 41.6197 137.117 58.333 138.619C58.4662 138.619 58.5328 138.619 58.5328 138.619C45.6149 124.2 40.1548 113.752 39.3224 112.15C39.3224 112.15 37.7576 109.813 35.9265 103.171C35.9265 103.171 35.9598 102.837 36.1262 103.171C36.7588 104.473 41.0204 110.815 46.2142 112.217C41.8194 105.074 39.0561 93.7915 38.7231 92.1559C44.7493 100.601 55.3699 101.202 55.3699 101.202C55.3699 101.202 55.3699 101.168 55.3033 101.135C55.3033 101.168 55.3366 101.202 55.3366 101.202C37.8242 83.6776 41.5864 64.6183 48.7112 50.8661C52.9062 42.7217 58.2331 36.4464 61.0631 33.4423V33.4757Z" fill="white"/>
<path d="M113.434 149.401L101.948 161.517L116.131 150.602L108.806 125.234L112.002 94.7261L106.409 123.866L113.434 149.434V149.401Z" fill="#BBC4CA"/>
<path d="M115.997 74.7321C114.998 79.9392 113.367 85.2798 110.537 87.6497C110.737 87.5496 111.003 87.4161 111.303 87.2492C112.168 86.7485 113.3 85.9474 114.432 84.7458C116.696 82.3759 118.994 78.5039 118.994 72.4289C118.994 69.7252 118.528 66.5543 117.429 62.8826C117.329 64.9854 116.963 69.792 116.031 74.6987L115.997 74.7321Z" fill="#BBC4CA"/>
<path d="M115.798 36.2462L115.998 36.1795L115.798 36.2462ZM115.864 35.7789C119.86 29.704 126.452 29.2033 129.248 29.1699C126.851 28.4689 124.587 28.2019 122.59 28.2019C118.361 28.2019 115.232 29.3702 113.933 29.9376C113.734 30.0377 113.6 30.1045 113.5 30.1379C114.533 31.5732 115.531 34.644 115.898 35.7789H115.864Z" fill="#BBC4CA"/>
<path d="M110.804 48.5296C110.804 48.5296 110.97 48.6297 110.97 48.7299C110.97 49.2973 110.97 49.8648 110.97 50.4322C110.97 63.4834 107.508 77.7696 106.176 82.743C111.17 71.294 112.502 60.6128 112.502 52.4349C112.502 47.6284 112.036 43.6897 111.569 40.9192C111.336 39.4839 111.07 38.3824 110.904 37.6481C109.638 47.4615 105.91 51.9343 105.876 51.9676C105.876 51.9676 105.776 52.0344 105.71 52.0344C105.71 52.0344 105.577 52.001 105.543 51.9343C99.4173 40.5854 90.3614 33.676 86.233 30.9055C85.5339 30.4382 84.9346 30.0711 84.5684 29.8374C96.2211 55.2388 99.6503 74.8656 100.516 81.3411C100.516 80.6068 100.549 79.8391 100.549 79.0713C100.549 67.4555 97.5861 53.4697 96.0879 47.1945C95.5885 45.0916 95.2556 43.8899 95.2556 43.8899C95.2556 43.8899 95.2556 43.723 95.3555 43.6563C95.3555 43.6563 95.5219 43.6229 95.5885 43.6563C100.816 47.7285 104.511 59.3444 105.177 61.4806C106.143 60.279 107.441 57.2081 108.473 54.4377C109.605 51.4002 110.471 48.6631 110.471 48.6631C110.471 48.6631 110.571 48.5296 110.67 48.5296H110.804ZM105.81 51.8341L105.976 51.734L105.81 51.8341Z" fill="#BBC4CA"/>
<path d="M12.6543 101.235C12.6543 113.318 14.7185 125.969 25.1061 142.124C34.8944 162.853 52.9728 173.968 61.396 178.24C64.1927 179.676 65.924 180.31 65.924 180.343C79.308 186.652 91.8929 188.988 103.179 188.988C126.785 188.988 144.696 178.774 152.188 173.667C154.685 171.965 156.016 170.83 156.016 170.83L156.149 170.964L156.016 170.797C156.516 170.396 156.882 170.062 157.148 169.829C157.148 169.829 156.849 169.996 156.715 170.096C156.183 170.43 155.683 170.73 155.683 170.73C137.339 181.545 120.425 184.816 106.609 184.816C84.9679 184.816 70.9846 176.738 70.9513 176.738C25.0728 152.639 24.4069 110.815 24.4069 110.815C24.4069 110.815 24.4735 110.648 24.5734 110.614C24.5734 110.614 24.7399 110.614 24.8064 110.715C30.7327 122.197 37.8908 126.136 41.087 127.371C41.5531 127.538 41.9193 127.671 42.219 127.738C28.8682 110.882 25.0728 96.6955 25.0728 86.0142C25.0728 71.8615 31.7648 63.8506 31.7648 63.8172C31.7648 63.8172 31.9313 63.7171 31.9978 63.7504C31.9978 63.7504 32.131 63.884 32.0977 63.9841C31.1322 68.9909 30.766 73.3636 30.766 77.2022C30.766 86.5149 32.9634 92.3228 34.0287 94.6593C34.0287 94.6593 34.0953 94.7929 34.1286 94.8596C33.7291 91.455 33.5293 88.1838 33.5293 85.0128C33.5293 53.5031 51.9407 34.0766 55.836 30.3381C52.9395 31.5732 49.3771 34.7108 46.5138 37.6481C43.3176 40.9193 40.9205 43.9567 40.9205 43.9567C40.9205 43.9567 40.7873 44.0569 40.6875 44.0235C40.6875 44.0235 40.5543 43.9234 40.5543 43.8232C40.5543 41.3198 42.0192 38.1822 42.7849 36.6468C40.4211 38.8164 38.4568 42.1877 37.0585 45.1584C35.4937 48.4295 34.6613 51.1666 34.6613 51.2V51.2667C27.3367 59.5447 23.8076 68.3901 22.4759 72.2955C22.0431 73.5972 21.8433 74.3316 21.8433 74.3316C21.6768 74.9992 21.577 75.3329 21.4771 75.4998C21.4771 75.4998 21.4438 75.6334 21.244 75.6667C21.244 75.6667 21.0443 75.5666 21.0443 75.4998C21.0443 75.4998 21.0443 75.4331 21.0443 75.3663C21.0443 75.3663 21.0443 75.1994 21.0443 75.0993C21.0443 74.6987 21.0776 74.1981 21.0776 74.1981C21.2107 68.2566 23.6745 61.5474 24.6733 59.0774C17.6816 66.621 15.9837 76.835 15.9837 85.0128C15.9837 88.8848 16.3832 92.2894 16.7494 94.6927C17.1489 97.1294 17.5152 98.5647 17.5152 98.5981V98.6648C17.5152 103.471 18.4807 109.413 19.4129 114.153C20.3451 118.892 21.2773 122.397 21.2773 122.397C21.577 123.298 21.7101 123.732 21.7101 123.966C21.7101 123.966 21.7101 124.033 21.7101 124.1C21.7101 124.1 21.6103 124.233 21.5104 124.233C21.5104 124.233 21.3439 124.166 21.2773 124.1C21.2773 124.1 21.1774 123.999 21.1441 123.933C21.1441 123.933 20.9444 123.632 20.8445 123.465C20.6447 123.132 20.4783 122.798 20.4783 122.798C15.5841 115.288 13.2203 102.937 12.6543 99.7997C12.6543 100.267 12.6543 100.734 12.6543 101.202V101.235Z" fill="#BBC4CA"/>
<path d="M120.225 42.1876L120.126 42.0874V41.9539C122.423 35.9457 132.944 30.6051 135.008 29.6037C130.114 26.8333 125.419 26.0322 121.491 26.0322C118.528 26.0322 116.064 26.4995 114.299 27.0001C112.535 27.4675 111.536 27.9348 111.536 27.9348L111.403 28.0015L111.303 27.868C109.472 25.5982 107.141 23.3285 105.21 21.6595C103.379 20.0573 101.981 18.9558 101.847 18.8557C101.581 18.6888 101.415 18.5887 101.381 18.3216C101.381 18.3216 101.481 18.088 101.581 18.0212C101.581 18.0212 101.748 17.9545 101.847 17.9211C102.047 17.8877 102.28 17.8877 102.48 17.8877C102.746 17.8877 102.946 17.8877 103.013 17.8877C145.029 17.8877 167.369 47.9955 167.369 47.9955C167.669 48.3293 167.802 48.6631 167.802 48.9635C167.769 49.8647 166.737 50.2986 165.804 50.5991C164.872 50.8995 163.94 50.9996 163.94 50.9996C159.878 51.567 156.116 51.8007 152.653 51.8007C130.813 51.8007 120.259 42.1542 120.225 42.1208V42.1876Z" fill="#0064B1"/>
<path d="M105.909 163.887C105.909 163.887 105.776 163.82 105.776 163.72C105.776 163.72 105.776 163.587 105.842 163.52L119.926 152.138L112.768 125.568V125.501L114.732 107.677C114.732 107.61 114.765 107.577 114.832 107.544C114.832 107.544 114.932 107.51 114.998 107.544C118.194 108.545 119.693 112.918 120.492 116.99C121.024 119.927 121.191 122.731 121.224 124.066C124.953 115.955 126.185 109.413 126.185 104.373C126.185 97.1961 123.721 92.9904 122.523 91.3214C122.123 90.754 121.857 90.5203 121.857 90.5203C121.857 90.5203 121.79 90.3201 121.857 90.2533C121.857 90.2533 122.056 90.1865 122.123 90.2533C138.903 106.208 142.299 128.506 142.299 143.893C142.299 154.274 140.767 161.517 140.767 161.551C140.201 163.22 138.503 163.62 138.503 163.654C131.678 165.189 125.652 165.656 120.691 165.656C111.402 165.656 105.909 163.921 105.909 163.921V163.887Z" fill="#0064B1"/>
<path d="M145.395 161.951C145.129 161.751 144.962 161.384 144.962 160.916C144.962 160.683 144.962 160.449 145.062 160.149C145.062 160.149 145.595 158.046 146.161 154.408C146.694 150.769 147.26 145.629 147.26 139.587C147.26 123.565 143.431 101.202 125.619 83.8111C125.619 83.8111 125.286 83.5775 125.12 83.4106C125.12 83.4106 124.986 83.277 124.986 83.1101C124.986 83.1101 125.053 82.9099 125.12 82.8765C125.12 82.8765 125.253 82.8431 125.353 82.8431C125.519 82.8431 125.785 82.8765 126.152 82.9766C126.152 82.9766 130.913 84.4119 134.242 88.1504C134.242 87.9167 134.175 87.6163 134.142 87.2825C134.009 86.3479 133.743 84.9794 133.31 83.4439C132.411 80.3397 130.779 76.3342 127.75 72.8628C127.75 72.8628 127.317 72.4289 127.084 72.1285C127.084 72.1285 126.951 71.9616 126.917 71.7947C126.917 71.7947 126.917 71.6946 126.984 71.6278C126.984 71.6278 127.117 71.561 127.15 71.561C127.15 71.561 127.35 71.6278 127.517 71.6946C127.517 71.6946 127.816 71.8948 128.083 72.0951C129.148 72.6292 173.895 94.3255 175.459 138.152C175.459 138.152 175.459 138.419 175.459 138.786C175.459 139.854 175.293 141.991 173.861 143.192C173.428 143.726 162.841 156.944 147.226 162.018C147.226 162.018 146.76 162.185 146.228 162.218C145.928 162.218 145.628 162.151 145.362 161.951H145.395Z" fill="#0064B1"/>
<path d="M179.055 131.109C178.922 130.809 178.855 130.375 178.855 129.774C177.823 87.5829 131.712 61.0466 120.192 55.0718C118.561 54.204 117.629 53.8034 117.629 53.8034L116.83 53.4362H117.729C117.729 53.4362 117.795 53.4362 117.828 53.4362C123.888 53.4362 127.583 57.1079 128.682 58.3763C128.682 57.2748 128.449 56.1066 128.249 55.2053C128.016 54.3041 127.816 53.7033 127.816 53.7033L127.683 53.3027L128.083 53.4696C132.91 55.3055 139.136 55.9397 145.229 55.9397C151.122 55.9397 156.915 55.3722 161.21 54.8048C165.505 54.2373 168.335 53.6699 168.335 53.6699C168.568 53.6699 168.768 53.6699 168.967 53.6699C171.431 53.6699 172.197 55.0384 172.297 55.2721C178.056 61.7142 185.215 76.668 186.413 94.5925C186.546 96.8289 186.613 99.0319 186.613 101.135C186.613 116.89 182.851 128.339 180.653 131.076C180.32 131.476 180.054 131.71 179.688 131.71C179.388 131.71 179.155 131.476 179.055 131.176V131.109Z" fill="#0064B1"/>
<path d="M80.8729 12.8809C80.8729 12.8809 80.9395 12.8141 80.9395 12.7808C80.4401 12.9477 71.2511 15.6514 68.521 29.7039C68.521 29.7039 68.521 29.9709 68.6542 29.7039C69.4865 28.3353 72.3497 23.9961 74.9799 25.2645C74.9799 25.2645 74.9799 25.1643 75.0132 24.9641C75.1464 23.7624 76.012 18.8891 80.8729 12.8475V12.8809Z" fill="#061922"/>
<path d="M73.8147 139.854C71.8171 135.849 59.0656 107.911 59.0656 107.911C55.1037 109.179 50.1763 105.941 50.1763 105.941C56.4687 122.664 71.2178 137.284 73.5816 139.921C73.5816 139.921 73.5816 139.921 73.6149 139.955C74.0144 140.388 74.0144 140.222 74.0144 140.222C73.9479 140.155 73.9146 139.988 73.8147 139.821V139.854Z" fill="#061922"/>
<path d="M61.1629 48.8968C49.6434 75.2661 75.5458 86.1477 75.912 86.2812L74.547 80.2062L73.7479 76.7348C73.082 76.5345 72.4828 76.3009 71.9168 76.0338C71.717 75.9337 71.5172 75.8336 71.3175 75.7668C71.0844 75.6333 70.8181 75.5332 70.6183 75.433C59.2985 69.3914 60.3972 54.9384 61.0964 50.2653C61.0964 50.2319 61.0964 50.1985 61.0964 50.1652C61.0964 50.0317 61.1297 49.8981 61.1629 49.7646C61.2295 49.3307 61.2961 49.0303 61.3294 48.8634C61.3294 48.7966 61.3294 48.7299 61.3294 48.7299C61.3294 48.3627 61.1962 48.7299 61.1297 48.8968H61.1629Z" fill="#061922"/>
<path d="M78.2092 123.165L76.3447 90.0195L87.4648 126.97C87.4648 126.97 83.8025 118.225 78.2092 123.165Z" fill="#BBC4CA"/>
<path d="M78.9086 27.8347L81.3723 47.6618C81.3723 47.6618 82.5709 53.0691 75.1797 44.9581C80.5067 55.9397 87.4317 58.3764 87.4317 58.3764L78.9419 27.334C78.9419 27.334 78.8753 27.4341 78.9086 27.8013V27.8347Z" fill="#BBC4CA"/>
<path d="M67.0893 64.0175C66.3901 62.3819 66.1238 60.8798 66.1238 59.5781C66.1238 54.7715 69.6529 52.0344 69.6862 52.0344L69.786 51.9677C69.786 51.9677 69.6196 48.8968 69.8859 43.9233C67.056 48.1291 61.0298 58.076 68.2213 65.8533C68.1214 65.6864 67.9882 65.5529 67.8883 65.4194C67.5221 64.8853 67.2557 64.4514 67.056 64.0508L67.0893 64.0175Z" fill="#BBC4CA"/>
<path d="M74.6134 68.0562C73.3815 65.8865 70.2519 59.0439 69.7858 52.101C69.7858 52.0677 69.7858 52.0009 69.7858 51.9675L69.6859 52.0343C69.6859 52.0343 66.1235 54.7714 66.1235 59.5779C66.1235 60.9131 66.3899 62.4151 67.0891 64.0173C67.2888 64.4179 67.5552 64.8518 67.9214 65.3859C68.0213 65.5194 68.1212 65.6863 68.2543 65.8198C68.3875 65.9867 68.554 66.1536 68.7204 66.3205C69.919 67.6556 71.9832 69.0242 75.3458 69.1577C75.3458 69.1577 75.0795 68.7571 74.6467 68.0228L74.6134 68.0562Z" fill="#061922"/>
<path d="M84.6684 131.009C85.8336 131.009 86.6993 132.077 87.3984 133.546C88.1309 135.014 88.6969 136.95 89.1297 138.886C89.6957 141.29 90.0286 143.726 90.2284 145.195C90.2284 145.863 90.2284 146.363 90.2284 146.63C90.4614 145.062 92.8253 129.574 84.968 127.371C84.968 127.371 79.5079 125.969 79.8408 137.384C79.8741 137.117 79.9074 136.884 79.9407 136.683C81.7385 132.645 83.2367 131.042 84.6684 131.009V131.009Z" fill="#BBC4CA"/>
<path d="M90.2616 145.195C90.2616 144.728 89.6956 141.323 89.1629 138.886C88.7301 136.95 88.1308 135.015 87.4317 133.546C86.6992 132.077 85.8336 131.042 84.7016 131.009C83.27 131.009 81.7718 132.645 79.9739 136.683C79.874 136.984 79.874 137.017 79.874 137.384L82.5708 143.359C82.5708 143.359 84.1356 127.371 90.2283 146.597C90.2283 146.63 90.2283 146.664 90.2283 146.664C90.2283 146.363 90.3282 145.996 90.2283 145.195H90.2616Z" fill="#061922"/>
</g>
</g>
<defs>
<clipPath id="clip0_38_40367">
<rect width="200" height="200" fill="white"/>
</clipPath>
<clipPath id="clip1_38_40367">
<rect width="195.2" height="195.2" fill="white" transform="translate(2.3999 2.3999)"/>
</clipPath>
</defs>
</svg>
