<svg width="200" height="200" viewBox="0 0 200 200" fill="none" xmlns="http://www.w3.org/2000/svg">
<g clip-path="url(#clip0_38_40363)">
<g clip-path="url(#clip1_38_40363)">
<path d="M198.585 49.4742C197.8 35.9078 191.656 23.7302 187.974 16.4663L187.541 15.6117L185.944 12.4604L186.269 15.9856C186.729 20.846 187.812 37.4568 182.804 46.8571C176.578 59.6223 158.28 58.3938 152.27 57.9665H151.81C141.93 57.2989 109.799 56.1506 99.9459 56.204C86.9257 56.2574 72.552 57.2989 61.0206 58.1535C55.3632 58.5541 50.4907 58.9279 47.1883 59.0348C46.9176 59.0348 46.5387 59.0882 45.9973 59.1416C29.81 60.6371 19.5779 55.9102 15.5987 45.1479C13.1625 38.5517 13.2167 25.466 13.2437 19.1902V17.3208V14.677L11.9715 17.0004C8.96683 22.5284 3.3094 32.8367 1.41457 49.9816C0.358876 70.1709 10.9699 77.4081 19.0636 81.1202C27.5091 84.9925 36.1441 85.5266 38.9864 85.7135H39.203H39.1217C39.6902 85.8203 40.3669 85.847 41.0707 85.8737C41.9369 85.9004 42.8843 85.9539 43.8588 86.1408C42.3159 86.4346 40.3128 86.7817 38.5533 87.0755C36.6585 87.396 34.899 87.6897 33.9786 87.8766C32.0567 88.2772 23.9089 90.1466 19.5238 91.6421C15.7882 92.8973 11.782 94.7667 11.7549 94.7934L11.0241 95.1405L11.5113 95.7815C11.5113 95.7815 12.9189 97.7043 14.3265 99.0662C17.1958 101.844 25.1812 106.811 34.8178 105.636C42.5324 104.701 46.6469 102.939 48.244 102.084C48.7313 103.713 49.9494 107.505 51.1404 110.443C54.6052 118.962 62.5094 135.172 65.487 140.807C67.8961 145.373 70.2782 149.433 71.8753 152.103L72.4437 153.065C71.9294 154.801 70.6843 155.895 69.7639 156.697C69.5203 156.91 69.3037 157.097 69.1142 157.284L68.9248 157.471V157.711C68.8436 159.287 68.4646 173.387 78.1824 183.696L78.2907 183.803L78.426 183.856C83.2714 185.699 89.5784 187.568 99.7564 187.568C109.934 187.568 118.867 185.138 121.953 183.616L122.088 183.562L122.17 183.455C128.964 175.551 132.023 163.64 132.104 159.314V159.047L131.914 158.86C131.752 158.7 131.563 158.513 131.373 158.352C130.317 157.364 129.018 156.109 128.26 153.198C129.099 151.81 130.696 148.471 132.023 145.747C132.754 144.225 133.403 142.917 133.755 142.249C136.624 136.748 144.989 119.015 148.318 110.63C150.43 105.342 151.594 102.698 152.108 101.577C153.57 102.351 157.549 104.087 165.02 104.861C174.738 105.849 183.995 99.4401 186.567 95.9417C187 95.3542 187.731 94.4996 187.731 94.4996L188.299 93.832L187.487 93.4581C187.487 93.4581 187.108 93.2979 185.646 92.8172L180.26 91.0279L174.9 89.2653C173.438 88.7846 166.888 87.3692 162.096 86.3544L158.469 85.58L159.66 85.3663C170.759 83.4435 200.21 78.2894 198.558 49.5009L198.585 49.4742Z" fill="#061922"/>
<path d="M3.93176 43.6254C5.5559 35.3734 8.23574 27.6555 11.863 20.2581L11.9171 20.178H12.0795H12.242V20.3382C12.1337 22.5548 12.0795 24.8247 12.0795 27.1214C12.0795 32.596 12.4585 38.1507 13.7037 43.1447L13.812 43.6254L13.433 43.2782C11.8359 41.8628 10.2118 40.2338 8.56057 38.8184C7.09884 40.4474 5.69125 42.21 4.20245 43.7589L3.82349 44.1595L3.93176 43.6254V43.6254Z" fill="#CE1141"/>
<path d="M195.743 40.2605H195.581H195.743C193.605 33.2904 191.683 26.2401 188.191 19.8308L187.893 19.9109C188.028 22.1275 188.11 24.3173 188.11 26.5072C188.11 31.8483 187.676 37.1092 186.81 42.1833L186.756 42.477L187.027 42.3435C188.732 41.5156 190.383 40.4207 192.116 39.673L196.339 42.6907L195.716 40.2338L195.743 40.2605Z" fill="#CE1141"/>
<path d="M126.609 114.769L126.284 114.902C123.875 115.944 121.411 116.985 118.813 117.493C117.135 117.92 115.402 118.133 113.724 118.133C108.445 118.133 103.383 115.97 100.243 111.243L100.135 111.083L99.9999 111.217C99.3773 111.778 98.9983 112.445 98.3486 113.033C95.0192 116.825 90.1738 118.267 85.2472 118.267C81.4034 118.267 77.5326 117.386 74.2572 116.05L73.9324 115.917L74.0677 116.264C76.5581 122.78 78.101 130.044 78.101 137.308C78.101 140.566 77.8032 143.824 77.1265 147.055C76.6663 149.299 75.9084 151.649 75.2858 153.839L75.1776 154.186L75.5024 154.026C82.5403 150.34 91.1483 148.471 99.7292 148.471C107.85 148.471 115.944 150.153 122.684 153.518C123.794 153.972 124.849 154.72 125.851 155.067L126.149 155.174L126.04 154.88C124.064 149.139 122.927 143.05 122.927 136.64C122.927 136.56 122.927 136.453 122.927 136.373C122.927 135.973 122.927 135.572 122.927 135.145C122.927 128.175 124.416 121.285 126.5 115.089L126.609 114.769V114.769Z" fill="#CE1141"/>
<path d="M57.691 121.525C56.9331 120.617 56.3105 119.602 56.0939 118.427L56.0398 118.08L56.3376 118.267C57.6098 119.068 58.9903 119.415 60.425 119.415C63.3755 119.415 66.4614 118 68.7622 116.398L68.8705 116.318L68.9517 116.398L69.0329 116.478L68.9247 116.585L69.0329 116.478L69.0871 116.531V116.611C68.7622 119.576 67.6795 122.967 64.5124 124.142C64.0252 124.276 63.565 124.329 63.1319 124.329C60.9934 124.329 59.1257 123.101 57.691 121.579V121.525Z" fill="#CE1141"/>
<path d="M132.564 120.377C131.887 119.362 131.508 118.294 131.292 117.065L131.21 116.665L131.535 116.905C133.105 118.134 135.108 118.668 137.139 118.668C139.521 118.668 141.984 117.92 143.879 116.718L144.258 116.478L144.122 116.905C143.202 119.602 140.82 122.326 137.951 122.967C137.707 122.994 137.463 123.021 137.193 123.021C135.325 123.021 133.62 122.033 132.537 120.377H132.564Z" fill="#CE1141"/>
<path d="M136.218 124.329C136.597 124.409 136.976 124.436 137.355 124.436C138.438 124.436 139.521 124.142 140.576 123.822L140.901 123.715L140.766 124.009C136.814 133.756 132.05 143.183 127.123 152.557L126.961 152.877L126.825 152.557C125.824 149.86 125.553 147.002 125.553 144.091C125.553 141.955 125.715 139.765 125.851 137.575C126.555 131.273 128.097 125.237 129.992 119.415L130.101 119.068L130.263 119.389C131.427 121.632 133.647 123.955 136.191 124.329" fill="#CE1141"/>
<path d="M73.797 152.61C67.8418 143.637 63.2942 134.157 58.9361 124.516L58.7466 124.089L59.1526 124.303C60.3437 124.944 61.9137 125.424 63.4295 125.424C64.4582 125.424 65.4326 125.211 66.2447 124.65C68.1666 123.341 69.2764 121.258 70.0344 119.148L70.1697 118.801L70.3321 119.122C73.6075 125.691 75.2046 133.623 75.2046 141.501C75.2046 145.213 74.8527 148.925 74.1489 152.45V152.504L74.1218 152.53L73.9052 152.744L73.797 152.584V152.61Z" fill="#CE1141"/>
<path d="M79.0485 182.654H79.0214V182.627C72.958 176.058 70.6571 167.592 70.3323 158.646V158.565L70.3864 158.512C78.3718 152.77 89.0641 149.753 99.5668 149.753C106.469 149.753 113.318 151.061 119.3 153.759C123.117 155.441 126.798 157.284 130.182 159.954L130.074 160.088L130.182 159.954L130.236 160.008V160.088C129.207 168.5 126.149 176.004 120.762 182.52L120.735 182.574C114.319 185.031 106.767 186.366 99.242 186.366C92.1499 186.366 85.112 185.191 79.0485 182.654V182.654Z" fill="#CE1141"/>
<path d="M185.863 94.2321C185.863 94.2321 182.1 92.8168 181.153 92.4429C170.867 88.624 157.603 86.2739 146.369 86.0069C145.286 73.6422 143.852 65.9244 141.416 58.9275V58.8207H141.28C135.487 58.5003 109.745 57.4587 99.8104 57.4587C89.8761 57.4587 64.5936 59.0077 58.8008 59.3281H58.6925L58.6655 59.4349C56.3375 66.0846 53.6848 74.39 52.4396 86.6211C41.0706 87.3154 25.7766 90.5201 15.4633 94.339C14.7053 94.606 14.164 94.8731 13.8121 95.0867C13.6226 95.1935 13.4872 95.2737 13.379 95.3271C13.379 95.3271 13.3248 95.3271 13.3248 95.3538L13 95.0066L13.1083 95.5674C13.1083 95.5674 13.1083 95.6208 13.1353 95.6475C14.7054 97.4101 20.4981 104.273 31.2716 104.514C31.434 104.514 31.6235 104.514 31.813 104.514C35.332 104.514 41.2871 103.846 45.2934 102.11C46.2679 101.683 48.1356 100.935 48.6499 100.722C48.8394 101.095 49.4079 102.164 49.6786 102.938C50.8425 106.116 52.223 110.656 53.2246 112.632C54.7134 115.597 57.1767 117.947 61.1288 118.027C61.1829 118.027 61.237 118.027 61.2912 118.027C64.8643 118.027 67.3276 115.196 67.7607 114.608L67.9231 114.368H67.6253C57.6639 113.861 53.6036 108.653 52.9268 100.748V100.615H52.7915C51.6275 100.401 50.8696 100.241 50.4094 100.001C49.9492 99.7602 49.7327 99.4397 49.5973 98.8255C49.5432 98.5584 49.4891 98.2914 49.4891 98.0243C49.4891 97.0629 49.8951 96.0214 50.626 94.793C51.411 93.7782 52.5208 92.7634 54.7946 92.7634C55.7149 92.7634 56.8519 92.9503 58.2324 93.3776C61.3182 94.339 63.8086 96.3152 65.541 97.8107C67.5983 99.5999 73.6076 105.769 77.2619 107.932C79.4004 109.187 82.6486 110.389 85.9511 110.389C88.6038 110.389 91.2837 109.641 93.4492 107.558C98.078 103.072 98.6464 99.2261 99.242 96.8493L99.2961 96.6624H99.1066C91.1213 96.422 83.5419 95.6475 76.5852 94.7128C75.7731 94.606 75.5295 94.2589 75.5295 93.9918C75.5295 93.6446 75.9085 93.244 76.5581 93.244C76.6935 93.244 76.8017 93.2441 76.9641 93.2975C76.9641 93.2975 90.1468 95.0066 99.3502 95.0867H99.4856V94.9532C99.5668 93.885 99.5939 92.0423 99.648 89.9326V89.7723H99.4856C94.0176 89.6388 84.8412 89.078 76.1521 87.3421C75.3941 87.1819 75.0964 86.7279 75.0964 86.3807C75.0964 86.0069 75.34 85.7131 75.8814 85.6864C76.0167 85.6864 76.125 85.6864 76.2874 85.7398C77.5867 86.087 91.7438 88.0632 99.4585 88.0632H99.5127H99.6751V87.903C99.7021 86.2739 99.7292 84.004 99.7292 81.7874V81.6272H99.5668C99.4044 81.6272 99.242 81.6272 99.0796 81.6272C94.0989 81.6272 86.8714 81.1198 76.6393 79.5976C75.8002 79.464 75.5024 79.0635 75.5024 78.7697C75.5024 78.4492 75.8002 78.1021 76.4498 78.1021C76.504 78.1021 76.5581 78.1021 76.6393 78.1021C76.6393 78.1021 89.1452 79.9447 98.9171 79.9447C99.1337 79.9447 99.3773 79.9447 99.5939 79.9447H99.7563V79.7845C99.7563 78.289 99.7563 76.5531 99.7563 74.7906C99.7563 73.8025 100.189 73.4286 100.487 73.4286C100.785 73.4286 101.164 73.7491 101.164 74.6303C101.164 75.298 101.191 77.1674 101.191 79.5441V79.8379H101.353C110.8 79.5441 119.084 78.4492 122.982 77.7816C123.198 77.7282 123.415 77.7282 123.577 77.7282C124.362 77.7282 124.552 78.0486 124.552 78.3424C124.552 78.6362 124.281 79.01 123.902 79.0635C122.63 79.3038 111.694 81.3868 101.272 81.6005H101.11V81.7607C101.11 83.5767 101.191 85.9268 101.218 87.8495V88.0098H101.38C108.364 87.7694 116.485 87.5024 123.442 85.9802C123.767 85.9001 124.037 85.8733 124.281 85.8733C125.093 85.8733 125.391 86.1938 125.391 86.4609C125.391 86.7813 124.985 87.2353 123.983 87.4223C117.162 88.5439 107.336 89.6922 101.407 89.7456H101.245V89.9059C101.299 91.5883 101.299 93.6179 101.38 94.9532V95.1134H101.543C112.695 94.8464 123.279 93.2975 125.066 92.977C125.201 92.977 125.309 92.9503 125.418 92.9503C126.122 92.9503 126.446 93.3242 126.446 93.6713C126.446 94.0185 126.149 94.4191 125.309 94.5526C123.333 94.8197 110.259 96.4754 101.868 96.6891H101.651L101.705 96.876C102.544 99.6801 102.68 103.739 106.821 107.238C108.824 108.947 111.531 109.721 114.346 109.721C117.162 109.721 119.923 108.974 122.278 107.638C125.959 105.529 131.779 99.2528 133.836 97.4635C135.542 95.968 139.467 92.3895 144.691 92.4162C144.772 92.4162 144.826 92.4162 144.907 92.4162C147.587 92.4696 148.914 93.1639 149.59 93.9384C150.267 94.7129 150.348 95.5407 150.538 95.9947C150.646 96.3152 150.754 96.7425 150.754 97.1965C150.754 97.8374 150.538 98.4783 149.888 98.8789C148.968 99.4397 148.102 99.2795 147.127 99.7335H147.046V99.8403C146.369 104.14 144.989 109.054 141.578 111.617C139.737 113.006 137.355 113.781 135.433 114.208C133.511 114.635 132.05 114.715 132.05 114.715H131.725L131.941 114.982C131.941 114.982 132.753 115.864 133.024 116.104C133.62 116.665 135.352 117.493 137.599 117.493C137.842 117.493 138.086 117.493 138.33 117.466C140.793 117.252 143.635 115.41 144.853 114.181C146.694 111.831 148.372 106.944 149.617 103.819C150.051 102.698 151.052 100.748 151.458 99.7602C152.487 100.241 153.055 100.535 155.004 101.309C159.037 102.911 164.126 103.606 167.564 103.606C167.754 103.606 167.943 103.606 168.133 103.606C173.736 103.472 180.07 100.107 183.887 96.6356C184.564 96.0214 185.809 94.4992 185.809 94.4992L185.944 94.339L185.755 94.2589L185.863 94.2321Z" fill="#CE1141"/>
<path d="M105.766 162.144C105.17 163.132 104.899 164.254 104.899 165.402C104.899 167.245 105.603 169.141 106.686 170.53C106.686 170.53 106.848 170.663 106.957 170.663C106.957 170.663 107.227 170.61 107.309 170.503V170.396C107.309 169.301 106.605 168.34 106.578 167.138C106.578 166.844 106.632 166.55 106.713 166.257L106.821 165.936L107.011 166.23C108.094 168.019 109.853 169.141 111.694 169.728C112.425 169.915 113.128 169.995 113.832 169.995C116.295 169.995 118.569 168.901 120.166 166.951C120.924 165.883 121.52 164.548 121.52 163.239C121.52 162.625 121.384 162.011 121.087 161.423C119.923 159.206 117.595 157.925 115.24 157.551C114.834 157.497 114.428 157.497 114.022 157.497C110.611 157.497 107.417 158.993 105.766 162.117V162.144Z" fill="#061922"/>
<path d="M92.3936 171.411C92.5831 171.411 92.8267 171.197 92.9891 170.93C93.8824 169.542 94.4779 167.752 94.4779 165.99C94.4779 164.841 94.2072 163.693 93.6117 162.705L93.747 162.625L93.6117 162.705C92.6643 160.916 90.7424 159.5 88.9288 158.886C87.8731 158.539 86.7903 158.379 85.6805 158.379C83.0548 158.379 80.5103 159.367 78.8861 161.503C78.2636 162.304 77.9387 163.346 77.9387 164.387C77.9387 164.921 78.0199 165.482 78.1823 165.963C79.0486 168.34 81.3224 170.209 83.7315 170.663C84.2729 170.77 84.8143 170.797 85.3286 170.797C88.1438 170.797 90.607 169.435 92.3665 167.058L92.5289 166.818L92.6372 167.085C92.7184 167.298 92.7455 167.512 92.7455 167.726C92.7455 168.206 92.6101 168.714 92.556 169.114C92.4748 169.809 91.9064 170.343 91.9334 170.823C91.9334 170.984 91.9876 171.144 92.1229 171.304C92.1229 171.304 92.2853 171.384 92.3394 171.384L92.3936 171.411Z" fill="#061922"/>
<path d="M79.6713 180.544C85.8159 178.007 93.1516 176.538 100.433 176.538C105.928 176.538 111.396 177.366 116.296 179.236C117.514 179.743 118.84 180.17 120.058 180.544C120.383 180.144 120.518 180.064 120.735 179.716C114.753 176.805 107.715 175.47 100.65 175.47C93.0975 175.47 85.5182 177.019 79.1299 179.823C79.2652 180.144 79.4276 180.331 79.6442 180.571L79.6713 180.544Z" fill="#061922"/>
<path d="M85.0308 135.786C88.7122 140.299 94.1801 142.302 99.7834 142.302C101.841 142.302 103.925 142.035 105.928 141.527C115.267 138.964 120.924 128.923 122.846 120.136C122.576 119.896 122.332 119.843 121.98 119.736C120.816 124.917 118.569 129.991 115.267 134.264C111.315 139.017 105.468 141.421 99.7022 141.421C97.645 141.421 95.6148 141.127 93.6929 140.513C85.1391 137.869 80.6997 128.629 79.8606 120.243C79.5087 120.243 79.2651 120.243 78.9944 120.457C79.5628 126.225 81.3223 131.379 85.0037 135.813L85.0308 135.786Z" fill="#061922"/>
<path d="M15.5175 48.9397C20.417 58.2599 30.2972 61.2776 40.3669 60.7969C45.9972 60.7435 51.384 60.1827 56.9602 59.8355V60.2094C54.1179 68.0608 52.3043 76.0724 51.1403 84.2977C36.5772 84.8318 21.6622 83.6835 10.9158 74.0962C3.60712 66.8056 1.73936 56.7911 3.33643 46.8834C5.06885 44.8538 6.85541 43.1446 8.66903 41.115C11.0511 43.5452 14.8678 45.5481 15.5175 48.9397Z" fill="white"/>
<path d="M196.528 44.7468C196.907 46.1889 196.961 47.5509 197.097 49.0731C197.8 60.1292 192.955 70.3039 183.4 75.9388C172.951 82.1612 160.851 84.2976 148.02 84.6181C147.804 83.4697 147.669 82.0543 147.506 80.7458C146.505 73.4819 145.097 66.1379 143.04 59.1678C156.764 59.0075 173.465 62.5861 182.534 50.1413C183.752 48.4055 184.943 46.8298 186.025 44.9338C188.056 44.0258 190.005 42.7706 191.981 41.7024C193.632 42.5303 194.877 43.8388 196.528 44.7468V44.7468Z" fill="white"/>
<path d="M144.339 100.695C144.393 104.941 143.013 109.321 139.169 111.324C137.355 112.285 135.271 112.659 133.241 112.579C133.16 112.205 133.024 111.751 133.187 111.297C136.327 111.377 139.331 110.282 141.01 107.718C142.146 105.822 142.607 103.713 142.607 101.362C143.121 101.069 143.744 100.828 144.339 100.695V100.695Z" fill="white"/>
<path d="M66.8404 112.205C66.272 112.312 66.0013 112.445 64.9456 112.205C59.8837 112.205 54.6052 108.199 54.93 101.443C55.5256 101.202 56.2023 101.309 56.8249 101.496C56.8249 105.342 58.3949 110.576 66.6509 110.576C67.2194 111.457 66.6509 111.564 66.8675 112.178L66.8404 112.205Z" fill="white"/>
</g>
</g>
<defs>
<clipPath id="clip0_38_40363">
<rect width="200" height="200" fill="white"/>
</clipPath>
<clipPath id="clip1_38_40363">
<rect width="197.333" height="175.161" fill="white" transform="translate(1.33325 12.4333)"/>
</clipPath>
</defs>
</svg>
