<svg width="200" height="200" viewBox="0 0 200 200" fill="none" xmlns="http://www.w3.org/2000/svg">
<g clip-path="url(#clip0_38_40371)">
<g clip-path="url(#clip1_38_40371)">
<path d="M198 100C198 154.123 154.123 198 100 198C45.877 198 2 154.123 2 100C2 45.877 45.877 2 100 2C154.123 2 198 45.877 198 100Z" fill="#B5B3B3"/>
<path d="M195.175 99.9999C195.175 152.557 152.557 195.175 99.9999 195.175C47.4428 195.175 4.8252 152.591 4.8252 99.9999C4.8252 47.4087 47.4428 4.8252 99.9999 4.8252C152.557 4.8252 195.175 47.4428 195.175 99.9999Z" fill="#00438C"/>
<path d="M181.184 100C181.184 144.83 144.83 181.15 99.9999 181.15C55.1697 181.15 18.8154 144.83 18.8154 100C18.8154 55.1699 55.1697 18.8496 99.9999 18.8496C144.83 18.8496 181.184 55.2039 181.184 100.034" fill="#DA1A32"/>
<path d="M99.9999 18.8157C55.2378 18.8157 18.8154 55.238 18.8154 100C18.8154 144.762 55.2378 181.185 99.9999 181.185C144.762 181.185 181.184 144.762 181.184 100C181.184 55.238 144.762 18.8157 99.9999 18.8157ZM23.5469 102.383H38.4903V97.6173H23.5469C23.615 95.8132 23.6831 94.0091 23.8873 92.2391C29.1975 65.5861 61.2968 45.0262 99.9999 45.0262C138.703 45.0262 170.836 65.5861 176.112 92.2391C176.283 94.0091 176.385 95.8132 176.453 97.6173H161.509V102.383H176.453C176.385 104.187 176.317 105.991 176.112 107.761C170.802 134.414 138.703 154.974 99.9999 154.974C61.2968 154.974 29.1635 134.414 23.8873 107.761C23.7171 105.991 23.615 104.187 23.5469 102.383M99.9999 23.4791C132.406 23.4791 160.182 43.7667 171.313 72.2919C157.697 53.6722 130.84 40.9754 99.9999 40.9754C69.16 40.9754 42.3028 53.6722 28.6869 72.2919C39.8179 43.7667 67.5601 23.4791 99.9999 23.4791M99.9999 176.521C67.5942 176.521 39.8179 156.234 28.6869 127.708C42.3028 146.328 69.126 159.025 99.9999 159.025C130.874 159.025 157.697 146.328 171.313 127.708C160.182 156.234 132.44 176.521 99.9999 176.521" fill="white"/>
<path d="M71.4407 102.11H65.688V127.912H71.4407V102.11Z" fill="white"/>
<path d="M87.7118 102.144H87.5416C85.9417 102.144 80.0529 102.11 78.9295 102.144H78.6232C76.8872 102.144 75.7979 102.995 75.5256 104.459C75.4916 104.697 75.4915 104.902 75.4915 104.902C75.4915 104.97 75.0831 109.803 75.5596 111.165C76.3425 113.377 78.1126 114.194 79.7805 114.705C79.8486 114.705 79.8827 114.705 79.9507 114.739C80.0529 114.739 80.155 114.807 80.2571 114.841C80.4273 114.909 80.5634 115.011 80.6315 115.148V124.44H75.9341V127.878H82.1973C84.3759 127.776 85.8396 126.823 86.4183 125.189C86.5544 123.93 86.5885 115.284 86.4523 113.48C86.4183 112.799 86.1119 112.254 85.4652 111.744C85.2269 111.573 84.9205 111.369 84.5461 111.131C84.2057 110.961 83.8313 110.756 83.4909 110.62C82.1293 109.973 80.6315 109.225 80.6315 107.489V106.025H85.1588C86.0779 106.025 86.8267 105.582 87.3033 104.731C87.6777 104.085 87.7798 103.404 87.7458 103.37C87.7798 102.961 87.7458 102.553 87.7458 102.281V102.11L87.7118 102.144Z" fill="white"/>
<path d="M113.956 102.11C112.663 102.11 111.335 102.144 110.246 102.451C107.421 103.132 106.059 105.004 106.059 108.204V123.555C106.059 127.47 108.884 128.287 113.105 128.287C118.211 128.287 121.139 126.483 121.139 123.317V107.319C121.139 102.076 117.803 102.076 113.956 102.076M112.05 107.897C112.05 107.216 112.118 106.706 112.22 106.297L112.322 106.195C112.595 106.161 112.833 106.127 113.139 106.127H113.241C115.182 106.127 115.25 106.74 115.25 110.246V121.002C115.25 121.309 115.25 121.615 115.25 121.956C115.25 122.262 115.216 122.568 115.148 122.841L115.046 122.943C114.705 123.011 114.365 123.011 114.024 123.011C113.31 123.011 112.799 122.841 112.493 122.534C112.05 122.058 112.016 121.275 112.05 120.356V109.463C112.05 109.463 112.05 108.272 112.05 107.829" fill="white"/>
<path d="M134.414 113.071C131.691 103.132 127.266 102.042 125.462 102.042C124.985 102.042 124.713 102.111 124.679 102.111H124.542V127.913H130.363V117.565L134.414 127.947H140.337V102.145H134.448V113.071H134.414Z" fill="white"/>
<path d="M58.7099 102.11H44.209H44.0388V102.281C44.0388 102.281 43.9027 105.344 47.3066 106.059V127.878H53.2295V116.918H58.2333C60.8544 116.918 62.3862 115.182 62.3862 112.152V111.233C62.3862 103.915 62.1139 102.451 58.7099 102.076M56.3952 113.514H53.1614V106.025C53.1614 106.025 54.9315 106.025 55.1698 106.025C55.8165 106.093 56.3952 106.365 56.3952 107.114C56.3952 107.353 56.3952 113.514 56.3952 113.514Z" fill="white"/>
<path d="M104.255 102.145H90.8091V106.195H94.6215V127.947H100.544V106.161C100.612 106.161 100.681 106.161 100.749 106.161C101.804 106.161 102.655 105.855 103.234 105.208C104.289 104.085 104.221 102.383 104.221 102.315V102.145H104.255Z" fill="white"/>
<path d="M155.961 102.144H155.791C154.191 102.144 148.302 102.11 147.179 102.144H146.873C145.137 102.144 144.047 102.995 143.775 104.459C143.741 104.697 143.741 104.902 143.741 104.902C143.741 104.97 143.333 109.803 143.809 111.165C144.592 113.377 146.362 114.194 148.03 114.705C148.098 114.705 148.132 114.705 148.2 114.739C148.302 114.739 148.404 114.807 148.507 114.841C148.677 114.909 148.813 115.011 148.881 115.148V124.44H144.184V127.878H150.447C152.625 127.776 154.089 126.823 154.668 125.189C154.804 123.93 154.838 115.284 154.702 113.48C154.668 112.799 154.361 112.254 153.715 111.744C153.476 111.573 153.17 111.369 152.796 111.131C152.455 110.961 152.081 110.756 151.74 110.62C150.379 109.973 148.881 109.225 148.881 107.489V106.025H153.408C154.327 106.025 155.076 105.582 155.553 104.731C155.927 104.085 156.029 103.404 155.995 103.37C156.029 102.961 155.995 102.553 155.995 102.281V102.11L155.961 102.144Z" fill="white"/>
<path d="M103.234 86.2139H104.221C105.174 86.2139 106.774 86.5202 106.774 88.2562C106.774 89.0732 106.842 91.6602 106.876 92.6133V92.9877C106.876 92.9877 106.944 94.3834 107.012 94.6216C107.421 96.1194 108.578 97.0384 110.416 97.2086H112.084V88.018C112.084 87.2351 111.642 86.1458 111.029 85.3288L110.893 85.1586C111.812 84.1374 112.186 83.0822 112.186 81.4824V80.5973C112.186 73.4831 111.914 72.0534 108.612 71.679H97.4473V96.8342H103.166V86.1458L103.234 86.2139ZM103.234 75.6956H104.221H104.391C105.889 75.6956 106.468 75.6956 106.4 78.3848C106.4 80.4952 106.4 80.6314 106.366 81.6866V81.8908C106.366 82.1972 106.229 82.5376 106.025 82.7418C105.889 82.878 105.719 82.9461 105.549 82.9461H103.234V75.7297V75.6956Z" fill="white"/>
<path d="M138.873 71.7471H133.257V96.9023H138.873V71.7471Z" fill="white"/>
<path d="M85.1246 96.9364H90.8773V75.6616C90.9454 75.6616 91.0134 75.6616 91.0815 75.6616C92.1027 75.6616 92.9537 75.3553 93.5324 74.7426C94.5876 73.6533 94.4855 71.9854 94.4855 71.9173V71.7471H81.3462V75.6957H85.0905V96.9364H85.1246Z" fill="white"/>
<path d="M145.545 96.9364H151.298V75.6616C151.298 75.6616 151.434 75.6616 151.502 75.6616C152.523 75.6616 153.374 75.3553 153.953 74.7426C155.008 73.6533 154.906 71.9854 154.906 71.9173V71.7471H141.767V75.6957H145.511V96.9364H145.545Z" fill="white"/>
<path d="M78.3847 92.8516H72.3597V86.7585H76.4785V81.2782H72.3597V75.5935H78.3847V71.7471H66.7432V96.9023H78.3847V92.8516Z" fill="white"/>
<path d="M59.4247 71.7471H45.094V71.9173C45.094 71.9173 44.8898 73.415 45.8089 74.5383C46.3875 75.2531 47.3066 75.6276 48.498 75.6957V96.8683H59.1864C61.6373 96.8683 63.2712 94.7919 63.2712 91.7283V80.0527C63.2712 73.6192 63.2712 71.8832 59.4588 71.7471M57.4845 92.8857H54.2847V75.6957C56.259 75.6276 56.6675 75.7978 56.7015 75.7978C57.4504 76.1041 57.4164 77.4657 57.4164 77.4998C57.6206 79.4741 57.4504 91.2858 57.4164 92.8516" fill="white"/>
<path d="M123.079 71.7471C121.785 71.7471 120.458 71.7811 119.369 72.0875C116.577 72.7683 115.216 74.5724 115.216 77.704V92.7155C115.216 96.5619 118.007 97.3448 122.194 97.3448C127.266 97.3448 130.193 95.5748 130.193 92.5112V76.853C130.193 71.7471 126.891 71.7471 123.079 71.7471M121.207 77.4317C121.207 76.7509 121.275 76.2743 121.377 75.8659L121.479 75.7637C121.717 75.7297 121.99 75.6957 122.296 75.6957H122.398C124.338 75.6957 124.372 76.2743 124.372 79.7464V90.2987C124.372 90.605 124.372 90.9114 124.372 91.2177C124.372 91.5241 124.338 91.7964 124.27 92.0687L124.168 92.1708C123.828 92.2389 123.521 92.2389 123.147 92.2389C122.432 92.2389 121.956 92.1028 121.649 91.7624C121.207 91.2858 121.173 90.5369 121.207 89.6519V78.9975C121.207 78.9975 121.207 77.8061 121.207 77.3976" fill="white"/>
</g>
</g>
<defs>
<clipPath id="clip0_38_40371">
<rect width="200" height="200" fill="white"/>
</clipPath>
<clipPath id="clip1_38_40371">
<rect width="196" height="196" fill="white" transform="translate(2 2)"/>
</clipPath>
</defs>
</svg>
