<svg width="200" height="200" viewBox="0 0 200 200" fill="none" xmlns="http://www.w3.org/2000/svg">
<g clip-path="url(#clip0_38_40361)">
<g clip-path="url(#clip1_38_40361)">
<path d="M49.1372 91.7258H35.0847V107.191L26.6194 111.393L35.0847 115.853V129.603L44.4249 135.406C47.8674 134.948 52.2412 134.405 57.3487 133.89L93.4393 154.959L100.014 185.632L106.674 154.959L142.708 133.89C147.787 134.405 152.189 134.948 155.632 135.406L164.972 129.603V115.853L173.437 111.479L164.972 107.191V91.7258H150.919C150.919 91.7258 153.092 89.6104 155.857 84.7793C157.014 82.7783 158.087 80.2627 159.441 77.2897C169.684 74.1167 177.246 67.5133 180.492 61.0528C189.267 44.7872 195.87 24.8912 195.87 24.8912C195.87 24.8912 192.089 26.7207 187.518 29.0076C191.214 17.5445 193.444 7.79663 193.444 7.79663C193.444 7.79663 152.979 34.925 121.46 60.3953L118.723 58.7373C118.723 58.48 118.807 56.1359 118.807 55.9644C118.807 55.9644 119.118 53.2487 114.405 51.6479C114.123 51.5621 113.841 51.4478 113.559 51.362C115.844 49.6183 119.4 46.9598 121.968 45.1874C126.087 42.3288 125.608 39.1557 125.608 39.1557L110.652 50.4473C99.0829 46.6453 89.4606 50.4473 89.4606 50.4473L74.5051 39.1557C74.5051 39.1557 74.0254 42.3002 78.1452 45.1874C80.7413 46.9883 84.2685 49.6469 86.5542 51.362C86.272 51.4478 86.018 51.5621 85.7076 51.6479C80.9952 53.2773 81.3056 55.9644 81.3056 55.9644C81.3056 56.1645 81.3621 58.48 81.3903 58.7373L78.6532 60.3953C47.1056 34.9535 6.64109 7.82522 6.64109 7.82522C6.64109 7.82522 8.87031 17.5731 12.5669 29.0362C7.65694 26.5778 4.21436 24.9198 4.21436 24.9198C4.21436 24.9198 10.8173 44.8158 19.5931 61.0814C22.8382 67.5418 30.4006 74.1738 40.6437 77.3183C40.6437 77.3183 42.3932 81.349 43.8605 84.2362C45.6947 87.8095 49.1372 91.7544 49.1372 91.7544" fill="#211746"/>
<path d="M116.973 68.5424C116.832 68.9998 116.691 69.4286 116.522 69.8574C130.687 60.4811 155.462 44.1012 183.201 25.8632C183.201 25.8632 183.229 26.4635 185.684 19.2598C156.365 37.1833 130.433 57.5081 116.973 68.5424" fill="#00788C"/>
<path d="M83.027 68.571C69.567 57.5367 43.6348 37.2119 14.3164 19.2883C16.7714 26.5206 16.7996 25.8917 16.7996 25.8917C44.5378 44.1583 69.2849 60.5097 83.4785 69.886C83.3374 69.4572 83.1681 69.0284 83.027 68.571" fill="#00788C"/>
<path d="M99.9859 83.0643C97.5592 82.1209 91.4641 79.0336 87.7958 70.9723C90.7869 73.6022 94.6527 74.4312 97.7003 71.4297C93.9473 69.8003 93.4958 63.0253 92.7621 61.2244C91.2948 57.6225 88.9809 55.793 87.1468 55.0498C88.0498 54.7353 88.8963 54.4495 89.6864 54.2208C91.4359 55.1927 94.3706 57.4224 95.3018 61.8247C95.3018 61.8247 95.6968 56.7649 93.2136 53.2488C98.0107 52.0768 102.836 52.2483 106.758 53.2488C104.275 56.7935 104.67 61.8533 104.67 61.8533C105.601 57.4224 108.536 55.1927 110.285 54.2494C111.076 54.5066 111.922 54.7639 112.853 55.0784C111.019 55.8502 108.677 57.6511 107.238 61.253C106.504 63.0253 106.053 69.8003 102.3 71.4583C103.146 76.6324 102.102 81.4349 99.9859 83.1214M57.2923 92.5835C57.2923 92.5835 50.3224 87.5523 46.4001 78.3475L49.1655 79.1765C58.2234 81.6064 75.5774 84.0362 75.5774 84.0362C67.225 84.2363 60.1705 84.8938 56.1353 85.3512C55.2888 84.2935 54.3294 82.9499 53.9625 81.9494C53.9625 81.9494 54.2729 85.1797 54.9784 87.1807C55.8814 90.1251 57.264 92.5835 57.264 92.5835" fill="#00788C"/>
<path d="M144.965 87.1234C145.671 85.0938 145.981 81.8922 145.981 81.8922C145.614 82.8927 144.655 84.2362 143.808 85.2939C139.773 84.8365 132.719 84.179 124.366 83.9789C124.366 83.9789 141.72 81.5491 150.778 79.1193L153.544 78.2903C149.621 87.4951 142.68 92.5262 142.651 92.5548C142.651 92.5548 144.034 90.0964 144.937 87.152" fill="#00788C"/>
<path d="M78.3992 136.12L60.7348 125.801C59.465 125.915 58.2234 126.058 57.01 126.172L81.5314 140.522C80.318 139.179 79.2739 137.721 78.3992 136.149" fill="#00788C"/>
<path d="M121.601 136.12L139.265 125.801C140.535 125.915 141.777 126.058 142.99 126.172L118.469 140.522C119.682 139.179 120.726 137.721 121.601 136.149" fill="#00788C"/>
<path d="M92.1413 138.55C84.3532 136.835 81.1082 132.947 81.1082 132.947C82.7166 136.235 85.1151 139.065 88.078 141.123C88.078 141.123 91.3512 140.151 92.1413 138.55Z" fill="#00788C"/>
<path d="M87.3726 130.117C86.8364 129.574 86.2721 129.002 85.7077 128.43C83.2245 129.288 81.8136 130.289 81.0518 130.946C82.773 132.604 86.0745 134.834 91.9721 136.063C91.2384 134.005 89.4325 132.175 87.3726 130.117" fill="#00788C"/>
<path d="M99.8448 148.727C97.2488 148.784 95.4146 149.784 94.7938 150.013C94.1448 148.784 93.3829 147.526 92.6775 146.411C94.9067 146.697 96.8537 146.268 96.8537 146.268C95.9225 145.954 93.524 145.125 90.3636 143.038C90.6458 142.924 90.8998 142.809 91.1819 142.666C92.0002 142.238 92.8468 141.694 93.4958 141.008C94.2859 140.179 94.822 139.15 94.822 137.892C94.822 133.976 92.226 132.633 89.2913 129.717C88.6988 129.117 88.078 128.516 87.429 127.887C90.1097 127.144 93.778 126.572 98.6879 126.487L99.873 143.124H100.042L101.256 126.487C106.166 126.572 109.834 127.144 112.515 127.887C111.866 128.516 111.245 129.117 110.652 129.717C107.718 132.633 105.122 133.976 105.122 137.892C105.122 139.15 105.658 140.179 106.448 141.008C107.097 141.694 107.943 142.238 108.762 142.666C109.044 142.809 109.326 142.924 109.58 143.038C106.42 145.153 104.021 145.982 103.09 146.268C103.09 146.268 105.037 146.697 107.266 146.411C106.561 147.526 105.799 148.784 105.15 150.013C104.529 149.784 102.695 148.755 100.099 148.727H99.7884H99.8448Z" fill="#00788C"/>
<path d="M111.922 141.123C114.885 139.065 117.283 136.235 118.892 132.947C118.892 132.947 115.675 136.835 107.859 138.55C108.621 140.151 111.922 141.123 111.922 141.123" fill="#00788C"/>
<path d="M108.028 136.063C113.926 134.805 117.227 132.604 118.948 130.946C118.215 130.289 116.776 129.288 114.292 128.43C113.728 129.002 113.164 129.574 112.628 130.117C110.568 132.175 108.734 134.005 108.028 136.063" fill="#00788C"/>
<path d="M94.7092 71.8583C94.7092 71.8583 91.8592 69.943 91.3795 65.8838C91.3795 65.8838 87.6829 72.1728 94.7092 71.8583Z" fill="white"/>
<path d="M105.489 71.8583C105.489 71.8583 108.339 69.943 108.818 65.8838C108.818 65.8838 112.515 72.1728 105.489 71.8583Z" fill="white"/>
<path d="M103.4 154.816C102.892 154.272 102.131 153.644 99.8732 153.644C97.7286 153.644 96.9667 154.187 96.3459 154.73L100.014 169.452L103.4 154.816V154.816Z" fill="white"/>
<path d="M127.696 90.1535V95.5277H125.918V90.1535H124.423V88.6099H129.163V90.1535H127.696Z" fill="white"/>
<path d="M119.372 90.1535V95.5277H117.594V90.1535H116.098V88.6099H120.867V90.1535H119.372Z" fill="white"/>
<path d="M94.2294 93.0693H94.8784V89.3245L94.1448 88.5813H89.6299V95.4992H91.323V93.0407H92.5928L93.5804 95.4992H95.2452L94.2858 93.0407L94.2294 93.0693ZM93.1853 91.4971H91.2665V90.125H93.1853V91.4971Z" fill="white"/>
<path d="M137.995 90.1535V88.6099H132.973V95.5277H137.995V93.9841H134.722V92.8406H137.995V91.297H134.722V90.1535H137.995Z" fill="white"/>
<path d="M100.917 93.9841V88.6099H99.1677V95.5277H103.457V93.9841H100.917Z" fill="white"/>
<path d="M111.329 88.6099H106.786V94.7559L107.548 95.5278H112.091V89.3531L111.329 88.5813V88.6099ZM110.398 93.9841H108.451V90.1535H110.398V93.9841Z" fill="white"/>
<path d="M85.5666 95.5277V89.3817L84.8047 88.6099H80.177V95.5277H81.8983V93.2694H83.8453V95.5277H85.5666ZM81.8983 90.1535H83.8453V91.7258H81.8983V90.1535Z" fill="white"/>
<path d="M74.7028 88.6099V91.7258H72.7557V88.6099H71.0344V95.5277H72.7557V93.2694H74.7028V95.5277H76.424V88.6099H74.7028Z" fill="white"/>
<path d="M177.359 39.4131C180.689 31.4947 183.201 25.8918 183.201 25.8918C155.462 44.1299 130.715 60.5098 116.522 69.886C115.986 71.4011 115.365 72.8018 114.688 74.0882L170.559 43.2437L126.934 75.1459L128.938 74.7743L151.992 72.516C151.992 72.516 167.568 71.0009 176.231 59.1948C180.322 52.8487 187.264 34.3248 187.264 34.3248L177.331 39.4131H177.359Z" fill="white"/>
<path d="M43.8605 113.251L49.2219 110.907V123.256C50.7739 123.056 52.3541 122.856 53.9625 122.656V95.5278H49.2501C49.2501 95.5278 49.2501 105.247 49.2501 105.304L43.8887 107.591V95.5278H39.1481V109.564C39.1481 109.564 35.2258 111.479 35.2541 111.508L39.1481 113.48V124.857C40.6719 124.571 42.2803 124.314 43.8887 124.057V113.251H43.8605Z" fill="white"/>
<path d="M80.7132 113.165C81.8983 113.137 83.0552 113.108 84.2404 113.08C85.1152 115.367 86.0181 117.968 86.8929 120.283C88.4449 120.226 90.0251 120.198 91.6053 120.169C90.7305 117.854 89.8558 115.252 88.981 112.994C89.5736 112.994 90.1944 112.994 90.7869 112.965V101.874L88.6988 99.7871H74.1948L76.0008 101.96V120.798C77.5528 120.712 79.133 120.626 80.7414 120.569V113.223L80.7132 113.165ZM80.7132 104.161H86.0746C86.0746 105.504 86.0746 107.22 86.0746 108.42C84.2968 108.449 82.5191 108.477 80.7414 108.506V104.161H80.7132Z" fill="white"/>
<path d="M99.1959 104.161H104.614V120.112C106.25 120.112 107.943 120.141 109.552 120.169V101.931L107.407 99.7585H92.5647L94.3424 101.931V120.112C95.9508 120.112 97.5593 120.083 99.1959 120.083V104.161V104.161Z" fill="white"/>
<path d="M127.244 116.281C124.169 116.11 121.149 115.967 118.102 115.881C118.102 114.738 118.102 113.594 118.102 112.479C121.177 112.565 124.197 112.68 127.273 112.794V108.02C124.197 107.934 121.177 107.877 118.102 107.82C118.102 106.905 118.102 105.333 118.102 104.189H127.273V99.7871H111.358L113.107 101.931V120.283C117.961 120.426 122.701 120.626 127.273 120.941V116.31L127.244 116.281Z" fill="white"/>
<path d="M139.181 104.161H143.244V99.7585H129.869V104.161H134.017V121.427C135.738 121.57 137.516 121.713 139.152 121.884V104.189L139.181 104.161Z" fill="white"/>
<path d="M72.4735 101.931L70.329 99.7585H55.7686L57.4898 101.845V119.769L59.3804 122.027C63.5567 121.598 67.9587 121.227 72.4735 120.941V101.903V101.931ZM67.7329 116.51C65.8988 116.624 64.121 116.739 62.3151 116.882V104.161H67.7329V116.51Z" fill="white"/>
<path d="M160.401 113.394C161.868 112.737 163.335 112.051 164.803 111.365C160.09 109.163 155.35 107.134 150.637 105.276V99.8443H155.632V101.817H160.401V95.5564H144.091L145.897 97.6718V108.878L155.632 113.166V119.426C155.632 119.426 153.374 119.14 150.637 118.768V116.767L145.925 116.196V122.599C151.089 123.199 155.942 123.914 160.401 124.714C160.401 121.313 160.401 115.938 160.401 113.394" fill="white"/>
<path d="M65.4754 93.3838V93.9841H63.9516V90.1535H65.4754V90.7252H67.1967V88.6099H62.2585V94.7559L63.0204 95.5277H67.1967V93.3838H65.4754Z" fill="white"/>
<path d="M22.6407 39.4131C19.311 31.4947 16.7996 25.8918 16.7996 25.8918C44.5378 44.1299 69.2849 60.5098 83.4785 69.886C84.0146 71.4011 84.6354 72.8018 85.3126 74.0882L29.413 43.2151L73.0379 75.1173L71.0344 74.7457L47.9804 72.4874C47.9804 72.4874 32.4041 70.9723 23.7412 59.1662C19.6778 52.8201 12.708 34.2962 12.708 34.2962L22.6407 39.3845V39.4131Z" fill="white"/>
<path d="M194.713 33.9245C190.283 45.9307 184.386 58.2799 181.451 63.3683C176.485 71.9727 166.608 77.0897 160.824 78.9764C160.824 78.9764 158.002 85.8371 155.124 89.639H166.947V105.905L178.178 111.365L166.947 117.11V130.775L156.027 137.521C156.027 137.521 147.336 136.435 143.131 135.977L108.592 156.188C101.651 187.861 100.014 197.095 100.014 197.095C100.014 197.095 98.3775 188.404 91.4359 156.188L56.8972 135.977C52.6645 136.435 44.0016 137.521 44.0016 137.521L33.1095 130.775V117.11L21.8506 111.365L33.0813 105.905V89.639H44.9046C42.0546 86.0372 39.2046 78.9764 39.2046 78.9764C35.7338 77.8329 32.4605 76.2321 29.4976 74.3168C24.8417 71.3153 21.004 67.5133 18.6055 63.3683C13.8931 54.9639 8.3624 42.3288 5.34309 33.9245C3.33962 28.8075 0.856445 20.9749 0.856445 20.9749C0.856445 20.9749 7.29012 24.0908 9.26538 25.0627C6.13319 15.715 3.50893 3.28003 3.50893 3.28003C3.50893 3.28003 47.7546 32.7524 78.7943 57.9369L79.274 57.6224C79.274 57.1079 79.274 56.5648 79.274 56.0216C79.274 55.7072 79.274 55.0783 79.5279 54.335C79.8948 53.3059 80.6849 51.991 82.4908 50.8761C80.2052 49.1895 76.1136 46.3023 75.7467 45.9021C72.7556 43.2722 72.2477 40.2992 72.4735 38.8127L72.9814 35.4681L89.8275 48.1604C98.9701 45.5019 105.46 46.8169 110.229 48.1604L127.047 35.4681L127.555 38.8127C127.781 40.2706 127.273 43.2436 124.282 45.9021C123.943 46.2737 119.823 49.1895 117.537 50.8761C119.343 51.991 120.133 53.2773 120.5 54.335C120.754 55.1069 120.782 55.7072 120.754 56.0216C120.754 56.5648 120.754 57.1079 120.754 57.6224L121.262 57.9369C152.979 32.1521 196.491 3.28003 196.491 3.28003C196.491 3.28003 194.318 13.5139 190.819 25.0627C192.484 24.2337 199.228 20.9749 199.228 20.9749C197.309 27.1781 194.742 33.9245 194.742 33.9245M49.1373 91.7258H35.0847V107.191L26.6194 111.393L35.0847 115.853V129.603L44.4249 135.406C47.8675 134.948 52.2412 134.405 57.3487 133.891L93.4394 154.959L100.014 185.632L106.674 154.959L142.708 133.891C147.787 134.405 152.189 134.948 155.632 135.406L164.972 129.603V115.853L173.437 111.479L164.972 107.191V91.7258H150.919C150.919 91.7258 153.092 89.6104 155.857 84.7794C157.014 82.7783 158.087 80.2627 159.441 77.2898C169.684 74.1167 177.246 67.5133 180.492 61.0528C189.267 44.7872 195.87 24.8912 195.87 24.8912C195.87 24.8912 192.089 26.7207 187.518 29.0076C191.214 17.5446 193.444 7.79665 193.444 7.79665C193.444 7.79665 152.979 34.925 121.46 60.3953L118.723 58.7373C118.723 58.48 118.807 56.136 118.807 55.9644C118.807 55.9644 119.118 53.2488 114.405 51.6479C114.123 51.5622 113.841 51.4478 113.559 51.3621C115.844 49.6183 119.4 46.9598 121.968 45.1874C126.087 42.3288 125.608 39.1557 125.608 39.1557L110.652 50.4473C99.0829 46.6453 89.4606 50.4473 89.4606 50.4473L74.5051 39.1557C74.5051 39.1557 74.0254 42.3002 78.1453 45.1874C80.7413 46.9884 84.2685 49.6469 86.5542 51.3621C86.272 51.4478 86.018 51.5622 85.7076 51.6479C80.9953 53.2773 81.3057 55.9644 81.3057 55.9644C81.3057 56.1646 81.3621 58.48 81.3903 58.7373L78.6532 60.3953C47.1056 34.9536 6.64111 7.82524 6.64111 7.82524C6.64111 7.82524 8.87033 17.5731 12.5669 29.0362C7.65696 26.5778 4.21437 24.9198 4.21437 24.9198C4.21437 24.9198 10.8174 44.8158 19.5931 61.0814C22.8382 67.5419 30.4006 74.1739 40.6437 77.3184C40.6437 77.3184 42.3932 81.349 43.8605 84.2362C45.6947 87.8095 49.1373 91.7544 49.1373 91.7544" fill="#A1A1A4"/>
</g>
</g>
<defs>
<clipPath id="clip0_38_40361">
<rect width="200" height="200" fill="white"/>
</clipPath>
<clipPath id="clip1_38_40361">
<rect width="198.4" height="193.786" fill="white" transform="translate(0.800049 3.28003)"/>
</clipPath>
</defs>
</svg>
