<svg width="200" height="200" viewBox="0 0 200 200" fill="none" xmlns="http://www.w3.org/2000/svg">
<g clip-path="url(#clip0_38_40369)">
<g clip-path="url(#clip1_38_40369)">
<path d="M100.038 1.6001C126.248 1.6001 150.942 11.8264 169.577 30.4611C188.174 49.0578 198.438 73.7904 198.438 99.9622C198.438 154.238 154.313 198.4 100.076 198.4C73.7904 198.4 49.0957 188.174 30.4611 169.539C11.8643 150.942 1.6001 126.248 1.6001 99.9622C1.6001 73.6768 11.8643 49.0578 30.4232 30.4611C49.02 11.8264 73.7525 1.6001 100.038 1.6001Z" fill="#FFC42F"/>
<path d="M100 190.56C149.882 190.56 190.484 149.958 190.484 99.9621C190.484 49.9667 149.92 9.44019 100 9.44019C50.0806 9.44019 9.44043 50.0804 9.44043 99.9621C9.44043 149.844 50.0427 190.56 100 190.56Z" fill="#8C2232"/>
<path d="M16.1821 99.9623C16.1821 53.7923 53.7923 16.1821 100.038 16.1821C146.284 16.1821 183.818 53.7923 183.818 99.9623C183.818 146.132 146.246 183.818 100.038 183.818C53.8302 183.818 16.1821 146.208 16.1821 99.9623Z" fill="#09203C"/>
<path d="M165.979 64.8897L167.835 63.8292L161.813 54.474L160.108 55.686C149.882 42.7705 131.664 28.34 114.393 26.1812C127.422 32.1276 142.08 47.3156 151.018 59.019L141.625 65.8366L142.762 67.5788L100.265 95.1899L57.7694 67.5788L58.9056 65.8366L49.4368 59.019C58.4511 47.3156 73.071 32.1276 86.1001 26.1812C68.829 28.3779 50.6109 42.7327 40.4604 55.6481L38.6802 54.3604L32.6581 63.6777L34.5518 64.7761V64.8518C27.0146 79.5474 21.5227 102.273 26.8631 118.862C26.7116 104.507 34.4382 84.7742 41.3694 71.6315L51.5199 77.3507L52.5805 75.7599L92.0465 100.568L40.0059 134.391L39.9301 134.277L32.9611 136.171L33.0368 136.36C32.6959 137.648 33.3398 140.072 34.8169 142.345C36.2941 144.693 38.15 146.246 39.5514 146.511L39.665 146.7L44.2858 141.095V140.981L147.875 75.7599L148.897 77.3507L159.086 71.6315C166.017 84.7742 173.743 104.507 173.63 118.862C178.97 102.235 173.403 79.5474 165.903 64.8518" fill="#FFC42F"/>
<path d="M160.638 134.277L160.563 134.391L112.688 103.295L104.318 108.257L156.321 140.981L156.245 141.095L160.866 146.7L161.017 146.511C162.419 146.246 164.274 144.693 165.752 142.345C167.191 140.034 167.873 137.648 167.532 136.36L167.607 136.171L160.638 134.277V134.277Z" fill="#FFC42F"/>
<path d="M108.522 34.5894L104.924 39.2859L99.9243 27.3931V82.3501L116.665 60.9127L133.52 65.2684L108.522 34.5894Z" fill="#FFC42F"/>
<path d="M108.522 47.467V34.5894L104.924 39.2859L108.522 47.467Z" fill="white"/>
<path d="M99.9245 27.3931L69.5864 64.4351L82.9564 61.0263L99.9245 82.3501V27.3931Z" fill="white"/>
<path d="M82.1231 165.941C86.403 161.812 91.895 159.275 97.8035 158.745V150.526H75.1162C75.6465 156.51 78.1841 161.888 82.1231 165.979" fill="#FFC42F"/>
<path d="M97.8034 173.554V163.82C93.4099 164.35 89.3194 166.206 85.9863 169.236C89.4709 171.546 93.4856 173.099 97.8034 173.554Z" fill="#FFC42F"/>
<path d="M102.841 123.104V132.8C107.234 132.27 111.325 130.452 114.62 127.422C111.173 125.074 107.196 123.559 102.841 123.104Z" fill="white"/>
<path d="M118.483 130.755C114.166 134.845 108.711 137.421 102.841 137.913V145.413H125.49C124.808 139.731 122.271 134.618 118.483 130.755Z" fill="white"/>
<path d="M97.8031 132.838V123.142C93.4854 123.596 89.4706 125.111 86.0239 127.46C89.3191 130.49 93.4096 132.308 97.8031 132.838Z" fill="white"/>
<path d="M102.841 150.488V158.707C108.749 159.275 114.241 161.775 118.483 165.903C122.46 161.813 125.036 156.472 125.528 150.45H102.841V150.488Z" fill="#FFC42F"/>
<path d="M75.1538 145.413H97.8032V137.913C91.8947 137.383 86.4785 134.808 82.1229 130.755C78.3732 134.618 75.8356 139.731 75.1538 145.413Z" fill="white"/>
<path d="M102.841 173.554C107.196 173.099 111.173 171.584 114.62 169.236C111.325 166.206 107.234 164.35 102.841 163.82V173.554Z" fill="#FFC42F"/>
</g>
</g>
<defs>
<clipPath id="clip0_38_40369">
<rect width="200" height="200" fill="white"/>
</clipPath>
<clipPath id="clip1_38_40369">
<rect width="196.8" height="196.8" fill="white" transform="translate(1.6001 1.6001)"/>
</clipPath>
</defs>
</svg>
