<svg width="280" height="200" viewBox="0 0 280 200" fill="none" xmlns="http://www.w3.org/2000/svg">
<g clip-path="url(#clip0_577_42035)">
<path d="M269.999 11.7899L244.571 66.3253H142.796L110.726 135.108H81.9644C82.1919 131.676 82.8793 128.244 83.9893 124.88C86.7527 116.577 91.9197 109.737 98.4522 104.853C100.166 106.811 101.723 108.928 103.113 111.173C103.333 111.525 103.759 111.487 103.905 111.175C103.905 111.173 103.907 111.173 103.907 111.171L150.253 11.7899H269.999Z" fill="white"/>
<path d="M34.3003 156.428C31.3909 162.235 27.2563 167.168 22.2124 170.938C18.0037 166.082 14.6569 160.324 12.4959 153.829C11.0488 149.484 10.2363 145.088 9.99951 140.73H38.598C38.2342 146.126 36.7854 151.445 34.3003 156.428Z" fill="white"/>
<path d="M57.4782 140.731V188.285C45.7901 187.611 34.7023 182.866 26.1714 174.998C31.6396 170.765 36.1245 165.32 39.32 158.952C42.2179 153.169 43.8657 147 44.2425 140.731H57.4782" fill="white"/>
<path d="M36.561 124.883C37.6728 128.241 38.3602 131.677 38.5836 135.111H10.0005C10.6123 123.934 14.9705 113.32 22.2001 104.941C28.6815 109.797 33.8146 116.617 36.561 124.883Z" fill="white"/>
<path d="M57.4785 87.5571V135.111H44.2163C43.9797 131.079 43.2049 127.045 41.8922 123.11C38.8467 113.957 33.2384 106.363 26.1338 100.869C31.2401 96.1222 37.4109 92.3906 44.4399 90.0537C48.7734 88.6178 53.145 87.8072 57.4785 87.5571" fill="white"/>
<path d="M76.3355 135.112H63.0977V87.5576C74.8107 88.194 85.9248 92.9273 94.4805 100.782C87.1373 106.424 81.6425 114.12 78.6593 123.111C77.3466 127.056 76.5721 131.078 76.3355 135.112" fill="white"/>
<path d="M94.481 175.073C89.3974 179.768 83.2531 183.465 76.2733 185.788C71.9021 187.237 67.4812 188.06 63.0986 188.286V140.732H76.3112C76.6976 147 78.3456 153.17 81.2305 158.951C84.4408 165.358 88.9754 170.827 94.481 175.073Z" fill="white"/>
<path d="M110.728 140.731C110.104 151.944 105.732 162.609 98.4399 171.002C93.3563 167.218 89.1855 162.261 86.265 156.429C83.7666 151.459 82.3176 146.125 81.9561 140.731H110.728Z" fill="white"/>
</g>
<defs>
<clipPath id="clip0_577_42035">
<rect width="260" height="176.497" fill="white" transform="translate(10 11.7886)"/>
</clipPath>
</defs>
</svg>
