<svg width="200" height="200" viewBox="0 0 200 200" fill="none" xmlns="http://www.w3.org/2000/svg">
<g clip-path="url(#clip0_38_40385)">
<g clip-path="url(#clip1_38_40385)">
<path d="M189.373 65.607C182.202 57.8133 166.426 51.4662 146.078 47.6579C146.168 45.3553 147.602 44.3811 150.112 42.6393C151.427 41.7241 152.921 40.7204 154.444 39.3034C161.018 33.1334 153.309 23.716 152.98 23.3027L148.737 18.1955L149.753 24.7197C150.441 29.207 148.797 30.7716 143.867 34.1666C143.24 34.6094 142.702 35.0818 142.224 35.5836C142.433 32.602 142.582 29.266 141.566 25.1035C140.551 20.9115 138.459 19.2287 138.459 19.2287L137.921 25.2806C137.921 25.2806 137.443 30.0041 131.109 35.7017C131.647 35.0818 132.155 34.4618 132.633 33.8124C135.74 29.3546 134.844 24.2474 133.798 18.3726L133.589 17.1327C132.513 10.9922 134.186 7.15445 135.262 6.5345C136.308 5.2946 138.369 3.19857 138.369 3.19857C138.369 3.19857 137.264 2.72623 134.216 3.11001C130.242 3.64139 123.579 6.00311 123.759 11.376C123.848 13.7377 124.595 15.9814 125.282 17.9593C126 20.0849 126.687 22.0628 126.089 23.0961C125.611 23.8931 124.117 24.5426 121.816 24.9559C112.464 26.6386 105.293 30.9488 101.648 37.1188C100.453 39.1557 99.6463 41.3403 99.228 43.643C76.0419 43.7021 54.0808 46.5656 37.0498 51.7614C17.9571 57.5772 7.43968 65.5184 6.63295 74.7291C6.18476 79.5707 8.39581 86.5377 20.6462 93.2391L20.5566 93.3277L24.0225 94.9809L25.8451 95.8665C31.4923 98.3463 38.1254 100.501 45.4756 102.273C42.8463 103.749 40.4261 105.432 38.2449 107.321C26.383 116.945 19.5407 131.204 19.5407 146.437C19.5407 159.958 24.8591 172.681 34.5698 182.276C44.2506 191.841 57.1284 197.125 70.813 197.125C95.0449 197.125 116.169 180.15 121.04 156.74C125.193 144.488 124.685 131.381 124.506 126.421C124.087 115.174 129.675 108.945 133.23 106.14C149.425 104.103 163.767 100.619 174.433 95.8961L176.166 95.099L179.871 93.3572L179.782 93.2686C188.357 88.5157 193.168 82.9656 193.705 77.0318C194.064 73.0759 192.57 69.2677 189.283 65.6661L189.373 65.607ZM172.73 75.4377C174.194 77.0318 174.105 78.0356 174.075 78.3898C173.925 80.2201 171.595 82.4047 167.711 84.4417C159.554 88.6633 145.54 91.8811 128.868 93.5639C129.615 93.0915 130.392 92.6782 131.258 92.3535L131.527 92.2354C136.308 90.3165 141.746 88.1319 142.015 80.3087C142.045 79.0688 142.134 75.231 142.821 73.873C143.718 72.1313 146.018 69.4153 148.02 68.6772C148.05 68.6772 144.644 67.9983 144.644 67.9983C144.465 67.9983 144.285 67.9982 144.106 67.9687C145.242 67.1421 146.048 66.1679 146.646 65.1347C160.181 67.9097 169.294 71.718 172.7 75.4377H172.73ZM26.3531 77.3861C26.9208 70.9209 50.4953 62.3892 88.6209 61.0607C85.0952 63.6881 80.8823 68.2639 79.8664 75.6148L79.4779 78.3898C79.2389 80.1021 78.9102 81.8733 78.2529 83.5856C76.7888 87.3939 72.6356 90.5231 68.2136 92.9144C52.8557 90.9955 40.0377 87.8072 32.5679 83.7922C28.4745 81.6077 26.2336 79.2459 26.383 77.3566L26.3531 77.3861Z" fill="#061922"/>
<path d="M21.6025 149.98C22.9471 156.652 26.8015 164.623 34.4804 169.966C36.781 171.56 39.3208 172.889 42.0099 173.892C40.3665 171.088 38.4244 168.283 36.4524 165.42C32.7773 160.076 28.9826 154.556 26.5923 148.592C24.1124 142.452 23.4251 136.016 24.5008 129.551C22.5586 134.806 21.4531 140.474 21.4531 146.408C21.4531 147.618 21.5129 148.799 21.6025 149.98V149.98Z" fill="#98002E"/>
<path d="M29.8791 147.293C32.1499 152.903 35.8251 158.246 39.3807 163.442C42.1295 167.457 44.8186 171.383 46.8803 175.339C49.1212 175.87 51.4816 176.195 53.8421 176.343C51.392 172.889 49.2407 168.933 47.4181 164.416C40.3069 146.939 41.3228 125.329 50.167 112.842C54.7385 106.406 60.1764 102.008 67.198 98.2288C73.2336 94.9814 77.0282 94.0072 80.8527 91.734C85.0358 89.2838 87.2767 85.1507 84.5278 75.94C83.7211 73.2536 83.5717 71.0985 83.751 69.4453C82.7948 71.2756 82.0479 73.4012 81.7192 75.8515C81.3009 78.4494 81.0917 81.313 79.9862 84.2356C76.2812 93.8005 58.4136 99.0849 56.0531 99.7934C49.2706 101.83 43.8326 104.901 39.5898 108.62C27.3394 119.396 25.1582 135.544 29.909 147.264L29.8791 147.293Z" fill="#98002E"/>
<path d="M104.487 60.9136C104.666 61.504 104.815 62.0944 104.905 62.6553C105.383 65.9913 104.337 68.6777 100.214 69.3567C95.9413 70.0357 94.4772 66.375 94.1485 63.3638C94.1186 62.3306 94.1784 61.504 94.268 60.884C93.5509 60.884 92.8338 60.884 92.1167 60.9431C90.7423 61.7106 88.9794 62.921 87.2465 64.6333C86.38 66.4341 85.3641 68.9434 86.9477 74.8182C89.7264 85.1507 88.5611 91.4093 80.1353 94.9814C69.4087 99.5277 62.5664 102.214 53.3936 113.609C49.0312 119.041 46.6409 128.045 46.2525 137.109C45.8641 145.906 47.6867 155.294 50.824 162.969C52.9155 168.106 55.3656 172.593 58.234 176.402C61.1023 176.284 64.0006 175.929 66.8989 175.309C63.7018 171.619 61.8792 167.132 61.5505 162.084C60.445 145.316 69.588 138.26 83.661 127.13L89.9655 121.905C115.064 100.827 107.743 79.394 110.522 61.0907C108.55 61.0021 106.518 60.9726 104.457 60.9136H104.487Z" fill="#98002E"/>
<path d="M114.526 61.2678C113.75 64.9285 113.421 68.7368 113.182 72.6926C112.196 88.6342 112.674 106.672 92.2367 124.591L86.0518 129.522C72.3971 140.356 64.5688 147.116 65.1066 161.848C65.2859 166.719 67.3475 170.97 70.8135 174.306C74.638 173.154 78.4027 171.59 82.048 169.553C99.7961 159.604 110.971 144.696 115.244 125.595C117.933 113.521 117.873 103.69 117.843 95.808C117.843 91.8226 118.351 83.9994 118.351 83.9994C118.919 79.0693 119.725 72.1317 125.522 63.0391C125.701 62.7439 125.91 62.4487 126.119 62.1535C122.414 61.7992 118.56 61.504 114.497 61.2973L114.526 61.2678Z" fill="#98002E"/>
<path d="M120.502 112.517V112.458C120.502 112.458 120.502 112.517 120.502 112.547C119.935 115.41 119.815 118.628 119.456 121.816C119.277 123.027 119.128 124.237 118.948 125.389C118.889 125.713 118.829 126.038 118.739 126.363C114.257 146.467 102.664 162.113 83.9901 172.593C80.793 174.394 77.5362 175.87 74.2495 177.022C79.7174 180.623 86.1115 181.716 90.5037 181.066C107.266 178.586 115.423 167.781 119.367 156.209C123.4 144.341 122.982 131.677 122.773 126.451C122.146 108.945 135.83 102.48 135.83 102.48C125.163 101.919 121.667 106.495 120.502 112.517V112.517Z" fill="#98002E"/>
<path d="M109.327 177.081C102.485 182.749 95.0752 183.989 91.7287 184.491C85.1255 185.494 77.327 183.93 70.3951 178.557C70.2756 178.468 70.186 178.38 70.0664 178.291C67.1084 179.059 64.1504 179.59 61.1924 179.826C67.945 187 76.8789 191.074 88.8006 191.871C88.8603 191.871 88.9201 191.871 88.95 191.871C97.0771 188.712 104.158 183.516 109.537 176.874C109.477 176.933 109.387 176.992 109.327 177.051V177.081Z" fill="#98002E"/>
<path d="M46.9399 189.125C47.0594 185.435 46.0136 181.804 44.3105 178.173C40.2171 176.992 36.1834 175.28 32.329 172.948C30.1479 171.649 28.2057 169.641 26.4429 167.781C30.8948 176.785 38.0957 184.284 46.9697 189.125H46.9399Z" fill="#98002E"/>
<path d="M81.1216 194.144C74.4287 192.609 68.7218 190.277 63.7022 186.528C61.1326 184.609 58.802 182.424 56.6806 179.974C53.9616 179.944 51.2725 179.679 48.6133 179.177C50.1072 182.956 50.8243 186.793 50.3761 190.808C56.6209 193.642 63.5827 195.236 70.903 195.236C74.4287 195.236 77.8648 194.853 81.2113 194.174H81.1515L81.1216 194.144Z" fill="#98002E"/>
<path d="M138.579 74.1688C137.413 77.9771 133.649 77.5343 132.543 75.4678C130.81 72.2204 131.467 69.7111 133.29 67.9988C135.113 66.2866 138.071 65.3714 140.969 64.0725H140.999C137.682 63.482 134.127 62.9802 130.362 62.5374C130.302 62.5964 130.272 62.6554 130.213 62.7145C129.884 63.0983 129.555 63.4525 129.227 63.8658C123.281 72.7223 122.504 79.276 121.936 84.3537L121.757 85.9184C121.428 88.5753 121.428 91.9112 121.458 95.7786C121.458 96.3099 121.458 96.8708 121.458 97.4317C121.428 98.7897 121.368 100.118 121.309 101.417H121.398C121.428 100.886 121.458 100.679 121.458 100.974C123.161 95.6605 126.239 92.4426 130.601 90.6713C135.322 88.782 139.983 87.0402 140.222 80.2502C140.312 77.4162 140.521 74.5821 141.178 73.1356C142.373 70.5082 144.495 69.8292 144.495 69.8292C142.194 69.6225 139.684 70.5672 138.579 74.2279V74.1688Z" fill="#98002E"/>
<path d="M144.286 47.3042C144.644 42.7579 148.977 41.9313 153.19 37.9754C158.598 32.8977 151.576 24.4546 151.576 24.4546C152.473 30.1522 149.783 32.3073 144.913 35.6728C143.36 36.7355 142.254 38.2411 142.075 40.1305C141.895 42.2265 141.776 44.5292 141.298 46.8319C142.314 47.009 143.3 47.1566 144.286 47.3337V47.3042Z" fill="#FAA21B"/>
<path d="M129.406 39.3926C128.121 40.3373 126.896 41.341 125.761 42.3447C124.954 43.1123 124.147 43.8799 123.43 44.5884C128.181 45.0017 132.782 45.5331 137.234 46.153C140.073 41.0458 141.417 35.2301 139.744 25.3699C139.744 25.3699 139.356 32.0713 129.406 39.3926V39.3926Z" fill="#FAA21B"/>
<path d="M102.873 43.614C108.311 43.6731 113.63 43.8797 118.829 44.234C119.008 44.0569 119.157 43.8797 119.337 43.7321C122.832 40.0419 128.211 36.9127 131.109 32.7796C134.007 28.6466 132.842 23.5689 131.766 17.4285C129.944 6.85978 134.455 4.88184 134.455 4.88184C134.455 4.88184 125.402 6.12174 125.581 11.288C125.82 18.2256 133.051 24.7498 122.145 26.7277C110.164 28.8828 102.724 35.289 101.11 43.6436C101.708 43.6436 102.306 43.6436 102.903 43.6436L102.873 43.614Z" fill="#FAA21B"/>
<path d="M102.844 46.3889C52.7066 45.9166 10.876 58.6994 9.41195 74.9657C8.84425 81.4309 14.7603 87.4828 25.2478 92.472C31.7316 95.5422 39.9782 98.1991 49.5096 100.295C51.4218 99.4685 53.4237 98.701 55.5152 98.081C57.1885 97.5792 60.2361 96.605 63.6125 95.1584C49.5693 93.1214 38.2153 90.0217 31.2236 86.2724C26.0546 83.5269 23.2758 80.3977 23.5746 77.1503C24.5606 66.2273 59.6684 57.6956 102.007 58.1089C144.346 58.5222 177.87 67.7034 176.884 78.6264C176.615 81.608 173.806 84.3831 169.026 86.8924C160.181 91.4682 144.555 95.0108 125.582 96.664C124.924 97.5496 124.356 98.5239 123.878 99.6457C132.513 96.3983 142.463 101.181 142.463 101.181C142.463 101.181 143.12 101.446 143.599 101.742C156.178 99.5276 166.994 96.3688 175.121 92.5605C184.712 88.0437 190.509 82.6118 191.046 76.737C192.51 60.4707 153.04 46.8908 102.873 46.4184L102.844 46.3889Z" fill="white"/>
</g>
</g>
<defs>
<clipPath id="clip0_38_40385">
<rect width="200" height="200" fill="white"/>
</clipPath>
<clipPath id="clip1_38_40385">
<rect width="187.282" height="194.133" fill="white" transform="translate(6.57324 2.93335)"/>
</clipPath>
</defs>
</svg>
