<svg width="200" height="200" viewBox="0 0 200 200" fill="none" xmlns="http://www.w3.org/2000/svg">
<g clip-path="url(#clip0_38_40383)">
<g clip-path="url(#clip1_38_40383)">
<path d="M183.512 49.3374C185.888 44.839 187.01 40.3406 187.01 36.0076C187.01 26.184 181.532 17.3857 173.842 12.1265C163.15 4.84972 147.078 3.82435 135.725 17.4518C119.158 15.1695 105.264 19.7671 99.9835 21.9171C94.7031 19.7341 80.8092 15.1695 64.2421 17.4518C52.8894 3.85743 36.8173 4.88279 26.1246 12.1596C18.4351 17.4187 12.9567 26.184 12.9567 36.0407C12.9567 40.3406 14.0788 44.8721 16.455 49.3705C7.94039 61.741 2 76.4269 2 91.4105C2 109.437 9.68951 118.732 12.5607 122.701L14.8709 120.385C22.9894 141.124 36.9163 152.304 53.7474 162.458C53.7474 162.458 54.1105 160.408 54.4405 158.555C72.5257 174.267 81.1723 170.43 99.9835 191.731C118.729 170.496 127.573 174.134 145.527 158.555C145.857 160.408 146.22 162.458 146.22 162.458C153.711 157.927 174.832 146.582 185.096 120.385C186.185 121.444 187.406 122.701 187.406 122.701C189.188 120.253 198 110.429 198 91.4105C198 76.46 192.06 61.741 183.512 49.3705" fill="#5E6367"/>
<path d="M178.331 49.6014C195.591 23.0411 156.45 -4.61075 137.474 22.148C118.3 18.7411 102.162 25.7533 100.016 26.7456C97.8383 25.7533 81.7002 18.7411 62.559 22.148C43.5497 -4.61075 4.40912 23.0411 21.6693 49.6014C1.99996 76.6909 3.9801 103.383 13.1217 115.919L16.884 112.149C16.884 112.149 22.2303 138.246 50.5792 155.379L51.6022 149.757C69.0274 168.412 84.9675 168.015 100.016 185.049C115.065 167.982 130.973 168.412 148.431 149.757L149.454 155.379C177.77 138.246 183.149 112.149 183.149 112.149L186.911 115.919C196.053 103.317 198.033 76.6909 178.331 49.6014" fill="#072441"/>
<path d="M100.182 148.897C100.182 148.897 86.5847 149.095 84.5716 150.352C84.5716 150.352 82.2284 154.42 100.182 154.321C117.244 154.255 114.736 151.113 114.868 150.65C114.868 150.65 109.092 148.864 100.182 148.864" fill="#6189B9"/>
<path d="M88.3669 133.053C88.3669 133.053 90.4791 126.901 92.7562 128.852C95.8914 131.565 99.9837 137.055 99.9837 137.618V144.961L95.0334 145.225C92.1952 145.324 82.9876 147.507 82.9876 147.507C70.3477 116.118 77.3442 92.3692 80.7434 83.9017C68.2026 86.614 66.1895 71.5311 66.1895 71.5311C67.5095 71.2665 69.4237 71.8288 71.5688 72.8542C74.935 74.4749 78.8623 77.1872 81.9975 79.6348C82.9216 80.3625 83.7796 81.0571 84.5387 81.6856C93.0532 88.8631 99.9837 87.4078 99.9837 87.4078V118.136C99.9837 118.136 75.1 116.217 88.3669 133.053" fill="#6189B9"/>
<path d="M111.699 133.086C127.54 116.978 101.699 117.937 100.049 118.169C102.689 118.301 122.722 118.433 111.699 133.086Z" fill="#6189B9"/>
<path d="M122.227 84.3646C136.484 122.832 118.399 147.574 118.3 147.706C129.52 118.268 122.293 93.7914 117.409 84.7285C114.9 84.9931 111.864 84.8277 111.864 84.8277C111.864 84.8277 115.66 82.4793 118.102 80.2632C118.267 80.0978 118.465 79.9324 118.663 79.7339C120.709 77.9147 124.603 74.7394 129.322 72.8871C131.039 72.2256 132.887 71.7295 134.801 71.531C134.801 71.531 133.448 84.1992 122.227 84.3646" fill="#6189B9"/>
<path d="M144.767 34.618C144.767 34.618 150.576 20.0644 168.397 23.5705C168.397 23.5705 152.028 12.7876 140.675 32.2696C140.675 32.2696 124.339 24.5959 100.016 35.1472C100.016 35.1472 77.1458 27.0766 59.7536 31.6411C59.7536 31.6411 49.622 14.0114 35.332 21.2551C21.0421 28.5319 28.5006 45.3016 30.9757 49.6677C30.9757 49.6677 7.31316 73.8134 16.2238 103.714L20.9761 97.7607C20.9761 97.7607 27.7745 130.308 45.2987 140.528L46.3547 132.524C46.3547 132.524 64.671 154.652 86.1884 164.079C88.2345 165.038 99.6533 170.727 99.9833 173.539V158.059C99.9833 158.059 85.0663 159.316 81.1061 152.403C78.4329 147.706 61.2717 117.011 69.7533 84.8609C69.7533 84.8609 61.5028 83.6371 59.9517 69.6458C59.9517 69.6458 53.7802 66.6359 46.1237 67.2643C46.1237 67.2643 59.8196 62.9644 72.6575 67.9259C85.4953 72.8873 88.9276 85.5886 97.6071 79.9656L99.9833 44.2763L102.59 79.9656C111.27 85.5555 114.735 72.8873 127.54 67.9259C140.378 62.9313 154.074 67.2643 154.074 67.2643C154.074 67.2643 148.596 63.3944 139.784 61.6413C132.424 60.1529 121.633 64.8828 121.633 64.8828C121.633 64.8828 123.118 54.7615 128.035 49.337C132.259 44.7063 141.764 43.6809 144.734 34.5849M34.0449 46.9224C33.5499 42.0602 39.6553 37.231 39.6553 37.231C37.1471 34.618 32.7248 36.9002 32.7248 36.9002C36.7181 29.0612 45.6947 32.898 45.6947 32.898C42.2955 28.7304 35.101 28.995 35.101 28.995C44.0116 20.1636 54.7703 33.6588 54.7703 33.6588C45.1997 35.8418 34.0779 46.9224 34.0779 46.9224" fill="#6189B9"/>
<path d="M81.9975 79.6346C80.6114 79.2047 78.3673 80.6269 77.0802 83.1077C72.8229 81.8838 71.3708 77.2862 71.5688 72.854C74.9351 74.4747 78.8623 77.187 81.9975 79.6346Z" fill="#FFC62F"/>
<path d="M123.778 83.1078C122.458 80.4948 119.983 79.0725 118.663 79.734C120.709 77.9148 124.603 74.7395 129.322 72.8872C129.52 77.2864 128.035 81.884 123.811 83.1078" fill="#FFC62F"/>
</g>
</g>
<defs>
<clipPath id="clip0_38_40383">
<rect width="200" height="200" fill="white"/>
</clipPath>
<clipPath id="clip1_38_40383">
<rect width="196" height="184.864" fill="white" transform="translate(2 6.8999)"/>
</clipPath>
</defs>
</svg>
