<svg width="200" height="200" viewBox="0 0 200 200" fill="none" xmlns="http://www.w3.org/2000/svg">
<g clip-path="url(#clip0_38_40401)">
<g clip-path="url(#clip1_38_40401)">
<path d="M3.4668 180.139L97.4049 129.011L33.718 180.139L111.002 135.976L109.76 144.872L122.625 137.781L151.762 165.133L167.238 118.849L186.917 116.031L178.255 89.3118L196.533 73.5144L172.301 63.352L178.956 35.2712L156.634 45.4651L146.093 20.3601L127.21 39.0701L96.1311 22.8611L90.5585 53.2847L61.8676 59.4581L78.8402 69.652L61.7721 78.1681L76.2927 79.4344L16.5544 125.592L76.643 93.8706L12.1919 142.624L80.7826 107.104L7.51091 161.873L88.2658 119.071L3.4668 180.139Z" fill="#F9A01B"/>
<path d="M175.39 89.7235C174.339 115.398 152.526 135.343 126.701 134.267C100.876 133.222 80.8146 111.536 81.8973 85.8612C82.9481 60.1863 104.761 40.2416 130.554 41.318C156.379 42.3943 176.44 64.0486 175.358 89.7235" fill="#E56020"/>
<path d="M134.375 127.935C108.582 126.858 88.489 105.204 89.5716 79.5293C90.0493 67.6575 94.985 57.0203 102.691 49.1057C90.6862 57.0836 82.5342 70.4434 81.8974 85.8926C80.8465 111.567 100.908 133.222 126.701 134.266C140.585 134.836 153.29 129.328 162.238 120.147C154.277 125.434 144.661 128.346 134.375 127.935Z" fill="#B95915"/>
<path d="M175.421 88.3621C175.421 86.6843 175.39 85.038 175.23 83.4235C172.524 81.5556 169.308 80.131 165.518 79.6245C164.786 79.5295 164.117 79.4978 163.417 79.4345C162.971 76.3637 162.27 73.3561 161.347 70.4119C161.824 70.4436 162.334 70.4752 162.811 70.5069C166.091 70.7601 169.339 71.1084 172.556 71.5833C172.11 70.4119 171.6 69.2405 171.091 68.1009C167.492 67.5627 163.83 67.1194 160.137 66.8662H160.105C158.927 63.8586 157.462 60.9777 155.774 58.2551C158.162 57.7803 160.296 56.7988 162.015 55.1843C161.124 54.2978 160.2 53.4431 159.277 52.62C157.78 53.9813 155.838 54.7094 153.577 55.026C153.227 54.5511 152.908 54.0762 152.526 53.6014C149.342 49.4858 145.68 45.9717 141.636 43.1225C138.101 42.1094 134.439 41.5079 130.586 41.3496C130.363 41.3496 130.172 41.3496 129.949 41.3496C137.05 44.1355 143.419 48.7893 148.514 55.0576C143.642 54.5828 138.037 52.9682 132.497 51.3536C130.841 50.8787 129.249 50.4039 127.688 49.9607C118.231 47.3647 110.97 46.9531 105.525 47.428C101.481 49.7391 97.7872 52.62 94.6029 55.9757C100.494 53.538 112.372 49.3592 126.797 53.3164C128.325 53.728 129.917 54.2029 131.541 54.6777C137.91 56.5456 145.043 58.6034 151.252 58.6667C152.972 61.1993 154.437 63.8586 155.647 66.6446C154.437 66.5813 153.227 66.5496 152.017 66.5179C121.988 66.0114 96.2269 74.939 81.9292 89.1853C81.9929 92.0028 82.3432 94.7888 82.9163 97.4797C86.9605 91.7179 92.9152 86.526 100.621 82.2204C115.174 74.0843 134.471 69.8104 154.946 70.1903C155.647 70.1903 156.347 70.222 157.048 70.2536C158.099 73.1978 158.863 76.2687 159.341 79.4029C146.126 79.941 137.56 88.1405 127.752 96.8782C118.931 104.729 108.168 112.549 92.4057 117.266C93.9023 119.071 95.4945 120.78 97.2459 122.331C112.085 116.38 121.956 107.136 130.268 99.7275C139.725 91.3064 147.845 83.2652 159.786 82.8536C160.105 86.1461 160.105 89.4702 159.786 92.826C158.194 111.061 147.558 126.51 133.102 134.108C136.795 133.76 140.394 132.969 143.801 131.829C144.947 130.879 146.094 129.866 147.176 128.79C156.666 119.482 162.557 106.851 163.767 93.1425C164.085 89.7235 164.085 86.336 163.767 82.9802C164.372 83.0436 164.945 83.1069 165.55 83.2018C169.626 83.8667 172.842 85.8928 175.358 88.3621" fill="#061922"/>
</g>
</g>
<defs>
<clipPath id="clip0_38_40401">
<rect width="200" height="200" fill="white"/>
</clipPath>
<clipPath id="clip1_38_40401">
<rect width="193.067" height="159.779" fill="white" transform="translate(3.4668 20.3601)"/>
</clipPath>
</defs>
</svg>
