<svg width="200" height="200" viewBox="0 0 200 200" fill="none" xmlns="http://www.w3.org/2000/svg">
<g clip-path="url(#clip0_38_40399)">
<g clip-path="url(#clip1_38_40399)">
<path d="M141.929 98.5753C134.821 98.5753 127.535 101.461 123.697 107.521H123.563L124.279 97.0413C124.698 89.9485 126.28 70.69 135.941 70.69C140.585 70.69 139.54 76.9627 140.062 79.8028C141.347 86.4704 144.199 94.1252 153.173 94.1252C159.295 94.1252 165.701 90.0092 165.701 81.5798C165.701 68.594 155.024 60.0583 142.063 60.0583C108.78 60.0583 95.416 85.8932 95.416 117.181C95.416 144.337 105.794 167.787 134.373 167.787C152.934 167.787 167.985 154.361 167.985 131.792C167.985 112.731 158.07 98.5601 141.914 98.5601M132.044 157.171C124.1 157.171 124.429 146.813 124.429 134.875C124.429 122.937 125.549 112.594 132.044 112.594C140.018 112.594 140.451 122.922 140.451 134.875C140.451 146.828 138.808 157.171 132.044 157.171" fill="#006BB6"/>
<path d="M32 59.4964V99.8207C54.2038 103.147 80.7079 100.945 99.4475 73.0745C100.239 71.8898 100.702 72.7252 100.194 73.758C94.953 84.6022 82.5894 94.6112 71.8832 103.162C61.5951 111.364 34.0158 140.813 34.3742 166.694C34.404 168.683 34.4638 168.137 36.1809 166.83C44.5578 160.512 60.953 160.315 71.0171 165.22C72.4357 165.889 72.5402 165.691 72.3759 163.838C70.4348 143.775 74.8845 121.843 83.336 109.131C89.1594 100.307 104.838 77.6157 107.541 59.8153C107.824 57.9624 106.884 58.2509 104.614 60.681C86.845 79.7724 54.7264 79.3016 34.0009 59.0711C32.6869 57.7953 32.1045 58.3573 32 59.4964" fill="#ED174C"/>
<path d="M70.4945 -2L71.7637 2.11597H76.0641L72.57 4.69794L73.8392 8.73796L70.4945 6.26231L67.09 8.73796L68.3592 4.68275L64.895 2.11597H69.1805L70.4945 -2Z" fill="#006BB6"/>
<path d="M95.7894 13.021L97.0885 17.0914H101.404L97.9097 19.6886L99.179 23.7286L95.8043 21.2377L92.4148 23.7286L93.7139 19.6886L90.1899 17.0914H94.5053L95.7894 13.021Z" fill="#006BB6"/>
<path d="M84.9337 1.43262L86.2178 5.53339H90.5331L87.054 8.11536L88.3083 12.1706L84.9486 9.66455L81.574 12.1706L82.8432 8.10018L79.3491 5.53339H83.6495L84.9337 1.43262Z" fill="#006BB6"/>
<path d="M99.9254 27.1914L101.224 31.2922H105.51L102.046 33.859L103.3 37.9142L99.9552 35.4081L96.5657 37.9142L97.8648 33.859L94.3408 31.2922H98.6114L99.9254 27.1914Z" fill="#006BB6"/>
<path d="M98.1184 42.1821L99.4026 46.2677H103.703L100.224 48.8801L101.493 52.9201L98.1184 50.4141L94.7737 52.9201L96.028 48.8497L92.5488 46.2677H96.8343L98.1184 42.1821Z" fill="#006BB6"/>
<path d="M89.9808 54.135L91.25 58.2358H95.5654L92.0713 60.8329L93.3405 64.8578L90.0107 62.3821L86.6211 64.8578L87.8903 60.8329L84.3813 58.2358H88.6967L89.9808 54.135Z" fill="#006BB6"/>
<path d="M77.1991 60.833L78.4982 64.9338H82.7687L79.2746 67.5309L80.5737 71.5862L77.1991 69.0953L73.8245 71.5862L75.0937 67.5309L71.5996 64.9338H75.8851L77.1991 60.833Z" fill="#006BB6"/>
<path d="M44.7071 11.6843L43.408 15.7699H39.1226L42.6017 18.3671L41.3325 22.4071L44.6922 19.9011L48.0966 22.4071L46.7976 18.3671L50.3215 15.7699H46.0062L44.7071 11.6843Z" fill="#006BB6"/>
<path d="M55.2937 1.43262L54.0096 5.53339H49.7241L53.2033 8.11536L51.9191 12.1706L55.2937 9.66455L58.6833 12.1706L57.4141 8.10018L60.9081 5.53339H56.6077L55.2937 1.43262Z" fill="#006BB6"/>
<path d="M39.7794 25.3538L38.5102 29.4394H34.1948L37.7038 32.0213L36.4197 36.0765L39.7794 33.6009L43.154 36.0765L41.8848 32.0213L45.4087 29.4394H41.1083L39.7794 25.3538Z" fill="#006BB6"/>
<path d="M41.1083 40.314L39.7943 44.4299H35.5088L38.9879 47.0271L37.7336 51.0823L41.0784 48.5763L44.4679 51.0823L43.1838 47.0119L46.6629 44.4299H42.3775L41.1083 40.314Z" fill="#006BB6"/>
<path d="M49.2315 52.5554L47.9474 56.6562H43.647L47.141 59.2534L45.842 63.2934L49.2315 60.7874L52.636 63.2934L51.3369 59.2382L54.831 56.6562H50.5306L49.2315 52.5554Z" fill="#006BB6"/>
<path d="M62.013 60.3167L60.7438 64.4326H56.4434L59.9225 67.0146L58.6533 71.0546L61.998 68.579L65.4174 71.0546L64.1034 66.9842L67.6274 64.4326H63.327L62.013 60.3167Z" fill="#006BB6"/>
</g>
</g>
<defs>
<clipPath id="clip0_38_40399">
<rect width="200" height="200" fill="white"/>
</clipPath>
<clipPath id="clip1_38_40399">
<rect width="136" height="170" fill="white" transform="translate(32 -2)"/>
</clipPath>
</defs>
</svg>
