<svg width="200" height="200" viewBox="0 0 200 200" fill="none" xmlns="http://www.w3.org/2000/svg">
<g clip-path="url(#clip0_38_40365)">
<g clip-path="url(#clip1_38_40365)">
<path d="M198 51.9671V38.2767L194.483 34.8682C149.296 -6.11865 52.5368 47.6853 19.6436 73.6014L3.41863 97.5737L23.6038 92.8131C-7.39802 129.912 3.68461 154.195 4.98497 156.73C8.23588 165.491 15.6834 172.477 27.7709 177.068C36.9621 180.561 47.365 180.984 56.2606 180.59C94.8282 178.871 140.37 155.969 169.776 131.603L170.456 131.039L176.308 102.898L164.87 108.954C125.18 125.546 93.2323 134.786 93.2323 134.786C72.3378 140.983 62.7329 141.997 55.8764 140.504L55.0489 140.251C53.1575 139.546 52.8324 137.913 52.8324 137.49C52.5368 125.039 75.0272 98.2498 86.3463 86.6439C96.8969 75.8268 113.506 63.9674 127.544 58.3335C136.942 54.5587 143.03 53.0376 145.867 53.3193C145.099 55.6292 143.828 58.5025 141.966 61.9955C141.966 61.9955 126.923 90.2496 126.273 91.4328L197.97 51.9953L198 51.9671Z" fill="#BB945C"/>
<path d="M108.748 49.9672C95.8033 56.4462 80.9378 69.6014 76.2683 74.3339C38.351 112.814 11.8118 164.223 94.7985 139.603C94.7985 139.603 127.071 130.307 167.116 113.518C53.778 204.759 -53.2359 166.589 52.0639 70.6437C42.4885 72.7282 32.7949 74.7283 23.3377 77.2354C57.0585 50.6432 149.532 1.03652 190.818 38.474L146.695 64.2492C165.639 28.8963 131.534 37.1781 108.748 49.9672" fill="#860038"/>
</g>
</g>
<defs>
<clipPath id="clip0_38_40365">
<rect width="200" height="200" fill="white"/>
</clipPath>
<clipPath id="clip1_38_40365">
<rect width="196" height="160.764" fill="white" transform="translate(2 19.9666)"/>
</clipPath>
</defs>
</svg>
