<svg width="200" height="200" viewBox="0 0 200 200" fill="none" xmlns="http://www.w3.org/2000/svg">
<g clip-path="url(#clip0_38_40387)">
<g clip-path="url(#clip1_38_40387)">
<path d="M66.7705 169.706C65.9326 169.003 65.5518 167.831 65.8565 166.737L75.7967 130.014C75.8729 129.779 75.949 129.584 76.0252 129.389L71.3788 121.81C70.9599 121.107 70.8456 120.286 71.0741 119.505L71.7216 117.278L65.3994 116.887C59.4581 116.458 57.3254 115.676 55.9162 114.856C49.9369 111.496 48.3373 101.807 47.9945 98.9164L47.6137 95.6738C47.4232 94.3456 47.766 93.0563 48.5277 92.1187C49.1371 91.3765 49.9749 90.9467 50.8509 90.8295C37.0641 78.0936 24.5721 62.2714 28.8377 39.925C33.5602 15.2345 52.9837 7.73364 53.8215 7.42111C54.1262 7.3039 54.4309 7.26484 54.7737 7.26484C55.7639 7.26484 56.716 7.81178 57.2111 8.74939C57.5539 9.41353 57.6301 10.1558 57.4396 10.859C63.8379 5.23334 69.9697 2.77211 72.5594 1.91264C72.826 1.8345 73.1307 1.75637 73.3973 1.75637C74.4637 1.75637 75.4539 2.38144 75.949 3.43625C76.5203 4.76454 76.0633 6.28816 74.8826 7.0695C69.0175 10.7418 63.9522 15.7033 60.1056 21.4072C64.7901 20.2742 67.9131 20.157 69.0175 20.1179C69.3984 20.1179 69.5888 20.1179 69.5888 20.1179C70.9599 20.1961 72.0643 21.29 72.2167 22.6964C72.3309 24.1028 71.455 25.392 70.122 25.7045C70.0458 25.7045 62.4288 27.736 54.012 33.9868C52.4505 38.9874 51.6507 44.1833 51.6507 49.4574C51.6507 59.4976 54.8498 69.7723 60.3341 77.6639C61.629 79.5391 62.9239 81.1799 64.295 82.7035C63.7237 72.4289 66.5801 56.3332 84.6705 48.7932C85.0133 48.637 85.3561 48.5979 85.6988 48.5979C86.7271 48.5979 87.7173 49.1839 88.1744 50.1606C88.8218 51.4889 88.3648 53.0906 87.1461 53.872L87.0318 53.9501C84.2516 55.8253 81.8903 58.2475 80.1003 61.0603C82.0807 60.4353 83.7565 60.2009 84.899 60.0837H85.1275C85.1275 60.0837 85.3561 60.0446 85.4703 60.0446C86.651 60.0446 87.6793 60.7869 88.0982 61.9198C88.5552 63.17 88.0982 64.5764 86.9937 65.2796L86.9176 65.3577L86.8033 65.4359C81.0144 68.8738 77.7771 72.8977 77.2439 77.3513C76.6346 82.2347 79.2624 86.8056 81.1667 89.384C86.0416 83.563 89.1646 73.679 90.0405 69.9677C90.3452 68.6784 91.4497 67.7799 92.7446 67.7799C92.8588 67.7799 92.9731 67.7799 93.0874 67.7799C94.4965 67.9362 95.5248 69.1472 95.5629 70.5927C95.6771 82.7426 92.5161 91.0639 89.2788 96.3771C94.1537 98.9164 98.9525 99.0336 99.9808 99.0336C100.095 99.0336 100.285 99.0336 100.285 99.0336C100.285 99.0336 100.514 99.0336 100.628 99.0336C101.657 99.0336 106.455 98.8774 111.33 96.2989C108.055 91.0249 104.856 82.7035 104.894 70.5537C104.894 69.1082 105.96 67.8971 107.331 67.7408C107.445 67.7408 107.56 67.7408 107.674 67.7408C108.931 67.7408 110.073 68.6003 110.378 69.8895C111.292 73.6009 114.491 83.4849 119.366 89.2668C121.232 86.6884 123.86 82.0785 123.213 77.2341C122.641 72.7805 119.404 68.7956 113.577 65.3968L113.387 65.2796C112.282 64.5764 111.787 63.17 112.244 61.9198C112.625 60.7869 113.691 60.0055 114.834 60.0055C114.948 60.0055 115.062 60.0055 115.177 60.0055H115.405C116.548 60.1618 118.262 60.3571 120.204 60.9822C118.414 58.2084 116.053 55.7863 113.234 53.9501L113.12 53.872C111.863 53.0906 111.406 51.4889 112.054 50.1606C112.549 49.1839 113.501 48.5979 114.529 48.5588C114.872 48.5588 115.215 48.637 115.558 48.7542C133.724 56.1769 136.619 72.2335 136.124 82.5082C137.457 81.0237 138.751 79.3438 140.046 77.4685C145.493 69.5379 148.577 59.2242 148.539 49.223C148.539 43.9489 147.701 38.753 146.102 33.7524C137.609 27.5407 129.992 25.6264 129.916 25.5873C128.583 25.2748 127.707 23.9856 127.821 22.5792C127.935 21.1728 129.04 20.0789 130.411 19.9617C130.411 19.9617 130.601 19.9617 130.982 19.9617C132.087 19.9617 135.21 20.0789 139.894 21.1728C136.009 15.508 130.906 10.5465 125.041 6.9523C123.822 6.21002 123.365 4.64734 123.936 3.31905C124.279 2.22517 125.269 1.6001 126.336 1.6001C126.602 1.6001 126.907 1.63916 127.174 1.7173C129.763 2.53771 135.895 4.95987 142.331 10.5465C142.141 9.88234 142.217 9.10099 142.56 8.43685C143.055 7.49924 144.007 6.91323 144.997 6.91323C145.302 6.91323 145.645 6.9523 145.95 7.0695C146.787 7.38204 166.249 14.7657 171.124 39.4171C175.542 61.7635 163.164 77.6639 149.453 90.4388C150.367 90.556 151.167 90.9858 151.777 91.7281C152.538 92.6657 152.881 93.9549 152.729 95.2832L152.348 98.5258C152.005 101.417 150.482 111.144 144.54 114.543C143.131 115.364 140.998 116.145 135.095 116.614L128.735 117.044L129.383 119.27C129.611 120.052 129.497 120.911 129.078 121.575L124.47 129.193C124.47 129.193 124.66 129.584 124.698 129.819L134.867 166.464C135.171 167.557 134.829 168.729 133.953 169.433L100.438 197.561L66.7324 169.667L66.7705 169.706Z" fill="#EEE1C6"/>
<path d="M31.5799 40.4718C36.0358 17.0706 54.7737 10.0776 54.7737 10.0776C47.9184 15.3126 40.9488 25.0794 38.0924 38.831C40.9107 35.2368 43.5005 32.5412 46.5473 30.3925C54.1263 13.5936 67.0752 6.7178 73.3974 4.60817C65.171 9.76504 58.2776 17.3831 54.1263 26.1732C63.6476 22.6572 69.3984 22.9697 69.3984 22.9697C69.3984 22.9697 60.8674 25.1184 51.5746 32.2287C49.7465 37.6199 48.7944 43.4409 48.7944 49.4964C48.7944 60.1226 52.1839 71.0224 57.9729 79.3437C61.2101 84.0317 64.3712 87.2743 68.2559 90.2043C66.961 86.8836 61.9718 61.2556 85.5846 51.4497L85.4323 51.5669C79.8718 55.2783 75.7587 61.0993 74.121 67.897C78.4246 63.6387 82.9948 63.1699 85.3561 62.8964L85.2419 62.9745C63.3429 76.023 80.824 93.5641 80.824 93.5641C87.7174 87.5868 91.7163 74.2649 92.5923 70.5926C92.7065 84.6568 88.1744 93.0953 85.0895 97.2364C92.1734 102.198 100.133 101.846 100.133 101.846C100.133 101.846 108.055 102.159 115.139 97.1583C112.016 93.0562 107.446 84.6177 107.484 70.5536C108.36 74.1868 112.435 87.5087 119.366 93.4469C119.366 93.4469 136.771 75.7886 114.758 62.8964L114.644 62.8183C117.043 63.0917 121.613 63.5215 125.917 67.7407C124.241 60.943 120.09 55.1611 114.491 51.4888L114.339 51.3716C138.028 61.0212 133.191 86.6883 131.934 90.009C135.819 87.0399 138.942 83.7973 142.141 79.0702C147.854 70.7098 151.167 59.8101 151.129 49.1838C151.129 43.1284 150.101 37.3465 148.235 31.9552C138.904 24.884 130.373 22.8135 130.373 22.8135C130.373 22.8135 136.124 22.4619 145.683 25.9388C141.456 17.1878 134.524 9.60877 126.26 4.49097C132.62 6.56153 145.607 13.3201 153.262 30.08C156.347 32.2287 158.975 34.8852 161.793 38.4794C158.86 24.7668 151.815 15 144.959 9.84317C144.959 9.84317 163.735 16.6799 168.344 40.0812C173.714 67.2719 152.576 84.3443 135.514 98.9554L148.539 93.4469C149.415 93.0562 150.025 93.9157 149.872 94.9705L149.492 98.2913C149.301 100.127 148.006 109.308 143.093 112.121C142.027 112.746 140.199 113.41 134.791 113.84L125.003 114.504L126.64 120.13L117.081 135.952L121.994 130.6L132.163 167.245L104.665 190.607L113.158 150.524L100.324 166.62L87.4127 150.602L96.1342 190.607L68.4844 167.401L78.4246 130.678L83.3757 135.991L73.7021 120.208L75.3016 114.543L65.5137 113.918C60.1057 113.527 58.2776 112.824 57.2112 112.238C52.2601 109.464 50.9271 100.245 50.7367 98.4475L50.3559 95.1268C50.2035 94.072 50.8129 93.2125 51.6888 93.6032L64.752 99.0335C47.6137 84.6177 26.3622 67.7017 31.5799 40.4718ZM155.319 69.3425C155.319 69.3425 166.059 51.8013 158.67 42.0345C157.908 41.0188 157.07 40.1202 156.271 39.2217C159.317 50.3949 155.319 69.3425 155.319 69.3425ZM44.7954 69.6941C44.7954 69.6941 40.6822 50.7856 43.6529 39.5733C42.8531 40.4718 42.0152 41.4094 41.2916 42.3861C33.9411 52.192 44.7954 69.6941 44.7954 69.6941Z" fill="#00471B"/>
<path d="M128.354 109.933C133.191 109.543 138.714 109.66 140.999 108.332C144.35 106.417 145.264 98.2131 145.264 98.2131C141.57 101.925 133.686 107.785 128.354 109.933ZM105.884 147.438H94.6872L97.3912 151.188H103.218L105.884 147.438ZM108.893 115.364C110.226 116.692 112.701 117.981 115.634 115.637C117.196 114.387 117.196 112.59 117.005 111.418C116.891 110.832 116.32 110.48 115.786 110.754C113.158 112.004 110.531 113.254 109.121 113.918C108.588 114.192 108.436 114.934 108.893 115.364ZM90.117 131.655L88.5555 138.804L92.4402 144.156H96.5533L92.7067 138.413L93.3161 134.858C95.068 136.733 97.5055 137.944 100.248 137.944C102.99 137.944 105.427 136.733 107.141 134.819L107.75 138.374L103.942 144.156H108.055L111.902 138.765L110.302 131.655C106.608 129.232 105.732 125.795 105.732 125.795L103.142 117.122L100.171 118.606L97.1627 117.122L94.611 125.795C94.611 125.795 93.7731 129.232 90.0789 131.694L90.117 131.655ZM84.7469 115.754C87.6795 118.059 90.155 116.77 91.488 115.403C91.907 114.973 91.7927 114.231 91.2214 113.957C89.8123 113.293 87.1844 112.082 84.5565 110.832C84.0233 110.597 83.414 110.91 83.3378 111.496C83.1474 112.668 83.1855 114.465 84.7469 115.715V115.754ZM55.0024 98.4866C55.0024 98.4866 55.9927 106.691 59.3441 108.605C61.6293 109.894 67.1516 109.738 71.9884 110.09C66.6184 107.98 58.6967 102.198 55.0024 98.4866Z" fill="white"/>
</g>
</g>
<defs>
<clipPath id="clip0_38_40387">
<rect width="200" height="200" fill="white"/>
</clipPath>
<clipPath id="clip1_38_40387">
<rect width="144" height="196" fill="white" transform="translate(28 1.6001)"/>
</clipPath>
</defs>
</svg>
