<svg width="200" height="200" viewBox="0 0 200 200" fill="none" xmlns="http://www.w3.org/2000/svg">
<g clip-path="url(#clip0_38_40381)">
<g clip-path="url(#clip1_38_40381)">
<path d="M45.329 66.9827C45.329 66.9827 61.8769 40 95.812 40C129.747 40 145.504 66.194 145.504 66.194H191.502L189.655 77.4507C189.655 77.4507 188.336 81.896 186.226 82.4218H189.367C189.367 82.4218 190.423 86.3414 184.115 99.9641H197.521C197.521 99.9641 198.049 123.816 169.126 135.073C169.126 135.073 154.137 139.781 146.511 131.679C146.511 131.679 131.258 159.976 95.764 159.976C60.27 159.976 44.2498 130.89 44.2498 130.89H3L9.57119 119.108H5.11045L10.3626 109.404H19.3081L20.8909 105.748H16.694L26.9584 86.8911H32.7382L35.1125 81.1312H30.1241L37.7505 66.9827H45.3769H45.329Z" fill="white"/>
<path d="M96.2915 153.691C125.31 153.691 148.837 129.887 148.837 100.538C148.837 71.189 125.31 47.385 96.2915 47.385C67.2728 47.385 43.77 71.189 43.77 100.538C43.77 129.887 67.2968 153.691 96.3155 153.691H96.2915Z" fill="#FDB927"/>
<path d="M120.25 105.963C115.334 111.89 112.552 113.922 107.563 113.922C105.861 113.922 104.973 113.539 105.453 112.727L111.376 100.872H113.631C116.149 100.872 115.789 102.975 115.118 105.843C114.998 106.25 115.31 106.274 115.597 105.915L121.209 96.0685C121.473 95.4471 120.778 95.3276 120.418 95.8056C117.612 99.6056 114.638 99.3427 113.391 99.3427H112.384L118.691 87.3212H121.233C124.447 87.5124 125.934 90.237 124.998 96.7616H126.342L130.994 87.6319C131.378 86.8671 130.586 86.1501 129.699 86.1501H98.1861C96.3635 86.1501 96.2915 87.5602 98.0183 87.5602C99.4332 87.5602 99.3613 89.5917 98.0902 90.5716L84.708 101.159L87.418 113.659C87.6099 114.615 88.2334 115.045 89.2647 115.045H115.31C116.389 115.045 116.82 114.615 117.18 114.161L121.905 106.035C122.552 104.864 121.041 104.935 120.226 105.939L120.25 105.963ZM102.095 100.251H99.793C99.6251 100.251 99.5052 100.37 99.5052 100.514C99.5052 100.657 99.6251 100.801 99.793 100.801H102.119C102.911 100.801 103.63 100.872 103.438 101.231L97.4187 112.703C96.6752 114.065 95.0924 113.73 94.8286 112.631L91.8548 97.2635L102.335 89.1615C103.39 88.2772 105.381 86.8193 106.412 86.8432H108.69C110.081 86.8432 110.585 87.4646 110.249 88.3011L109.842 89.0659C109.578 89.4961 108.762 89.5439 108.067 89.5439H106.748C106.58 89.5439 106.46 89.6873 106.46 89.8307C106.46 89.9741 106.58 90.1175 106.748 90.1175H108.043C108.595 90.1175 109.314 90.1175 109.05 90.5477L104.182 99.7968C103.966 100.155 102.959 100.227 102.095 100.227V100.251Z" fill="#552583"/>
<path d="M80.463 113.682C79.7676 113.682 79.3119 113.181 79.144 112.703C78.9282 112.033 78.9282 110.838 79.216 110.313L91.375 88.8268C91.5669 88.4205 92.0705 87.608 92.6701 87.608C93.7493 87.608 94.205 86.1979 92.3823 86.1979H82.6454C80.8228 86.1979 80.7988 87.5841 82.5495 87.5841C83.269 87.5841 83.5328 88.2771 83.3409 88.7073L80.6549 93.559C80.3192 94.0848 79.5757 94.1326 78.7843 94.1326H76.458C76.2901 94.1326 76.1702 94.2521 76.1702 94.4194C76.1702 94.5867 76.2901 94.7061 76.458 94.7061H78.7603C79.3838 94.7061 79.8875 94.8973 79.5277 95.6143L70.5583 111.89C69.9108 112.774 68.6157 112.989 68.6877 111.269L71.8773 87.4168C71.9972 86.6759 71.8054 86.174 71.014 86.174H66.1935C65.6179 86.174 65.2582 86.4608 64.9944 86.8193L63.2676 88.9702C63.0518 89.1853 62.5482 89.1853 62.0206 89.1853H57.9915C57.8236 89.1853 57.7037 89.3048 57.7037 89.4721C57.7037 89.6394 57.8236 89.7589 57.9915 89.7589H61.2771C61.8527 89.7589 62.5482 89.9023 62.3083 90.1652L57.6797 95.9728C57.5358 96.1401 57.0802 96.1879 56.8164 96.1879H55.5213C55.3534 96.1879 55.2335 96.3074 55.2335 96.4747C55.2335 96.642 55.3534 96.7615 55.5213 96.7615H56.6005C56.9363 96.7615 56.9363 96.9288 56.7924 97.0722L52.4516 102.521C52.2357 102.736 51.7801 102.784 51.3724 102.784H47.5352C47.3673 102.784 47.2474 102.904 47.2474 103.071C47.2474 103.238 47.3673 103.358 47.5352 103.358H50.8208C51.3244 103.358 51.7081 103.453 51.4443 103.788L45.2568 111.508C44.1057 112.989 38.4938 113.73 37.4146 113.73L58.3273 74.7739C58.5191 74.3198 59.3105 73.6506 60.102 73.6506H64.5387C66.6252 73.6506 66.5772 72.2644 64.7546 72.2644H42.4269C40.6043 72.2644 40.5323 73.6506 42.6188 73.6506H46.7438C47.9189 73.6506 48.3026 74.3676 47.9908 74.9412L47.3913 76.0166C47.1994 76.3751 46.9116 76.4946 45.7845 76.4946H38.4698C38.3019 76.4946 38.182 76.6141 38.182 76.7814C38.182 76.9487 38.3019 77.0682 38.4698 77.0682H45.7605C46.1682 77.0682 46.7438 77.1638 46.384 77.8808L45.3528 79.7689C45.1849 80.0557 44.7292 80.1991 44.2256 80.1991H40.916C40.7482 80.1991 40.6282 80.3186 40.6282 80.4859C40.6282 80.6532 40.7482 80.7727 40.916 80.7727H44.2016C44.6813 80.7727 44.6813 81.0834 44.4175 81.5136L42.0672 85.8633C41.8753 86.2457 41.4916 86.2935 40.7242 86.2935H39.4051C39.2373 86.2935 39.1173 86.413 39.1173 86.5803C39.1173 86.7476 39.2373 86.8671 39.4051 86.8671H40.7002C41.2038 86.8671 41.3237 87.1539 41.1079 87.608L39.1653 91.1929C38.8775 91.6948 38.4698 91.9099 37.1748 91.9099H29.8601C29.6922 91.9099 29.5723 92.0294 29.5723 92.1967C29.5723 92.364 29.6922 92.4835 29.8601 92.4835H37.1508C37.9662 92.4835 38.278 92.8659 37.9422 93.4395L34.177 100.49C33.9611 100.801 33.3376 100.848 32.2824 100.848H24.9677C24.7998 100.848 24.6799 100.968 24.6799 101.135C24.6799 101.302 24.7998 101.422 24.9677 101.422H32.2584C33.1217 101.422 33.6733 101.47 33.4095 101.924L31.2271 105.987C30.8194 106.608 29.7162 106.608 29.2606 106.608H26.9343C26.7664 106.608 26.6465 106.728 26.6465 106.895C26.6465 107.062 26.7664 107.182 26.9343 107.182H29.2366C30.052 107.182 30.4837 107.325 30.2678 107.755L27.366 113.181C27.1021 113.659 25.975 113.682 25.0876 113.682H13.9118C13.7439 113.682 13.624 113.802 13.624 113.969C13.624 114.137 13.7439 114.256 13.9118 114.256H25.1836C25.927 114.256 26.8863 114.352 26.5266 114.949L24.6799 118.415C24.512 118.701 23.8645 118.725 22.9532 118.725H20.6269C20.459 118.725 20.3391 118.845 20.3391 119.012C20.3391 119.179 20.459 119.299 20.6269 119.299H22.9292C23.4808 119.299 24.1763 119.371 23.9365 119.777L22.7853 122C22.4016 122.549 22.0419 123.027 21.1305 123.027H15.4707C13.3842 123.027 13.4561 124.413 15.2788 124.413H48.5664C49.5257 124.413 49.5737 124.294 50.0293 123.577L54.9697 114.997H80.1992C82.0219 114.997 81.5423 113.635 80.487 113.587L80.463 113.682ZM60.6775 111.125C60.4377 112.535 58.9988 113.467 57.2001 113.945L55.3534 114.399L56.8643 111.675C57.272 110.934 56.3847 110.48 55.4254 111.603C48.9741 119.084 46.9356 122.669 37.0069 122.693H34.3448C33.5294 122.693 32.6421 122.382 33.1937 121.617L36.7191 115.093H50.0773C51.9 115.093 51.4203 113.73 50.3651 113.682C49.6696 113.682 48.8782 113.252 48.3506 112.392C48.2067 112.153 47.8709 111.197 48.3985 110.48L53.5068 103.716H61.9966L60.7015 111.125H60.6775ZM62.5961 102.569H54.2982L64.7785 88.8029L62.5722 102.569H62.5961Z" fill="#552583"/>
<path d="M188.744 106.823C188.6 106.154 188.36 106.56 187.904 107.421C187.76 107.684 187.329 107.684 186.897 107.684H185.554C185.386 107.684 185.266 107.827 185.266 107.97C185.266 108.114 185.41 108.257 185.554 108.257H186.873C187.377 108.257 187.377 108.592 187.137 109.094C186.226 111.053 185.266 112.344 184.019 113.921C183.827 114.16 183.324 114.376 182.916 114.376H181.573C181.405 114.376 181.285 114.519 181.285 114.662C181.285 114.806 181.405 114.949 181.573 114.949H182.892C183.564 114.949 182.892 115.355 182.772 115.499C180.446 118.582 178.839 119.968 177.136 121.354C176.944 121.522 175.961 121.45 175.29 121.45H173.971C173.803 121.45 173.683 121.593 173.683 121.737C173.683 121.88 173.803 122.023 173.971 122.023H175.266C176.273 122.023 175.505 122.597 175.362 122.717C171.74 125.728 166.344 126.708 163.874 126.397C155.84 125.393 154.185 119.323 153.61 116.909C153.49 116.407 153.106 115.355 152.962 114.71C152.722 113.443 156.344 113.085 157.327 113.754C158.838 114.758 162.387 115.81 165.169 115.81C167.735 115.81 173.011 113.969 174.522 109.548C176.081 105.055 172.172 100.036 170.421 98.315C168.215 96.1162 166.128 92.603 167.016 90.0457C167.687 88.1099 168.79 87.2256 171.165 87.2256C174.234 87.2256 176.465 89.1853 176.465 91.9816C176.465 92.2206 176.321 92.5313 176.105 92.5313H175.026C174.858 92.5313 174.738 92.6747 174.738 92.8181C174.738 92.9615 174.858 93.1049 175.026 93.1049H176.033C176.321 93.1049 176.489 93.32 176.417 93.6785C176.225 94.6105 176.153 95.2797 175.937 96.2118C175.817 96.7615 176.609 97.12 176.896 96.7376L181.717 88.1577C182.077 87.5124 181.285 87.3451 180.71 87.5363C179.391 87.9904 177.232 88.301 176.489 87.7753C174.69 86.4847 173.035 85.6482 170.517 85.6482C166.224 85.6482 163.226 86.6998 161.308 90.213C161.164 90.4759 160.732 90.4759 160.373 90.4759H159.557C159.389 90.4759 159.269 90.5954 159.269 90.7627C159.269 90.93 159.389 91.0495 159.557 91.0495H160.253C160.564 91.0495 160.756 91.1212 160.612 91.4797C160.468 91.7904 160.373 92.125 160.253 92.4835C159.773 94.0131 159.917 96.1401 160.684 98.0521C160.732 98.1716 160.564 98.2433 160.277 98.2433H158.958C158.79 98.2433 158.67 98.3867 158.67 98.5301C158.67 98.6735 158.79 98.8169 158.958 98.8169H160.277C160.876 98.8169 161.02 98.8886 161.26 99.2232C161.931 100.179 162.627 100.872 163.514 101.972C163.778 102.33 162.627 102.426 162.003 102.402H156.799C156.631 102.402 156.511 102.521 156.511 102.689C156.511 102.856 156.631 102.975 156.799 102.975H162.051C162.891 102.975 164.354 102.975 164.522 103.143C165.793 104.601 167.327 106.871 167.591 108.759C167.663 109.309 167.447 109.548 166.776 109.548H166.08C165.912 109.548 165.793 109.667 165.793 109.835C165.793 110.002 165.912 110.121 166.08 110.121H166.704C167.232 110.121 167.543 110.217 167.399 110.599C166.728 112.774 165.697 114.352 161.524 114.328C157.159 114.328 156.272 110.05 157.543 105.58C157.806 104.696 157.543 104.314 157.135 105.007L154.089 109.763C154.089 109.763 153.729 110.145 153.25 110.145H152.818C152.65 110.145 152.53 110.265 152.53 110.432C152.53 110.599 152.674 110.719 152.818 110.719C153.202 110.719 153.346 110.934 153.202 111.125L152.075 112.87C150.252 108.687 147.158 103.525 145.527 101.637V101.541C149.604 101.302 155.576 97.5263 156.559 94.1326C158.262 88.2771 152.554 86.1023 149.437 86.1023H135.743C133.92 86.1023 133.8 87.4885 135.527 87.4885C136.462 87.4885 137.301 88.301 136.87 89.1375L133.848 94.5867C133.608 95.0407 132.649 95.0168 131.45 95.0168H130.131C129.963 95.0168 129.843 95.1363 129.843 95.3036C129.843 95.4709 129.963 95.5904 130.131 95.5904H131.426C132.289 95.5904 133.248 95.6382 132.937 96.2596L129.339 102.713C129.171 102.999 128.692 103.047 127.469 103.047H126.15C125.982 103.047 125.862 103.191 125.862 103.334C125.862 103.477 125.982 103.621 126.15 103.621H127.445C128.404 103.621 128.764 103.74 128.5 104.242L123.703 112.87C123.128 113.491 122.456 113.611 121.281 113.611C119.53 113.611 119.554 114.997 121.377 114.997H133.105C134.927 114.997 134.472 113.587 133.392 113.587C132.769 113.587 132.097 112.44 132.505 111.747L138.501 100.442H139.1C141.762 100.442 142.41 104.792 142.913 109.548C142.937 109.882 142.29 109.906 140.971 109.906H137.637C137.469 109.906 137.349 110.05 137.349 110.193C137.349 110.337 137.469 110.48 137.637 110.48H140.923C141.786 110.48 143.009 110.48 143.057 110.767C143.297 112.846 143.465 114.686 143.849 116.359C143.969 116.885 143.033 116.789 142.05 116.789H137.805C137.637 116.789 137.517 116.933 137.517 117.076C137.517 117.22 137.637 117.363 137.805 117.363H142.05C143.369 117.363 144.065 117.363 144.136 117.65C145.959 124.318 153.777 129.552 161.38 129.265C167.903 129.026 173.419 125.489 176.249 123.218C180.014 120.207 185.53 113.921 187.76 109.357C188.168 108.52 188.84 107.445 188.672 106.704L188.744 106.823ZM144.88 97.9565C143.969 98.6974 142.53 99.5578 142.242 99.2949C141.858 98.9125 140.635 98.076 139.987 97.7892L145.432 87.8948C145.647 87.5363 145.911 87.3451 146.511 87.3451C148.621 87.3451 149.317 89.6394 148.333 92.4835C147.638 94.4911 146.511 96.642 144.88 97.9565V97.9565Z" fill="#552583"/>
<path d="M78.8566 77.4029C77.7534 78.8129 76.2905 79.1714 74.6597 79.1714H74.204L77.0819 73.4833C77.2258 73.2204 77.5136 73.0292 77.8973 73.0292C78.281 73.0292 78.2091 72.3123 77.7534 72.3123H73.1967C72.813 72.3123 72.6691 73.0292 73.0289 73.0292C73.4126 73.0292 73.4845 73.4594 73.2927 73.8179L70.7026 78.8847C70.5347 79.1475 70.2469 79.2431 69.9351 79.3148C69.5514 79.4104 69.2876 80.1035 69.7193 80.1035H76.986C77.5376 80.1035 77.6815 79.8884 77.8254 79.6972L79.2883 77.4507C79.5041 77.1878 79.0485 77.14 78.8566 77.4029Z" fill="#552583"/>
<path d="M100.705 72.5035C100.489 72.623 99.9613 72.6947 99.7455 72.5035C99.1699 72.0255 98.0187 71.6431 97.4432 71.6431C95.7404 71.6431 94.4933 71.9777 93.7499 73.5789C93.1263 74.9412 93.7499 76.0884 95.2847 76.8054C95.9323 77.1161 96.7956 77.4985 96.4839 78.2872C96.244 78.8608 95.5725 78.9086 94.973 78.9086C94.1576 78.9086 92.9345 78.2872 92.7666 77.1639C92.6946 76.7815 92.263 76.8771 92.143 77.0683L91.1118 79.1236C90.9439 79.3865 91.3756 79.6972 91.5435 79.5299C91.9032 79.1475 92.6467 79.0759 93.0304 79.3148C93.534 79.6494 94.877 80.2469 95.6685 80.2469C97.3952 80.2469 98.5464 79.7928 99.5057 78.3111C100.369 76.9488 99.8414 75.6104 98.2586 74.8695C97.4192 74.4871 96.6997 73.794 97.0834 73.0292C97.3233 72.5274 98.0667 72.6469 98.4504 72.6947C99.1459 72.8141 100.057 73.4833 100.177 74.0569C100.225 74.2959 100.537 74.3437 100.681 74.1286L101.232 72.8619C101.352 72.623 100.945 72.4318 100.825 72.5035H100.705Z" fill="#552583"/>
<path d="M151.068 74.5349L151.691 73.3638C151.955 72.8619 151.523 72.2644 150.78 72.2644H142.314C141.715 72.2644 141.882 72.9097 142.122 72.9097C142.674 72.9097 142.818 73.5789 142.506 74.1286L139.964 78.8129C139.58 79.267 139.34 79.4582 138.789 79.4582C138.357 79.4582 138.189 80.1035 138.789 80.1035H147.374C147.734 80.1035 147.878 79.984 147.998 79.8167L149.173 78.2632C149.461 77.8808 148.837 77.8808 148.645 78.072C147.159 79.5538 145.576 79.506 144.425 79.506H143.417L144.592 76.9009H144.832C145.576 76.9009 146.463 76.9009 146.679 77.4745C146.751 77.6179 147.111 77.7135 147.254 77.4745L148.262 75.467C148.43 75.1802 147.974 75.1085 147.854 75.3236C147.446 76.0166 145.72 75.8493 145.264 75.8493H145.024L146.487 72.9575H148.118C149.125 72.9575 150.012 73.6745 150.3 74.4632C150.372 74.6544 150.9 74.7978 151.02 74.5588L151.068 74.5349Z" fill="#552583"/>
<path d="M129.387 72.2883H126.366C125.766 72.2883 125.934 72.9336 126.174 72.9336C126.821 72.9336 127.397 73.6984 127.061 74.3915L125.814 76.6619L123.056 72.6468C122.864 72.4078 122.433 72.2883 122.073 72.2883H119.099C118.499 72.2883 118.619 72.9097 118.883 72.9097C119.507 72.9097 119.339 73.3877 119.195 73.7223L116.821 78.2632C116.677 78.6217 116.029 78.6695 115.837 78.2154L114.015 72.2644C113.943 72.0254 112.864 72.0493 112.6 72.2644L108.019 76.0405H105.645C105.165 76.0405 104.997 76.2317 104.997 76.4946C104.997 76.7575 105.165 76.9726 105.669 76.9726H106.916L105.669 78.0003C104.973 78.5261 104.278 79.2192 103.798 79.2192H103.51C103.055 79.2192 102.815 79.2909 102.815 79.6494C102.815 80.0079 103.007 80.1274 103.438 80.1274H107.132C107.827 80.1274 107.683 79.2192 107.348 79.2192C106.964 79.2192 106.34 78.7412 106.916 78.0481L108.043 76.9726H110.273C111.593 76.9726 112.528 78.5022 111.736 78.9802L111.137 79.3148C110.849 79.4582 110.729 80.1274 111.137 80.1274H118.356C118.883 80.1274 118.787 79.4104 118.523 79.4104C117.78 79.4104 118.14 78.3588 118.284 78.072L120.178 74.4871L122.84 79.6494C123.008 79.984 123.176 80.1274 123.488 80.1274H124.519C124.855 80.1274 124.951 79.9362 125.095 79.6972L128.14 74.2242C128.62 73.2443 129.004 72.9575 129.627 72.9575C129.867 72.9575 130.059 72.3122 129.435 72.3122L129.387 72.2883ZM109.17 76.0166L112 73.7223V76.0166H109.17Z" fill="#552583"/>
<path d="M86.5789 71.9538C84.0367 71.9538 81.4226 73.1966 80.895 75.8495C80.4394 78.1677 82.0462 80.5577 84.8761 80.5577C87.706 80.5577 90.0803 78.7891 90.5839 76.2319C91.0876 73.6746 89.169 71.9299 86.5789 71.9299V71.9538ZM87.2983 76.8294C86.4829 78.4306 85.1399 79.3866 84.2766 78.9564C83.4132 78.5262 83.3652 76.8772 84.1806 75.2759C84.996 73.6746 86.339 72.7186 87.2024 73.1488C88.0658 73.579 88.1137 75.2281 87.2983 76.8294Z" fill="#552583"/>
<path d="M137.997 75.8256H134.735C134.112 75.8256 134.304 76.4709 134.544 76.4709C134.783 76.4709 135.047 76.6143 135.047 77.0206C135.047 78.3351 134.496 78.837 133.344 78.837C132.097 78.837 131.642 77.3313 132.481 75.491C133.009 74.3199 134.424 73.2205 136.102 73.2205C137.134 73.2205 137.997 73.4356 138.117 74.3916C138.141 74.6306 138.501 74.6306 138.621 74.3916L139.388 73.0055C139.484 72.8621 139.34 72.6709 139.1 72.6709C138.908 72.6709 138.453 72.9099 138.165 72.6948C137.517 72.2168 136.078 71.7388 135.023 71.7388C133.273 71.7388 130.826 72.1451 129.172 74.9891C127.685 77.5703 129.843 80.3187 131.882 80.3187C133.009 80.3187 134.304 79.4822 135.047 79.1716L135.887 79.7451C136.007 79.8885 136.27 80.0797 136.534 80.0797H136.846C137.134 80.0797 137.254 79.6973 137.35 79.4344L138.621 76.3514C138.788 76.0407 138.693 75.8256 137.973 75.8256H137.997Z" fill="#552583"/>
<path d="M182.724 72.5035C182.509 72.623 181.981 72.6947 181.765 72.5035C181.189 72.0255 180.038 71.6431 179.463 71.6431C177.76 71.6431 176.513 71.9777 175.769 73.5789C175.146 74.9412 175.769 76.0884 177.304 76.8054C177.952 77.1161 178.815 77.4985 178.503 78.2872C178.264 78.8608 177.592 78.9086 176.993 78.9086C176.177 78.9086 174.954 78.2872 174.762 77.1639C174.69 76.7815 174.259 76.8771 174.139 77.0683L173.107 79.1236C172.94 79.3865 173.371 79.6972 173.539 79.5299C173.899 79.1475 174.642 79.0759 175.026 79.3148C175.53 79.6494 176.873 80.2469 177.664 80.2469C179.391 80.2469 180.542 79.7928 181.501 78.3111C182.365 76.9488 181.837 75.6104 180.254 74.8695C179.415 74.4871 178.695 73.794 179.079 73.0292C179.319 72.5274 180.062 72.6469 180.446 72.6947C181.142 72.8141 182.053 73.4833 182.173 74.0569C182.221 74.2959 182.533 74.3437 182.676 74.1286L183.228 72.8619C183.348 72.623 182.94 72.4318 182.82 72.5035H182.724Z" fill="#552583"/>
<path d="M160.013 77.4029C158.91 78.8129 157.447 79.1714 155.816 79.1714H155.36L158.238 73.4833C158.382 73.2204 158.67 73.0292 159.054 73.0292C159.437 73.0292 159.365 72.3123 158.886 72.3123H154.329C153.945 72.3123 153.801 73.0292 154.161 73.0292C154.545 73.0292 154.617 73.4594 154.425 73.8179L151.835 78.8847C151.667 79.1475 151.379 79.2431 151.067 79.3148C150.684 79.4104 150.42 80.1035 150.852 80.1035H158.118C158.67 80.1035 158.814 79.8884 158.958 79.6972L160.421 77.4507C160.636 77.1878 160.181 77.14 159.989 77.4029H160.013Z" fill="#552583"/>
<path d="M170.973 72.9575C171.98 72.9575 172.868 73.6745 173.155 74.4632C173.227 74.6544 173.755 74.7978 173.875 74.5588L174.498 73.3877C174.762 72.8858 174.33 72.2883 173.587 72.2883H165.121C164.522 72.2883 164.69 72.9336 164.929 72.9336C165.481 72.9336 165.625 73.6028 165.313 74.1525L162.771 78.8368C162.387 79.2909 162.147 79.4821 161.596 79.4821C161.164 79.4821 160.996 80.1274 161.596 80.1274H170.182C170.541 80.1274 170.685 80.0079 170.805 79.8406L171.98 78.2871C172.268 77.9047 171.644 77.9047 171.453 78.0959C169.966 79.5777 168.383 79.5299 167.232 79.5299H166.224L167.4 76.9249H167.639C168.407 76.9249 169.27 76.9249 169.486 77.4984C169.558 77.6418 169.918 77.7374 170.062 77.4984L171.069 75.4909C171.237 75.2041 170.781 75.1324 170.661 75.3475C170.253 76.0406 168.527 75.8733 168.071 75.8733H167.831L169.294 72.9814H170.925L170.973 72.9575Z" fill="#552583"/>
<path d="M120.25 105.963C115.334 111.89 112.552 113.922 107.563 113.922C105.861 113.922 104.973 113.539 105.453 112.727L111.376 100.872H113.631C116.149 100.872 115.789 102.975 115.118 105.843C114.998 106.25 115.31 106.274 115.597 105.915L121.209 96.0685C121.473 95.4471 120.778 95.3276 120.418 95.8056C117.612 99.6056 114.638 99.3427 113.391 99.3427H112.384L118.691 87.3212H121.233C124.447 87.5124 125.934 90.237 124.998 96.7616H126.342L130.994 87.6319C131.378 86.8671 130.586 86.1501 129.699 86.1501H98.1861C96.3635 86.1501 96.2915 87.5602 98.0183 87.5602C99.4332 87.5602 99.3613 89.5917 98.0902 90.5716L84.708 101.159L87.418 113.659C87.6099 114.615 88.2334 115.045 89.2647 115.045H115.31C116.389 115.045 116.82 114.615 117.18 114.161L121.905 106.035C122.552 104.864 121.041 104.935 120.226 105.939L120.25 105.963ZM102.095 100.251H99.793C99.6251 100.251 99.5052 100.37 99.5052 100.514C99.5052 100.657 99.6251 100.801 99.793 100.801H102.119C102.911 100.801 103.63 100.872 103.438 101.231L97.4187 112.703C96.6752 114.065 95.0924 113.73 94.8286 112.631L91.8548 97.2635L102.335 89.1615C103.39 88.2772 105.381 86.8193 106.412 86.8432H108.69C110.081 86.8432 110.585 87.4646 110.249 88.3011L109.842 89.0659C109.578 89.4961 108.762 89.5439 108.067 89.5439H106.748C106.58 89.5439 106.46 89.6873 106.46 89.8307C106.46 89.9741 106.58 90.1175 106.748 90.1175H108.043C108.595 90.1175 109.314 90.1175 109.05 90.5477L104.182 99.7968C103.966 100.155 102.959 100.227 102.095 100.227V100.251Z" fill="#552583"/>
<path d="M80.463 113.682C79.7676 113.682 79.3119 113.181 79.144 112.703C78.9282 112.033 78.9282 110.838 79.216 110.313L91.375 88.8268C91.5669 88.4205 92.0705 87.608 92.6701 87.608C93.7493 87.608 94.205 86.1979 92.3823 86.1979H82.6454C80.8228 86.1979 80.7988 87.5841 82.5495 87.5841C83.269 87.5841 83.5328 88.2771 83.3409 88.7073L80.6549 93.559C80.3192 94.0848 79.5757 94.1326 78.7843 94.1326H76.458C76.2901 94.1326 76.1702 94.2521 76.1702 94.4194C76.1702 94.5867 76.2901 94.7061 76.458 94.7061H78.7603C79.3838 94.7061 79.8875 94.8973 79.5277 95.6143L70.5583 111.89C69.9108 112.774 68.6157 112.989 68.6877 111.269L71.8773 87.4168C71.9972 86.6759 71.8054 86.174 71.014 86.174H66.1935C65.6179 86.174 65.2582 86.4608 64.9944 86.8193L63.2676 88.9702C63.0518 89.1853 62.5482 89.1853 62.0206 89.1853H57.9915C57.8236 89.1853 57.7037 89.3048 57.7037 89.4721C57.7037 89.6394 57.8236 89.7589 57.9915 89.7589H61.2771C61.8527 89.7589 62.5482 89.9023 62.3083 90.1652L57.6797 95.9728C57.5358 96.1401 57.0802 96.1879 56.8164 96.1879H55.5213C55.3534 96.1879 55.2335 96.3074 55.2335 96.4747C55.2335 96.642 55.3534 96.7615 55.5213 96.7615H56.6005C56.9363 96.7615 56.9363 96.9288 56.7924 97.0722L52.4516 102.521C52.2357 102.736 51.7801 102.784 51.3724 102.784H47.5352C47.3673 102.784 47.2474 102.904 47.2474 103.071C47.2474 103.238 47.3673 103.358 47.5352 103.358H50.8208C51.3244 103.358 51.7081 103.453 51.4443 103.788L45.2568 111.508C44.1057 112.989 38.4938 113.73 37.4146 113.73L58.3273 74.7739C58.5191 74.3198 59.3105 73.6506 60.102 73.6506H64.5387C66.6252 73.6506 66.5772 72.2644 64.7546 72.2644H42.4269C40.6043 72.2644 40.5323 73.6506 42.6188 73.6506H46.7438C47.9189 73.6506 48.3026 74.3676 47.9908 74.9412L47.3913 76.0166C47.1994 76.3751 46.9116 76.4946 45.7845 76.4946H38.4698C38.3019 76.4946 38.182 76.6141 38.182 76.7814C38.182 76.9487 38.3019 77.0682 38.4698 77.0682H45.7605C46.1682 77.0682 46.7438 77.1638 46.384 77.8808L45.3528 79.7689C45.1849 80.0557 44.7292 80.1991 44.2256 80.1991H40.916C40.7482 80.1991 40.6282 80.3186 40.6282 80.4859C40.6282 80.6532 40.7482 80.7727 40.916 80.7727H44.2016C44.6813 80.7727 44.6813 81.0834 44.4175 81.5136L42.0672 85.8633C41.8753 86.2457 41.4916 86.2935 40.7242 86.2935H39.4051C39.2373 86.2935 39.1173 86.413 39.1173 86.5803C39.1173 86.7476 39.2373 86.8671 39.4051 86.8671H40.7002C41.2038 86.8671 41.3237 87.1539 41.1079 87.608L39.1653 91.1929C38.8775 91.6948 38.4698 91.9099 37.1748 91.9099H29.8601C29.6922 91.9099 29.5723 92.0294 29.5723 92.1967C29.5723 92.364 29.6922 92.4835 29.8601 92.4835H37.1508C37.9662 92.4835 38.278 92.8659 37.9422 93.4395L34.177 100.49C33.9611 100.801 33.3376 100.848 32.2824 100.848H24.9677C24.7998 100.848 24.6799 100.968 24.6799 101.135C24.6799 101.302 24.7998 101.422 24.9677 101.422H32.2584C33.1217 101.422 33.6733 101.47 33.4095 101.924L31.2271 105.987C30.8194 106.608 29.7162 106.608 29.2606 106.608H26.9343C26.7664 106.608 26.6465 106.728 26.6465 106.895C26.6465 107.062 26.7664 107.182 26.9343 107.182H29.2366C30.052 107.182 30.4837 107.325 30.2678 107.755L27.366 113.181C27.1021 113.659 25.975 113.682 25.0876 113.682H13.9118C13.7439 113.682 13.624 113.802 13.624 113.969C13.624 114.137 13.7439 114.256 13.9118 114.256H25.1836C25.927 114.256 26.8863 114.352 26.5266 114.949L24.6799 118.415C24.512 118.701 23.8645 118.725 22.9532 118.725H20.6269C20.459 118.725 20.3391 118.845 20.3391 119.012C20.3391 119.179 20.459 119.299 20.6269 119.299H22.9292C23.4808 119.299 24.1763 119.371 23.9365 119.777L22.7853 122C22.4016 122.549 22.0419 123.027 21.1305 123.027H15.4707C13.3842 123.027 13.4561 124.413 15.2788 124.413H48.5664C49.5257 124.413 49.5737 124.294 50.0293 123.577L54.9697 114.997H80.1992C82.0219 114.997 81.5423 113.635 80.487 113.587L80.463 113.682ZM60.6775 111.125C60.4377 112.535 58.9988 113.467 57.2001 113.945L55.3534 114.399L56.8643 111.675C57.272 110.934 56.3847 110.48 55.4254 111.603C48.9741 119.084 46.9356 122.669 37.0069 122.693H34.3448C33.5294 122.693 32.6421 122.382 33.1937 121.617L36.7191 115.093H50.0773C51.9 115.093 51.4203 113.73 50.3651 113.682C49.6696 113.682 48.8782 113.252 48.3506 112.392C48.2067 112.153 47.8709 111.197 48.3985 110.48L53.5068 103.716H61.9966L60.7015 111.125H60.6775ZM62.5961 102.569H54.2982L64.7785 88.8029L62.5722 102.569H62.5961Z" fill="#552583"/>
<path d="M188.744 106.823C188.6 106.154 188.36 106.56 187.904 107.421C187.76 107.684 187.329 107.684 186.897 107.684H185.554C185.386 107.684 185.266 107.827 185.266 107.97C185.266 108.114 185.41 108.257 185.554 108.257H186.873C187.377 108.257 187.377 108.592 187.137 109.094C186.226 111.053 185.266 112.344 184.019 113.921C183.827 114.16 183.324 114.376 182.916 114.376H181.573C181.405 114.376 181.285 114.519 181.285 114.662C181.285 114.806 181.405 114.949 181.573 114.949H182.892C183.564 114.949 182.892 115.355 182.772 115.499C180.446 118.582 178.839 119.968 177.136 121.354C176.944 121.522 175.961 121.45 175.29 121.45H173.971C173.803 121.45 173.683 121.593 173.683 121.737C173.683 121.88 173.803 122.023 173.971 122.023H175.266C176.273 122.023 175.505 122.597 175.362 122.717C171.74 125.728 166.344 126.708 163.874 126.397C155.84 125.393 154.185 119.323 153.61 116.909C153.49 116.407 153.106 115.355 152.962 114.71C152.722 113.443 156.344 113.085 157.327 113.754C158.838 114.758 162.387 115.81 165.169 115.81C167.735 115.81 173.011 113.969 174.522 109.548C176.081 105.055 172.172 100.036 170.421 98.315C168.215 96.1162 166.128 92.603 167.016 90.0457C167.687 88.1099 168.79 87.2256 171.165 87.2256C174.234 87.2256 176.465 89.1853 176.465 91.9816C176.465 92.2206 176.321 92.5313 176.105 92.5313H175.026C174.858 92.5313 174.738 92.6747 174.738 92.8181C174.738 92.9615 174.858 93.1049 175.026 93.1049H176.033C176.321 93.1049 176.489 93.32 176.417 93.6785C176.225 94.6105 176.153 95.2797 175.937 96.2118C175.817 96.7615 176.609 97.12 176.896 96.7376L181.717 88.1577C182.077 87.5124 181.285 87.3451 180.71 87.5363C179.391 87.9904 177.232 88.301 176.489 87.7753C174.69 86.4847 173.035 85.6482 170.517 85.6482C166.224 85.6482 163.226 86.6998 161.308 90.213C161.164 90.4759 160.732 90.4759 160.373 90.4759H159.557C159.389 90.4759 159.269 90.5954 159.269 90.7627C159.269 90.93 159.389 91.0495 159.557 91.0495H160.253C160.564 91.0495 160.756 91.1212 160.612 91.4797C160.468 91.7904 160.373 92.125 160.253 92.4835C159.773 94.0131 159.917 96.1401 160.684 98.0521C160.732 98.1716 160.564 98.2433 160.277 98.2433H158.958C158.79 98.2433 158.67 98.3867 158.67 98.5301C158.67 98.6735 158.79 98.8169 158.958 98.8169H160.277C160.876 98.8169 161.02 98.8886 161.26 99.2232C161.931 100.179 162.627 100.872 163.514 101.972C163.778 102.33 162.627 102.426 162.003 102.402H156.799C156.631 102.402 156.511 102.521 156.511 102.689C156.511 102.856 156.631 102.975 156.799 102.975H162.051C162.891 102.975 164.354 102.975 164.522 103.143C165.793 104.601 167.327 106.871 167.591 108.759C167.663 109.309 167.447 109.548 166.776 109.548H166.08C165.912 109.548 165.793 109.667 165.793 109.835C165.793 110.002 165.912 110.121 166.08 110.121H166.704C167.232 110.121 167.543 110.217 167.399 110.599C166.728 112.774 165.697 114.352 161.524 114.328C157.159 114.328 156.272 110.05 157.543 105.58C157.806 104.696 157.543 104.314 157.135 105.007L154.089 109.763C154.089 109.763 153.729 110.145 153.25 110.145H152.818C152.65 110.145 152.53 110.265 152.53 110.432C152.53 110.599 152.674 110.719 152.818 110.719C153.202 110.719 153.346 110.934 153.202 111.125L152.075 112.87C150.252 108.687 147.158 103.525 145.527 101.637V101.541C149.604 101.302 155.576 97.5263 156.559 94.1326C158.262 88.2771 152.554 86.1023 149.437 86.1023H135.743C133.92 86.1023 133.8 87.4885 135.527 87.4885C136.462 87.4885 137.301 88.301 136.87 89.1375L133.848 94.5867C133.608 95.0407 132.649 95.0168 131.45 95.0168H130.131C129.963 95.0168 129.843 95.1363 129.843 95.3036C129.843 95.4709 129.963 95.5904 130.131 95.5904H131.426C132.289 95.5904 133.248 95.6382 132.937 96.2596L129.339 102.713C129.171 102.999 128.692 103.047 127.469 103.047H126.15C125.982 103.047 125.862 103.191 125.862 103.334C125.862 103.477 125.982 103.621 126.15 103.621H127.445C128.404 103.621 128.764 103.74 128.5 104.242L123.703 112.87C123.128 113.491 122.456 113.611 121.281 113.611C119.53 113.611 119.554 114.997 121.377 114.997H133.105C134.927 114.997 134.472 113.587 133.392 113.587C132.769 113.587 132.097 112.44 132.505 111.747L138.501 100.442H139.1C141.762 100.442 142.41 104.792 142.913 109.548C142.937 109.882 142.29 109.906 140.971 109.906H137.637C137.469 109.906 137.349 110.05 137.349 110.193C137.349 110.337 137.469 110.48 137.637 110.48H140.923C141.786 110.48 143.009 110.48 143.057 110.767C143.297 112.846 143.465 114.686 143.849 116.359C143.969 116.885 143.033 116.789 142.05 116.789H137.805C137.637 116.789 137.517 116.933 137.517 117.076C137.517 117.22 137.637 117.363 137.805 117.363H142.05C143.369 117.363 144.065 117.363 144.136 117.65C145.959 124.318 153.777 129.552 161.38 129.265C167.903 129.026 173.419 125.489 176.249 123.218C180.014 120.207 185.53 113.921 187.76 109.357C188.168 108.52 188.84 107.445 188.672 106.704L188.744 106.823ZM144.88 97.9565C143.969 98.6974 142.53 99.5578 142.242 99.2949C141.858 98.9125 140.635 98.076 139.987 97.7892L145.432 87.8948C145.647 87.5363 145.911 87.3451 146.511 87.3451C148.621 87.3451 149.317 89.6394 148.333 92.4835C147.638 94.4911 146.511 96.642 144.88 97.9565V97.9565Z" fill="#552583"/>
<path d="M78.8561 77.4029C77.7529 78.8129 76.29 79.1714 74.6592 79.1714H74.2035L77.0814 73.4833C77.2253 73.2204 77.5131 73.0292 77.8968 73.0292C78.2805 73.0292 78.2086 72.3123 77.7529 72.3123H73.1963C72.8125 72.3123 72.6686 73.0292 73.0284 73.0292C73.4121 73.0292 73.484 73.4594 73.2922 73.8179L70.7021 78.8847C70.5342 79.1475 70.2464 79.2431 69.9346 79.3148C69.5509 79.4104 69.2871 80.1035 69.7188 80.1035H76.9855C77.5371 80.1035 77.681 79.8884 77.8249 79.6972L79.2878 77.4507C79.5036 77.1878 79.048 77.14 78.8561 77.4029Z" fill="#552583"/>
<path d="M100.704 72.5035C100.488 72.623 99.9608 72.6947 99.745 72.5035C99.1694 72.0255 98.0183 71.6431 97.4427 71.6431C95.7399 71.6431 94.4928 71.9777 93.7494 73.5789C93.1258 74.9412 93.7494 76.0884 95.2843 76.8054C95.9318 77.1161 96.7951 77.4985 96.4834 78.2872C96.2436 78.8608 95.572 78.9086 94.9725 78.9086C94.1571 78.9086 92.934 78.2872 92.7661 77.1639C92.6942 76.7815 92.2625 76.8771 92.1426 77.0683L91.1113 79.1236C90.9434 79.3865 91.3751 79.6972 91.543 79.5299C91.9027 79.1475 92.6462 79.0759 93.0299 79.3148C93.5335 79.6494 94.8766 80.2469 95.668 80.2469C97.3947 80.2469 98.5459 79.7928 99.5052 78.3111C100.369 76.9488 99.8409 75.6104 98.2581 74.8695C97.4187 74.4871 96.6992 73.794 97.0829 73.0292C97.3228 72.5274 98.0662 72.6469 98.4499 72.6947C99.1454 72.8141 100.057 73.4833 100.177 74.0569C100.225 74.2959 100.536 74.3437 100.68 74.1286L101.232 72.8619C101.352 72.623 100.944 72.4318 100.824 72.5035H100.704Z" fill="#552583"/>
<path d="M151.067 74.5349L151.691 73.3638C151.955 72.8619 151.523 72.2644 150.779 72.2644H142.314C141.714 72.2644 141.882 72.9097 142.122 72.9097C142.673 72.9097 142.817 73.5789 142.505 74.1286L139.963 78.8129C139.58 79.267 139.34 79.4582 138.788 79.4582C138.356 79.4582 138.189 80.1035 138.788 80.1035H147.374C147.734 80.1035 147.878 79.984 147.997 79.8167L149.173 78.2632C149.46 77.8808 148.837 77.8808 148.645 78.072C147.158 79.5538 145.575 79.506 144.424 79.506H143.417L144.592 76.9009H144.832C145.575 76.9009 146.463 76.9009 146.678 77.4745C146.75 77.6179 147.11 77.7135 147.254 77.4745L148.261 75.467C148.429 75.1802 147.973 75.1085 147.854 75.3236C147.446 76.0166 145.719 75.8493 145.263 75.8493H145.024L146.487 72.9575H148.117C149.125 72.9575 150.012 73.6745 150.3 74.4632C150.372 74.6544 150.899 74.7978 151.019 74.5588L151.067 74.5349Z" fill="#552583"/>
<path d="M129.387 72.2883H126.365C125.766 72.2883 125.934 72.9336 126.173 72.9336C126.821 72.9336 127.396 73.6984 127.061 74.3915L125.814 76.6619L123.056 72.6468C122.864 72.4078 122.432 72.2883 122.072 72.2883H119.099C118.499 72.2883 118.619 72.9097 118.883 72.9097C119.506 72.9097 119.338 73.3877 119.194 73.7223L116.82 78.2632C116.676 78.6217 116.029 78.6695 115.837 78.2154L114.014 72.2644C113.942 72.0254 112.863 72.0493 112.599 72.2644L108.019 76.0405H105.644C105.165 76.0405 104.997 76.2317 104.997 76.4946C104.997 76.7575 105.165 76.9726 105.668 76.9726H106.915L105.668 78.0003C104.973 78.5261 104.277 79.2192 103.798 79.2192H103.51C103.054 79.2192 102.814 79.2909 102.814 79.6494C102.814 80.0079 103.006 80.1274 103.438 80.1274H107.131C107.827 80.1274 107.683 79.2192 107.347 79.2192C106.963 79.2192 106.34 78.7412 106.915 78.0481L108.043 76.9726H110.273C111.592 76.9726 112.527 78.5022 111.736 78.9802L111.136 79.3148C110.849 79.4582 110.729 80.1274 111.136 80.1274H118.355C118.883 80.1274 118.787 79.4104 118.523 79.4104C117.779 79.4104 118.139 78.3588 118.283 78.072L120.178 74.4871L122.84 79.6494C123.008 79.984 123.176 80.1274 123.487 80.1274H124.519C124.854 80.1274 124.95 79.9362 125.094 79.6972L128.14 74.2242C128.62 73.2443 129.003 72.9575 129.627 72.9575C129.867 72.9575 130.058 72.3122 129.435 72.3122L129.387 72.2883ZM109.17 76.0166L112 73.7223V76.0166H109.17Z" fill="#552583"/>
<path d="M86.5784 71.9538C84.0362 71.9538 81.4222 73.1966 80.8945 75.8495C80.4389 78.1677 82.0457 80.5577 84.8756 80.5577C87.7056 80.5577 90.0798 78.7891 90.5834 76.2319C91.0871 73.6746 89.1685 71.9299 86.5784 71.9299V71.9538ZM87.2979 76.8294C86.4825 78.4306 85.1394 79.3866 84.2761 78.9564C83.4127 78.5262 83.3647 76.8772 84.1801 75.2759C84.9955 73.6746 86.3386 72.7186 87.2019 73.1488C88.0653 73.579 88.1133 75.2281 87.2979 76.8294Z" fill="#552583"/>
<path d="M137.997 75.8256H134.735C134.111 75.8256 134.303 76.4709 134.543 76.4709C134.783 76.4709 135.047 76.6143 135.047 77.0206C135.047 78.3351 134.495 78.837 133.344 78.837C132.097 78.837 131.641 77.3313 132.481 75.491C133.008 74.3199 134.423 73.2205 136.102 73.2205C137.133 73.2205 137.997 73.4356 138.116 74.3916C138.14 74.6306 138.5 74.6306 138.62 74.3916L139.388 73.0055C139.483 72.8621 139.34 72.6709 139.1 72.6709C138.908 72.6709 138.452 72.9099 138.164 72.6948C137.517 72.2168 136.078 71.7388 135.023 71.7388C133.272 71.7388 130.826 72.1451 129.171 74.9891C127.684 77.5703 129.843 80.3187 131.881 80.3187C133.008 80.3187 134.303 79.4822 135.047 79.1716L135.886 79.7451C136.006 79.8885 136.27 80.0797 136.534 80.0797H136.845C137.133 80.0797 137.253 79.6973 137.349 79.4344L138.62 76.3514C138.788 76.0407 138.692 75.8256 137.973 75.8256H137.997Z" fill="#552583"/>
<path d="M182.724 72.5035C182.508 72.623 181.98 72.6947 181.765 72.5035C181.189 72.0255 180.038 71.6431 179.462 71.6431C177.76 71.6431 176.512 71.9777 175.769 73.5789C175.145 74.9412 175.769 76.0884 177.304 76.8054C177.951 77.1161 178.815 77.4985 178.503 78.2872C178.263 78.8608 177.592 78.9086 176.992 78.9086C176.177 78.9086 174.954 78.2872 174.762 77.1639C174.69 76.7815 174.258 76.8771 174.138 77.0683L173.107 79.1236C172.939 79.3865 173.371 79.6972 173.539 79.5299C173.898 79.1475 174.642 79.0759 175.026 79.3148C175.529 79.6494 176.872 80.2469 177.664 80.2469C179.39 80.2469 180.541 79.7928 181.501 78.3111C182.364 76.9488 181.837 75.6104 180.254 74.8695C179.414 74.4871 178.695 73.794 179.079 73.0292C179.318 72.5274 180.062 72.6469 180.446 72.6947C181.141 72.8141 182.052 73.4833 182.172 74.0569C182.22 74.2959 182.532 74.3437 182.676 74.1286L183.228 72.8619C183.347 72.623 182.94 72.4318 182.82 72.5035H182.724Z" fill="#552583"/>
<path d="M160.012 77.4029C158.909 78.8129 157.446 79.1714 155.815 79.1714H155.36L158.238 73.4833C158.382 73.2204 158.669 73.0292 159.053 73.0292C159.437 73.0292 159.365 72.3123 158.885 72.3123H154.329C153.945 72.3123 153.801 73.0292 154.161 73.0292C154.544 73.0292 154.616 73.4594 154.425 73.8179L151.834 78.8847C151.667 79.1475 151.379 79.2431 151.067 79.3148C150.683 79.4104 150.419 80.1035 150.851 80.1035H158.118C158.669 80.1035 158.813 79.8884 158.957 79.6972L160.42 77.4507C160.636 77.1878 160.18 77.14 159.988 77.4029H160.012Z" fill="#552583"/>
<path d="M170.972 72.9575C171.98 72.9575 172.867 73.6745 173.155 74.4632C173.227 74.6544 173.754 74.7978 173.874 74.5588L174.498 73.3877C174.762 72.8858 174.33 72.2883 173.587 72.2883H165.121C164.521 72.2883 164.689 72.9336 164.929 72.9336C165.48 72.9336 165.624 73.6028 165.313 74.1525L162.77 78.8368C162.387 79.2909 162.147 79.4821 161.595 79.4821C161.164 79.4821 160.996 80.1274 161.595 80.1274H170.181C170.541 80.1274 170.685 80.0079 170.805 79.8406L171.98 78.2871C172.267 77.9047 171.644 77.9047 171.452 78.0959C169.965 79.5777 168.382 79.5299 167.231 79.5299H166.224L167.399 76.9249H167.639C168.406 76.9249 169.27 76.9249 169.486 77.4984C169.557 77.6418 169.917 77.7374 170.061 77.4984L171.068 75.4909C171.236 75.2041 170.781 75.1324 170.661 75.3475C170.253 76.0406 168.526 75.8733 168.071 75.8733H167.831L169.294 72.9814H170.924L170.972 72.9575Z" fill="#552583"/>
<path d="M137.59 66.1222C136.942 65.3813 136.031 63.78 129.58 58.1636C120.083 49.9182 107.492 46.1421 95.6444 46.1421C86.9148 46.1421 79.2884 48.1019 70.8466 52.7384C60.0785 58.6416 55.6177 65.4291 54.5146 66.8153C53.6992 67.819 53.5792 68.4165 54.1069 68.7272C54.4906 68.9423 55.21 68.1536 55.8816 67.2694C59.0952 63.063 63.2921 58.8806 67.7289 56.4189C69.0959 56.6101 71.0384 58.5221 71.7819 59.5498C68.952 61.1033 64.2514 64.6643 62.4527 66.0266C60.9179 67.2216 60.3903 67.8668 60.798 68.3687C61.1337 68.775 62.3088 67.9863 63.2921 67.1738C64.9949 65.7876 70.0552 62.2026 72.5733 60.8643C74.2761 62.8479 73.7245 66.5285 73.1249 67.3172C72.8131 67.7473 72.7652 68.2014 73.1249 68.4165C73.4847 68.6077 73.8684 68.1058 74.348 67.3889C75.4992 65.7159 75.0435 61.6768 74.0363 60.219C77.082 58.3309 81.4708 57.0642 84.1329 56.4667C84.3487 56.8969 87.5863 66.2656 88.1859 67.9624C88.5216 68.8945 88.8574 70.0178 89.5289 69.8027C89.9846 69.6593 89.6728 68.6316 89.3131 67.6279C88.8334 66.3612 86.4112 58.4743 85.6437 56.156C86.5311 55.678 91.8072 54.6026 93.1263 54.6743C92.4787 58.0919 94.901 59.502 97.6589 61.3184C99.1219 62.2743 108.427 67.604 110.37 68.7989C111.473 69.492 112.336 69.9222 112.576 69.5876C112.84 69.2291 112.096 68.4404 111.065 67.8429C110.25 67.365 101.592 62.3699 97.9947 60.0995C95.4046 58.4743 94.0136 56.7296 94.6372 54.4353C95.5005 54.1963 98.0906 54.1724 100.801 54.1963C119.243 54.3397 134.016 64.8794 135.671 66.5763C136.51 67.4367 137.686 68.1775 138.117 67.819C138.405 67.604 137.901 66.6241 137.518 66.17L137.59 66.1222ZM73.2928 58.8567C72.7892 58.0202 70.4629 55.8931 69.1918 55.4868C72.1416 53.312 79.0246 50.1811 81.6147 49.6314C82.0704 50.3723 83.2695 53.551 83.6772 54.8894C81.3749 55.3912 75.2594 57.5661 73.2928 58.8567V58.8567ZM93.438 52.9535C91.0398 53.0969 86.675 54.0529 85.1161 54.4831C84.7084 53.4315 83.6052 50.205 83.2695 49.1773C87.7062 47.9346 92.8385 47.4805 96.7956 47.839C95.6924 48.6754 93.8457 52.0214 93.438 52.9535ZM105.405 52.8101C101.4 52.5233 98.1386 52.4038 95.2847 52.7145C96.1001 50.6352 97.7549 48.6993 99.0499 47.839C101.784 47.9585 104.59 48.3409 106.82 48.7949C113.943 50.205 125.047 54.5309 129.819 60.9121C123.464 56.6818 112.864 53.3359 105.405 52.8101V52.8101Z" fill="#061922"/>
<path d="M141.571 129.026C142.242 127.783 142.818 127.066 142.218 126.732C141.691 126.445 141.163 127.592 140.515 128.715C138.357 132.444 136.007 135.527 130.707 140.354C124.807 145.708 118.044 148.791 115.694 149.604C113.679 143.987 106.053 120.064 105.837 119.394C105.525 118.367 105.285 118.08 104.925 118.2C104.542 118.343 104.782 118.893 104.973 119.801C105.165 120.685 114.279 148.982 114.566 149.986C112.768 150.87 105.429 152.926 100.321 153.093C95.7642 153.236 90.3921 153.093 87.6821 152.472C84.5164 149.914 77.2977 139.757 74.5637 134.356C71.3261 127.998 69.1916 122.119 68.64 119.633C68.3762 118.438 68.0405 117.578 67.4409 117.698C66.7934 117.817 67.1531 118.773 67.5368 120.04C68.4961 123.314 70.079 127.951 73.4605 134.571C77.0099 141.573 83.3892 149.795 85.2359 152.041C79.4321 150.822 72.3573 148.122 65.6662 143.127C59.8864 138.825 54.9221 133.376 52.4279 129.385C51.9962 128.691 51.4926 127.735 50.869 128.142C50.5813 128.333 50.941 129.098 51.3727 129.886C54.994 136.387 63.8435 145.565 75.1872 150.607C88.4016 156.487 102.791 156.176 115.67 151.205C126.941 146.855 136.726 137.917 141.571 129.05V129.026Z" fill="#061922"/>
<path d="M137.59 66.1222C136.942 65.3813 136.031 63.78 129.58 58.1636C120.083 49.9182 107.492 46.1421 95.6444 46.1421C86.9148 46.1421 79.2884 48.1019 70.8466 52.7384C60.0785 58.6416 55.6177 65.4291 54.5146 66.8153C53.6992 67.819 53.5792 68.4165 54.1069 68.7272C54.4906 68.9423 55.21 68.1536 55.8816 67.2694C59.0952 63.063 63.2921 58.8806 67.7289 56.4189C69.0959 56.6101 71.0384 58.5221 71.7819 59.5498C68.952 61.1033 64.2514 64.6643 62.4527 66.0266C60.9179 67.2216 60.3903 67.8668 60.798 68.3687C61.1337 68.775 62.3088 67.9863 63.2921 67.1738C64.9949 65.7876 70.0552 62.2026 72.5733 60.8643C74.2761 62.8479 73.7245 66.5285 73.1249 67.3172C72.8131 67.7473 72.7652 68.2014 73.1249 68.4165C73.4847 68.6077 73.8684 68.1058 74.348 67.3889C75.4992 65.7159 75.0435 61.6768 74.0363 60.219C77.082 58.3309 81.4708 57.0642 84.1329 56.4667C84.3487 56.8969 87.5863 66.2656 88.1859 67.9624C88.5216 68.8945 88.8574 70.0178 89.5289 69.8027C89.9846 69.6593 89.6728 68.6316 89.3131 67.6279C88.8334 66.3612 86.4112 58.4743 85.6437 56.156C86.5311 55.678 91.8072 54.6026 93.1263 54.6743C92.4787 58.0919 94.901 59.502 97.6589 61.3184C99.1219 62.2743 108.427 67.604 110.37 68.7989C111.473 69.492 112.336 69.9222 112.576 69.5876C112.84 69.2291 112.096 68.4404 111.065 67.8429C110.25 67.365 101.592 62.3699 97.9947 60.0995C95.4046 58.4743 94.0136 56.7296 94.6372 54.4353C95.5005 54.1963 98.0906 54.1724 100.801 54.1963C119.243 54.3397 134.016 64.8794 135.671 66.5763C136.51 67.4367 137.686 68.1775 138.117 67.819C138.405 67.604 137.901 66.6241 137.518 66.17L137.59 66.1222ZM73.2928 58.8567C72.7892 58.0202 70.4629 55.8931 69.1918 55.4868C72.1416 53.312 79.0246 50.1811 81.6147 49.6314C82.0704 50.3723 83.2695 53.551 83.6772 54.8894C81.3749 55.3912 75.2594 57.5661 73.2928 58.8567V58.8567ZM93.438 52.9535C91.0398 53.0969 86.675 54.0529 85.1161 54.4831C84.7084 53.4315 83.6052 50.205 83.2695 49.1773C87.7062 47.9346 92.8385 47.4805 96.7956 47.839C95.6924 48.6754 93.8457 52.0214 93.438 52.9535ZM105.405 52.8101C101.4 52.5233 98.1386 52.4038 95.2847 52.7145C96.1001 50.6352 97.7549 48.6993 99.0499 47.839C101.784 47.9585 104.59 48.3409 106.82 48.7949C113.943 50.205 125.047 54.5309 129.819 60.9121C123.464 56.6818 112.864 53.3359 105.405 52.8101V52.8101Z" fill="#061922"/>
<path d="M141.571 129.026C142.242 127.783 142.818 127.066 142.218 126.732C141.691 126.445 141.163 127.592 140.515 128.715C138.357 132.444 136.007 135.527 130.707 140.354C124.807 145.708 118.044 148.791 115.694 149.604C113.679 143.987 106.053 120.064 105.837 119.394C105.525 118.367 105.285 118.08 104.925 118.2C104.542 118.343 104.782 118.893 104.973 119.801C105.165 120.685 114.279 148.982 114.566 149.986C112.768 150.87 105.429 152.926 100.321 153.093C95.7642 153.236 90.3921 153.093 87.6821 152.472C84.5164 149.914 77.2977 139.757 74.5637 134.356C71.3261 127.998 69.1916 122.119 68.64 119.633C68.3762 118.438 68.0405 117.578 67.4409 117.698C66.7934 117.817 67.1531 118.773 67.5368 120.04C68.4961 123.314 70.079 127.951 73.4605 134.571C77.0099 141.573 83.3892 149.795 85.2359 152.041C79.4321 150.822 72.3573 148.122 65.6662 143.127C59.8864 138.825 54.9221 133.376 52.4279 129.385C51.9962 128.691 51.4926 127.735 50.869 128.142C50.5813 128.333 50.941 129.098 51.3727 129.886C54.994 136.387 63.8435 145.565 75.1872 150.607C88.4016 156.487 102.791 156.176 115.67 151.205C126.941 146.855 136.726 137.917 141.571 129.05V129.026Z" fill="#061922"/>
</g>
</g>
<defs>
<clipPath id="clip0_38_40381">
<rect width="200" height="200" fill="white"/>
</clipPath>
<clipPath id="clip1_38_40381">
<rect width="194.545" height="120" fill="white" transform="translate(3 40)"/>
</clipPath>
</defs>
</svg>
