<svg width="200" height="200" viewBox="0 0 200 200" fill="none" xmlns="http://www.w3.org/2000/svg">
<g clip-path="url(#clip0_38_40393)">
<g clip-path="url(#clip1_38_40393)">
<path d="M99.6753 180.023L86.6843 162.939C70.1378 157.406 58.6169 142.293 57.5571 124.69L49.489 114.073C41.8311 117.428 34.1391 122.719 34.1391 122.719L9.93479 98.1308L20.1225 75.5137L1.8667 51.5478H30.8913L36.498 39.1672L50.8564 33.2881L52.4632 28.8961L64.1209 34.291L66.8901 24.5041L68.8045 23.8816C78.0008 20.7692 88.5987 19.1092 99.4701 19.04C99.7778 19.04 103.231 19.0746 103.333 19.0746C103.743 19.0746 105.419 19.1784 105.419 19.1784C114.615 19.6279 123.264 21.1842 131.093 23.7779L133.007 24.4349L135.537 33.7723L139.742 30.5561L163.263 39.0289L168.938 51.5824H198.099L179.672 75.652L189.723 97.9579L165.143 123.549C165.143 123.549 156.118 116.909 149.964 114.419L142.546 124.068C141.691 142.086 129.589 157.89 112.53 163.216L99.6411 180.023H99.6753Z" fill="white"/>
<path d="M99.7093 168.161L183.535 58.8103H16.396L99.7093 168.161Z" fill="#929799"/>
<path d="M9.52441 55.3865L99.7093 173.763L190.475 55.3865H9.52441ZM183.57 58.8102L99.7093 168.161L16.396 58.8102H183.535H183.57Z" fill="#00438C"/>
<path d="M171.433 66.4185V66.3494H171.331L165.963 62.649L167.946 58.7757L168.015 58.672V58.5337L160.562 42.176V42.0723H160.425L140.528 34.8445H140.289L135.024 38.9598H134.956V39.0636L134.033 41.3115C134.033 41.3115 125.794 39.2019 113.657 37.9915C112.427 37.8532 109.145 37.5765 103.846 37.1615H103.333L102.82 37.0924H102.683L102.581 37.1615L98.6494 41.1385V37.0578C98.6494 37.0578 87.5045 37.6803 80.1886 38.6832C72.8726 39.6861 65.6933 41.5189 65.6933 41.5189L64.3601 38.6486V38.5448H64.2233L54.8219 34.1528L54.5484 34.0491L54.4459 34.3257L53.3519 37.3344L53.1126 36.7465L53.01 36.5044L52.7707 36.6082L39.3353 42.0723H39.2327V42.2106L14.4473 97.3355L34.7884 117.947L35.7457 117.394C36.361 117.048 37.2157 116.529 38.2071 115.941C40.6686 114.489 44.0531 112.448 45.6599 111.687L46.0017 111.514C48.0871 110.477 49.1469 109.993 59.0269 105.705L59.8474 105.393C59.8474 105.393 60.9756 104.944 62.9926 104.287C68.4283 102.454 82.5475 98.2001 96.2222 98.2001H96.3589C96.9059 98.2001 97.4529 98.2001 97.9999 98.2001C107.299 98.4768 118.136 100.448 125.623 102.073C132.802 103.63 138.238 105.151 139.776 105.601L140.802 105.912C147.605 108.575 155.947 112.967 163.639 117.947L164.63 118.569L185.245 97.0934L171.467 66.3494L171.433 66.4185Z" fill="#00438C"/>
<path d="M169.245 68.3205L149.451 54.937L145.998 45.1501L152.118 47.3634L154.579 53.4845L163.912 56.4932L158.477 44.3201L140.87 37.9915L137.657 40.516L143.503 59.744L162.34 73.1967L167.16 85.3698L159.331 81.8078L156.63 74.2342L147.024 71.3638L152.152 88.4823C153.725 89.0702 155.297 89.6927 156.87 90.3152C161.143 92.0789 165.348 94.0155 169.416 96.1251C172.254 97.5776 175.057 99.1684 177.792 100.794L181.895 96.5401L169.211 68.286L169.245 68.3205Z" fill="#F58426"/>
<path d="M35.6776 77.3811L42.2756 71.4328L43.8482 73.3003L37.3185 92.2516C40.874 90.6608 44.4978 89.2084 48.1899 87.8942L52.9077 72.2628L48.8395 65.45L57.2836 57.3231L62.2066 40.6887L56.1555 37.9221L50.7198 53.5881L42.0021 61.1963L49.9677 40.8617L41.421 44.3199L17.832 96.6437L21.5242 100.379C23.7122 99.099 25.9343 97.8541 28.1906 96.6782L35.7117 77.3811H35.6776Z" fill="#F58426"/>
<path d="M95.4021 40.1008L88.1545 40.4812L84.77 79.7327C87.8468 79.4214 90.9236 79.2485 94.0347 79.1448L95.3679 40.1354L95.4021 40.1008Z" fill="#F58426"/>
<path d="M116.837 71.5713L108.427 71.0526L107.094 47.0175L114.205 47.3634L113.384 40.7581L103.812 40.0664L99.5386 44.3893V74.4417L104.017 79.0758C108.666 79.2141 113.248 79.5599 117.76 80.1132L116.837 71.5367V71.5713Z" fill="#F58426"/>
<path d="M69.283 55.5595L72.3257 70.4647L70.377 81.7732C73.3171 81.2199 76.2572 80.7012 79.2656 80.3208L83.9492 40.9656L77.2486 41.9685L75.0606 54.8678L72.565 42.7293L64.6678 44.7351L53.6938 86.0615C56.8732 85.0586 60.0526 84.1594 63.3003 83.364L69.3514 55.5941L69.283 55.5595Z" fill="#F58426"/>
<path d="M127.64 69.3925L129.999 66.1763L133.452 69.0466L136.631 83.6751C139.982 84.5397 143.264 85.4734 146.511 86.5455L140.597 65.0696L134.478 60.0205L137.965 55.3173L135.059 44.4237L127.674 42.7637L130.58 53.7265L125.999 59.9168L122.615 41.8646L115.777 41C115.777 41 119.196 67.4558 120.803 80.4935C123.88 80.9431 126.956 81.4618 129.999 82.1189L127.64 69.3579V69.3925Z" fill="#F58426"/>
<path d="M85.8298 87.1682C85.8298 87.1682 88.6673 85.4736 94.3765 84.8511L94.2056 80.3208C91.0946 80.4245 87.9836 80.632 84.9067 80.9087C85.1802 82.6724 85.5905 85.3353 85.864 87.1682" fill="#929799"/>
<path d="M103.915 84.5744C106.239 84.8511 108.701 85.6119 110.889 86.2344C112.871 86.7185 114.991 87.5831 116.7 88.3439L117.658 81.3582C113.077 80.8049 108.769 80.459 104.085 80.2861C104.017 81.6349 104.017 83.5369 103.949 84.5398" fill="#929799"/>
<path d="M73.9666 95.6408C76.599 93.635 78.2058 91.5946 81.0091 89.8655C80.4963 87.3409 79.7784 84.0555 79.2656 81.531C76.2229 81.946 73.2145 82.4302 70.2402 83.0181C71.3684 86.7876 72.8384 91.8021 73.9666 95.6062" fill="#929799"/>
<path d="M118.991 89.7273C121.589 91.2489 123.572 92.9435 125.896 95.226L126.341 95.5718L129.999 83.3987C126.854 82.7416 123.811 82.1883 120.632 81.7041L119.025 89.7273H118.991Z" fill="#929799"/>
<path d="M130.478 100.31L139.161 102.385L146.443 87.7907C143.092 86.684 139.845 85.7503 136.392 84.8857L130.478 100.31V100.31Z" fill="#929799"/>
<path d="M60.7021 102.384C62.9585 101.554 66.1378 100.379 69.0779 99.5832L63.4371 84.5051C60.0184 85.3351 57.0783 86.1997 53.7622 87.2717C55.8476 92.3208 58.2065 97.5082 60.7021 102.35" fill="#929799"/>
<path d="M47.6085 107.814C48.1213 107.399 53.0442 105.22 56.3946 103.802C53.8305 99.0991 50.7537 93.9463 48.1897 89.1738C44.5317 90.488 41.1814 91.8713 37.626 93.4621L47.6085 107.814Z" fill="#929799"/>
<path d="M35.3357 114.419C36.9083 113.451 38.5493 112.483 40.3954 111.411L28.8744 97.6812C26.6864 98.8224 24.5327 100.033 22.3789 101.278L35.3015 114.419H35.3357Z" fill="#929799"/>
<path d="M143.776 104.183C150.682 106.88 160.357 112.379 164.186 114.973C165.964 113.244 175.57 103.042 176.903 101.658C168.904 96.9205 160.528 92.8743 151.776 89.6235L143.776 104.183V104.183Z" fill="#929799"/>
<path d="M102.581 84.3323L99.2993 84.2285L99.231 76.1016L102.65 79.6982L102.581 84.3323Z" fill="#929799"/>
<path d="M100.051 82.7415C78.6159 82.7415 61.2148 100.344 61.2148 122.027C61.2148 143.711 78.6159 161.313 100.051 161.313C121.486 161.313 138.887 143.711 138.887 122.027C138.887 100.344 121.486 82.7415 100.051 82.7415Z" fill="#00438C"/>
<path d="M102.445 85.6811C99.4704 86.7186 96.5987 88.2749 93.7612 89.589C91.8125 88.4132 90.7185 88.1019 89.3853 87.272C93.4535 85.7849 97.8636 85.5428 102.445 85.6811" fill="#F58426"/>
<path d="M130.238 102.35C121.076 93.0127 107.367 93.7043 95.7095 90.3844C95.7095 90.3844 102.547 87.099 106.102 86.1653C115.606 87.7907 124.837 93.566 130.238 102.315" fill="#F58426"/>
<path d="M78.8214 103.733C70.0354 117.393 68.8388 134.166 75.8471 148.898C66.7876 141.221 61.4203 126.316 65.4885 111.895C68.8046 107.191 73.078 103.042 78.8556 103.733" fill="#F58426"/>
<path d="M88.2226 113.451C92.9745 127.699 94.0002 143.469 106.273 157.821C96.7009 159.792 87.2312 156.887 79.6759 152.045C70.3087 138.247 71.1975 117.635 80.5647 104.217C85.1116 105.531 87.6072 111.583 88.2226 113.451" fill="#F58426"/>
<path d="M81.6587 102.73C83.0945 100.69 84.6671 98.7878 86.479 96.9895C106.376 102.661 125.349 123.549 128.597 144.022C127.64 145.578 125.384 147.722 123.845 149.279C118.888 153.774 113.452 156.091 108.222 157.371C98.923 147.619 95.8804 134.961 92.5985 122.512C90.0687 112.932 88.3251 105.704 81.6587 102.799V102.73V102.73Z" fill="#F58426"/>
<path d="M128.119 102.661C118.512 94.0846 105.111 95.1913 93.8978 91.1797C91.7098 92.5284 89.5902 94.1192 87.8125 95.7446C107.709 102.073 125.76 121.716 130.067 142.051C133.178 137.486 135.059 132.195 135.845 126.592C136.324 117.981 136.255 110.131 128.153 102.627" fill="#F58426"/>
<path d="M84.8382 96.3671C82.9237 98.2346 81.4879 100.067 79.9836 102.212H79.9494C74.6847 101.001 70.5139 103.768 67.1978 107.192C68.8045 103.145 72.1207 98.3038 75.6761 95.1567C78.9238 95.2951 81.3169 95.2605 84.8724 96.3671" fill="#F58426"/>
<path d="M86.2396 95.1221C88.1199 93.4275 89.9318 91.9405 92.2223 90.5572L87.1285 87.998C83.744 89.4159 80.086 91.2142 77.5903 93.5313C81.4534 93.9809 83.0944 94.2229 86.2396 95.0875" fill="#F58426"/>
<path d="M94.5472 34.5677L92.9746 36.1585L90.2738 36.3315L89.2824 35.4669L88.0175 36.5389L85.0774 36.8156L83.7783 35.5706L85.4535 23.9508L87.6756 23.6396L86.4791 33.8761L88.0517 33.7032L89.2824 23.4321L91.4704 23.2246L90.5473 33.4265L92.1199 33.2882L92.9062 23.1554C93.8293 23.0517 94.3079 23.0517 95.1284 23.0171L94.4788 34.6023L94.5472 34.5677Z" fill="#00438C"/>
<path d="M101.727 22.8442V30.1412H103.162L103.094 22.8788C103.094 22.8788 104.564 22.9134 105.248 22.9826L105.521 31.1787L104.154 32.562H103.709L103.778 36.0894L101.385 36.0203V32.5274H100.872L99.4019 30.9712L99.5044 22.8442C100.291 22.8442 101.761 22.8788 101.761 22.8788" fill="#00438C"/>
<path d="M83.881 24.1929L83.505 26.5791L80.8042 27.0978L80.3256 29.899C81.317 29.7261 81.8982 29.6224 83.0947 29.484C82.9238 30.5215 82.8896 30.9019 82.7187 31.8702L80.0179 32.2507L79.5051 34.9481L82.2742 34.5331C82.2742 34.5331 82.0007 36.3314 81.864 37.1614C79.9153 37.4035 78.0009 37.6801 76.1206 38.026C76.1206 38.026 78.206 28.2736 78.7188 25.2995L83.881 24.2275V24.1929Z" fill="#00438C"/>
<path d="M73.7618 38.441L70.9585 38.9943L72.2576 33.6685L71.4029 31.7665L69.2149 39.4093L66.48 40.0318C67.6081 35.8818 68.7705 31.7665 69.9329 27.6166C70.8559 27.3053 71.5738 27.0632 72.3943 26.8212C72.702 27.5128 73.4199 28.9307 73.4199 28.9307L74.0695 26.337C74.0695 26.337 75.813 25.8528 76.6677 25.6799L73.7618 38.4064V38.441Z" fill="#00438C"/>
<path d="M113.076 25.0921C113.35 28.412 113.897 31.5936 114.239 34.7061L113.008 36.6081L109.042 36.3315L107.607 34.7753C107.367 31.3861 107.196 27.9624 106.957 24.5733C107.333 24.0892 107.88 23.7088 108.325 23.2246L111.606 23.5359L113.042 25.0921H113.076ZM109.384 25.6454L110.102 33.5649L111.504 33.6686L110.786 25.7837L109.418 25.6454H109.384Z" fill="#00438C"/>
<path d="M125.862 26.2679C126.341 28.17 127.332 32.0778 127.332 32.0778L128.255 32.2853L128.7 31.6628L127.537 26.7867C127.537 26.7867 128.7 27.1325 129.931 27.5129L131.161 32.2161L130.58 33.0807L131.674 34.2911L133.315 40.0319L130.614 39.4094L129.555 35.3632L127.879 34.9828L128.802 38.9944L126.067 38.441C125.11 34.1182 123.367 25.6108 123.367 25.6108C123.367 25.6108 124.768 25.8875 125.862 26.2679" fill="#00438C"/>
<path d="M121.589 26.752L122.478 31.4899L121.965 32.2161L122.888 33.3228L123.674 38.026L121.042 37.5765L120.324 33.634L118.751 33.4611L119.298 37.2998L116.666 36.954L114.922 23.9163L119.948 24.8154L121.589 26.7175V26.752ZM117.794 26.925L118.273 30.2449L119.777 30.4178L119.162 27.2016L117.828 26.9595L117.794 26.925Z" fill="#00438C"/>
</g>
</g>
<defs>
<clipPath id="clip0_38_40393">
<rect width="200" height="200" fill="white"/>
</clipPath>
<clipPath id="clip1_38_40393">
<rect width="196.267" height="160.983" fill="white" transform="translate(1.8667 19.04)"/>
</clipPath>
</defs>
</svg>
