<svg width="200" height="200" viewBox="0 0 200 200" fill="none" xmlns="http://www.w3.org/2000/svg">
<g clip-path="url(#clip0_38_40397)">
<g clip-path="url(#clip1_38_40397)">
<path d="M75.6174 96.1144C90.2649 93.8855 104.912 94.544 117.723 99.9138L119.279 96.4944C98.5584 89.8834 72.5041 90.2127 53.1102 100.75L58.6477 88.0091C34.2266 94.5694 17.8183 108.222 1.3335 122.28C13.3526 94.0881 39.5089 70.8864 69.0847 62.4771L67.5791 67.163C93.4802 58.779 121.908 57.1833 144.9 60.9573L139.515 53.9918L152.708 57.3353L161.206 44.7466L164.574 60.3241L177.563 64.5035C177.563 64.5035 168.096 68.4295 168.555 68.6068C217.729 88.7183 201.984 155.512 155.235 155.866C131.579 156.069 113.231 134.843 114.048 112.654C102.029 104.802 89.9587 101.028 75.6429 96.1144" fill="#BBC4CA"/>
<path d="M163.681 68.632C166.386 67.4669 171.439 65.2632 171.439 65.2632L171.821 65.1112L171.439 64.9846C171.439 64.9846 163.324 62.325 161.563 61.7678C161.308 59.9441 160.006 51.1801 160.006 51.1801L159.955 50.7495L156.995 55.5114C156.995 55.5114 155.311 58.2217 154.392 59.6908C152.479 59.2095 144.083 57.0818 144.083 57.0818L143.649 56.9805L143.93 57.3351C143.93 57.3351 147.349 61.6918 149.416 64.3514C140.97 62.5276 131.222 61.5145 120.045 61.5145C116.37 61.5145 112.568 61.6158 108.587 61.8438C93.3525 62.705 78.3733 65.5165 63.9809 70.6837L65.6141 65.8205L65.3079 65.9218C42.8007 72.9127 18.1755 93.8347 7.30469 114.554L7.55987 114.731C22.9474 100.42 43.7704 88.9715 62.4243 84.8175L57.5248 96.165L57.9076 95.9877C66.5838 91.8337 77.9905 89.9846 89.4993 89.9846C101.263 89.9846 113.155 91.9097 122.316 95.2278L118.794 102.852C110.424 99.0525 98.3286 96.4689 88.2744 96.4689C86.4881 96.4689 84.7529 96.5449 83.1452 96.7222V97.0262C94.9857 100.344 107.26 104.118 117.008 111.844C116.957 112.654 116.931 113.49 116.931 114.301C116.931 134.691 134.667 153.131 155.464 153.131C155.592 153.131 155.745 153.131 155.898 153.131C178.813 152.852 195.809 131.981 195.809 110.248C195.809 94.2146 186.571 77.6999 163.732 68.632H163.681Z" fill="#130C0E"/>
<path d="M151.178 105.967C142.705 105.967 134.233 102.877 125.736 99.7871C123.49 104.498 122.342 109.438 122.342 114.453C122.342 117.112 122.674 119.823 123.311 122.508C124.026 122.508 124.715 122.508 125.43 122.508C141.863 122.508 159.292 117.974 173.378 109.691C171.745 106.702 169.755 103.89 167.662 101.206C162.176 104.65 156.689 105.942 151.178 105.942V105.967Z" fill="#BBC4CA"/>
<path d="M124.842 125.699H124.281C129.41 138.896 141.199 147.634 155.566 147.812C160.16 136.565 165.263 124.281 176.925 118.531C176.313 116.505 175.573 114.529 174.731 112.579C159.7 121.292 142.169 125.674 124.817 125.674L124.842 125.699Z" fill="#BBC4CA"/>
<path d="M160.338 84.3109C155.235 82.3858 151.968 81.7779 151.662 81.7273C150.233 81.9299 148.294 82.1072 146.737 82.4112C155.413 85.8306 161.818 90.01 168.275 97.1275C171.592 94.5186 174.501 91.5804 176.517 87.9836C170.622 82.2845 159.496 75.2936 131.758 73.1406C143.471 75.9015 154.239 79.6249 160.517 84.0576L160.364 84.3362L160.338 84.3109Z" fill="#BBC4CA"/>
<path d="M82.584 80.4863C84.2937 80.461 86.1565 80.4356 88.1215 80.4356C107.822 80.4356 138.239 82.7406 150.029 96.6464L149.825 96.8744C145.742 94.6201 137.576 90.8713 132.498 90.8713C132.345 90.8713 132.166 90.8713 132.013 90.8713C130.252 92.7963 128.721 94.8987 127.318 97.1023C135.203 99.9899 143.19 102.852 151.101 102.852C156.077 102.852 161.002 101.738 165.901 98.7741C152.224 83.9817 129.104 77.5481 107.286 77.5481C98.6095 77.5481 90.1629 78.5613 82.584 80.4863V80.4863Z" fill="#BBC4CA"/>
<path d="M175.828 108.171C179.63 105.588 182.922 102.903 185.933 99.458C184.045 95.9119 180.804 91.9098 178.456 89.8582C176.287 93.6576 173.506 96.7984 170.112 99.5593C172.102 102.194 174.195 105.258 175.828 108.171V108.171Z" fill="#BBC4CA"/>
<path d="M158.909 147.685C165.825 146.849 172.204 144.493 177.563 139.985C178.38 136.945 178.737 133.804 178.737 130.638C178.737 127.472 178.405 124.61 177.869 121.672C167.432 126.662 163.094 137.604 158.909 147.685V147.685Z" fill="#BBC4CA"/>
<path d="M181.825 132.665C181.825 133.703 181.799 134.742 181.748 135.78C185.806 130.334 187.975 125.598 189.2 118.607C186.24 118.86 183.305 119.367 180.498 120.279C181.417 124.382 181.825 128.511 181.825 132.639V132.665Z" fill="#BBC4CA"/>
<path d="M177.257 111.033C178.175 113.11 178.992 115.213 179.707 117.391C182.973 116.327 186.112 115.795 189.506 115.593C189.506 115.339 189.506 115.111 189.506 114.883C189.506 110.425 188.842 106.981 187.388 102.725C184.274 105.892 180.983 108.576 177.282 111.059L177.257 111.033Z" fill="#BBC4CA"/>
<path d="M189.506 115.593C186.112 115.795 182.973 116.327 179.707 117.391C178.992 115.238 178.175 113.11 177.257 111.033C180.957 108.576 184.249 105.866 187.362 102.7C188.817 106.981 189.48 110.4 189.48 114.858C189.48 115.086 189.48 115.339 189.48 115.567L189.506 115.593Z" fill="#BBC4CA"/>
<path d="M189.506 115.593C186.112 115.795 182.973 116.327 179.707 117.391C178.992 115.238 178.175 113.11 177.257 111.033C180.957 108.576 184.249 105.866 187.362 102.7C188.817 106.981 189.48 110.4 189.48 114.858C189.48 115.086 189.48 115.339 189.48 115.567L189.506 115.593Z" fill="#BBC4CA"/>
<path d="M178.456 89.8582C180.778 91.9098 184.045 95.8865 185.933 99.458C182.948 102.903 179.656 105.613 175.828 108.171C174.22 105.258 172.102 102.194 170.112 99.5593C173.506 96.7984 176.287 93.6576 178.456 89.8582V89.8582Z" fill="#BBC4CA"/>
<path d="M178.456 89.8582C180.778 91.9098 184.045 95.8865 185.933 99.458C182.948 102.903 179.656 105.613 175.828 108.171C174.22 105.258 172.102 102.194 170.112 99.5593C173.506 96.7984 176.287 93.6576 178.456 89.8582V89.8582Z" fill="#BBC4CA"/>
<path d="M131.758 73.1154C159.496 75.2937 170.622 82.2593 176.517 87.9584C174.501 91.5805 171.592 94.5187 168.275 97.1023C161.844 89.9847 155.413 85.8054 146.737 82.3859C148.294 82.082 150.233 81.8794 151.662 81.7021C151.968 81.7527 155.209 82.3606 160.338 84.2856L160.492 84.007C154.24 79.5997 143.445 75.8763 131.732 73.0901L131.758 73.1154Z" fill="#BBC4CA"/>
<path d="M131.758 73.1154C159.496 75.2937 170.622 82.2593 176.517 87.9584C174.501 91.5805 171.592 94.5187 168.275 97.1023C161.844 89.9847 155.413 85.8054 146.737 82.3859C148.294 82.082 150.233 81.8794 151.662 81.7021C151.968 81.7527 155.209 82.3606 160.338 84.2856L160.492 84.007C154.24 79.5997 143.445 75.8763 131.732 73.0901L131.758 73.1154Z" fill="#BBC4CA"/>
<path d="M125.43 122.533C124.715 122.533 124.026 122.533 123.311 122.533C122.648 119.848 122.342 117.138 122.342 114.478C122.342 109.463 123.49 104.524 125.736 99.8125C134.233 102.903 142.705 105.993 151.178 105.993C156.664 105.993 162.176 104.701 167.662 101.256C169.755 103.941 171.771 106.753 173.378 109.742C159.292 118.024 141.863 122.558 125.43 122.558V122.533Z" fill="#BBC4CA"/>
<path d="M125.43 122.533C124.715 122.533 124.026 122.533 123.311 122.533C122.648 119.848 122.342 117.138 122.342 114.478C122.342 109.463 123.49 104.524 125.736 99.8125C134.233 102.903 142.705 105.993 151.178 105.993C156.664 105.993 162.176 104.701 167.662 101.256C169.755 103.941 171.771 106.753 173.378 109.742C159.292 118.024 141.863 122.558 125.43 122.558V122.533Z" fill="#BBC4CA"/>
<path d="M155.566 147.812C141.199 147.609 129.41 138.87 124.281 125.699H124.842C142.195 125.699 159.726 121.317 174.756 112.604C175.573 114.554 176.338 116.53 176.951 118.556C165.289 124.306 160.185 136.591 155.592 147.837L155.566 147.812Z" fill="#BBC4CA"/>
<path d="M155.566 147.812C141.199 147.609 129.41 138.87 124.281 125.699H124.842C142.195 125.699 159.726 121.317 174.756 112.604C175.573 114.554 176.338 116.53 176.951 118.556C165.289 124.306 160.185 136.591 155.592 147.837L155.566 147.812Z" fill="#BBC4CA"/>
<path d="M181.748 135.78C181.799 134.742 181.825 133.703 181.825 132.665C181.825 128.511 181.417 124.407 180.498 120.304C183.305 119.392 186.24 118.886 189.2 118.632C188 125.598 185.806 130.334 181.748 135.806V135.78Z" fill="#BBC4CA"/>
<path d="M181.748 135.78C181.799 134.742 181.825 133.703 181.825 132.665C181.825 128.511 181.417 124.407 180.498 120.304C183.305 119.392 186.24 118.886 189.2 118.632C188 125.598 185.806 130.334 181.748 135.806V135.78Z" fill="#BBC4CA"/>
<path d="M165.901 98.7992C161.002 101.763 156.077 102.877 151.101 102.877C143.19 102.877 135.203 100.015 127.318 97.1275C128.696 94.9238 130.252 92.7962 132.013 90.8965C132.166 90.8965 132.319 90.8965 132.498 90.8965C137.576 90.8965 145.742 94.6199 149.825 96.8995L150.029 96.6715C138.239 82.7658 107.822 80.4608 88.1215 80.4608C86.1565 80.4608 84.2937 80.4608 82.584 80.5114C90.1629 78.6117 98.6095 77.5732 107.286 77.5732C129.104 77.5732 152.249 84.0322 165.901 98.7992V98.7992Z" fill="#BBC4CA"/>
<path d="M165.901 98.7992C161.002 101.763 156.077 102.877 151.101 102.877C143.19 102.877 135.203 100.015 127.318 97.1275C128.696 94.9238 130.252 92.7962 132.013 90.8965C132.166 90.8965 132.319 90.8965 132.498 90.8965C137.576 90.8965 145.742 94.6199 149.825 96.8995L150.029 96.6715C138.239 82.7658 107.822 80.4608 88.1215 80.4608C86.1565 80.4608 84.2937 80.4608 82.584 80.5114C90.1629 78.6117 98.6095 77.5732 107.286 77.5732C129.104 77.5732 152.249 84.0322 165.901 98.7992V98.7992Z" fill="#BBC4CA"/>
<path d="M177.563 139.985C172.204 144.493 165.85 146.849 158.909 147.685C163.069 137.578 167.407 126.636 177.869 121.672C178.405 124.61 178.737 127.624 178.737 130.638C178.737 133.652 178.38 136.945 177.563 139.985V139.985Z" fill="#BBC4CA"/>
<path d="M177.563 139.985C172.204 144.493 165.85 146.849 158.909 147.685C163.069 137.578 167.407 126.636 177.869 121.672C178.405 124.61 178.737 127.624 178.737 130.638C178.737 133.652 178.38 136.945 177.563 139.985V139.985Z" fill="#BBC4CA"/>
<path d="M150.157 71.5704L156.179 69.4681L160.772 74.6353L160.236 67.8976L166.08 65.3647L159.726 63.313L158.731 56.5754L155.337 62.0466L148.906 60.4002L153.168 65.846L150.157 71.5704Z" fill="#BBC4CA"/>
<path d="M118.029 76.4083L122.214 74.3566L125.71 77.4468L125.021 72.8622L129.053 70.5319L124.434 69.7467L123.464 65.238L121.295 69.3414L116.651 68.8855L119.917 72.1783L118.029 76.4083Z" fill="white"/>
<path d="M70.9221 85.6282L73.6781 84.2604L75.9747 86.2867L75.5154 83.2725L78.1693 81.7528L75.1326 81.2209L74.4946 78.2573L73.0656 80.9422L70.0034 80.6383L72.147 82.8166L70.9221 85.6282Z" fill="white"/>
<path d="M175.215 126.965V126.408L171.311 132.867L172.434 127.168L172.153 127.041C166.463 133.906 164.268 138.82 162.507 144.899L162.431 145.177L162.711 145.076C169.116 142.872 172.408 140.339 173.761 139.25H173.786V139.2C174.756 137.148 175.215 132.994 175.215 127.928C175.215 127.599 175.215 127.269 175.215 126.94V126.965Z" fill="#0077C0"/>
<path d="M162.201 111.996C155.974 113.262 148.727 113.997 142.067 113.997C141.072 113.997 140.077 113.997 139.107 113.946L153.372 109.742V109.438C143.904 109.007 136.632 108.83 127.419 104.524L127.292 104.473L127.215 104.6C125.837 107.031 125.072 110.451 125.072 113.921C125.072 115.897 125.327 117.872 125.863 119.696V119.797H126.016C126.016 119.797 126.348 119.797 126.96 119.797C131.069 119.797 147.987 119.341 162.303 112.249L162.201 111.945V111.996Z" fill="#0077C0"/>
<path d="M165.34 123.496C158.144 128.815 152.734 133.095 142.118 135.071C151.943 130.005 158.552 126.51 164.727 120.279L164.523 120.025C153.525 126.383 139.209 129.093 129.129 129.473H128.849L129.002 129.701C137.321 142.771 147.834 143.936 151.254 143.936C151.968 143.936 152.351 143.886 152.377 143.886H152.453L152.504 143.81C156.97 136.819 159.802 130.056 165.544 123.698L165.34 123.47V123.496Z" fill="#0077C0"/>
<path fill-rule="evenodd" clip-rule="evenodd" d="M183.917 98.5715C182.973 99.5847 182.054 100.471 181.136 101.307C180.115 99.1034 178.89 97.0011 177.512 95.0001C178.227 94.1389 178.941 93.227 179.605 92.2898C181.391 94.2402 182.922 96.5198 183.943 98.5715M187.745 112.427C186.648 112.579 185.601 112.731 184.581 112.959C184.351 111.337 184.019 109.716 183.611 108.121C184.708 107.209 185.78 106.272 186.826 105.258C187.439 107.614 187.694 109.818 187.719 112.427M184.172 127.219V126.662C184.606 124.382 184.861 122.102 184.938 119.873C185.55 119.722 186.163 119.595 186.775 119.468C186.112 122.254 185.295 124.787 184.172 127.219ZM157.99 79.9798C157.48 79.7012 156.944 79.4479 156.383 79.1946C164.88 81.7022 170.622 84.9443 173.812 87.4266C173.327 88.1612 172.766 88.8451 172.204 89.5289C168.274 85.4763 163.477 82.1834 157.99 79.9545" fill="white"/>
</g>
</g>
<defs>
<clipPath id="clip0_38_40397">
<rect width="200" height="200" fill="white"/>
</clipPath>
<clipPath id="clip1_38_40397">
<rect width="197.333" height="111.12" fill="white" transform="translate(1.3335 44.7466)"/>
</clipPath>
</defs>
</svg>
