<svg width="200" height="200" viewBox="0 0 200 200" fill="none" xmlns="http://www.w3.org/2000/svg">
<g clip-path="url(#clip0_38_40375)">
<g clip-path="url(#clip1_38_40375)">
<path d="M125.261 92.7178L125.47 74.9742C125.455 66.6422 116.927 65.2434 110.644 65.3499C114.863 63.9358 119.935 61.5031 123.615 57.474C127.475 53.8553 130.213 48.7618 129.749 41.6006C128.941 29.5587 114.13 23.5681 89.579 25.9856C89.175 26.0313 88.7711 26.0617 88.3821 26.1073C87.2301 17.2127 85.4348 8.5918 82.7119 0.639893L81.5001 1.87145C78.2386 12.1648 76.2788 20.36 75.1567 27.9774C60.51 30.547 50.2319 33.9527 50.2319 33.9527L49.0201 35.1843C49.0201 35.1843 60.8691 34.0896 74.3787 34.2872C72.8826 49.887 74.4087 64.7113 74.3638 92.7026C52.5508 92.0792 33.4009 95.7587 28.7182 101.688C27.1772 102.981 26.3543 104.395 26.4142 105.915C26.6536 112.696 46.4917 118.93 74.3638 121.317L75.5457 159.8L76.7575 158.568L78.7174 132.477C78.7174 132.052 78.7772 131.687 78.852 131.383C79.4355 131.459 79.9891 132.219 79.9891 133.557L80.8568 167.919L82.0686 166.687L84.1482 138.711C84.1482 138.088 84.208 137.571 84.3277 137.16C84.9112 137.267 85.4647 138.149 85.4199 139.715L86.3773 175.551L87.5892 174.32L89.2498 122.169C92.4515 122.275 95.7279 122.336 99.0492 122.336C102.58 122.336 106.051 122.275 109.447 122.154L111.138 176.524L112.349 175.293L113.786 146.845C113.786 146.283 113.846 145.796 113.95 145.416C114.504 145.538 115.012 146.374 114.997 147.849L116.449 187.745L117.661 186.514L119.127 152.045C119.142 151.559 119.216 151.133 119.321 150.799C120.024 150.799 120.728 151.635 120.757 153.277L121.969 198.966L123.181 197.735L124.946 121.226C148.779 119.113 166.867 114.232 171.34 108.622C172.821 107.344 173.629 106.037 173.629 104.699C173.3 97.2487 151.248 91.4862 125.291 92.733M74.1244 113.244C55.0343 111.374 42.1231 107.436 42.1231 102.449C42.1231 102.084 42.2278 101.734 42.4223 101.399C46.8956 98.2066 60.6147 96.1844 74.3638 94.0862C74.3488 99.5598 74.259 105.52 74.0945 112.088L74.1244 113.229V113.244ZM113.023 46.4052C113.756 51.8939 112.2 56.0448 109.417 59.1769C104.435 63.7686 96.6255 65.8668 90.2672 66.8095C90.3719 56.4401 90.2223 45.6906 89.3396 35.1387C101.608 36.4767 112.125 39.6088 113.023 46.4204M109.447 114.293C106.455 114.384 103.388 114.43 100.261 114.43C96.5807 114.43 92.9901 114.369 89.5042 114.247L89.6388 109.823C89.3097 98.6171 89.9979 84.5682 90.2223 69.5463C99.1689 70.5954 109.956 73.1953 109.761 79.5812L109.432 114.293H109.447ZM156.948 105.642C152.504 109.215 140.67 111.967 125.036 113.381L125.261 94.299C143.139 96.6709 157.651 99.3317 157.651 103.68C157.651 104.349 157.412 105.018 156.948 105.642" fill="#061922"/>
<path d="M173.6 104.684C173.271 97.2335 151.218 91.471 125.261 92.7178L125.471 74.9743C125.441 63.9967 110.645 65.061 105.648 65.73C111.467 64.6657 130.946 59.7242 129.735 41.6006C128.927 29.5587 114.116 23.5681 89.5647 25.9856C89.1608 26.0313 88.7568 26.0617 88.3678 26.1073C87.2159 17.2127 85.4206 8.5918 82.6977 0.639893C79.2866 11.4046 77.2968 19.8887 76.1897 27.795C60.9745 30.3797 50.2176 33.9528 50.2176 33.9528C50.2176 33.9528 62.0666 32.858 75.5763 33.0557C74.0503 48.8987 75.6511 63.9207 75.5613 92.7482C49.7538 91.8207 27.3424 96.9294 27.6267 104.684C27.8511 111.465 47.7042 117.714 75.5763 120.086L76.7582 158.553L78.7181 132.462C78.7779 129.224 81.2016 129.528 81.2016 132.31L82.0693 166.672L84.1489 138.696C84.119 134.925 86.7072 135.093 86.6324 138.483L87.5899 174.305L89.2954 120.907C92.8711 121.028 96.5365 121.104 100.262 121.104C103.793 121.104 107.248 121.044 110.66 120.922L112.35 175.278L113.786 146.83C113.801 143.196 116.225 143.394 116.21 146.602L117.661 186.499L119.127 152.03C119.232 148.64 121.91 148.792 121.97 152.03L123.182 197.719L124.962 120.131V120.086C153.163 117.714 173.615 111.465 173.615 104.668M114.22 45.1736C116.21 60.226 101.1 65.1826 90.2529 66.8095C90.3726 55.9992 90.208 44.7631 89.2206 33.7703C102.042 35.0171 113.293 38.134 114.235 45.1888M42.1088 102.433C42.1088 97.8417 58.8201 95.409 75.5613 92.8546C75.5464 98.3282 75.4566 104.288 75.292 110.857L75.3668 113.35C55.5886 111.526 42.1088 107.527 42.1088 102.449M89.5049 114.232L89.6395 109.808C89.2954 98.2674 90.0435 83.7016 90.238 68.1779C99.379 69.1358 111.168 71.6597 110.974 78.3496L110.645 114.247C107.278 114.354 103.807 114.414 100.262 114.414C96.716 114.414 92.9908 114.354 89.5049 114.232M125.037 113.365L125.276 92.885C143.708 95.3025 158.863 97.9785 158.863 102.433C158.863 107.542 145.055 111.556 125.037 113.365Z" fill="#CE1141"/>
</g>
</g>
<defs>
<clipPath id="clip0_38_40375">
<rect width="200" height="200" fill="white"/>
</clipPath>
<clipPath id="clip1_38_40375">
<rect width="147.2" height="198.311" fill="white" transform="translate(26.3999 0.639893)"/>
</clipPath>
</defs>
</svg>
