<svg width="200" height="200" viewBox="0 0 200 200" fill="none" xmlns="http://www.w3.org/2000/svg">
<g clip-path="url(#clip0_38_40413)">
<g clip-path="url(#clip1_38_40413)">
<path d="M100.171 4.17908H100.016C47.1471 4.17908 4.27309 46.984 4.17969 99.8443V99.9999C4.17969 152.86 47.0226 195.727 99.8912 195.79H100.016C152.884 195.79 195.758 152.954 195.821 100.093V99.9688C195.821 47.1397 153.009 4.27247 100.171 4.14795" fill="white"/>
<path d="M198 99.7821C197.875 45.7389 154.036 2 100.016 2H99.7976C45.7458 2.12452 2 45.9568 2 99.9377V100.093C2.06227 154.168 45.9015 197.938 99.9844 197.969H100.109C154.192 197.907 197.969 154.074 198 100.031C198 100 198 99.9689 198 99.9066C198 99.9066 198 99.8755 198 99.751M195.82 100.031V100.093C195.758 152.954 152.884 195.79 100.016 195.79H99.891C46.9913 195.727 4.17951 152.86 4.17951 100V99.8443C4.27291 46.9841 47.1469 4.17916 100.016 4.17916H100.171C153.04 4.27255 195.82 47.1398 195.82 100V100.062V100.031Z" fill="#C4CED4"/>
<path d="M67.9766 78.2395C77.94 68.2776 82.1122 56.6658 82.1122 56.6658L84.3229 48.5717L84.8522 46.6728L74.6396 40.9758C74.6396 40.9758 68.6927 36.8354 55.3977 44.5559C39.8298 53.7395 27.1575 65.6003 20.5878 78.2083C16.945 85.1817 14.0805 93.2134 12.5859 102.366C13.053 119.644 18.5017 135.707 27.5934 149.093C25.0091 124.189 49.0771 96.8869 67.9454 78.2395" fill="#002B5C"/>
<path d="M144.727 44.5559C131.432 36.8354 125.485 40.9758 125.485 40.9758L115.304 46.6728L115.833 48.5717L118.044 56.6658C118.044 56.6658 122.216 68.3087 132.179 78.2395C150.985 96.8246 174.96 124.002 172.562 148.875C181.685 135.334 187.134 119.114 187.445 101.619C185.92 92.8087 183.086 85.026 179.568 78.2395C172.998 65.6315 160.326 53.7706 144.758 44.587" fill="#002B5C"/>
<path d="M112.75 29.613C147.716 33.5666 170.663 53.397 182.525 70.9859C173.589 45.6143 153.289 25.566 127.726 17.0361C122.091 18.7172 115.832 22.2039 112.75 29.613" fill="#E31937"/>
<path d="M87.4052 29.6131C84.2916 22.1729 78.0022 18.6551 72.3355 17.0051C46.6173 25.5972 26.1922 45.8012 17.3496 71.4219C29.1189 53.7396 52.1906 33.5979 87.4052 29.6443" fill="#E31937"/>
<path d="M93.1342 28.6481L100.077 18.4372L107.021 28.6481C109.792 21.0522 114.213 16.8495 118.603 14.5458C112.625 13.2695 106.46 12.5535 100.109 12.5535C93.7257 12.5535 87.5297 13.2383 81.5205 14.5458C85.9418 16.8184 90.3319 21.0211 93.1342 28.6481" fill="#E31937"/>
<path d="M147.591 105.23C133.362 82.2243 101.105 59.0007 100.078 58.2847C99.0813 59.0007 66.7935 82.2243 52.5955 105.23C33.4159 136.268 35.9067 154.168 40.8573 164.379C53.2183 175.741 68.8796 183.586 86.2222 186.357L93.6948 80.3565L99.922 74.0992L100.015 74.0058L100.109 74.0992L106.336 80.3565L113.871 186.264L113.777 186.326C131.245 183.555 147.03 175.648 159.454 164.161C164.342 153.919 166.646 136.05 147.622 105.261" fill="#002B5C"/>
<path d="M106.336 80.3564L100.078 74.0991L100.172 194.078L113.747 186.326L113.84 186.264L106.336 80.3564Z" fill="#C4CED4"/>
<path d="M100.047 50.2529L97.3382 52.2452L85.9425 60.6506L88.9315 49.817L89.4297 47.9492L90.426 44.3069L87.1256 42.5324L76.3838 36.7421C81.8014 35.5591 87.3125 34.7808 92.9169 34.4072L95.6569 34.2516L95.7814 34.0337L96.8712 31.7922L97.0268 31.4498L100.078 25.2236L103.223 31.6366L103.285 31.7922L104.375 34.0337L104.499 34.2516L107.239 34.4072C112.813 34.7497 118.355 35.528 123.773 36.7421L113.062 42.5324L109.73 44.3069L110.727 47.9492L111.256 49.817L114.245 60.6506L102.849 52.2452L100.14 50.2529V50.1906H100.078V50.2529H100.047Z" fill="#C4CED4"/>
<path d="M100.109 50.1905V50.2527L102.818 52.2451L114.213 60.6505L111.224 49.8169L110.695 47.9491L109.699 44.3067L112.999 42.5323L123.71 36.7419C118.292 35.559 112.781 34.7807 107.177 34.4071L104.437 34.2203L104.312 34.0024L103.222 31.761L103.16 31.6053L99.9843 25.1924L96.933 31.4186L96.7462 31.761L95.6564 34.0024L95.5319 34.2203L92.7919 34.4071C87.2186 34.7496 81.6764 35.5278 76.2588 36.7419L87.0006 42.5323L90.301 44.3067L89.3047 47.9491L88.8065 49.8169L85.8175 60.6505L97.2132 52.2451L99.922 50.2527V50.1905H99.9843H100.109Z" fill="#C4CED4"/>
</g>
</g>
<defs>
<clipPath id="clip0_38_40413">
<rect width="200" height="200" fill="white"/>
</clipPath>
<clipPath id="clip1_38_40413">
<rect width="196" height="196" fill="white" transform="translate(2 2)"/>
</clipPath>
</defs>
</svg>
