<svg width="200" height="200" viewBox="0 0 200 200" fill="none" xmlns="http://www.w3.org/2000/svg">
<g clip-path="url(#clip0_38_40407)">
<g clip-path="url(#clip1_38_40407)">
<path fill-rule="evenodd" clip-rule="evenodd" d="M155.464 5.91309L144.219 26.1569L142.279 42.3463L122.208 78.6081H95.952L115.546 43.4313V5.91309H95.193L84.4264 25.9856L82.5991 42.3463L54.01 94.0836L58.7889 106.304H76.6114L68.5154 127.148L53.3353 110.473L55.1063 134.942L28.8223 136.056L49.7371 150.989L34.8381 173.546L58.8732 165.551L68.7965 189.735L76.3303 163.381L103.148 170.405L85.8319 150.075L107.14 132.201L85.1573 133.6L108.939 106.304H140.255L174.917 43.8881V5.91309H155.464Z" fill="white"/>
<path d="M57.8052 167.921L30.228 177.086L47.151 151.474L23.2002 134.371L53.0825 133.086L51.0585 105.133L67.869 123.578L73.8567 108.189H57.5522L51.958 93.9408L80.7721 41.7466L82.5993 25.3859L94.0687 4H117.429V43.9166L99.185 76.695H121.112L140.452 41.718L142.42 25.5572L153.833 4.97079L154.367 4H176.8V44.3734L141.352 108.189H109.783L89.5709 131.373L112.791 129.917L88.5027 150.304L108.518 173.774L77.6236 165.694L69.0778 195.474L57.7771 167.921H57.8052Z" fill="white"/>
<path fill-rule="evenodd" clip-rule="evenodd" d="M155.464 5.91309L144.219 26.1569L142.279 42.3463L122.208 78.6081H95.952L115.546 43.4313V5.91309H95.193L84.4264 25.9856L82.5991 42.3463L54.01 94.0836L58.7889 106.304H76.6114L68.5154 127.148L53.3353 110.473L55.1063 134.942L28.8223 136.056L49.7371 150.989L34.8381 173.546L58.8732 165.551L68.7965 189.735L76.3303 163.381L103.148 170.405L85.8319 150.075L107.14 132.201L85.1573 133.6L108.939 106.304H140.255L174.917 43.8881V5.91309H155.464Z" fill="#061922"/>
<path fill-rule="evenodd" clip-rule="evenodd" d="M151.275 23.9584H160.749L167.383 11.3667H158.219L151.275 23.9584Z" fill="#C4CED4"/>
<path fill-rule="evenodd" clip-rule="evenodd" d="M91.5391 23.987L101.772 23.9584L108.293 11.3667H98.4263L91.5391 23.987Z" fill="#C4CED4"/>
<path fill-rule="evenodd" clip-rule="evenodd" d="M89.1211 39.862L98.3416 39.8905L99.1849 29.0691H90.2737L89.1211 39.862Z" fill="#C4CED4"/>
<path fill-rule="evenodd" clip-rule="evenodd" d="M148.633 39.862L157.853 39.8905L158.725 29.0691H149.785L148.633 39.862Z" fill="#C4CED4"/>
<path fill-rule="evenodd" clip-rule="evenodd" d="M146.664 46.3435L125.862 83.519H75.9646L96.7669 46.3435H86.9842L61.8808 91.3425H89.711L68.5994 139.282L59.8568 129.432L60.3347 141.053L46.251 141.824L57.5798 149.932L49.5119 162.153L62.5274 157.842L67.8967 170.947L72.0009 156.671L86.5344 160.468L77.1453 149.447L88.699 139.768L70.8765 140.567L103.682 91.371H131.569L156.222 46.3721H146.608L146.664 46.3435ZM65.0293 152.759C62.6961 152.759 60.8126 150.846 60.8126 148.476C60.8126 146.106 62.6961 144.193 65.0293 144.193C67.3625 144.193 69.246 146.106 69.246 148.476C69.246 150.846 67.3625 152.759 65.0293 152.759" fill="#C4CED4"/>
</g>
</g>
<defs>
<clipPath id="clip0_38_40407">
<rect width="200" height="200" fill="white"/>
</clipPath>
<clipPath id="clip1_38_40407">
<rect width="153.6" height="191.474" fill="white" transform="translate(23.2002 4)"/>
</clipPath>
</defs>
</svg>
