<svg width="200" height="200" viewBox="0 0 200 200" fill="none" xmlns="http://www.w3.org/2000/svg">
<g clip-path="url(#clip0_38_40403)">
<g clip-path="url(#clip1_38_40403)">
<path d="M167.978 55.5864C165.069 51.3842 161.734 47.4174 158.046 43.8309C156.453 42.2732 154.785 40.7698 153.062 39.3389L189.231 4H83.8929L43.2215 43.7404C43.2215 43.7404 43.1659 43.7947 43.1289 43.8309C39.4601 47.4174 36.1063 51.3842 33.2158 55.5864C30.2882 59.8249 27.7683 64.3713 25.7301 69.0808C21.4869 78.88 19.3375 89.277 19.3375 100C19.3375 110.723 21.4869 121.12 25.7301 130.919C27.7683 135.629 30.2882 140.157 33.2158 144.414C36.1249 148.616 39.4601 152.583 43.1289 156.169C44.7224 157.727 46.39 159.23 48.1317 160.661L12 196H117.319L158.139 156.097C161.789 152.528 165.106 148.598 167.978 144.414C170.905 140.175 173.425 135.629 175.464 130.919C179.707 121.12 181.856 110.723 181.856 100C181.856 89.277 179.707 78.88 175.464 69.0808C173.425 64.3713 170.905 59.843 167.978 55.5864" fill="#061922"/>
<path d="M153.303 48.3955C151.709 46.8377 150.06 45.3705 148.374 43.9758L104.164 87.1939C106.35 87.7917 108.388 88.9328 110.111 90.5992C115.448 95.8339 115.448 104.293 110.111 109.509L28.2129 189.588H37.811L114.911 114.219C122.878 106.43 122.897 93.8234 114.985 85.9985L119.784 81.3072C130.345 91.7041 130.327 108.513 119.71 118.892L47.3905 189.588H56.9886L124.49 123.601C137.757 110.632 137.775 89.6211 124.564 76.6339L129.363 71.9426C145.224 87.52 145.206 112.734 129.289 128.293L66.5866 189.588H76.1847L134.088 132.984C152.654 114.835 152.673 85.4188 134.162 67.2513L138.961 62.56C160.121 83.3177 160.103 116.936 138.887 137.675L85.7828 189.588H95.3808L143.705 142.349C167.57 119.019 167.589 81.2166 143.779 57.8505L148.615 53.123C175.093 79.0792 175.074 121.12 148.541 147.058L105.053 189.57H114.651L153.34 151.749H153.321C182.523 123.185 182.523 76.9238 153.321 48.3773" fill="white"/>
<path d="M47.9463 151.659C49.5398 153.216 51.1889 154.684 52.875 156.078L97.0855 112.86C94.899 112.263 92.8608 111.121 91.1376 109.455C85.8012 104.22 85.8012 95.7614 91.1376 90.5448L173.147 10.3757H163.549L86.3386 85.8535C78.3711 93.6421 78.3526 106.249 86.2645 114.074L81.4654 118.765C70.9039 108.368 70.9224 91.5591 81.5395 81.1803L153.97 10.3757H144.372L76.759 76.4708C63.4922 89.4399 63.4737 110.451 76.6849 123.438L71.8859 128.13C56.025 112.552 56.0435 87.3387 71.96 71.7795L134.774 10.3757H125.176L67.161 67.0882C48.5948 85.2376 48.5763 114.653 67.0869 132.821L62.2878 137.512C41.1276 116.755 41.1461 83.1365 62.3619 62.3969L115.577 10.3757H105.979L57.5629 57.7055C33.6974 81.0354 33.6789 118.838 57.4888 142.204L52.6527 146.931C26.1746 120.975 26.1932 78.9342 52.7268 52.9961L96.3258 10.3757H86.7277L47.9278 48.3048H47.9463C18.7445 76.8693 18.7445 123.13 47.9463 151.677" fill="#E03A3E"/>
</g>
</g>
<defs>
<clipPath id="clip0_38_40403">
<rect width="200" height="200" fill="white"/>
</clipPath>
<clipPath id="clip1_38_40403">
<rect width="177.231" height="192" fill="white" transform="translate(12 4)"/>
</clipPath>
</defs>
</svg>
